<svg width="120" height="120" viewBox="0 0 120 120" fill="none" xmlns="http://www.w3.org/2000/svg">
<g clip-path="url(#clip0_46_61)">
<path d="M60.0001 0.856934C48.3027 0.856934 36.868 4.3256 27.142 10.8243C17.4161 17.323 9.83557 26.5599 5.35919 37.3668C0.882803 48.1737 -0.288422 60.0654 1.99362 71.538C4.27566 83.0106 9.90847 93.5488 18.1797 101.82C26.451 110.091 36.9893 115.724 48.4619 118.006C59.9345 120.288 71.8261 119.117 82.633 114.641C93.44 110.164 102.677 102.584 109.176 92.8578C115.674 83.1318 119.143 71.6971 119.143 59.9998C119.125 44.3197 112.888 29.287 101.8 18.1995C90.7128 7.11201 75.6801 0.875082 60.0001 0.856934ZM60.0001 115.714C48.9808 115.714 38.209 112.446 29.0469 106.325C19.8847 100.203 12.7437 91.5012 8.52677 81.3207C4.30989 71.1403 3.20656 59.938 5.35631 49.1305C7.50606 38.323 12.8123 28.3956 20.6041 20.6038C28.3959 12.8121 38.3232 7.50579 49.1307 5.35604C59.9383 3.20629 71.1405 4.30962 81.321 8.5265C91.5014 12.7434 100.203 19.8844 106.325 29.0466C112.447 38.2088 115.714 48.9805 115.714 59.9998C115.696 74.7706 109.82 88.9312 99.376 99.3757C88.9314 109.82 74.7708 115.696 60.0001 115.714Z" fill="white"/>
<g clip-path="url(#clip1_46_61)">
<path d="M80.5574 40C76.0981 40 71.2152 42.4249 66.0647 47.208C63.6343 49.455 61.4939 51.9021 59.9331 53.8376C59.9331 53.8376 62.4303 56.7075 65.1728 59.7998C66.6667 57.931 68.7848 55.3949 71.2597 53.1034C75.8305 48.832 78.8183 47.9644 80.5351 47.9644C86.9565 47.9644 92.1739 53.3482 92.1739 60C92.1739 66.5851 86.9565 71.9689 80.5351 72.0356C80.223 72.0356 79.8662 71.9911 79.4203 71.9021C81.2932 72.7697 83.3222 73.3927 85.2174 73.3927C96.99 73.3927 99.3088 65.2725 99.4426 64.6941C99.777 63.2036 99.9777 61.6463 99.9777 60.0445C99.9554 48.9878 91.2598 40 80.5574 40Z" fill="white"/>
<path d="M39.4203 80.0001C43.8796 80.0001 48.7625 77.5752 53.913 72.7921C56.3434 70.5452 58.4838 68.098 60.0446 66.1625C60.0446 66.1625 57.5474 63.2927 54.8049 60.2003C53.311 62.0691 51.1929 64.6052 48.718 66.8967C44.1472 71.1236 41.1371 72.0357 39.4426 72.0357C33.0212 72.0357 27.8038 66.652 27.8038 60.0001C27.8038 53.415 33.0212 48.0313 39.4426 47.9645C39.7547 47.9645 40.1115 48.009 40.5574 48.098C38.6845 47.2304 36.6555 46.6075 34.7603 46.6075C22.9877 46.5852 20.6689 54.7054 20.5351 55.306C20.2007 56.7966 20 58.3539 20 59.9556C20 71.0124 28.6957 80.0001 39.4203 80.0001Z" fill="white"/>
<path fill-rule="evenodd" clip-rule="evenodd" d="M48.3835 53.2814C47.0903 52.0356 40.8027 46.941 34.7827 46.7631C24.0357 46.4961 20.8919 54.2825 20.6021 55.2836C22.6756 46.5628 30.3456 40.0445 39.4426 40C46.8674 40 54.3813 47.2747 59.9332 53.8376L59.9555 53.8153C59.9555 53.8153 62.4527 56.6852 65.1951 59.7775C65.1951 59.7775 68.3167 63.4483 71.6165 66.6741C72.9097 67.9199 79.1751 72.9477 85.1951 73.1257C96.2319 73.4371 99.2866 65.2058 99.4426 64.5829C97.4136 73.3704 89.7213 79.911 80.5798 79.9555C73.155 79.9555 65.6411 72.6808 60.0669 66.1179C60.0669 66.1402 60.0446 66.1402 60.0446 66.1624C60.0446 66.1624 57.5474 63.2925 54.805 60.2002C54.8272 60.2002 51.7057 56.5072 48.3835 53.2814Z" fill="white"/>
</g>
</g>
<defs>
<clipPath id="clip0_46_61">
<rect width="120" height="120" fill="white"/>
</clipPath>
<clipPath id="clip1_46_61">
<rect width="80" height="40" fill="white" transform="translate(20 40)"/>
</clipPath>
</defs>
</svg>
