<svg width="177" height="139" viewBox="0 0 177 139" fill="none" xmlns="http://www.w3.org/2000/svg">
<path d="M112.1 85.8C131 86.6 148.9 88.6 163.8 91.6C164.4 91.7 169.3 92.6 169.3 90.4C169.3 88.5 167 87.7 164.7 87.3C149.6 84.5 131.6 82.3 112.6 81.4C111.8 81.4 107.6 81.5 107.4 83.5C107.1 85.5 111.2 85.8 112.1 85.8Z" fill="url(#paint0_linear_175_57)"/>
<path d="M168 125.9C159 127.8 153 128.3 144.5 129.3C129.1 130.7 128.3 126.5 138.8 124.6C139.5 124.5 140.2 124.4 140.9 124.3H141C162.8 120.7 177 115 177 108.6C177 98.5 142.1 90.1 97.4 89.1C95.7 89.1 94.6 91 95.6 92.4C96 92.9 96.6 93.3 97.3 93.3C131.5 94.1 157.9 99.6 157.9 106.3C157.9 113.5 126.9 119.4 88.6 119.4C50.3 119.4 19.3 113.5 19.3 106.3C19.3 99.6 45.7 94.1 79.9 93.3C80.6 93.3 81.3 92.9 81.6 92.3C82.5 90.9 81.3 89 79.7 89.1C35 90.1 0.100006 98.4 0.100006 108.6C0.100006 115.3 15.5 121.3 38.9 124.8C44.4 125.6 48.7 130.6 29.9 129.1C24.6 128.5 19.5 127.8 14.7 127C6.8 125.7 1.59999 130.3 12.9 133C33.7 137.9 60.2 138.8 88.5 138.8C117.8 138.8 142.8 136.7 166.2 132.7C177.3 130.6 182.2 122.9 168 125.9Z" fill="url(#paint1_linear_175_57)"/>
<path d="M14.4 93.4C29 89.9 46.9 88.4 66.3 86.2C69.2 85.9 71.3 85.4 71.4 83.7C71.5 82 66.9 81.7 65.7 81.8C46.1 83 28 85.5 13.3 89.1C12.1 89.4 7.00002 90.9 7.60002 93.4C8.20002 95.8 13.4 93.6 14.4 93.4Z" fill="url(#paint2_linear_175_57)"/>
<path d="M130.5 104.8C130.5 108.6 111.7 111.6 88.4 111.6C65.2 111.6 46.3 108.6 46.3 104.8C46.3 101.7 59 100.7 76.1 98.3C87 96.7 86.6 78.8 74.7 74.6C60 68.9 49.7 54.5 50.1 37.8C50.6 17 67.9 0.199974 88.7 0.299974C98.7 0.299974 107.8 4.19999 114.6 10.5C116.9 12.6 116.7 16.2 114.3 18.1C114.3 18.1 114.2 18.1 114.2 18.2C112.3 19.8 109.5 19.6 107.7 17.9C102.3 13 95.1 10.1 87.1 10.5C72.6 11.2 60.9 23 60.2 37.5C59.9 44.9 62.3 51.7 66.7 56.9C71.9 63 88.7 65.4 93.1 54C98.7 39.5 107.5 43.2 105.9 49.4C103.7 57.6 111 58.3 115.8 46.5C120.6 34.6 128.2 36.5 126.2 46.3C123.6 59.4 114.4 70.4 102 74.8C87.1 80 91.8 97.2 100.5 98.3C117.8 100.5 130.5 101.8 130.5 104.8ZM119.3 18.9C116.9 18.9 115 20.8 115 23.2C115 25.6 116.9 27.5 119.3 27.5C121.7 27.5 123.6 25.6 123.6 23.2C123.5 20.8 121.6 18.9 119.3 18.9Z" fill="url(#paint3_linear_175_57)"/>
<defs>
<linearGradient id="paint0_linear_175_57" x1="138.305" y1="146.752" x2="138.305" y2="67.5684" gradientUnits="userSpaceOnUse">
<stop offset="0.1183" stop-color="#0062FF"/>
<stop offset="0.4821" stop-color="#008EFF"/>
<stop offset="0.9946" stop-color="#00D1FF"/>
</linearGradient>
<linearGradient id="paint1_linear_175_57" x1="88.4485" y1="146.743" x2="88.4485" y2="67.6498" gradientUnits="userSpaceOnUse">
<stop offset="0.1183" stop-color="#0062FF"/>
<stop offset="0.4821" stop-color="#008EFF"/>
<stop offset="0.9946" stop-color="#00D1FF"/>
</linearGradient>
<linearGradient id="paint2_linear_175_57" x1="39.5152" y1="146.753" x2="39.5152" y2="67.5683" gradientUnits="userSpaceOnUse">
<stop offset="0.1183" stop-color="#0062FF"/>
<stop offset="0.4821" stop-color="#008EFF"/>
<stop offset="0.9946" stop-color="#00D1FF"/>
</linearGradient>
<linearGradient id="paint3_linear_175_57" x1="88.4485" y1="136.469" x2="88.4485" y2="24.3115" gradientUnits="userSpaceOnUse">
<stop offset="0.1183" stop-color="#0062FF"/>
<stop offset="0.4821" stop-color="#008EFF"/>
<stop offset="0.9946" stop-color="#00D1FF"/>
</linearGradient>
</defs>
</svg>

