<svg width="569" height="139" viewBox="0 0 569 139" fill="none" xmlns="http://www.w3.org/2000/svg">
<path d="M112.1 85.8C131 86.6 148.9 88.6 163.8 91.6C164.4 91.7 169.3 92.6 169.3 90.4C169.3 88.5 167 87.7 164.7 87.3C149.6 84.5 131.6 82.3 112.6 81.4C111.8 81.4 107.6 81.5 107.4 83.5C107.1 85.5 111.2 85.8 112.1 85.8Z" fill="url(#paint0_linear_175_27)"/>
<path d="M168 125.9C159 127.8 153 128.3 144.5 129.3C129.1 130.7 128.3 126.5 138.8 124.6C139.5 124.5 140.2 124.4 140.9 124.3H141C162.8 120.7 177 115 177 108.6C177 98.5 142.1 90.1 97.4 89.1C95.7 89.1 94.6 91 95.6 92.4C96 92.9 96.6 93.3 97.3 93.3C131.5 94.1 157.9 99.6 157.9 106.3C157.9 113.5 126.9 119.4 88.6 119.4C50.3 119.4 19.3 113.5 19.3 106.3C19.3 99.6 45.7 94.1 79.9 93.3C80.6 93.3 81.3 92.9 81.6 92.3C82.5 90.9 81.3 89 79.7 89.1C35 90.1 0.100006 98.4 0.100006 108.6C0.100006 115.3 15.5 121.3 38.9 124.8C44.4 125.6 48.7 130.6 29.9 129.1C24.6 128.5 19.5 127.8 14.7 127C6.8 125.7 1.59999 130.3 12.9 133C33.7 137.9 60.2 138.8 88.5 138.8C117.8 138.8 142.8 136.7 166.2 132.7C177.3 130.6 182.2 122.9 168 125.9Z" fill="url(#paint1_linear_175_27)"/>
<path d="M14.4 93.4C29 89.9 46.9 88.4 66.3 86.2C69.2 85.9 71.3 85.4 71.4 83.7C71.5 82 66.9 81.7 65.7 81.8C46.1 83 28 85.5 13.3 89.1C12.1 89.4 7.00002 90.9 7.60002 93.4C8.20002 95.8 13.4 93.6 14.4 93.4Z" fill="url(#paint2_linear_175_27)"/>
<path d="M130.5 104.8C130.5 108.6 111.7 111.6 88.4 111.6C65.2 111.6 46.3 108.6 46.3 104.8C46.3 101.7 59 100.7 76.1 98.3C87 96.7 86.6 78.8 74.7 74.6C60 68.9 49.7 54.5 50.1 37.8C50.6 17 67.9 0.199974 88.7 0.299974C98.7 0.299974 107.8 4.19999 114.6 10.5C116.9 12.6 116.7 16.2 114.3 18.1C114.3 18.1 114.2 18.1 114.2 18.2C112.3 19.8 109.5 19.6 107.7 17.9C102.3 13 95.1 10.1 87.1 10.5C72.6 11.2 60.9 23 60.2 37.5C59.9 44.9 62.3 51.7 66.7 56.9C71.9 63 88.7 65.4 93.1 54C98.7 39.5 107.5 43.2 105.9 49.4C103.7 57.6 111 58.3 115.8 46.5C120.6 34.6 128.2 36.5 126.2 46.3C123.6 59.4 114.4 70.4 102 74.8C87.1 80 91.8 97.2 100.5 98.3C117.8 100.5 130.5 101.8 130.5 104.8ZM119.3 18.9C116.9 18.9 115 20.8 115 23.2C115 25.6 116.9 27.5 119.3 27.5C121.7 27.5 123.6 25.6 123.6 23.2C123.5 20.8 121.6 18.9 119.3 18.9Z" fill="url(#paint3_linear_175_27)"/>
<path d="M209.666 109.651C205.29 107.651 201.741 104.585 199.139 100.586C196.538 96.5864 195.118 91.7873 195 86.1884H214.633C214.87 89.3878 215.934 91.7873 217.59 93.387C219.246 94.9867 221.374 95.9199 224.095 95.9199C226.815 95.9199 228.944 95.2534 230.6 93.787C232.137 92.3206 232.965 90.4542 232.965 87.9214C232.965 85.7885 232.374 84.0555 231.073 82.7224C229.772 81.3893 228.234 80.1895 226.46 79.2564C224.568 78.3232 221.966 77.3901 218.654 76.1903C213.805 74.4573 209.784 72.7243 206.709 71.1246C203.634 69.3916 200.914 66.8587 198.666 63.526C196.419 60.1933 195.355 55.7942 195.355 50.4619C195.355 42.4634 197.957 36.3312 203.042 31.7987C208.128 27.2662 214.87 25 223.03 25C231.428 25 238.169 27.2662 243.255 31.7987C248.34 36.3312 251.06 42.5966 251.415 50.5951H231.427C231.309 47.7957 230.363 45.6627 228.707 44.063C227.051 42.4633 224.923 41.6635 222.321 41.6635C220.073 41.6635 218.299 42.33 216.88 43.6631C215.461 44.9962 214.87 46.9958 214.87 49.3954C214.87 52.1948 216.052 54.3278 218.299 55.7942C220.547 57.3939 224.213 58.9935 229.062 60.7265C233.911 62.5929 237.932 64.3259 241.007 66.0589C244.082 67.7919 246.684 70.1914 248.932 73.5241C251.179 76.7235 252.243 80.9894 252.243 86.0551C252.243 90.9875 251.179 95.3866 248.932 99.3859C246.684 103.385 243.491 106.585 239.352 108.851C235.212 111.25 230.245 112.317 224.568 112.317C219.009 112.717 214.042 111.65 209.666 109.651Z" fill="url(#paint4_linear_175_27)"/>
<path d="M295.057 95.7866H319.303V111.917H276.607V26.4664H295.057V95.7866Z" fill="url(#paint5_linear_175_27)"/>
<path d="M388.255 96.7197H359.988L355.494 111.784H336.097L363.536 26.3331H384.943L412.382 111.784H392.867L388.255 96.7197ZM383.524 80.7228L374.181 49.3954L364.837 80.7228H383.524Z" fill="url(#paint6_linear_175_27)"/>
<path d="M477.668 111.917L452.121 74.1907V111.917H433.671V26.4664H452.121V63.9259L477.431 26.4664H499.193L469.744 68.3251L500.258 111.917H477.668Z" fill="url(#paint7_linear_175_27)"/>
<path d="M540.47 42.9966V60.3266H565.188V76.4569H540.47V95.2533H568.5V111.917H522.02V26.4664H568.5V43.1299H540.47V42.9966Z" fill="url(#paint8_linear_175_27)"/>
<defs>
<linearGradient id="paint0_linear_175_27" x1="138.305" y1="146.752" x2="138.305" y2="67.5684" gradientUnits="userSpaceOnUse">
<stop offset="0.1183" stop-color="#0062FF"/>
<stop offset="0.4821" stop-color="#008EFF"/>
<stop offset="0.9946" stop-color="#00D1FF"/>
</linearGradient>
<linearGradient id="paint1_linear_175_27" x1="88.4485" y1="146.743" x2="88.4485" y2="67.6498" gradientUnits="userSpaceOnUse">
<stop offset="0.1183" stop-color="#0062FF"/>
<stop offset="0.4821" stop-color="#008EFF"/>
<stop offset="0.9946" stop-color="#00D1FF"/>
</linearGradient>
<linearGradient id="paint2_linear_175_27" x1="39.5152" y1="146.753" x2="39.5152" y2="67.5683" gradientUnits="userSpaceOnUse">
<stop offset="0.1183" stop-color="#0062FF"/>
<stop offset="0.4821" stop-color="#008EFF"/>
<stop offset="0.9946" stop-color="#00D1FF"/>
</linearGradient>
<linearGradient id="paint3_linear_175_27" x1="88.4485" y1="136.469" x2="88.4485" y2="24.3115" gradientUnits="userSpaceOnUse">
<stop offset="0.1183" stop-color="#0062FF"/>
<stop offset="0.4821" stop-color="#008EFF"/>
<stop offset="0.9946" stop-color="#00D1FF"/>
</linearGradient>
<linearGradient id="paint4_linear_175_27" x1="224.163" y1="25.1698" x2="223.145" y2="109.167" gradientUnits="userSpaceOnUse">
<stop offset="0.00537634" stop-color="#00D1FF"/>
<stop offset="0.5179" stop-color="#008EFF"/>
<stop offset="0.8817" stop-color="#0062FF"/>
</linearGradient>
<linearGradient id="paint5_linear_175_27" x1="298.336" y1="26.1349" x2="297.318" y2="110.132" gradientUnits="userSpaceOnUse">
<stop offset="0.00537634" stop-color="#00D1FF"/>
<stop offset="0.5179" stop-color="#008EFF"/>
<stop offset="0.8817" stop-color="#0062FF"/>
</linearGradient>
<linearGradient id="paint6_linear_175_27" x1="375.072" y1="27.0649" x2="374.053" y2="111.062" gradientUnits="userSpaceOnUse">
<stop offset="0.00537634" stop-color="#00D1FF"/>
<stop offset="0.5179" stop-color="#008EFF"/>
<stop offset="0.8817" stop-color="#0062FF"/>
</linearGradient>
<linearGradient id="paint7_linear_175_27" x1="467.36" y1="28.1834" x2="466.342" y2="112.18" gradientUnits="userSpaceOnUse">
<stop offset="0.00537634" stop-color="#00D1FF"/>
<stop offset="0.5179" stop-color="#008EFF"/>
<stop offset="0.8817" stop-color="#0062FF"/>
</linearGradient>
<linearGradient id="paint8_linear_175_27" x1="545.579" y1="29.1314" x2="544.561" y2="113.128" gradientUnits="userSpaceOnUse">
<stop offset="0.00537634" stop-color="#00D1FF"/>
<stop offset="0.5179" stop-color="#008EFF"/>
<stop offset="0.8817" stop-color="#0062FF"/>
</linearGradient>
</defs>
</svg>

