<svg width="451" height="139" viewBox="0 0 451 139" fill="none" xmlns="http://www.w3.org/2000/svg">
<path d="M112 85.5005C130.9 86.3005 148.8 88.3005 163.7 91.3005C164.3 91.4005 169.2 92.3005 169.2 90.1005C169.2 88.2005 166.9 87.4005 164.6 87.0005C149.5 84.2005 131.5 82.0005 112.5 81.1005C111.7 81.1005 107.5 81.2005 107.3 83.2005C107 85.2005 111.1 85.5005 112 85.5005Z" fill="url(#paint0_linear_423_27)"/>
<path d="M167.9 125.6C158.9 127.5 152.9 128 144.4 129C129 130.4 128.2 126.2 138.7 124.3C139.4 124.2 140.1 124.1 140.8 124H140.9C162.7 120.4 176.9 114.7 176.9 108.3C176.9 98.2005 142 89.8005 97.3 88.8005C95.6 88.8005 94.5 90.7005 95.5 92.1005C95.9 92.6005 96.5 93.0005 97.2 93.0005C131.4 93.8005 157.8 99.3005 157.8 106C157.8 113.2 126.8 119.1 88.5 119.1C50.2 119.1 19.2 113.2 19.2 106C19.2 99.3005 45.6 93.8005 79.8 93.0005C80.5 93.0005 81.2 92.6005 81.5 92.0005C82.4 90.6005 81.2 88.7005 79.6 88.8005C34.9 89.8005 0 98.1005 0 108.3C0 115 15.4 121 38.8 124.5C44.3 125.3 48.6 130.3 29.8 128.8C24.5 128.2 19.4 127.5 14.6 126.7C6.69999 125.4 1.49999 130 12.8 132.7C33.6 137.6 60.1 138.5 88.4 138.5C117.7 138.5 142.7 136.4 166.1 132.4C177.2 130.3 182.1 122.6 167.9 125.6Z" fill="url(#paint1_linear_423_27)"/>
<path d="M14.3 93.1005C28.9 89.6005 46.8 88.1005 66.2 85.9005C69.1 85.6005 71.2 85.1005 71.3 83.4005C71.4 81.7005 66.8 81.4005 65.6 81.5005C46 82.7005 27.9 85.2005 13.2 88.8005C12 89.1005 6.89998 90.6005 7.49998 93.1005C8.09998 95.5005 13.3 93.3005 14.3 93.1005Z" fill="url(#paint2_linear_423_27)"/>
<path d="M130.4 104.5C130.4 108.3 111.6 111.3 88.3 111.3C65.1 111.3 46.2 108.3 46.2 104.5C46.2 101.4 58.9 100.4 76 98.0004C86.9 96.4004 86.5 78.5005 74.6 74.3005C59.9 68.6005 49.6 54.2004 50 37.5004C50.5 16.7004 67.8 -0.0995559 88.6 0.000444122C98.6 0.000444122 107.7 3.90046 114.5 10.2005C116.8 12.3005 116.6 15.9005 114.2 17.8005C114.2 17.8005 114.1 17.8005 114.1 17.9005C112.2 19.5005 109.4 19.3005 107.6 17.6005C102.2 12.7005 95 9.80046 87 10.2005C72.5 10.9005 60.8 22.7005 60.1 37.2005C59.8 44.6005 62.2 51.4004 66.6 56.6004C71.8 62.7004 88.6 65.1005 93 53.7005C98.6 39.2005 107.4 42.9004 105.8 49.1004C103.6 57.3004 110.9 58.0005 115.7 46.2005C120.5 34.3005 128.1 36.2004 126.1 46.0004C123.5 59.1004 114.3 70.1004 101.9 74.5004C87 79.7004 91.7 96.9004 100.4 98.0004C117.7 100.2 130.4 101.5 130.4 104.5ZM119.2 18.6005C116.8 18.6005 114.9 20.5005 114.9 22.9005C114.9 25.3005 116.8 27.2005 119.2 27.2005C121.6 27.2005 123.5 25.3005 123.5 22.9005C123.4 20.5005 121.5 18.6005 119.2 18.6005Z" fill="url(#paint3_linear_423_27)"/>
<path d="M206.969 98.4341C203.995 97.0774 201.583 94.9971 199.814 92.2837C198.045 89.5703 197.08 86.3142 197 82.5154H210.346C210.507 84.6861 211.231 86.3142 212.356 87.3995C213.482 88.4849 214.929 89.118 216.778 89.118C218.627 89.118 220.075 88.6658 221.2 87.6709C222.245 86.676 222.808 85.4097 222.808 83.6912C222.808 82.244 222.406 81.0682 221.522 80.1637C220.637 79.2593 219.592 78.4452 218.386 77.8121C217.1 77.179 215.331 76.5458 213.08 75.7318C209.783 74.556 207.05 73.3802 204.959 72.2948C202.869 71.119 201.02 69.4005 199.492 67.1393C197.965 64.8781 197.241 61.8934 197.241 58.2755C197.241 52.8486 199.01 48.688 202.467 45.6128C205.924 42.5376 210.507 41 216.055 41C221.763 41 226.346 42.5376 229.803 45.6128C233.26 48.688 235.109 52.939 235.35 58.3659H221.763C221.682 56.4665 221.039 55.0193 219.914 53.934C218.788 52.8486 217.341 52.3059 215.572 52.3059C214.045 52.3059 212.839 52.7582 211.874 53.6626C210.909 54.5671 210.507 55.9238 210.507 57.5519C210.507 59.4513 211.311 60.8984 212.839 61.8934C214.366 62.9787 216.859 64.0641 220.155 65.2399C223.451 66.5062 226.185 67.682 228.275 68.8578C230.366 70.0336 232.134 71.6617 233.662 73.9229C235.19 76.0936 235.913 78.9879 235.913 82.4249C235.913 85.7715 235.19 88.7562 233.662 91.4697C232.134 94.1831 229.964 96.3538 227.15 97.8914C224.336 99.5195 220.959 100.243 217.1 100.243C213.321 100.514 209.944 99.7908 206.969 98.4341Z" fill="url(#paint4_linear_423_27)"/>
<path d="M265.018 89.0276H281.499V99.9717H252.475V41.9949H265.018V89.0276Z" fill="url(#paint5_linear_423_27)"/>
<path d="M328.372 89.6607H309.157L306.101 99.8813H292.916L311.569 41.9045H326.121L344.773 99.8813H331.507L328.372 89.6607ZM325.156 78.807L318.804 57.5519L312.453 78.807H325.156Z" fill="url(#paint6_linear_423_27)"/>
<path d="M389.154 99.9717L371.787 74.3751V99.9717H359.245V41.9949H371.787V67.4106L388.993 41.9949H403.786L383.767 70.3954L404.51 99.9717H389.154Z" fill="url(#paint7_linear_423_27)"/>
<path d="M431.845 53.2104V64.9686H448.649V75.9127H431.845V88.6658H450.9V99.9717H419.303V41.9949H450.9V53.3009H431.845V53.2104Z" fill="url(#paint8_linear_423_27)"/>
<defs>
<linearGradient id="paint0_linear_423_27" x1="138.205" y1="146.453" x2="138.205" y2="67.2689" gradientUnits="userSpaceOnUse">
<stop offset="0.1183" stop-color="#0062FF"/>
<stop offset="0.4821" stop-color="#008EFF"/>
<stop offset="0.9946" stop-color="#00D1FF"/>
</linearGradient>
<linearGradient id="paint1_linear_423_27" x1="88.3485" y1="146.444" x2="88.3485" y2="67.3503" gradientUnits="userSpaceOnUse">
<stop offset="0.1183" stop-color="#0062FF"/>
<stop offset="0.4821" stop-color="#008EFF"/>
<stop offset="0.9946" stop-color="#00D1FF"/>
</linearGradient>
<linearGradient id="paint2_linear_423_27" x1="39.4152" y1="146.453" x2="39.4152" y2="67.2688" gradientUnits="userSpaceOnUse">
<stop offset="0.1183" stop-color="#0062FF"/>
<stop offset="0.4821" stop-color="#008EFF"/>
<stop offset="0.9946" stop-color="#00D1FF"/>
</linearGradient>
<linearGradient id="paint3_linear_423_27" x1="88.3485" y1="136.169" x2="88.3485" y2="24.012" gradientUnits="userSpaceOnUse">
<stop offset="0.1183" stop-color="#0062FF"/>
<stop offset="0.4821" stop-color="#008EFF"/>
<stop offset="0.9946" stop-color="#00D1FF"/>
</linearGradient>
<linearGradient id="paint4_linear_423_27" x1="216.825" y1="41.1152" x2="216.135" y2="98.1059" gradientUnits="userSpaceOnUse">
<stop offset="0.00537634" stop-color="#00D1FF"/>
<stop offset="0.5179" stop-color="#008EFF"/>
<stop offset="0.8817" stop-color="#0062FF"/>
</linearGradient>
<linearGradient id="paint5_linear_423_27" x1="267.246" y1="41.77" x2="266.557" y2="98.7605" gradientUnits="userSpaceOnUse">
<stop offset="0.00537634" stop-color="#00D1FF"/>
<stop offset="0.5179" stop-color="#008EFF"/>
<stop offset="0.8817" stop-color="#0062FF"/>
</linearGradient>
<linearGradient id="paint6_linear_423_27" x1="319.41" y1="42.401" x2="318.721" y2="99.3916" gradientUnits="userSpaceOnUse">
<stop offset="0.00537634" stop-color="#00D1FF"/>
<stop offset="0.5179" stop-color="#008EFF"/>
<stop offset="0.8817" stop-color="#0062FF"/>
</linearGradient>
<linearGradient id="paint7_linear_423_27" x1="382.146" y1="43.1599" x2="381.457" y2="100.15" gradientUnits="userSpaceOnUse">
<stop offset="0.00537634" stop-color="#00D1FF"/>
<stop offset="0.5179" stop-color="#008EFF"/>
<stop offset="0.8817" stop-color="#0062FF"/>
</linearGradient>
<linearGradient id="paint8_linear_423_27" x1="435.318" y1="43.8031" x2="434.629" y2="100.794" gradientUnits="userSpaceOnUse">
<stop offset="0.00537634" stop-color="#00D1FF"/>
<stop offset="0.5179" stop-color="#008EFF"/>
<stop offset="0.8817" stop-color="#0062FF"/>
</linearGradient>
</defs>
</svg>
