<svg width="398" height="412" viewBox="0 0 398 412" fill="none" xmlns="http://www.w3.org/2000/svg">
<g clip-path="url(#clip0_42_20)">
<path d="M391.533 172.385C400.156 177.36 400.156 185.501 391.533 190.475L296.306 245.441C287.694 250.415 273.583 250.415 264.96 245.441L169.733 190.475C161.11 185.501 161.11 177.36 169.733 172.385L264.96 117.42C273.583 112.446 287.683 112.446 296.306 117.42L391.533 172.385Z" fill="#E8F4FF"/>
<path d="M326.052 228.276L391.532 190.486C400.156 185.512 400.156 177.371 391.532 172.397L357.551 152.783L354.296 155.33L281.803 228.276H326.063H326.052Z" fill="url(#paint0_linear_42_20)"/>
<path d="M391.533 190.475L296.306 245.441C287.694 250.415 273.583 250.415 264.96 245.441L169.733 190.475C165.421 187.983 163.266 184.707 163.266 181.431V252.396C163.266 255.672 165.421 258.959 169.733 261.441L264.96 316.406C273.583 321.38 287.683 321.38 296.306 316.406L391.533 261.441C395.812 258.97 397.967 255.727 398 252.461V181.496C397.967 184.75 395.822 188.005 391.533 190.475Z" fill="url(#paint1_linear_42_20)"/>
<path d="M251.284 265.61V308.515L183.408 269.343V226.437C183.408 222.595 186.108 221.039 189.429 222.954L229.552 246.116L232.165 247.629H232.176L237.946 250.959L245.263 255.183C248.584 257.098 251.284 261.768 251.284 265.61Z" fill="url(#paint2_linear_42_20)"/>
<path d="M251.284 265.61V308.515L183.408 269.343V226.437C183.408 222.595 186.108 221.039 189.429 222.954L229.552 246.116L232.165 247.629H232.176L237.946 250.959L245.263 255.183C248.584 257.098 251.284 261.768 251.284 265.61Z" fill="url(#paint3_linear_42_20)"/>
<path d="M251.284 265.609C251.284 261.767 248.584 257.098 245.252 255.171L220.569 240.924L49.4422 339.687C47.7764 340.645 46.4263 342.985 46.4263 344.901C46.4263 345.989 46.8618 346.708 47.5368 346.958L114.977 385.88L117.318 378.86L251.273 301.549V265.598L251.284 265.609Z" fill="url(#paint4_linear_42_20)"/>
<path d="M117.329 378.87C115.663 379.828 114.313 382.168 114.313 384.084C114.313 386 115.663 386.783 117.329 385.825L251.284 308.515V301.56L117.329 378.87Z" fill="#BBC0E6"/>
<path d="M115.739 383.268C115.739 382.245 116.458 381.015 117.34 380.504C118.222 379.992 118.94 380.406 118.94 381.429C118.94 382.452 118.222 383.682 117.34 384.193C116.458 384.705 115.739 384.291 115.739 383.268Z" fill="#A3A9D0"/>
<path d="M123.709 378.664C123.709 377.64 124.428 376.411 125.31 375.899C126.192 375.387 126.911 375.801 126.911 376.824C126.911 377.847 126.192 379.077 125.31 379.589C124.428 380.1 123.709 379.687 123.709 378.664Z" fill="#A3A9D0"/>
<path d="M131.679 374.071C131.679 373.048 132.398 371.818 133.28 371.306C134.162 370.795 134.88 371.208 134.88 372.231C134.88 373.255 134.162 374.484 133.28 374.996C132.398 375.508 131.679 375.094 131.679 374.071Z" fill="#A3A9D0"/>
<path d="M139.66 369.466C139.66 368.443 140.379 367.213 141.261 366.702C142.143 366.19 142.861 366.604 142.861 367.627C142.861 368.65 142.143 369.88 141.261 370.392C140.379 370.903 139.66 370.489 139.66 369.466Z" fill="#A3A9D0"/>
<path d="M147.63 364.863C147.63 363.84 148.349 362.61 149.231 362.098C150.113 361.587 150.831 362 150.831 363.023C150.831 364.047 150.113 365.276 149.231 365.788C148.349 366.3 147.63 365.886 147.63 364.863Z" fill="#A3A9D0"/>
<path d="M155.6 360.258C155.6 359.246 156.319 358.005 157.201 357.494C158.083 356.982 158.801 357.396 158.801 358.419C158.801 359.442 158.083 360.672 157.201 361.183C156.319 361.695 155.6 361.281 155.6 360.258Z" fill="#A3A9D0"/>
<path d="M163.57 355.655C163.57 354.632 164.289 353.402 165.171 352.89C166.053 352.379 166.771 352.792 166.771 353.815C166.771 354.839 166.053 356.068 165.171 356.58C164.289 357.092 163.57 356.678 163.57 355.655Z" fill="#A3A9D0"/>
<path d="M171.551 351.061C171.551 350.038 172.27 348.808 173.152 348.296C174.034 347.785 174.752 348.199 174.752 349.222C174.752 350.234 174.034 351.475 173.152 351.986C172.27 352.498 171.551 352.084 171.551 351.061Z" fill="#A3A9D0"/>
<path d="M179.521 346.458C179.521 345.434 180.24 344.205 181.122 343.693C182.003 343.181 182.722 343.595 182.722 344.618C182.722 345.641 182.003 346.871 181.122 347.383C180.24 347.894 179.521 347.481 179.521 346.458Z" fill="#A3A9D0"/>
<path d="M187.491 341.853C187.491 340.83 188.21 339.6 189.092 339.088C189.974 338.577 190.692 338.991 190.692 340.014C190.692 341.037 189.974 342.267 189.092 342.778C188.21 343.29 187.491 342.876 187.491 341.853Z" fill="#A3A9D0"/>
<path d="M195.472 337.25C195.472 336.226 196.191 334.997 197.073 334.485C197.955 333.973 198.673 334.387 198.673 335.41C198.673 336.433 197.955 337.663 197.073 338.175C196.191 338.686 195.472 338.273 195.472 337.25Z" fill="#A3A9D0"/>
<path d="M203.442 332.645C203.442 331.622 204.161 330.392 205.043 329.88C205.925 329.369 206.643 329.782 206.643 330.806C206.643 331.829 205.925 333.059 205.043 333.57C204.161 334.082 203.442 333.668 203.442 332.645Z" fill="#A3A9D0"/>
<path d="M211.412 328.052C211.412 327.029 212.131 325.799 213.013 325.288C213.895 324.776 214.613 325.19 214.613 326.213C214.613 327.236 213.895 328.466 213.013 328.977C212.131 329.489 211.412 329.075 211.412 328.052Z" fill="#A3A9D0"/>
<path d="M219.393 323.448C219.393 322.425 220.112 321.195 220.994 320.683C221.876 320.172 222.594 320.585 222.594 321.608C222.594 322.631 221.876 323.861 220.994 324.373C220.112 324.885 219.393 324.471 219.393 323.448Z" fill="#A3A9D0"/>
<path d="M227.363 318.844C227.363 317.821 228.082 316.591 228.964 316.08C229.846 315.568 230.564 315.982 230.564 317.005C230.564 318.028 229.846 319.258 228.964 319.769C228.082 320.281 227.363 319.867 227.363 318.844Z" fill="#A3A9D0"/>
<path d="M235.333 314.24C235.333 313.217 236.052 311.987 236.934 311.475C237.815 310.964 238.534 311.377 238.534 312.4C238.534 313.423 237.815 314.653 236.934 315.165C236.052 315.676 235.333 315.263 235.333 314.24Z" fill="#A3A9D0"/>
<path d="M243.314 309.636C243.314 308.613 244.033 307.383 244.915 306.872C245.796 306.36 246.515 306.774 246.515 307.797C246.515 308.82 245.796 310.05 244.915 310.561C244.033 311.073 243.314 310.659 243.314 309.647V309.636Z" fill="#A3A9D0"/>
<path style="mix-blend-mode:multiply" d="M83.1515 320.248L151.027 359.42L152.835 358.375L84.9589 319.203L83.1515 320.248ZM64.2608 331.143L132.137 370.315L133.944 369.271L66.0682 330.098L64.2608 331.143ZM46.938 342.702L114.814 381.874C115.086 381.254 115.445 380.666 115.87 380.155L47.9941 340.982C47.5695 341.505 47.1993 342.082 46.938 342.713V342.702ZM196.463 254.844L251.284 286.485V284.395L198.27 253.8L196.463 254.844ZM250.685 262.246L217.161 242.894L215.354 243.938L251.23 264.64C251.142 263.857 250.957 263.04 250.685 262.246ZM139.802 287.541L207.678 326.713L209.485 325.668L141.609 286.496L139.802 287.541ZM158.692 276.646L226.568 315.818L228.376 314.773L160.5 275.601L158.692 276.646ZM177.583 265.75L245.459 304.923L247.266 303.878L179.391 264.706L177.583 265.75ZM102.042 309.353L169.918 348.525L171.725 347.48L103.85 308.308L102.042 309.353ZM120.933 298.447L188.809 337.619L190.616 336.574L122.74 297.402L120.933 298.447Z" fill="url(#paint5_linear_42_20)"/>
<path d="M389.856 198.845V208.478L390.956 209.109V198.214L389.856 198.845Z" fill="#7E84A3"/>
<path d="M389.856 209.751L390.956 209.109L389.856 208.478V209.751Z" fill="#A3A9D0"/>
<path d="M386.742 200.652V210.274L387.841 210.905V200.01L386.742 200.652Z" fill="#7E84A3"/>
<path d="M386.742 211.547L387.841 210.905L386.742 210.273V211.547Z" fill="#A3A9D0"/>
<path d="M383.628 202.448V212.07L384.728 212.712V201.806L383.628 202.448Z" fill="#7E84A3"/>
<path d="M383.628 213.343L384.728 212.712L383.628 212.069V213.343Z" fill="#A3A9D0"/>
<path d="M380.514 204.244V213.865L381.613 214.508V203.602L380.514 204.244Z" fill="#7E84A3"/>
<path d="M380.514 215.139L381.613 214.507L380.514 213.865V215.139Z" fill="#A3A9D0"/>
<path d="M377.4 206.04V215.661L378.5 216.303V205.397L377.4 206.04Z" fill="#7E84A3"/>
<path d="M377.4 216.935L378.5 216.303L377.4 215.661V216.935Z" fill="#A3A9D0"/>
<path style="mix-blend-mode:multiply" d="M115.021 385.88H114.999L115.097 385.945C115.064 385.923 115.042 385.902 115.021 385.88Z" fill="url(#paint6_linear_42_20)"/>
<path style="mix-blend-mode:multiply" d="M251.284 301.56V308.515L118.995 384.868L117.329 385.826C116.556 386.272 115.848 386.326 115.315 386.076L116.872 386.99C117.373 387.338 118.57 387.556 120.345 387.556C123.677 387.556 127.727 386.772 129.382 385.815L257.316 311.987L251.284 301.549V301.56Z" fill="url(#paint7_linear_42_20)"/>
<path d="M382.408 291.895L349.058 311.138V269.528L382.408 250.273V291.895Z" fill="url(#paint8_linear_42_20)"/>
<path style="mix-blend-mode:multiply" d="M251.284 265.609V281.054C250.543 281.097 249.803 281.13 249.052 281.141H242.9V278.975C240.559 278.224 238.338 277.288 236.345 276.134C235.398 275.579 234.516 275.002 233.721 274.404C232.458 273.457 231.391 272.444 230.531 271.389C225.24 265.021 227.123 257.174 236.204 251.895C236.77 251.569 237.347 251.253 237.946 250.959L245.263 255.182C248.584 257.098 251.284 261.767 251.284 265.609Z" fill="url(#paint9_linear_42_20)"/>
<path d="M230.531 271.388C228.746 270.812 227.069 270.082 225.545 269.201C216.507 263.987 216.507 255.519 225.545 250.306C227.526 249.163 229.769 248.27 232.164 247.628L229.551 246.115C227.221 246.823 225.022 247.737 223.062 248.869C217.868 251.862 215.266 255.791 215.255 259.721V259.775C215.255 263.704 217.858 267.633 223.062 270.637C226.154 272.422 229.824 273.674 233.721 274.403C239.438 275.459 245.655 275.383 251.284 274.164V271.976C244.653 273.663 236.912 273.467 230.531 271.388Z" fill="url(#paint10_linear_42_20)"/>
<path d="M251.284 265.609V271.976C244.653 273.663 236.911 273.467 230.531 271.388C228.745 270.811 227.069 270.082 225.544 269.2C216.507 263.987 216.507 255.519 225.544 250.305C227.526 249.163 229.769 248.27 232.164 247.628H232.175L237.946 250.959L245.263 255.182C248.583 257.097 251.284 261.767 251.284 265.609Z" fill="url(#paint11_linear_42_20)"/>
<path d="M251.284 274.164V280.162C248.584 280.749 245.742 281.065 242.9 281.119C235.758 281.283 228.517 279.781 223.062 276.635C217.836 273.62 215.234 269.669 215.256 265.718V259.775C215.256 263.705 217.858 267.634 223.062 270.638C226.154 272.423 229.824 273.675 233.722 274.404C239.438 275.46 245.655 275.383 251.284 274.164Z" fill="url(#paint12_linear_42_20)"/>
<mask id="mask0_42_20" style="mask-type:luminance" maskUnits="userSpaceOnUse" x="217" y="245" width="49" height="29">
<path d="M242.791 245.887L265.035 258.719L239.35 273.544L217.117 260.711L242.791 245.887Z" fill="white"/>
</mask>
<g mask="url(#mask0_42_20)">
<path d="M251.512 265.609C251.512 265.609 251.436 265.652 251.404 265.674C248.235 267.492 244.12 268.613 239.949 268.787C235.779 268.961 231.903 268.166 229.159 266.588C227.112 265.413 225.817 263.856 225.436 262.115C225.044 260.384 225.588 258.545 226.982 256.836C228.375 255.127 230.575 253.625 233.286 252.526C234.778 251.916 236.4 251.459 238.077 251.133C237.859 251.002 237.663 250.85 237.478 250.697C236.912 250.817 236.356 250.926 235.801 251.078C232.654 251.938 229.9 253.277 227.864 254.942C225.828 256.607 224.619 258.512 224.38 260.417C224.14 262.322 224.891 264.15 226.525 265.652C228.158 267.154 230.618 268.286 233.58 268.896C236.541 269.494 239.873 269.549 243.161 269.048C246.21 268.58 249.063 267.633 251.458 266.349C251.458 266.109 251.48 265.859 251.512 265.62V265.609Z" fill="white"/>
<mask id="mask1_42_20" style="mask-type:luminance" maskUnits="userSpaceOnUse" x="229" y="252" width="24" height="15">
<path d="M237.946 252.972L252.765 261.527L244.207 266.457L229.388 257.902L237.946 252.972Z" fill="white"/>
</mask>
<g mask="url(#mask1_42_20)">
<path d="M247.647 259.393C246.885 258.958 245.589 258.751 243.771 258.784C242.922 258.795 242.072 258.871 241.43 258.936C241.43 258.936 241.289 259.502 241.147 260.122C241.768 260.057 242.628 259.981 243.499 259.959C245.11 259.926 245.796 260.122 246.079 260.286C247.168 260.917 247.005 262.038 245.698 262.789C244.392 263.54 242.464 263.638 241.354 263.007C241.299 262.974 241.245 262.941 241.191 262.887C241.343 263.17 241.561 263.442 241.887 263.627C243.891 264.781 245.872 264.084 246.014 264.041C246.362 263.91 246.7 263.747 247.016 263.562C249.182 262.31 249.465 260.438 247.647 259.382V259.393Z" fill="white"/>
<path d="M232.818 259.884C233.58 260.319 234.876 260.526 236.694 260.493C237.543 260.482 238.393 260.406 239.035 260.341C239.035 260.341 239.176 259.775 239.318 259.154C238.697 259.22 237.837 259.296 236.966 259.318C235.366 259.35 234.669 259.154 234.386 258.991C233.297 258.36 233.46 257.239 234.767 256.488C236.073 255.737 238.001 255.639 239.111 256.27C239.166 256.303 239.22 256.335 239.274 256.39C239.122 256.107 238.904 255.835 238.578 255.65C236.585 254.496 234.593 255.182 234.451 255.236C234.103 255.367 233.765 255.53 233.449 255.715C231.283 256.967 231 258.839 232.818 259.894V259.884Z" fill="white"/>
<path fill-rule="evenodd" clip-rule="evenodd" d="M239.579 257.739C239.601 257.467 239.536 256.28 238.545 255.671C236.77 254.582 234.712 255.159 234.462 255.246C236.531 254.463 239.111 254.474 240.657 255.366C241.92 256.095 241.768 257.652 241.419 258.947C241.419 258.947 241.278 259.513 241.136 260.133C241.136 260.133 240.951 260.852 240.875 261.548C240.853 261.82 240.929 262.996 241.92 263.606C243.738 264.727 245.873 264.095 246.014 264.03C243.945 264.825 241.354 264.814 239.797 263.921C238.534 263.192 238.686 261.635 239.024 260.34C239.024 260.34 239.024 260.34 239.013 260.34C239.013 260.34 239.155 259.774 239.296 259.154C239.296 259.154 239.492 258.435 239.558 257.739H239.579Z" fill="white"/>
</g>
</g>
<path d="M237.336 309.614L251.295 301.56V265.609C251.295 261.767 248.594 257.098 245.263 255.171L220.58 240.924L169.46 270.431L237.336 309.603V309.614Z" fill="url(#paint13_linear_42_20)"/>
<path d="M327.25 245.495L349.058 269.528V311.138L327.25 298.545V245.495Z" fill="#E8F4FF"/>
<path d="M327.25 245.495C338.366 239.084 349.483 232.663 360.599 226.252C367.873 234.263 375.146 242.274 382.419 250.284C371.302 256.695 360.186 263.117 349.069 269.528C341.796 261.517 334.523 253.506 327.25 245.495Z" fill="#F3F9FF"/>
<path d="M336.036 245.408C337.811 244.396 338.693 243.884 340.468 242.861C345.716 248.641 350.974 254.431 356.222 260.211C354.448 261.223 353.566 261.735 351.791 262.747C346.543 256.967 341.295 251.188 336.047 245.397L336.036 245.408Z" fill="#0A2446"/>
<path d="M350.844 240.804L351.78 241.838L343.299 253.408L342.362 252.374L350.844 240.804Z" fill="url(#paint14_linear_42_20)"/>
<path d="M351.541 242.175L352.848 241.413L343.713 253.865L343.299 253.408L351.541 242.175Z" fill="url(#paint15_linear_42_20)"/>
<path d="M349.712 240.466C349.712 239.171 350.768 238.115 352.064 238.115C353.359 238.115 354.416 239.171 354.416 240.466C354.416 241.761 353.359 242.817 352.064 242.817C350.768 242.817 349.712 241.761 349.712 240.466Z" fill="#0A2446"/>
<path d="M238.24 225.533L240.124 226.622L252.133 219.689V217.512L238.24 225.533Z" fill="#A3A9D0"/>
<path d="M252.133 217.512V219.689L254.028 218.6L252.133 217.512Z" fill="#CED3F8"/>
<path d="M233.7 222.91L235.584 223.999L247.593 217.066V214.889L233.7 222.91Z" fill="#A3A9D0"/>
<path d="M247.593 214.889V217.066L249.488 215.977L247.593 214.889Z" fill="#CED3F8"/>
<path d="M229.16 220.287L231.043 221.376L243.053 214.453V212.266L229.16 220.287Z" fill="#A3A9D0"/>
<path d="M243.053 212.266V214.453L244.947 213.354L243.053 212.266Z" fill="#CED3F8"/>
<path d="M224.62 217.664L226.503 218.763L238.513 211.83V209.653L224.62 217.664Z" fill="#A3A9D0"/>
<path d="M238.513 209.653V211.83L240.407 210.742L238.513 209.653Z" fill="#CED3F8"/>
<path d="M220.079 215.052L221.963 216.14L233.972 209.207V207.03L220.079 215.052Z" fill="#A3A9D0"/>
<path d="M233.972 207.03V209.207L235.867 208.119L233.972 207.03Z" fill="#CED3F8"/>
<path d="M215.539 212.429L217.423 213.517L229.432 206.584V204.407L215.539 212.429Z" fill="#A3A9D0"/>
<path d="M229.432 204.407V206.584L231.316 205.496L229.432 204.407Z" fill="#CED3F8"/>
<path d="M210.999 209.806L212.882 210.894L224.892 203.972V201.784L210.999 209.806Z" fill="#A3A9D0"/>
<path d="M224.892 201.784V203.972L226.775 202.873L224.892 201.784Z" fill="#CED3F8"/>
<path d="M206.458 207.183L208.342 208.271L220.352 201.349V199.161L206.458 207.183Z" fill="#A3A9D0"/>
<path d="M220.352 199.161V201.349L222.235 200.26L220.352 199.161Z" fill="#CED3F8"/>
<path d="M201.918 204.571L203.802 205.659L215.811 198.726V196.549L201.918 204.571Z" fill="#A3A9D0"/>
<path d="M215.811 196.549V198.726L217.695 197.637L215.811 196.549Z" fill="#CED3F8"/>
<path d="M362.265 156.701L286.605 200.369C283.186 202.35 277.578 202.35 274.149 200.369L198.575 156.745C196.866 155.754 196.005 154.459 196.005 153.153V179.547C195.962 180.886 196.811 182.236 198.564 183.248L274.138 226.872C277.557 228.853 283.164 228.853 286.594 226.872L362.254 183.204C363.996 182.203 364.846 180.864 364.813 179.536V153.109C364.813 154.415 363.953 155.711 362.244 156.701H362.265Z" fill="url(#paint16_linear_42_20)"/>
<path d="M286.791 198.397C283.372 200.378 277.764 200.378 274.335 198.397L191.564 150.626C188.145 148.645 188.145 145.413 191.564 143.443L274.411 95.6283C277.83 93.6473 283.437 93.6473 286.867 95.6283L369.637 143.399C373.056 145.38 373.056 148.613 369.637 150.583L286.791 198.397Z" fill="#E8F4FF"/>
<path d="M369.451 150.824L286.605 198.639C283.186 200.62 277.578 200.62 274.149 198.639L191.378 150.868C189.68 149.888 188.819 148.593 188.809 147.298V153.132C188.809 154.438 189.658 155.755 191.378 156.745L274.149 204.516C277.568 206.497 283.175 206.497 286.605 204.516L369.451 156.702C371.161 155.711 372.01 154.416 372.021 153.121V147.232C372.021 148.539 371.161 149.834 369.451 150.824Z" fill="url(#paint17_linear_42_20)"/>
<g style="mix-blend-mode:multiply">
<path d="M341.034 184.184C341.034 183.335 341.633 182.301 342.362 181.887C343.092 181.474 343.69 181.811 343.69 182.649C343.69 183.487 343.092 184.532 342.362 184.946C341.633 185.37 341.034 185.022 341.034 184.184Z" fill="#A3A9D0"/>
</g>
<g style="mix-blend-mode:multiply">
<path d="M346.565 180.985C346.565 180.136 347.164 179.102 347.893 178.688C348.623 178.264 349.222 178.612 349.222 179.45C349.222 180.288 348.623 181.333 347.893 181.747C347.164 182.171 346.565 181.823 346.565 180.985Z" fill="#A3A9D0"/>
</g>
<g style="mix-blend-mode:multiply">
<path d="M352.096 177.795C352.096 176.946 352.695 175.912 353.425 175.499C354.154 175.074 354.753 175.422 354.753 176.261C354.753 177.099 354.154 178.143 353.425 178.557C352.695 178.982 352.096 178.633 352.096 177.795Z" fill="#A3A9D0"/>
</g>
<path d="M211.88 147.656L275.477 110.944C278.221 109.366 282.696 109.366 285.44 110.944L348.928 147.591C349.57 147.961 350.06 148.396 350.398 148.843C351.508 147.352 351.018 145.556 348.928 144.348L285.44 107.7C282.696 106.122 278.221 106.122 275.477 107.7L211.88 144.413C209.79 145.621 209.3 147.417 210.41 148.908C210.748 148.451 211.238 148.026 211.88 147.656Z" fill="url(#paint18_linear_42_20)"/>
<path d="M211.881 150.171L275.368 186.818C278.112 188.397 282.587 188.397 285.331 186.818L348.928 150.106C349.57 149.736 350.06 149.3 350.398 148.854C350.06 148.397 349.57 147.972 348.928 147.602L285.44 110.955C282.696 109.377 278.221 109.377 275.477 110.955L211.881 147.668C211.238 148.038 210.748 148.473 210.411 148.919C210.748 149.377 211.238 149.801 211.881 150.171Z" fill="url(#paint19_linear_42_20)"/>
<path d="M211.881 150.171L275.368 186.818C278.112 188.397 282.587 188.397 285.331 186.818L348.928 150.106C349.57 149.736 350.06 149.3 350.398 148.854C350.06 148.397 349.57 147.972 348.928 147.602L285.44 110.955C282.696 109.377 278.221 109.377 275.477 110.955L211.881 147.668C211.238 148.038 210.748 148.473 210.411 148.919C210.748 149.377 211.238 149.801 211.881 150.171Z" fill="url(#paint20_linear_42_20)"/>
<path opacity="0.2" d="M349.478 149.781L350.43 148.882V0.789062H210.408V148.942L211.646 150.032L274.11 186.094C278.523 189.1 283.284 187.914 285.114 186.945L349.478 149.781Z" fill="url(#paint21_linear_42_20)"/>
<g style="mix-blend-mode:screen">
<path d="M316.027 153.106C316.027 151.277 317.518 149.786 319.348 149.786C321.177 149.786 322.669 151.277 322.669 153.106C322.669 154.934 321.177 156.426 319.348 156.426C317.518 156.426 316.027 154.934 316.027 153.106Z" fill="white"/>
</g>
<g style="mix-blend-mode:screen">
<path d="M268 157.643C268 156.816 267.326 156.143 266.5 156.143C265.674 156.143 265 156.816 265 157.643C265 158.469 265.674 159.143 266.5 159.143C267.326 159.143 268 158.469 268 157.643Z" fill="white"/>
</g>
<g style="mix-blend-mode:screen">
<path d="M236 143.462C236 141.634 237.492 140.143 239.321 140.143C241.15 140.143 242.642 141.634 242.642 143.462C242.642 145.291 241.15 146.782 239.321 146.782C237.492 146.782 236 145.291 236 143.462Z" fill="white"/>
</g>
<g style="mix-blend-mode:screen">
<path d="M290 129.786C290 128.872 290.74 128.143 291.655 128.143C292.57 128.143 293.31 128.883 293.31 129.786C293.31 130.689 292.57 131.441 291.655 131.441C290.74 131.441 290 130.7 290 129.786Z" fill="white"/>
</g>
<path d="M347 88.7861C347 87.8718 347.74 87.1426 348.655 87.1426C349.57 87.1426 350.31 87.8827 350.31 88.7861C350.31 89.6895 349.57 90.4405 348.655 90.4405C347.74 90.4405 347 89.7004 347 88.7861Z" fill="url(#paint22_linear_42_20)"/>
<path d="M347 88.7861C347 87.8718 347.74 87.1426 348.655 87.1426C349.57 87.1426 350.31 87.8827 350.31 88.7861C350.31 89.6895 349.57 90.4405 348.655 90.4405C347.74 90.4405 347 89.7004 347 88.7861Z" fill="url(#paint23_linear_42_20)"/>
<path d="M231 26.7861C231 25.8718 231.74 25.1426 232.655 25.1426C233.57 25.1426 234.31 25.8827 234.31 26.7861C234.31 27.6895 233.57 28.4405 232.655 28.4405C231.74 28.4405 231 27.7004 231 26.7861Z" fill="url(#paint24_linear_42_20)"/>
<path d="M231 26.7861C231 25.8718 231.74 25.1426 232.655 25.1426C233.57 25.1426 234.31 25.8827 234.31 26.7861C234.31 27.6895 233.57 28.4405 232.655 28.4405C231.74 28.4405 231 27.7004 231 26.7861Z" fill="url(#paint25_linear_42_20)"/>
<path d="M214 94.631C214 92.6904 215.566 91.1426 217.5 91.1426C219.434 91.1426 221 92.7135 221 94.631C221 96.5485 219.434 98.1426 217.5 98.1426C215.566 98.1426 214 96.5716 214 94.631Z" fill="url(#paint26_linear_42_20)"/>
<path d="M214 94.631C214 92.6904 215.566 91.1426 217.5 91.1426C219.434 91.1426 221 92.7135 221 94.631C221 96.5485 219.434 98.1426 217.5 98.1426C215.566 98.1426 214 96.5716 214 94.631Z" fill="url(#paint27_linear_42_20)"/>
<path style="mix-blend-mode:multiply" d="M204.64 188.396H192.543V194.318H204.64V188.396Z" fill="url(#paint28_linear_42_20)"/>
<path d="M187.644 186.459V191.488C187.644 192.206 188.123 192.935 189.081 193.49C190.997 194.59 194.1 194.59 196.006 193.49C196.964 192.935 197.443 192.217 197.443 191.488V186.459H187.644Z" fill="url(#paint29_linear_42_20)"/>
<path d="M189.081 184.456C190.997 183.357 194.1 183.357 196.006 184.456C196.964 185.011 197.443 185.73 197.443 186.459C197.443 187.188 196.964 187.907 196.006 188.462C194.089 189.561 190.986 189.561 189.081 188.462C188.123 187.907 187.644 187.188 187.644 186.459C187.644 185.73 188.123 185.011 189.081 184.456Z" fill="#FFD03E"/>
<path style="mix-blend-mode:multiply" d="M275.412 229.234H263.315V235.155H275.412V229.234Z" fill="url(#paint30_linear_42_20)"/>
<path d="M258.416 227.308V232.336C258.416 233.054 258.895 233.784 259.853 234.339C261.769 235.438 264.872 235.438 266.778 234.339C267.736 233.784 268.215 233.065 268.215 232.336V227.308H258.416Z" fill="url(#paint31_linear_42_20)"/>
<path d="M259.853 225.305C261.769 224.206 264.872 224.206 266.778 225.305C267.736 225.86 268.215 226.578 268.215 227.308C268.215 228.026 267.736 228.755 266.778 229.31C264.861 230.41 261.758 230.41 259.853 229.31C258.895 228.755 258.416 228.037 258.416 227.308C258.416 226.578 258.895 225.86 259.853 225.305Z" fill="#FFD03E"/>
<path d="M386.393 265.642C385.577 266.621 384.281 267.579 383.9 268.243C383.519 268.907 383.279 269.865 383.214 270.235C383.149 270.605 383.247 271.726 383.737 271.617C384.226 271.508 384.314 272.009 384.793 271.987C385.261 271.976 385.13 271.78 385.13 271.78C385.359 271.911 385.685 271.966 385.805 271.791C386.001 271.9 386.056 272.118 386.459 271.78C386.796 271.497 386.981 270.899 387.242 270.605C388.113 269.658 388.353 266.469 388.538 266.164C388.734 265.87 386.959 264.967 386.393 265.653V265.642Z" fill="#FCD1A9"/>
<path d="M385.457 239.824C391.598 245.963 391.794 257.914 388.68 266.948C387.362 268.319 385.196 267.176 385.696 265.783C386.622 262.213 383.835 257.163 384.172 253.865C384.804 247.519 387.667 243.492 385.457 239.824Z" fill="url(#paint32_linear_42_20)"/>
<path d="M385.457 239.824C391.598 245.963 391.794 257.914 388.68 266.948C387.362 268.319 385.196 267.176 385.696 265.783C386.622 262.213 383.835 257.163 384.172 253.865C384.804 247.519 387.667 243.492 385.457 239.824Z" fill="url(#paint33_linear_42_20)"/>
<path d="M387.46 307.47C387.46 303.182 384.738 303.062 384.738 303.062C384.738 303.062 383.269 303.062 380.873 302.071C378.51 301.092 375.19 301.473 377.041 304.901C377.062 304.945 377.084 304.988 377.106 305.032C377.226 305.217 377.411 305.391 377.716 305.554L383.66 309.037C384.564 309.549 387.439 308.362 387.46 307.481V307.47Z" fill="#0A2446"/>
<path d="M387.438 307.078C387.384 307.96 384.553 309.135 383.649 308.613L377.705 305.13C377.509 305.021 377.171 304.793 376.866 304.521C376.921 304.64 376.964 304.749 377.04 304.88C377.062 304.923 377.084 304.967 377.106 305.01C377.226 305.195 377.411 305.369 377.715 305.533L383.66 309.016C384.51 309.495 387.09 308.482 387.428 307.623C387.438 307.557 387.46 307.492 387.46 307.448C387.46 307.318 387.46 307.198 387.46 307.067L387.438 307.078Z" fill="#0A2446"/>
<path d="M386.35 302.484C385.653 302.484 383.181 303.116 383.181 303.116C383.181 303.116 383.17 303.453 382.964 303.758C382.942 303.79 382.92 303.812 382.898 303.845C382.408 304.182 381.918 304.716 383.072 305.445C384.02 306.044 384.782 305.663 385.152 305.303C385.304 305.02 385.511 304.716 385.816 304.542C386.132 304.356 386.317 304.28 386.459 304.269C386.459 304.248 386.459 304.204 386.459 304.204C386.459 304.204 386.644 302.495 386.35 302.495V302.484Z" fill="white"/>
<path d="M386.393 260.559C383.704 260.602 376.997 260.722 374.308 260.776C375.309 268.842 377.324 276.178 378.663 283.993C380.1 291.59 381.733 296.923 383.149 303.247C383.671 304.422 386.045 303.976 386.524 302.844C386.894 297.021 387.33 289.924 385.609 283.209C385.903 275.971 386.568 267.862 386.393 260.548V260.559Z" fill="#0A2446"/>
<path d="M373.915 315.35C373.915 311.061 371.193 310.942 371.193 310.942C371.193 310.942 369.724 310.942 367.328 309.951C364.965 308.972 361.645 309.353 363.506 312.781C363.517 312.825 363.55 312.868 363.572 312.912C363.681 313.097 363.877 313.271 364.171 313.445L370.115 316.928C371.019 317.44 373.894 316.253 373.915 315.372V315.35Z" fill="#0A2446"/>
<path d="M373.894 314.958C373.839 315.84 371.008 317.015 370.105 316.493L364.16 313.01C363.964 312.901 363.626 312.672 363.321 312.4C363.376 312.52 363.419 312.629 363.496 312.76C363.506 312.803 363.539 312.847 363.561 312.89C363.67 313.075 363.866 313.249 364.16 313.423L370.105 316.906C370.954 317.385 373.534 316.373 373.872 315.513C373.883 315.448 373.894 315.383 373.894 315.339C373.904 315.209 373.894 315.089 373.894 314.958Z" fill="#131147"/>
<path d="M372.805 310.365C372.108 310.365 369.636 310.997 369.636 310.997C369.636 310.997 369.615 311.334 369.419 311.639C369.397 311.66 369.375 311.693 369.353 311.715C368.863 312.052 368.373 312.586 369.528 313.315C370.475 313.914 371.237 313.533 371.607 313.162C371.76 312.89 371.977 312.575 372.282 312.401C372.598 312.226 372.783 312.139 372.925 312.129C372.925 312.107 372.925 312.074 372.925 312.074C372.925 312.074 373.099 310.365 372.805 310.365Z" fill="white"/>
<path d="M377.868 279.748C378.597 276.276 387.068 275.851 386.513 262.202C383.856 261.81 370.453 268.091 367.796 267.71C367.47 275.84 368.254 283.394 368.297 291.328C368.482 299.056 369.212 304.585 369.571 311.062C369.887 312.302 372.304 312.259 372.968 311.214C374.285 305.532 375.875 298.599 375.265 291.688C376.06 287.856 376.997 283.807 377.857 279.748H377.868Z" fill="#0A2446"/>
<path d="M380.819 269.941C375.059 273.174 369.038 273.174 366.991 269.212C367.764 261.822 365.379 244.886 366.991 243.057C367.829 242.099 370.649 238.605 376.387 238.605C380.405 238.605 385.74 237.767 387.047 242.23C388.386 246.105 384.727 247.89 386.589 261.843C385.98 265.816 383.66 268.352 380.829 269.941H380.819Z" fill="url(#paint34_linear_42_20)"/>
<path d="M380.819 269.941C375.059 273.174 369.038 273.174 366.991 269.212C367.764 261.822 365.379 244.886 366.991 243.057C367.829 242.099 370.649 238.605 376.387 238.605C380.405 238.605 385.74 237.767 387.047 242.23C388.386 246.105 384.727 247.89 386.589 261.843C385.98 265.816 383.66 268.352 380.829 269.941H380.819Z" fill="url(#paint35_linear_42_20)"/>
<path d="M382.256 238.91C380.546 237.68 380.819 235.176 380.916 233.489C381.156 232.586 381.254 231.596 381.167 230.562C380.818 226.839 378.151 223.846 375.266 224.314C369.451 225.261 370.769 228.243 371.117 231.966C371.433 235.416 373.219 237.647 375.875 237.8C375.93 238.366 375.375 238.387 374.765 238.583C374.209 241.62 379.49 241.239 380.601 240.738C381.777 240.205 383.051 239.748 382.256 238.921V238.91Z" fill="#FCD1A9"/>
<path d="M372.892 222.54C373.023 222.072 373.905 221.746 376.964 222.834C376.986 222.834 377.705 223.106 377.759 223.117C383.432 225.403 382.234 231.912 381.439 233.653C381.156 234.274 380.96 234.763 381.047 235.699C378.837 235.667 378.173 236.918 376.725 235.721C375.69 234.861 374.144 233.86 373.883 233.435C373.622 233.011 373.654 232.717 373.654 232.369C373.567 229.267 372.185 231.193 372.25 231.912C371.651 231.64 371.662 230.388 371.673 229.006C366.817 225.566 369.31 223.052 372.903 222.54H372.892Z" fill="#0A2446"/>
<path d="M351.04 243.885C350.659 244.407 349.635 243.275 349.385 242.807L349.592 242.524C349.385 242.437 348.699 242.502 348.253 242.851C347.512 243.242 347.381 243.743 346.87 244.929C346.216 246.453 348.655 247.128 349.091 247.77L351.595 246.138C351.595 246.138 351.867 245.299 351.867 244.625C351.867 243.95 351.432 243.351 351.04 243.874V243.885Z" fill="#FCD1A9"/>
<path d="M367.818 242.143C364.78 245.539 361.078 249.98 358.16 252.385C355.896 250.382 353.021 247.356 352.161 246.061C350.158 244.831 348.612 247.215 349.287 248.478C350.256 250.284 354.077 256.477 356.745 258.382C359.271 260.189 363.985 258.186 367.187 253.963C369.854 249.642 371.172 239.672 367.818 242.143Z" fill="url(#paint36_linear_42_20)"/>
<path d="M367.818 242.143C364.78 245.539 361.078 249.98 358.16 252.385C355.896 250.382 353.021 247.356 352.161 246.061C350.158 244.831 348.612 247.215 349.287 248.478C350.256 250.284 354.077 256.477 356.745 258.382C359.271 260.189 363.985 258.186 367.187 253.963C369.854 249.642 371.172 239.672 367.818 242.143Z" fill="url(#paint37_linear_42_20)"/>
<g opacity="0.23">
<path d="M340.337 332.075C341.894 332.978 344.42 332.978 345.977 332.075C347.534 331.171 347.534 329.724 345.977 328.82C344.42 327.917 341.894 327.917 340.337 328.82C338.78 329.724 338.78 331.171 340.337 332.075Z" fill="#BCCAE6"/>
<path d="M354.133 340.031C355.69 340.934 358.216 340.934 359.773 340.031C361.33 339.127 361.33 337.68 359.773 336.776C358.216 335.873 355.69 335.873 354.133 336.776C352.576 337.68 352.576 339.127 354.133 340.031Z" fill="#BCCAE6"/>
<path d="M367.928 347.988C369.484 348.891 372.011 348.891 373.568 347.988C375.124 347.084 375.124 345.637 373.568 344.733C372.011 343.83 369.484 343.83 367.928 344.733C366.371 345.637 366.371 347.084 367.928 347.988Z" fill="#BCCAE6"/>
<path d="M387.352 352.7C385.795 351.797 383.269 351.797 381.712 352.7C380.155 353.603 380.155 355.051 381.712 355.954C383.269 356.858 385.795 356.858 387.352 355.954C388.909 355.051 388.909 353.603 387.352 352.7Z" fill="#BCCAE6"/>
<path d="M326.553 340.031C328.11 340.934 330.636 340.934 332.193 340.031C333.75 339.127 333.75 337.68 332.193 336.776C330.636 335.873 328.11 335.873 326.553 336.776C324.996 337.68 324.996 339.127 326.553 340.031Z" fill="#BCCAE6"/>
<path d="M340.337 347.988C341.894 348.891 344.42 348.891 345.977 347.988C347.534 347.084 347.534 345.637 345.977 344.733C344.42 343.83 341.894 343.83 340.337 344.733C338.78 345.637 338.78 347.084 340.337 347.988Z" fill="#BCCAE6"/>
<path d="M354.133 355.944C355.69 356.847 358.216 356.847 359.773 355.944C361.33 355.04 361.33 353.593 359.773 352.689C358.216 351.786 355.69 351.786 354.133 352.689C352.576 353.593 352.576 355.04 354.133 355.944Z" fill="#BCCAE6"/>
<path d="M373.557 360.657C372 359.754 369.474 359.754 367.917 360.657C366.36 361.56 366.36 363.008 367.917 363.911C369.474 364.815 372 364.815 373.557 363.911C375.114 363.008 375.114 361.56 373.557 360.657Z" fill="#BCCAE6"/>
<path d="M312.758 347.988C314.315 348.891 316.841 348.891 318.398 347.988C319.955 347.084 319.955 345.637 318.398 344.733C316.841 343.83 314.315 343.83 312.758 344.733C311.201 345.637 311.201 347.084 312.758 347.988Z" fill="#BCCAE6"/>
<path d="M326.553 355.944C328.11 356.847 330.636 356.847 332.193 355.944C333.75 355.04 333.75 353.593 332.193 352.689C330.636 351.786 328.11 351.786 326.553 352.689C324.996 353.593 324.996 355.04 326.553 355.944Z" fill="#BCCAE6"/>
<path d="M340.337 363.911C341.894 364.815 344.42 364.815 345.977 363.911C347.534 363.008 347.534 361.56 345.977 360.657C344.42 359.754 341.894 359.754 340.337 360.657C338.78 361.56 338.78 363.008 340.337 363.911Z" fill="#BCCAE6"/>
<path d="M359.773 368.613C358.216 367.71 355.69 367.71 354.133 368.613C352.576 369.516 352.576 370.964 354.133 371.867C355.69 372.771 358.216 372.771 359.773 371.867C361.33 370.964 361.33 369.516 359.773 368.613Z" fill="#BCCAE6"/>
<path d="M298.963 355.944C300.52 356.847 303.046 356.847 304.603 355.944C306.16 355.04 306.16 353.593 304.603 352.689C303.046 351.786 300.52 351.786 298.963 352.689C297.406 353.593 297.406 355.04 298.963 355.944Z" fill="#BCCAE6"/>
<path d="M312.758 363.911C314.315 364.815 316.841 364.815 318.398 363.911C319.955 363.008 319.955 361.56 318.398 360.657C316.841 359.754 314.315 359.754 312.758 360.657C311.201 361.56 311.201 363.008 312.758 363.911Z" fill="#BCCAE6"/>
<path d="M326.553 371.867C328.11 372.771 330.636 372.771 332.193 371.867C333.75 370.964 333.75 369.516 332.193 368.613C330.636 367.71 328.11 367.71 326.553 368.613C324.996 369.516 324.996 370.964 326.553 371.867Z" fill="#BCCAE6"/>
<path d="M345.977 376.58C344.42 375.676 341.894 375.676 340.337 376.58C338.78 377.483 338.78 378.931 340.337 379.834C341.894 380.738 344.42 380.738 345.977 379.834C347.534 378.931 347.534 377.483 345.977 376.58Z" fill="#BCCAE6"/>
<path d="M290.808 360.657C289.251 359.754 286.725 359.754 285.168 360.657C283.611 361.56 283.611 363.008 285.168 363.911C286.725 364.815 289.251 364.815 290.808 363.911C292.365 363.008 292.365 361.56 290.808 360.657Z" fill="#BCCAE6"/>
<path d="M304.603 368.613C303.046 367.71 300.52 367.71 298.963 368.613C297.406 369.516 297.406 370.964 298.963 371.867C300.52 372.771 303.046 372.771 304.603 371.867C306.16 370.964 306.16 369.516 304.603 368.613Z" fill="#BCCAE6"/>
<path d="M318.398 376.58C316.841 375.676 314.315 375.676 312.758 376.58C311.201 377.483 311.201 378.931 312.758 379.834C314.315 380.738 316.841 380.738 318.398 379.834C319.955 378.931 319.955 377.483 318.398 376.58Z" fill="#BCCAE6"/>
<path d="M332.182 384.537C330.625 383.634 328.099 383.634 326.542 384.537C324.985 385.44 324.985 386.888 326.542 387.791C328.099 388.695 330.625 388.695 332.182 387.791C333.739 386.888 333.739 385.44 332.182 384.537Z" fill="#BCCAE6"/>
</g>
<path d="M334.229 49.851C333.717 47.8592 333.053 45.9218 332.269 44.0715C331.649 42.6021 330.941 41.1871 330.157 39.8157C329.46 38.5967 328.687 37.4212 327.87 36.2784C327.097 35.2226 326.281 34.2103 325.41 33.2308C325.072 32.8607 324.735 32.4906 324.386 32.1315L317.908 25.4268C318.256 25.7859 318.594 26.156 318.931 26.5261C319.802 27.4948 320.619 28.5179 321.392 29.5737C322.22 30.7056 322.982 31.8811 323.679 33.111C324.462 34.4825 325.17 35.8974 325.791 37.3668C326.575 39.2171 327.239 41.1545 327.751 43.1463C329.373 49.4265 329.612 56.3598 328.197 63.5869C327.838 65.3937 327.391 67.1787 326.858 68.9202C326.194 71.0644 325.399 73.1651 324.484 75.1895C323.766 76.7895 322.971 78.346 322.1 79.8698C321.316 81.2412 320.477 82.5799 319.596 83.8752C318.757 85.1051 317.864 86.3024 316.939 87.4561C316.035 88.588 315.077 89.6873 314.097 90.7431C313.106 91.8098 312.083 92.8329 311.016 93.8125C309.916 94.8247 308.784 95.8043 307.619 96.7295C306.367 97.7199 305.082 98.6669 303.753 99.5594C302.284 100.55 300.759 101.475 299.213 102.324C297.308 103.369 295.348 104.294 293.345 105.11C286.485 107.886 279.114 109.257 271.677 108.865C260.474 108.278 250.968 103.793 244.174 96.7621L250.653 103.467C257.447 110.487 266.963 114.982 278.156 115.57C285.592 115.962 292.963 114.591 299.823 111.815C301.826 111.01 303.786 110.074 305.692 109.029C307.249 108.18 308.762 107.255 310.232 106.264C311.549 105.372 312.845 104.436 314.097 103.434C315.262 102.509 316.394 101.529 317.494 100.517C318.561 99.5267 319.585 98.5036 320.575 97.4478C321.566 96.392 322.513 95.2927 323.417 94.1608C324.343 93.007 325.235 91.8098 326.074 90.5799C326.967 89.2846 327.805 87.9459 328.578 86.5745C329.438 85.0507 330.233 83.4942 330.963 81.8942C331.877 79.8589 332.672 77.7691 333.336 75.6249C333.87 73.8834 334.327 72.0984 334.675 70.2916C336.091 63.0754 335.851 56.1421 334.229 49.8619V49.851Z" fill="url(#paint38_linear_42_20)"/>
<path d="M290.416 13.3342C316.46 14.6947 333.38 37.1925 328.197 63.5759C323.025 89.9484 297.721 110.237 271.677 108.865C245.622 107.505 228.713 85.007 233.885 58.6344C239.057 32.251 264.371 11.9737 290.416 13.3342Z" fill="url(#paint39_linear_42_20)"/>
<g style="mix-blend-mode:screen">
<path d="M289.327 18.8525C312.366 20.0607 327.326 39.9571 322.753 63.3038C318.18 86.6396 295.783 104.577 272.755 103.369C249.705 102.161 234.745 82.2642 239.318 58.9283C243.902 35.5816 266.288 17.6444 289.327 18.8525Z" fill="url(#paint40_linear_42_20)"/>
</g>
<mask id="mask2_42_20" style="mask-type:luminance" maskUnits="userSpaceOnUse" x="246" y="30" width="71" height="62">
<path d="M256.118 30.8037H316.797L306.758 91.4616H246.08L256.118 30.8037Z" fill="white"/>
</mask>
<g mask="url(#mask2_42_20)">
<path d="M286.387 31.2393C280.475 31.2393 274.399 32.9916 268.933 36.2787C263.468 39.5657 258.862 44.235 255.693 49.6989C252.525 55.1628 250.935 61.1709 251.131 66.9722C251.327 72.7735 253.287 78.0959 256.782 82.2755C260.277 86.455 265.133 89.3067 270.741 90.4604C276.348 91.6142 282.467 91.0264 288.303 88.7625C294.139 86.4986 299.441 82.6673 303.546 77.7476C307.651 72.828 310.351 67.0484 311.331 61.1383C312.638 53.2146 310.732 45.6173 306.061 40.012C301.38 34.4066 294.302 31.2501 286.376 31.2501L286.387 31.2393ZM276.784 89.2958C271.209 89.2958 266.037 87.6414 261.921 84.5503C257.806 81.4592 254.92 77.0619 253.636 71.9137C252.351 66.7654 252.732 61.1056 254.724 55.6417C256.717 50.1778 260.234 45.1602 264.818 41.2201C269.412 37.28 274.878 34.6025 280.518 33.5141C286.158 32.4256 291.733 32.9807 296.534 35.1141C301.325 37.2474 305.136 40.85 307.466 45.4867C309.796 50.1125 310.547 55.5655 309.622 61.1274C308.381 68.594 304.221 75.7558 298.07 81.0347C291.918 86.3135 284.264 89.2849 276.794 89.2958H276.784Z" fill="white"/>
<mask id="mask3_42_20" style="mask-type:luminance" maskUnits="userSpaceOnUse" x="259" y="51" width="45" height="21">
<path d="M262.88 51.0264H303.34L299.986 71.2384H259.537L262.88 51.0264Z" fill="white"/>
</mask>
<g mask="url(#mask3_42_20)">
<path d="M293.508 51.0264C291.254 51.0264 288.586 52.2563 285.581 54.6726C284.166 55.8045 282.881 57.0454 281.923 58.0249C281.923 58.0249 282.946 59.4725 284.079 61.0399C284.993 60.0929 286.278 58.8086 287.715 57.6549C290.383 55.4998 291.972 55.0535 292.833 55.0535C296.077 55.0535 298.266 57.7746 297.71 61.1378C297.155 64.5011 294.074 67.1895 290.818 67.2221C290.666 67.2221 290.481 67.2004 290.263 67.1568C291.134 67.5922 292.114 67.9078 293.072 67.9078C299.028 67.9078 300.879 63.8045 300.988 63.5106C301.282 62.7596 301.51 61.965 301.652 61.1596C302.566 55.576 298.919 51.0264 293.508 51.0264Z" fill="white"/>
<path d="M269.358 71.2389C271.612 71.2389 274.279 70.009 277.285 67.5927C278.7 66.4607 279.985 65.2199 280.943 64.2403C280.943 64.2403 279.919 62.7927 278.787 61.2254C277.872 62.1723 276.588 63.4567 275.15 64.6104C272.483 66.7437 270.882 67.2117 270.033 67.2117C266.788 67.2117 264.6 64.4907 265.155 61.1274C265.711 57.7642 268.792 55.0758 272.047 55.0431C272.2 55.0431 272.385 55.0649 272.603 55.1085C271.732 54.6731 270.752 54.3574 269.794 54.3574C263.838 54.3466 261.987 58.4499 261.878 58.7547C261.584 59.5057 261.355 60.3002 261.214 61.1057C260.288 66.6893 263.936 71.2389 269.358 71.2389Z" fill="white"/>
<path fill-rule="evenodd" clip-rule="evenodd" d="M276.12 57.7312C275.575 57.0999 272.821 54.5312 269.783 54.4333C264.371 54.3027 262.129 58.2319 261.9 58.7434C263.675 54.3353 268.106 51.0374 272.701 51.0156C276.457 51.0156 279.647 54.6945 281.901 58.0142H281.912C281.912 58.0142 282.936 59.4509 284.068 61.0182C284.068 61.0182 285.342 62.8686 286.735 64.5012C287.28 65.1325 290.035 67.6685 293.061 67.7665C298.614 67.9189 300.846 63.7611 300.977 63.4454C299.213 67.8862 294.782 71.195 290.154 71.2168C286.398 71.2168 283.208 67.5379 280.943 64.2182C280.943 64.2291 280.932 64.2291 280.932 64.24C280.932 64.24 279.909 62.7924 278.776 61.225C278.787 61.225 277.513 59.353 276.109 57.7312H276.12Z" fill="white"/>
</g>
</g>
<path style="mix-blend-mode:multiply" opacity="0.4" d="M208.832 286.921C202.647 283.351 194.416 281.707 186.337 281.947H182.711V284.026C180.305 284.787 178.04 285.745 176.004 286.921C164.485 293.615 164.55 304.466 176.146 311.16C178.138 312.314 180.36 313.25 182.711 314.001V316.167H188.863C196.169 316.047 203.409 314.393 208.973 311.16C220.493 304.466 220.438 293.615 208.832 286.91V286.921Z" fill="url(#paint41_linear_42_20)"/>
<path d="M200.589 283.905C190.169 277.897 173.293 277.897 162.873 283.905C157.68 286.899 155.088 290.817 155.067 294.757C155.045 298.708 157.658 302.659 162.873 305.663C173.293 311.671 190.169 311.671 200.589 305.663C205.794 302.659 208.396 298.719 208.396 294.79C208.396 290.861 205.794 286.91 200.589 283.905ZM165.367 304.226C156.33 299.013 156.33 290.556 165.367 285.331C174.404 280.107 189.07 280.118 198.107 285.331C207.144 290.545 207.144 299.002 198.107 304.226C189.07 309.451 174.404 309.44 165.367 304.226Z" fill="url(#paint42_linear_42_20)"/>
<path d="M181.731 308.134C194.516 308.134 204.879 302.155 204.879 294.779C204.879 287.403 194.516 281.424 181.731 281.424C168.947 281.424 158.583 287.403 158.583 294.779C158.583 302.155 168.947 308.134 181.731 308.134Z" fill="url(#paint43_linear_42_20)"/>
<path d="M200.578 305.663C190.169 311.671 173.282 311.671 162.873 305.663C157.647 302.648 155.045 298.697 155.067 294.746V300.743C155.056 304.694 157.658 308.645 162.873 311.66C173.282 317.668 190.169 317.668 200.578 311.66C205.783 308.656 208.385 304.716 208.385 300.776C208.385 300.765 208.385 300.754 208.385 300.743V294.779C208.385 298.719 205.783 302.659 200.578 305.663Z" fill="url(#paint44_linear_42_20)"/>
<mask id="mask4_42_20" style="mask-type:luminance" maskUnits="userSpaceOnUse" x="156" y="280" width="49" height="29">
<path d="M182.602 280.923L204.846 293.755L179.172 308.569L156.928 295.736L182.602 280.923Z" fill="white"/>
</mask>
<g mask="url(#mask4_42_20)">
<path d="M193.545 287.442C191.378 286.19 188.514 285.396 185.324 285.156C182.134 284.917 178.748 285.243 175.612 286.103C172.465 286.963 169.711 288.302 167.675 289.967C165.639 291.633 164.43 293.537 164.191 295.442C163.951 297.347 164.702 299.175 166.336 300.677C167.969 302.19 170.429 303.311 173.391 303.921C176.352 304.519 179.684 304.574 182.972 304.073C186.261 303.573 189.342 302.528 191.846 301.08C195.2 299.143 197.257 296.618 197.573 294.06C197.889 291.502 196.441 289.129 193.534 287.453L193.545 287.442ZM168.97 301.624C166.923 300.449 165.628 298.892 165.247 297.151C164.855 295.42 165.399 293.581 166.793 291.872C168.186 290.163 170.386 288.661 173.097 287.562C175.808 286.463 178.911 285.799 182.025 285.668C185.139 285.537 188.112 285.94 190.572 286.833C193.033 287.725 194.873 289.053 195.864 290.664C196.844 292.275 196.931 294.081 196.103 295.877C195.276 297.662 193.577 299.339 191.226 300.699C188.057 302.517 183.941 303.638 179.771 303.812C175.601 303.986 171.725 303.192 168.981 301.613L168.97 301.624Z" fill="white"/>
<mask id="mask5_42_20" style="mask-type:luminance" maskUnits="userSpaceOnUse" x="169" y="287" width="24" height="15">
<path d="M177.757 287.997L192.576 296.552L184.018 301.494L169.199 292.939L177.757 287.997Z" fill="white"/>
</mask>
<g mask="url(#mask5_42_20)">
<path d="M188.972 294.474C188.144 293.995 186.718 293.777 184.747 293.81C183.811 293.832 182.896 293.897 182.189 293.973C182.189 293.973 182.036 294.593 181.884 295.268C182.559 295.192 183.495 295.116 184.442 295.094C186.206 295.051 186.947 295.268 187.262 295.453C188.449 296.139 188.264 297.358 186.849 298.185C185.433 299.012 183.321 299.11 182.112 298.425C182.058 298.392 181.993 298.349 181.938 298.294C182.102 298.599 182.341 298.893 182.689 299.1C184.867 300.362 187.034 299.6 187.186 299.546C187.567 299.393 187.938 299.23 188.275 299.034C190.638 297.663 190.953 295.627 188.961 294.485L188.972 294.474Z" fill="white"/>
<path d="M172.792 295.018C173.62 295.497 175.046 295.715 177.017 295.682C177.953 295.66 178.868 295.595 179.575 295.519C179.575 295.519 179.728 294.898 179.88 294.223C179.205 294.3 178.269 294.376 177.322 294.398C175.569 294.43 174.817 294.223 174.502 294.038C173.315 293.353 173.5 292.134 174.915 291.307C176.331 290.479 178.443 290.381 179.652 291.067C179.706 291.1 179.771 291.143 179.826 291.198C179.662 290.893 179.423 290.599 179.074 290.392C176.897 289.13 174.73 289.881 174.578 289.946C174.197 290.098 173.826 290.262 173.489 290.458C171.126 291.818 170.81 293.864 172.803 295.007L172.792 295.018Z" fill="white"/>
<path fill-rule="evenodd" clip-rule="evenodd" d="M180.174 292.678C180.196 292.384 180.131 291.089 179.053 290.414C177.115 289.227 174.872 289.859 174.6 289.946C176.853 289.086 179.663 289.108 181.361 290.076C182.733 290.871 182.57 292.569 182.199 293.973C182.199 293.973 182.047 294.593 181.895 295.268C181.895 295.268 181.688 296.052 181.611 296.803C181.59 297.097 181.666 298.381 182.744 299.056C184.725 300.275 187.045 299.589 187.208 299.524C184.954 300.395 182.123 300.373 180.425 299.404C179.053 298.61 179.216 296.912 179.586 295.497C179.586 295.497 179.586 295.497 179.575 295.497C179.575 295.497 179.728 294.876 179.88 294.202C179.88 294.202 180.098 293.418 180.174 292.656V292.678Z" fill="white"/>
</g>
</g>
<path style="mix-blend-mode:multiply" opacity="0.4" d="M149.416 320.858C143.232 317.288 135 315.645 126.922 315.884H123.296V317.963C120.89 318.725 118.625 319.683 116.589 320.858C105.069 327.552 105.135 338.404 116.73 345.097C118.723 346.251 120.944 347.187 123.296 347.938V350.104H129.448C136.753 349.985 143.994 348.33 149.558 345.097C161.077 338.404 161.023 327.552 149.416 320.847V320.858Z" fill="url(#paint45_linear_42_20)"/>
<path d="M141.174 317.843C130.754 311.835 113.878 311.835 103.458 317.843C98.2641 320.836 95.6728 324.754 95.651 328.695C95.6292 332.646 98.2424 336.597 103.458 339.601C113.878 345.609 130.754 345.609 141.174 339.601C146.378 336.597 148.98 332.656 148.98 328.727C148.98 324.798 146.378 320.847 141.174 317.843ZM105.951 338.164C96.914 332.95 96.914 324.493 105.951 319.269C114.988 314.044 129.654 314.055 138.691 319.269C147.728 324.482 147.728 332.939 138.691 338.164C129.654 343.388 114.988 343.377 105.951 338.164Z" fill="url(#paint46_linear_42_20)"/>
<path d="M122.316 342.082C135.1 342.082 145.464 336.103 145.464 328.727C145.464 321.351 135.1 315.372 122.316 315.372C109.532 315.372 99.168 321.351 99.168 328.727C99.168 336.103 109.532 342.082 122.316 342.082Z" fill="url(#paint47_linear_42_20)"/>
<path d="M141.163 339.611C130.754 345.619 113.867 345.619 103.458 339.611C98.2315 336.596 95.6292 332.645 95.651 328.694V334.692C95.6401 338.643 98.2424 342.594 103.458 345.608C113.867 351.617 130.754 351.617 141.163 345.608C146.367 342.604 148.97 338.664 148.97 334.724C148.97 334.713 148.97 334.702 148.97 334.692V328.727C148.97 332.667 146.367 336.607 141.163 339.611Z" fill="url(#paint48_linear_42_20)"/>
<mask id="mask6_42_20" style="mask-type:luminance" maskUnits="userSpaceOnUse" x="97" y="314" width="49" height="29">
<path d="M123.187 314.86L145.431 327.704L119.757 342.517L97.5127 329.685L123.187 314.86Z" fill="white"/>
</mask>
<g mask="url(#mask6_42_20)">
<path d="M134.129 321.391C131.962 320.14 129.099 319.345 125.909 319.106C122.718 318.866 119.332 319.193 116.197 320.053C113.05 320.912 110.295 322.251 108.259 323.916C106.223 325.582 105.015 327.486 104.775 329.391C104.536 331.296 105.287 333.125 106.92 334.627C108.553 336.139 111.014 337.261 113.975 337.87C116.937 338.469 120.269 338.523 123.557 338.022C126.845 337.522 129.926 336.477 132.431 335.029C135.784 333.092 137.842 330.567 138.158 328.009C138.473 325.451 137.025 323.078 134.118 321.402L134.129 321.391ZM109.555 335.573C107.508 334.398 106.212 332.842 105.831 331.1C105.439 329.369 105.984 327.53 107.377 325.821C108.771 324.112 110.97 322.61 113.681 321.511C116.393 320.412 119.496 319.748 122.61 319.617C125.724 319.487 128.696 319.889 131.157 320.782C133.617 321.674 135.457 323.002 136.448 324.613C137.428 326.224 137.515 328.031 136.688 329.827C135.86 331.612 134.162 333.288 131.81 334.648C128.642 336.466 124.526 337.587 120.356 337.761C116.186 337.935 112.31 337.141 109.566 335.563L109.555 335.573Z" fill="white"/>
<mask id="mask7_42_20" style="mask-type:luminance" maskUnits="userSpaceOnUse" x="109" y="321" width="25" height="15">
<path d="M118.342 321.946L133.16 330.501L124.602 335.443L109.784 326.888L118.342 321.946Z" fill="white"/>
</mask>
<g mask="url(#mask7_42_20)">
<path d="M129.556 328.422C128.729 327.943 127.303 327.725 125.332 327.758C124.395 327.78 123.481 327.845 122.773 327.921C122.773 327.921 122.621 328.542 122.468 329.217C123.143 329.14 124.08 329.064 125.027 329.042C126.791 328.999 127.531 329.217 127.847 329.402C129.034 330.087 128.849 331.306 127.433 332.134C126.018 332.961 123.905 333.059 122.697 332.373C122.642 332.34 122.577 332.297 122.523 332.242C122.686 332.547 122.926 332.841 123.274 333.048C125.452 334.31 127.618 333.548 127.771 333.494C128.152 333.342 128.522 333.178 128.86 332.982C131.222 331.611 131.538 329.576 129.545 328.433L129.556 328.422Z" fill="white"/>
<path d="M113.377 328.956C114.204 329.434 115.63 329.652 117.601 329.619C118.537 329.598 119.452 329.532 120.16 329.456C120.16 329.456 120.312 328.836 120.465 328.161C119.79 328.237 118.853 328.313 117.906 328.335C116.153 328.368 115.402 328.161 115.086 327.976C113.899 327.29 114.084 326.071 115.5 325.244C116.915 324.417 119.027 324.319 120.236 325.005C120.29 325.037 120.356 325.081 120.41 325.135C120.247 324.83 120.007 324.537 119.659 324.33C117.481 323.067 115.315 323.818 115.162 323.883C114.781 324.036 114.411 324.199 114.073 324.395C111.711 325.756 111.395 327.802 113.387 328.945L113.377 328.956Z" fill="white"/>
<path fill-rule="evenodd" clip-rule="evenodd" d="M120.759 326.615C120.781 326.321 120.715 325.026 119.637 324.351C117.699 323.165 115.456 323.796 115.184 323.883C117.438 323.023 120.247 323.045 121.946 324.014C123.317 324.808 123.154 326.506 122.784 327.91C122.784 327.91 122.631 328.531 122.479 329.206C122.479 329.206 122.272 329.989 122.196 330.74C122.174 331.034 122.25 332.319 123.328 332.993C125.31 334.212 127.629 333.527 127.792 333.461C125.539 334.332 122.708 334.31 121.009 333.342C119.637 332.547 119.801 330.849 120.171 329.434C120.171 329.434 120.171 329.434 120.16 329.434C120.16 329.434 120.312 328.814 120.465 328.139C120.465 328.139 120.683 327.355 120.759 326.593V326.615Z" fill="white"/>
</g>
</g>
<path style="mix-blend-mode:multiply" opacity="0.4" d="M262.129 349.084C256.338 345.741 248.629 344.201 241.063 344.426H237.667V346.373C235.414 347.086 233.293 347.983 231.386 349.084C220.598 355.353 220.659 365.515 231.519 371.784C233.385 372.865 235.465 373.741 237.667 374.445V376.473H243.429C250.271 376.361 257.051 374.812 262.262 371.784C273.05 365.515 272.999 355.353 262.129 349.074V349.084Z" fill="url(#paint49_linear_42_20)"/>
<path d="M254.41 346.26C244.652 340.633 228.847 340.633 219.089 346.26C214.225 349.063 211.798 352.733 211.778 356.423C211.758 360.123 214.205 363.823 219.089 366.636C228.847 372.263 244.652 372.263 254.41 366.636C259.284 363.823 261.721 360.133 261.721 356.453C261.721 352.773 259.284 349.073 254.41 346.26ZM221.424 365.291C212.961 360.408 212.961 352.488 221.424 347.595C229.887 342.703 243.622 342.713 252.086 347.595C260.549 352.478 260.549 360.398 252.086 365.291C243.622 370.183 229.887 370.173 221.424 365.291Z" fill="url(#paint50_linear_42_20)"/>
<path d="M236.75 368.96C248.723 368.96 258.428 363.361 258.428 356.453C258.428 349.546 248.723 343.946 236.75 343.946C224.777 343.946 215.072 349.546 215.072 356.453C215.072 363.361 224.777 368.96 236.75 368.96Z" fill="url(#paint51_linear_42_20)"/>
<path d="M254.4 366.647C244.652 372.273 228.837 372.273 219.089 366.647C214.195 363.823 211.758 360.123 211.778 356.423V362.039C211.768 365.739 214.205 369.44 219.089 372.263C228.837 377.89 244.652 377.89 254.4 372.263C259.274 369.45 261.711 365.76 261.711 362.07C261.711 362.06 261.711 362.05 261.711 362.039V356.453C261.711 360.143 259.274 363.833 254.4 366.647Z" fill="url(#paint52_linear_42_20)"/>
<mask id="mask8_42_20" style="mask-type:luminance" maskUnits="userSpaceOnUse" x="213" y="343" width="46" height="27">
<path d="M237.565 343.467L258.397 355.495L234.353 369.368L213.521 357.35L237.565 343.467Z" fill="white"/>
</mask>
<g mask="url(#mask8_42_20)">
<path d="M247.813 349.583C245.784 348.411 243.102 347.667 240.114 347.443C237.127 347.218 233.956 347.524 231.019 348.329C228.072 349.135 225.492 350.388 223.586 351.948C221.679 353.508 220.547 355.291 220.323 357.075C220.098 358.859 220.802 360.571 222.331 361.978C223.861 363.395 226.165 364.445 228.939 365.016C231.712 365.576 234.833 365.627 237.912 365.158C240.991 364.689 243.877 363.711 246.222 362.355C249.363 360.541 251.29 358.176 251.586 355.781C251.881 353.385 250.525 351.163 247.803 349.593L247.813 349.583ZM224.799 362.865C222.882 361.764 221.669 360.306 221.312 358.675C220.945 357.055 221.454 355.332 222.76 353.732C224.065 352.131 226.125 350.725 228.664 349.695C231.202 348.666 234.109 348.044 237.025 347.922C239.941 347.799 242.725 348.176 245.029 349.012C247.334 349.848 249.057 351.092 249.985 352.6C250.903 354.109 250.984 355.801 250.209 357.483C249.434 359.155 247.844 360.724 245.641 361.998C242.674 363.701 238.819 364.751 234.914 364.914C231.009 365.077 227.379 364.333 224.809 362.855L224.799 362.865Z" fill="white"/>
<mask id="mask9_42_20" style="mask-type:luminance" maskUnits="userSpaceOnUse" x="225" y="350" width="22" height="13">
<path d="M233.028 350.104L246.906 358.115L238.891 362.743L225.014 354.731L233.028 350.104Z" fill="white"/>
</mask>
<g mask="url(#mask9_42_20)">
<path d="M243.531 356.168C242.756 355.719 241.42 355.515 239.575 355.546C238.698 355.566 237.841 355.627 237.179 355.699C237.179 355.699 237.036 356.28 236.893 356.912C237.525 356.84 238.402 356.769 239.289 356.749C240.941 356.708 241.635 356.912 241.93 357.085C243.042 357.727 242.868 358.869 241.543 359.644C240.217 360.418 238.239 360.51 237.107 359.868C237.056 359.837 236.995 359.797 236.944 359.746C237.097 360.031 237.321 360.306 237.648 360.5C239.687 361.682 241.716 360.969 241.859 360.918C242.216 360.775 242.562 360.622 242.879 360.439C245.091 359.154 245.387 357.248 243.521 356.178L243.531 356.168Z" fill="white"/>
<path d="M228.378 356.667C229.153 357.116 230.489 357.32 232.335 357.289C233.212 357.269 234.068 357.208 234.731 357.136C234.731 357.136 234.874 356.555 235.017 355.923C234.384 355.995 233.507 356.066 232.62 356.086C230.979 356.117 230.275 355.923 229.979 355.75C228.868 355.108 229.041 353.966 230.367 353.192C231.692 352.417 233.671 352.325 234.802 352.967C234.853 352.998 234.915 353.039 234.966 353.09C234.813 352.804 234.588 352.529 234.262 352.335C232.223 351.153 230.193 351.856 230.051 351.917C229.694 352.06 229.347 352.213 229.031 352.396C226.818 353.671 226.523 355.587 228.389 356.657L228.378 356.667Z" fill="white"/>
<path fill-rule="evenodd" clip-rule="evenodd" d="M235.292 354.476C235.312 354.2 235.251 352.987 234.242 352.355C232.427 351.244 230.326 351.836 230.071 351.917C232.182 351.112 234.813 351.132 236.403 352.039C237.688 352.784 237.535 354.374 237.189 355.689C237.189 355.689 237.046 356.27 236.903 356.902C236.903 356.902 236.709 357.635 236.638 358.339C236.618 358.614 236.689 359.817 237.698 360.449C239.554 361.59 241.726 360.948 241.879 360.887C239.768 361.703 237.117 361.682 235.527 360.775C234.242 360.031 234.395 358.441 234.741 357.116C234.741 357.116 234.741 357.116 234.731 357.116C234.731 357.116 234.874 356.535 235.017 355.903C235.017 355.903 235.221 355.169 235.292 354.455V354.476Z" fill="white"/>
</g>
</g>
<path style="mix-blend-mode:multiply" opacity="0.4" d="M229.351 362.195C223.56 358.852 215.851 357.313 208.285 357.537H204.89V359.484C202.636 360.197 200.515 361.094 198.608 362.195C187.82 368.464 187.881 378.627 198.741 384.896C200.607 385.976 202.687 386.853 204.89 387.556V389.584H210.651C217.493 389.472 224.274 387.923 229.484 384.896C240.272 378.627 240.221 368.464 229.351 362.185V362.195Z" fill="url(#paint53_linear_42_20)"/>
<path d="M221.633 359.371C211.874 353.745 196.069 353.745 186.311 359.371C181.447 362.174 179.021 365.844 179 369.534C178.98 373.234 181.427 376.934 186.311 379.748C196.069 385.374 211.874 385.374 221.633 379.748C226.507 376.934 228.944 373.244 228.944 369.565C228.944 365.885 226.507 362.185 221.633 359.371ZM188.646 378.402C180.183 373.519 180.183 365.599 188.646 360.707C197.109 355.814 210.844 355.824 219.308 360.707C227.771 365.589 227.771 373.509 219.308 378.402C210.844 383.295 197.109 383.285 188.646 378.402Z" fill="url(#paint54_linear_42_20)"/>
<path d="M203.972 382.072C215.945 382.072 225.65 376.472 225.65 369.565C225.65 362.657 215.945 357.058 203.972 357.058C192 357.058 182.294 362.657 182.294 369.565C182.294 376.472 192 382.072 203.972 382.072Z" fill="url(#paint55_linear_42_20)"/>
<path d="M221.622 379.758C211.874 385.385 196.059 385.385 186.311 379.758C181.417 376.934 178.98 373.234 179 369.534V375.151C178.99 378.851 181.427 382.551 186.311 385.374C196.059 391.001 211.874 391.001 221.622 385.374C226.496 382.561 228.933 378.871 228.933 375.181C228.933 375.171 228.933 375.161 228.933 375.151V369.565C228.933 373.255 226.496 376.945 221.622 379.758Z" fill="url(#paint56_linear_42_20)"/>
<mask id="mask10_42_20" style="mask-type:luminance" maskUnits="userSpaceOnUse" x="180" y="356" width="46" height="27">
<path d="M204.788 356.578L225.619 368.606L201.576 382.479L180.744 370.461L204.788 356.578Z" fill="white"/>
</mask>
<g mask="url(#mask10_42_20)">
<path d="M215.035 362.694C213.006 361.522 210.324 360.778 207.337 360.554C204.349 360.33 201.178 360.635 198.241 361.441C195.294 362.246 192.714 363.5 190.808 365.059C188.901 366.619 187.769 368.403 187.545 370.186C187.32 371.97 188.024 373.683 189.554 375.089C191.083 376.506 193.387 377.556 196.161 378.127C198.934 378.688 202.055 378.739 205.134 378.27C208.214 377.801 211.099 376.822 213.444 375.467C216.585 373.652 218.512 371.287 218.808 368.892C219.104 366.497 217.747 364.274 215.025 362.705L215.035 362.694ZM192.021 375.976C190.104 374.875 188.891 373.418 188.534 371.787C188.167 370.166 188.677 368.443 189.982 366.843C191.287 365.243 193.347 363.836 195.886 362.807C198.425 361.777 201.331 361.155 204.247 361.033C207.163 360.911 209.947 361.288 212.251 362.124C214.556 362.959 216.279 364.203 217.207 365.712C218.125 367.22 218.206 368.912 217.431 370.594C216.656 372.266 215.066 373.836 212.863 375.11C209.896 376.812 206.042 377.862 202.136 378.025C198.231 378.188 194.601 377.444 192.031 375.966L192.021 375.976Z" fill="white"/>
<mask id="mask11_42_20" style="mask-type:luminance" maskUnits="userSpaceOnUse" x="192" y="363" width="23" height="13">
<path d="M200.25 363.215L214.128 371.227L206.114 375.854L192.236 367.843L200.25 363.215Z" fill="white"/>
</mask>
<g mask="url(#mask11_42_20)">
<path d="M210.753 369.279C209.978 368.831 208.643 368.627 206.797 368.657C205.92 368.678 205.064 368.739 204.401 368.81C204.401 368.81 204.258 369.391 204.115 370.023C204.747 369.952 205.624 369.88 206.511 369.86C208.163 369.819 208.857 370.023 209.152 370.196C210.264 370.839 210.091 371.98 208.765 372.755C207.439 373.53 205.461 373.621 204.329 372.979C204.278 372.949 204.217 372.908 204.166 372.857C204.319 373.142 204.543 373.417 204.87 373.611C206.909 374.794 208.938 374.08 209.081 374.029C209.438 373.886 209.785 373.733 210.101 373.55C212.313 372.266 212.609 370.36 210.743 369.289L210.753 369.279Z" fill="white"/>
<path d="M195.601 369.779C196.376 370.227 197.711 370.431 199.557 370.401C200.434 370.38 201.29 370.319 201.953 370.248C201.953 370.248 202.096 369.667 202.239 369.035C201.606 369.106 200.73 369.177 199.842 369.198C198.201 369.228 197.497 369.035 197.202 368.861C196.09 368.219 196.263 367.078 197.589 366.303C198.915 365.528 200.893 365.436 202.025 366.079C202.076 366.109 202.137 366.15 202.188 366.201C202.035 365.916 201.81 365.64 201.484 365.447C199.445 364.264 197.416 364.968 197.273 365.029C196.916 365.171 196.569 365.324 196.253 365.508C194.041 366.782 193.745 368.698 195.611 369.769L195.601 369.779Z" fill="white"/>
<path fill-rule="evenodd" clip-rule="evenodd" d="M202.514 367.587C202.535 367.312 202.473 366.099 201.464 365.467C199.649 364.356 197.548 364.947 197.293 365.028C199.404 364.223 202.035 364.244 203.626 365.151C204.91 365.895 204.757 367.485 204.411 368.8C204.411 368.8 204.268 369.381 204.125 370.013C204.125 370.013 203.932 370.747 203.86 371.45C203.84 371.725 203.911 372.928 204.921 373.56C206.776 374.702 208.948 374.06 209.101 373.998C206.991 374.814 204.339 374.794 202.749 373.886C201.464 373.142 201.617 371.552 201.964 370.227C201.964 370.227 201.964 370.227 201.953 370.227C201.953 370.227 202.096 369.646 202.239 369.014C202.239 369.014 202.443 368.28 202.514 367.567V367.587Z" fill="white"/>
</g>
</g>
<path style="mix-blend-mode:multiply" opacity="0.4" d="M266.812 370.624C261.02 367.281 253.311 365.741 245.746 365.966H242.35V367.913C240.097 368.626 237.976 369.523 236.069 370.624C225.281 376.893 225.342 387.055 236.201 393.324C238.067 394.405 240.148 395.281 242.35 395.985V398.013H248.111C254.953 397.901 261.734 396.352 266.944 393.324C277.733 387.055 277.682 376.893 266.812 370.614V370.624Z" fill="url(#paint57_linear_42_20)"/>
<path d="M259.093 367.8C249.335 362.173 233.53 362.173 223.772 367.8C218.908 370.603 216.481 374.273 216.461 377.963C216.44 381.663 218.887 385.363 223.772 388.176C233.53 393.803 249.335 393.803 259.093 388.176C263.967 385.363 266.404 381.673 266.404 377.993C266.404 374.314 263.967 370.613 259.093 367.8ZM226.107 386.831C217.643 381.948 217.643 374.028 226.107 369.135C234.57 364.243 248.305 364.253 256.768 369.135C265.231 374.018 265.231 381.938 256.768 386.831C248.305 391.723 234.57 391.713 226.107 386.831Z" fill="url(#paint58_linear_42_20)"/>
<path d="M241.433 390.5C253.405 390.5 263.111 384.901 263.111 377.993C263.111 371.086 253.405 365.486 241.433 365.486C229.46 365.486 219.754 371.086 219.754 377.993C219.754 384.901 229.46 390.5 241.433 390.5Z" fill="url(#paint59_linear_42_20)"/>
<path d="M259.083 388.186C249.335 393.812 233.52 393.812 223.772 388.186C218.877 385.362 216.44 381.662 216.461 377.962V383.578C216.45 387.279 218.887 390.979 223.772 393.802C233.52 399.429 249.335 399.429 259.083 393.802C263.957 390.989 266.394 387.299 266.394 383.609C266.394 383.599 266.394 383.589 266.394 383.578V377.993C266.394 381.682 263.957 385.372 259.083 388.186Z" fill="url(#paint60_linear_42_20)"/>
<mask id="mask12_42_20" style="mask-type:luminance" maskUnits="userSpaceOnUse" x="218" y="365" width="46" height="26">
<path d="M242.248 365.007L263.08 377.035L239.036 390.908L218.204 378.89L242.248 365.007Z" fill="white"/>
</mask>
<g mask="url(#mask12_42_20)">
<path d="M252.496 371.123C250.466 369.951 247.785 369.207 244.797 368.983C241.809 368.758 238.638 369.064 235.702 369.869C232.755 370.675 230.175 371.928 228.268 373.488C226.361 375.048 225.23 376.831 225.005 378.615C224.781 380.399 225.484 382.111 227.014 383.518C228.543 384.935 230.848 385.985 233.621 386.556C236.395 387.116 239.515 387.167 242.595 386.698C245.674 386.229 248.56 385.251 250.905 383.895C254.045 382.081 255.973 379.716 256.268 377.321C256.564 374.925 255.208 372.703 252.485 371.133L252.496 371.123ZM229.482 384.405C227.565 383.304 226.351 381.846 225.994 380.216C225.627 378.595 226.137 376.872 227.442 375.272C228.747 373.671 230.807 372.265 233.346 371.235C235.885 370.206 238.791 369.584 241.707 369.462C244.624 369.339 247.407 369.716 249.712 370.552C252.016 371.388 253.74 372.632 254.667 374.14C255.585 375.649 255.667 377.341 254.892 379.023C254.117 380.695 252.526 382.264 250.324 383.538C247.356 385.241 243.502 386.291 239.597 386.454C235.691 386.617 232.061 385.873 229.492 384.395L229.482 384.405Z" fill="white"/>
<mask id="mask13_42_20" style="mask-type:luminance" maskUnits="userSpaceOnUse" x="229" y="371" width="23" height="14">
<path d="M237.71 371.643L251.588 379.654L243.574 384.282L229.696 376.27L237.71 371.643Z" fill="white"/>
</mask>
<g mask="url(#mask13_42_20)">
<path d="M248.213 377.707C247.438 377.258 246.103 377.054 244.257 377.085C243.38 377.105 242.523 377.167 241.861 377.238C241.861 377.238 241.718 377.819 241.575 378.451C242.207 378.38 243.084 378.308 243.971 378.288C245.623 378.247 246.317 378.451 246.612 378.624C247.724 379.266 247.55 380.408 246.225 381.183C244.899 381.957 242.921 382.049 241.789 381.407C241.738 381.376 241.677 381.336 241.626 381.285C241.779 381.57 242.003 381.845 242.33 382.039C244.369 383.221 246.398 382.508 246.541 382.457C246.898 382.314 247.245 382.161 247.561 381.978C249.773 380.693 250.069 378.787 248.203 377.717L248.213 377.707Z" fill="white"/>
<path d="M233.061 378.207C233.836 378.655 235.171 378.859 237.017 378.828C237.894 378.808 238.75 378.747 239.413 378.675C239.413 378.675 239.556 378.094 239.699 377.462C239.066 377.534 238.19 377.605 237.302 377.625C235.661 377.656 234.957 377.462 234.661 377.289C233.55 376.647 233.723 375.505 235.049 374.731C236.375 373.956 238.353 373.864 239.485 374.506C239.535 374.537 239.597 374.578 239.648 374.629C239.495 374.343 239.27 374.068 238.944 373.874C236.905 372.692 234.876 373.395 234.733 373.456C234.376 373.599 234.029 373.752 233.713 373.936C231.5 375.21 231.205 377.126 233.071 378.196L233.061 378.207Z" fill="white"/>
<path fill-rule="evenodd" clip-rule="evenodd" d="M239.974 376.015C239.995 375.739 239.933 374.526 238.924 373.894C237.109 372.783 235.008 373.375 234.753 373.456C236.864 372.651 239.495 372.671 241.086 373.578C242.37 374.323 242.217 375.913 241.871 377.228C241.871 377.228 241.728 377.809 241.585 378.441C241.585 378.441 241.391 379.175 241.32 379.878C241.3 380.153 241.371 381.356 242.381 381.988C244.236 383.129 246.408 382.487 246.561 382.426C244.45 383.242 241.799 383.221 240.209 382.314C238.924 381.57 239.077 379.98 239.424 378.655C239.424 378.655 239.424 378.655 239.413 378.655C239.413 378.655 239.556 378.074 239.699 377.442C239.699 377.442 239.903 376.708 239.974 375.994V376.015Z" fill="white"/>
</g>
</g>
<path style="mix-blend-mode:multiply" opacity="0.4" d="M249.018 350.02C243.226 346.677 235.518 345.138 227.952 345.362H224.556V347.309C222.303 348.023 220.182 348.92 218.275 350.02C207.487 356.289 207.548 366.452 218.407 372.721C220.273 373.801 222.354 374.678 224.556 375.381V377.41H230.317C237.159 377.297 243.94 375.748 249.151 372.721C259.939 366.452 259.888 356.289 249.018 350.01V350.02Z" fill="url(#paint61_linear_42_20)"/>
<path d="M241.299 347.197C231.541 341.57 215.736 341.57 205.978 347.197C201.114 350 198.687 353.669 198.667 357.359C198.646 361.059 201.093 364.759 205.978 367.573C215.736 373.199 231.541 373.199 241.299 367.573C246.173 364.759 248.61 361.069 248.61 357.39C248.61 353.71 246.173 350.01 241.299 347.197ZM208.313 366.227C199.849 361.345 199.849 353.425 208.313 348.532C216.776 343.639 230.511 343.649 238.974 348.532C247.438 353.414 247.438 361.334 238.974 366.227C230.511 371.12 216.776 371.11 208.313 366.227Z" fill="url(#paint62_linear_42_20)"/>
<path d="M223.639 369.897C235.611 369.897 245.317 364.297 245.317 357.39C245.317 350.482 235.611 344.883 223.639 344.883C211.666 344.883 201.96 350.482 201.96 357.39C201.96 364.297 211.666 369.897 223.639 369.897Z" fill="url(#paint63_linear_42_20)"/>
<path d="M241.289 367.583C231.541 373.21 215.726 373.21 205.978 367.583C201.083 364.76 198.646 361.06 198.667 357.359V362.976C198.656 366.676 201.093 370.376 205.978 373.2C215.726 378.826 231.541 378.826 241.289 373.2C246.163 370.386 248.6 366.696 248.6 363.006C248.6 362.996 248.6 362.986 248.6 362.976V357.39C248.6 361.08 246.163 364.77 241.289 367.583Z" fill="url(#paint64_linear_42_20)"/>
<mask id="mask14_42_20" style="mask-type:luminance" maskUnits="userSpaceOnUse" x="200" y="344" width="46" height="27">
<path d="M224.454 344.403L245.286 356.431L221.242 370.304L200.41 358.286L224.454 344.403Z" fill="white"/>
</mask>
<g mask="url(#mask14_42_20)">
<path d="M234.702 350.52C232.673 349.347 229.991 348.603 227.004 348.379C224.016 348.155 220.845 348.461 217.908 349.266C214.961 350.071 212.381 351.325 210.475 352.884C208.568 354.444 207.436 356.228 207.212 358.012C206.987 359.795 207.691 361.508 209.221 362.915C210.75 364.331 213.054 365.381 215.828 365.952C218.601 366.513 221.722 366.564 224.801 366.095C227.88 365.626 230.766 364.647 233.111 363.292C236.252 361.477 238.179 359.113 238.475 356.717C238.771 354.322 237.414 352.1 234.692 350.53L234.702 350.52ZM211.688 363.801C209.771 362.701 208.558 361.243 208.201 359.612C207.834 357.991 208.344 356.269 209.649 354.668C210.954 353.068 213.014 351.661 215.553 350.632C218.092 349.602 220.998 348.98 223.914 348.858C226.83 348.736 229.614 349.113 231.918 349.949C234.223 350.785 235.946 352.028 236.874 353.537C237.792 355.045 237.873 356.737 237.098 358.419C236.323 360.091 234.733 361.661 232.53 362.935C229.563 364.637 225.709 365.687 221.803 365.85C217.898 366.013 214.268 365.269 211.698 363.791L211.688 363.801Z" fill="white"/>
<mask id="mask15_42_20" style="mask-type:luminance" maskUnits="userSpaceOnUse" x="211" y="351" width="23" height="13">
<path d="M219.916 351.04L233.794 359.052L225.78 363.68L211.902 355.668L219.916 351.04Z" fill="white"/>
</mask>
<g mask="url(#mask15_42_20)">
<path d="M230.419 357.104C229.644 356.656 228.308 356.452 226.462 356.482C225.586 356.503 224.729 356.564 224.066 356.635C224.066 356.635 223.924 357.216 223.781 357.848C224.413 357.777 225.29 357.706 226.177 357.685C227.829 357.644 228.522 357.848 228.818 358.022C229.929 358.664 229.756 359.805 228.43 360.58C227.105 361.355 225.127 361.447 223.995 360.804C223.944 360.774 223.883 360.733 223.832 360.682C223.985 360.967 224.209 361.243 224.535 361.436C226.575 362.619 228.604 361.905 228.747 361.854C229.103 361.712 229.45 361.559 229.766 361.375C231.979 360.091 232.275 358.185 230.409 357.114L230.419 357.104Z" fill="white"/>
<path d="M215.267 357.604C216.042 358.052 217.377 358.256 219.223 358.226C220.1 358.205 220.956 358.144 221.619 358.073C221.619 358.073 221.762 357.492 221.905 356.86C221.273 356.931 220.396 357.003 219.508 357.023C217.867 357.054 217.163 356.86 216.868 356.687C215.756 356.044 215.929 354.903 217.255 354.128C218.581 353.353 220.559 353.262 221.691 353.904C221.742 353.934 221.803 353.975 221.854 354.026C221.701 353.741 221.476 353.466 221.15 353.272C219.111 352.089 217.082 352.793 216.939 352.854C216.582 352.997 216.235 353.15 215.919 353.333C213.707 354.607 213.411 356.523 215.277 357.594L215.267 357.604Z" fill="white"/>
<path fill-rule="evenodd" clip-rule="evenodd" d="M222.18 355.412C222.201 355.137 222.139 353.924 221.13 353.292C219.315 352.181 217.214 352.772 216.959 352.854C219.07 352.048 221.701 352.069 223.292 352.976C224.576 353.72 224.423 355.31 224.077 356.625C224.077 356.625 223.934 357.206 223.791 357.838C223.791 357.838 223.598 358.572 223.526 359.275C223.506 359.551 223.577 360.753 224.587 361.385C226.442 362.527 228.614 361.885 228.767 361.824C226.657 362.639 224.005 362.619 222.415 361.712C221.13 360.967 221.283 359.377 221.63 358.052C221.63 358.052 221.63 358.052 221.619 358.052C221.619 358.052 221.762 357.471 221.905 356.839C221.905 356.839 222.109 356.105 222.18 355.392V355.412Z" fill="white"/>
</g>
</g>
<g opacity="0.2">
<path d="M140.549 184.261C140.549 188.266 137.708 193.186 134.245 195.177L23.9062 258.861C20.4329 260.864 17.6021 259.22 17.6021 255.226V172.571C17.6021 168.565 20.4438 163.657 23.9062 161.654L134.245 97.9702C137.718 95.9675 140.549 97.611 140.549 101.606V184.261Z" fill="url(#paint65_linear_42_20)"/>
<path d="M140.549 184.261C140.549 188.266 137.708 193.186 134.245 195.177L23.9062 258.861C20.4329 260.864 17.6021 259.22 17.6021 255.226V172.571C17.6021 168.565 20.4438 163.657 23.9062 161.654L134.245 97.9702C137.718 95.9675 140.549 97.611 140.549 101.606V184.261Z" fill="url(#paint66_linear_42_20)"/>
</g>
<path d="M147.947 190.287C147.947 194.292 145.106 199.212 141.643 201.204L31.3042 264.887C27.8309 266.89 25 265.247 25 261.252V178.597C25 174.592 27.8418 169.683 31.3042 167.68L141.643 103.997C145.116 101.994 147.947 103.637 147.947 107.632V190.287Z" fill="url(#paint67_linear_42_20)"/>
<path d="M147.947 190.287C147.947 194.292 145.106 199.212 141.643 201.204L31.3042 264.887C27.8309 266.89 25 265.247 25 261.252V178.597C25 174.592 27.8418 169.683 31.3042 167.68L141.643 103.997C145.116 101.994 147.947 103.637 147.947 107.632V190.287Z" fill="url(#paint68_linear_42_20)"/>
<path opacity="0.3" d="M147.947 229.927C147.947 233.933 145.106 238.852 141.643 240.844L31.3042 304.528C27.8309 306.53 25 304.887 25 300.892V304.528C25 300.522 27.8418 295.614 31.3042 293.611L141.643 229.927C145.116 227.925 147.947 229.568 147.947 233.563V229.927Z" fill="url(#paint69_linear_42_20)"/>
<path d="M113.824 134.103L57.9468 166.353V165.265L113.824 133.015V134.103Z" fill="white"/>
<path d="M113.824 138.652L57.9468 170.902V169.813L113.824 137.563V138.652Z" fill="white"/>
<path d="M104.885 148.633L66.8857 170.565V169.466L104.885 147.534V148.633Z" fill="white"/>
<path d="M66.1564 231.984L54.8765 238.482V219.794L66.1564 213.285V231.984Z" fill="white"/>
<path d="M86.4518 220.273L75.1719 226.771V189.003L86.4518 182.505V220.273Z" fill="white"/>
<path d="M106.736 208.561L95.4668 215.059V185.911L106.736 179.402V208.561Z" fill="white"/>
<path d="M127.031 196.85L115.762 203.348V149.819L127.031 143.311V196.85Z" fill="white"/>
</g>
<defs>
<linearGradient id="paint0_linear_42_20" x1="281.792" y1="190.519" x2="398" y2="190.519" gradientUnits="userSpaceOnUse">
<stop stop-color="#C4CAE9"/>
<stop offset="0.53" stop-color="#D9DCEF"/>
<stop offset="1" stop-color="#F1F1F6"/>
</linearGradient>
<linearGradient id="paint1_linear_42_20" x1="163.266" y1="250.785" x2="397.989" y2="250.785" gradientUnits="userSpaceOnUse">
<stop offset="0.43" stop-color="#C5DBEF"/>
<stop offset="0.58" stop-color="#BBCAE6"/>
</linearGradient>
<linearGradient id="paint2_linear_42_20" x1="177.055" y1="254.246" x2="251.671" y2="276.407" gradientUnits="userSpaceOnUse">
<stop stop-color="#807DFB"/>
<stop offset="1" stop-color="#362E94"/>
</linearGradient>
<linearGradient id="paint3_linear_42_20" x1="217.346" y1="222.135" x2="217.346" y2="308.515" gradientUnits="userSpaceOnUse">
<stop stop-color="#00D1FF"/>
<stop offset="1" stop-color="#0066FF"/>
</linearGradient>
<linearGradient id="paint4_linear_42_20" x1="112.93" y1="384.726" x2="202.089" y2="230.252" gradientUnits="userSpaceOnUse">
<stop stop-color="white"/>
<stop offset="1" stop-color="#F6F6FB"/>
</linearGradient>
<linearGradient id="paint5_linear_42_20" x1="140.096" y1="287.377" x2="174.691" y2="347.327" gradientUnits="userSpaceOnUse">
<stop stop-color="#F6F6FB"/>
<stop offset="1" stop-color="#F1F1F6"/>
</linearGradient>
<linearGradient id="paint6_linear_42_20" x1="114.999" y1="385.912" x2="115.097" y2="385.912" gradientUnits="userSpaceOnUse">
<stop stop-color="#D1D7F3"/>
<stop offset="1" stop-color="#F1F1F6"/>
</linearGradient>
<linearGradient id="paint7_linear_42_20" x1="115.326" y1="344.563" x2="257.316" y2="344.563" gradientUnits="userSpaceOnUse">
<stop stop-color="#D1D7F3"/>
<stop offset="1" stop-color="#F1F1F6"/>
</linearGradient>
<linearGradient id="paint8_linear_42_20" x1="349.058" y1="280.706" x2="382.407" y2="280.706" gradientUnits="userSpaceOnUse">
<stop offset="0.43" stop-color="#C5DBEF"/>
<stop offset="0.58" stop-color="#BBCAE6"/>
</linearGradient>
<linearGradient id="paint9_linear_42_20" x1="227.602" y1="266.045" x2="251.284" y2="266.045" gradientUnits="userSpaceOnUse">
<stop offset="0.45" stop-color="#C4C9E4"/>
<stop offset="1" stop-color="white"/>
</linearGradient>
<linearGradient id="paint10_linear_42_20" x1="215.253" y1="260.63" x2="251.281" y2="260.63" gradientUnits="userSpaceOnUse">
<stop stop-color="#F9A942"/>
<stop offset="1" stop-color="#F9DD68"/>
</linearGradient>
<linearGradient id="paint11_linear_42_20" x1="218.765" y1="260.367" x2="251.286" y2="260.367" gradientUnits="userSpaceOnUse">
<stop stop-color="#F9DD68"/>
<stop offset="1" stop-color="#F9A942"/>
</linearGradient>
<linearGradient id="paint12_linear_42_20" x1="239.243" y1="267.222" x2="234.622" y2="281.572" gradientUnits="userSpaceOnUse">
<stop stop-color="#F9DD68"/>
<stop offset="1" stop-color="#F9A942"/>
</linearGradient>
<linearGradient id="paint13_linear_42_20" x1="248" y1="225.643" x2="204" y2="284.143" gradientUnits="userSpaceOnUse">
<stop stop-color="#00D1FF"/>
<stop offset="1" stop-color="#0066FF" stop-opacity="0"/>
</linearGradient>
<linearGradient id="paint14_linear_42_20" x1="342.972" y1="252.689" x2="351.319" y2="241.323" gradientUnits="userSpaceOnUse">
<stop stop-color="#20196F"/>
<stop offset="0.03" stop-color="#322C7D"/>
<stop offset="0.09" stop-color="#56539A"/>
<stop offset="0.16" stop-color="#7776B3"/>
<stop offset="0.23" stop-color="#9293C8"/>
<stop offset="0.32" stop-color="#A8AADA"/>
<stop offset="0.41" stop-color="#B9BCE7"/>
<stop offset="0.52" stop-color="#C5C9F1"/>
<stop offset="0.67" stop-color="#CCD0F6"/>
<stop offset="1" stop-color="#CED3F8"/>
</linearGradient>
<linearGradient id="paint15_linear_42_20" x1="343.996" y1="253.048" x2="352.136" y2="241.78" gradientUnits="userSpaceOnUse">
<stop stop-color="#20196F"/>
<stop offset="0.14" stop-color="#413D88"/>
<stop offset="0.34" stop-color="#6C6BA9"/>
<stop offset="0.53" stop-color="#8E90C4"/>
<stop offset="0.71" stop-color="#A7AAD6"/>
<stop offset="0.87" stop-color="#B5BAE2"/>
<stop offset="1" stop-color="#BBC0E6"/>
</linearGradient>
<linearGradient id="paint16_linear_42_20" x1="196.004" y1="190.734" x2="364.806" y2="190.734" gradientUnits="userSpaceOnUse">
<stop offset="0.43" stop-color="#C5DBEF"/>
<stop offset="0.58" stop-color="#BBCAE6"/>
</linearGradient>
<linearGradient id="paint17_linear_42_20" x1="188.809" y1="176.618" x2="372.012" y2="176.618" gradientUnits="userSpaceOnUse">
<stop offset="0.43" stop-color="#A1CAF0"/>
<stop offset="0.58" stop-color="#ABC3F2"/>
</linearGradient>
<linearGradient id="paint18_linear_42_20" x1="209.833" y1="127.713" x2="350.969" y2="127.713" gradientUnits="userSpaceOnUse">
<stop offset="0.43" stop-color="#A1CAF0"/>
<stop offset="0.58" stop-color="#ABC3F2"/>
</linearGradient>
<linearGradient id="paint19_linear_42_20" x1="197.307" y1="138.853" x2="312.211" y2="216.566" gradientUnits="userSpaceOnUse">
<stop stop-color="#807DFB"/>
<stop offset="1" stop-color="#362E94"/>
</linearGradient>
<linearGradient id="paint20_linear_42_20" x1="280.404" y1="109.771" x2="280.404" y2="188.002" gradientUnits="userSpaceOnUse">
<stop stop-color="#00D1FF"/>
<stop offset="1" stop-color="#0066FF"/>
</linearGradient>
<linearGradient id="paint21_linear_42_20" x1="280.419" y1="0.789062" x2="280.419" y2="188.012" gradientUnits="userSpaceOnUse">
<stop stop-color="#00D1FF" stop-opacity="0"/>
<stop offset="1" stop-color="#0066FF"/>
</linearGradient>
<linearGradient id="paint22_linear_42_20" x1="346.69" y1="88.3686" x2="350.152" y2="89.6817" gradientUnits="userSpaceOnUse">
<stop stop-color="#807DFB"/>
<stop offset="1" stop-color="#362E94"/>
</linearGradient>
<linearGradient id="paint23_linear_42_20" x1="348.655" y1="87.1426" x2="348.655" y2="90.4405" gradientUnits="userSpaceOnUse">
<stop stop-color="#00D1FF"/>
<stop offset="1" stop-color="#0066FF"/>
</linearGradient>
<linearGradient id="paint24_linear_42_20" x1="230.69" y1="26.3686" x2="234.152" y2="27.6817" gradientUnits="userSpaceOnUse">
<stop stop-color="#807DFB"/>
<stop offset="1" stop-color="#362E94"/>
</linearGradient>
<linearGradient id="paint25_linear_42_20" x1="232.655" y1="25.1426" x2="232.655" y2="28.4405" gradientUnits="userSpaceOnUse">
<stop stop-color="#00D1FF"/>
<stop offset="1" stop-color="#0066FF"/>
</linearGradient>
<linearGradient id="paint26_linear_42_20" x1="213.345" y1="93.7448" x2="220.672" y2="96.5142" gradientUnits="userSpaceOnUse">
<stop stop-color="#807DFB"/>
<stop offset="1" stop-color="#362E94"/>
</linearGradient>
<linearGradient id="paint27_linear_42_20" x1="217.5" y1="91.1426" x2="217.5" y2="98.1426" gradientUnits="userSpaceOnUse">
<stop stop-color="#00D1FF"/>
<stop offset="1" stop-color="#0066FF"/>
</linearGradient>
<linearGradient id="paint28_linear_42_20" x1="192.543" y1="191.357" x2="204.65" y2="191.357" gradientUnits="userSpaceOnUse">
<stop stop-color="#C4CAE9"/>
<stop offset="1" stop-color="white"/>
</linearGradient>
<linearGradient id="paint29_linear_42_20" x1="187.644" y1="190.388" x2="197.443" y2="190.388" gradientUnits="userSpaceOnUse">
<stop stop-color="#FFAD02"/>
<stop offset="1" stop-color="#FC780B"/>
</linearGradient>
<linearGradient id="paint30_linear_42_20" x1="263.315" y1="232.195" x2="275.412" y2="232.195" gradientUnits="userSpaceOnUse">
<stop stop-color="#C4CAE9"/>
<stop offset="1" stop-color="white"/>
</linearGradient>
<linearGradient id="paint31_linear_42_20" x1="258.416" y1="231.237" x2="268.215" y2="231.237" gradientUnits="userSpaceOnUse">
<stop stop-color="#FFAD02"/>
<stop offset="1" stop-color="#FC780B"/>
</linearGradient>
<linearGradient id="paint32_linear_42_20" x1="387.719" y1="253.94" x2="392.454" y2="254.67" gradientUnits="userSpaceOnUse">
<stop stop-color="#423EAF"/>
<stop offset="1" stop-color="#423EAF"/>
</linearGradient>
<linearGradient id="paint33_linear_42_20" x1="387.401" y1="239.824" x2="387.401" y2="267.566" gradientUnits="userSpaceOnUse">
<stop stop-color="#00D1FF"/>
<stop offset="1" stop-color="#0066FF"/>
</linearGradient>
<linearGradient id="paint34_linear_42_20" x1="366.414" y1="255.411" x2="387.341" y2="255.411" gradientUnits="userSpaceOnUse">
<stop stop-color="#807DFB"/>
<stop offset="0.31" stop-color="#7673F0"/>
<stop offset="0.85" stop-color="#5E5AD5"/>
<stop offset="1" stop-color="#5652CC"/>
</linearGradient>
<linearGradient id="paint35_linear_42_20" x1="376.884" y1="238.543" x2="376.884" y2="272.281" gradientUnits="userSpaceOnUse">
<stop stop-color="#00D1FF"/>
<stop offset="1" stop-color="#0066FF"/>
</linearGradient>
<linearGradient id="paint36_linear_42_20" x1="349.112" y1="250.404" x2="369.821" y2="250.404" gradientUnits="userSpaceOnUse">
<stop stop-color="#807DFB"/>
<stop offset="0.31" stop-color="#7673F0"/>
<stop offset="0.85" stop-color="#5E5AD5"/>
<stop offset="1" stop-color="#5652CC"/>
</linearGradient>
<linearGradient id="paint37_linear_42_20" x1="359.472" y1="241.755" x2="359.472" y2="259.048" gradientUnits="userSpaceOnUse">
<stop stop-color="#00D1FF"/>
<stop offset="1" stop-color="#0066FF"/>
</linearGradient>
<linearGradient id="paint38_linear_42_20" x1="305.049" y1="56.8822" x2="277.191" y2="108.852" gradientUnits="userSpaceOnUse">
<stop stop-color="#F9DD68"/>
<stop offset="1" stop-color="#F9A942"/>
</linearGradient>
<linearGradient id="paint39_linear_42_20" x1="232.949" y1="61.1051" x2="329.122" y2="61.1051" gradientUnits="userSpaceOnUse">
<stop stop-color="#F9DD68"/>
<stop offset="1" stop-color="#F9A942"/>
</linearGradient>
<linearGradient id="paint40_linear_42_20" x1="238.49" y1="61.1052" x2="323.58" y2="61.1052" gradientUnits="userSpaceOnUse">
<stop stop-color="#F9DD68"/>
<stop offset="1" stop-color="#F9A942"/>
</linearGradient>
<linearGradient id="paint41_linear_42_20" x1="167.414" y1="299.046" x2="217.575" y2="299.046" gradientUnits="userSpaceOnUse">
<stop offset="0.45" stop-color="#C4C9E4"/>
<stop offset="1" stop-color="white" stop-opacity="0"/>
</linearGradient>
<linearGradient id="paint42_linear_42_20" x1="155.067" y1="294.779" x2="208.396" y2="294.779" gradientUnits="userSpaceOnUse">
<stop stop-color="#F9A942"/>
<stop offset="1" stop-color="#F9DD68"/>
</linearGradient>
<linearGradient id="paint43_linear_42_20" x1="158.581" y1="294.777" x2="204.882" y2="294.777" gradientUnits="userSpaceOnUse">
<stop stop-color="#F9DD68"/>
<stop offset="1" stop-color="#F9A942"/>
</linearGradient>
<linearGradient id="paint44_linear_42_20" x1="190.566" y1="302.215" x2="187.256" y2="317.379" gradientUnits="userSpaceOnUse">
<stop stop-color="#F9DD68"/>
<stop offset="1" stop-color="#F9A942"/>
</linearGradient>
<linearGradient id="paint45_linear_42_20" x1="107.998" y1="332.994" x2="158.159" y2="332.994" gradientUnits="userSpaceOnUse">
<stop offset="0.45" stop-color="#C4C9E4"/>
<stop offset="1" stop-color="white" stop-opacity="0"/>
</linearGradient>
<linearGradient id="paint46_linear_42_20" x1="95.651" y1="328.716" x2="148.98" y2="328.716" gradientUnits="userSpaceOnUse">
<stop stop-color="#F9A942"/>
<stop offset="1" stop-color="#F9DD68"/>
</linearGradient>
<linearGradient id="paint47_linear_42_20" x1="99.1652" y1="328.725" x2="145.467" y2="328.725" gradientUnits="userSpaceOnUse">
<stop stop-color="#F9DD68"/>
<stop offset="1" stop-color="#F9A942"/>
</linearGradient>
<linearGradient id="paint48_linear_42_20" x1="131.15" y1="336.163" x2="127.84" y2="351.327" gradientUnits="userSpaceOnUse">
<stop stop-color="#F9DD68"/>
<stop offset="1" stop-color="#F9A942"/>
</linearGradient>
<linearGradient id="paint49_linear_42_20" x1="223.341" y1="360.449" x2="270.317" y2="360.449" gradientUnits="userSpaceOnUse">
<stop offset="0.45" stop-color="#C4C9E4"/>
<stop offset="1" stop-color="white" stop-opacity="0"/>
</linearGradient>
<linearGradient id="paint50_linear_42_20" x1="211.778" y1="356.443" x2="261.721" y2="356.443" gradientUnits="userSpaceOnUse">
<stop stop-color="#F9A942"/>
<stop offset="1" stop-color="#F9DD68"/>
</linearGradient>
<linearGradient id="paint51_linear_42_20" x1="215.069" y1="356.452" x2="258.431" y2="356.452" gradientUnits="userSpaceOnUse">
<stop stop-color="#F9DD68"/>
<stop offset="1" stop-color="#F9A942"/>
</linearGradient>
<linearGradient id="paint52_linear_42_20" x1="245.023" y1="363.418" x2="241.924" y2="377.619" gradientUnits="userSpaceOnUse">
<stop stop-color="#F9DD68"/>
<stop offset="1" stop-color="#F9A942"/>
</linearGradient>
<linearGradient id="paint53_linear_42_20" x1="190.563" y1="373.561" x2="237.539" y2="373.561" gradientUnits="userSpaceOnUse">
<stop offset="0.45" stop-color="#C4C9E4"/>
<stop offset="1" stop-color="white" stop-opacity="0"/>
</linearGradient>
<linearGradient id="paint54_linear_42_20" x1="179" y1="369.554" x2="228.944" y2="369.554" gradientUnits="userSpaceOnUse">
<stop stop-color="#F9A942"/>
<stop offset="1" stop-color="#F9DD68"/>
</linearGradient>
<linearGradient id="paint55_linear_42_20" x1="182.291" y1="369.563" x2="225.653" y2="369.563" gradientUnits="userSpaceOnUse">
<stop stop-color="#F9DD68"/>
<stop offset="1" stop-color="#F9A942"/>
</linearGradient>
<linearGradient id="paint56_linear_42_20" x1="212.246" y1="376.529" x2="209.146" y2="390.73" gradientUnits="userSpaceOnUse">
<stop stop-color="#F9DD68"/>
<stop offset="1" stop-color="#F9A942"/>
</linearGradient>
<linearGradient id="paint57_linear_42_20" x1="228.024" y1="381.989" x2="275" y2="381.989" gradientUnits="userSpaceOnUse">
<stop offset="0.45" stop-color="#C4C9E4"/>
<stop offset="1" stop-color="white" stop-opacity="0"/>
</linearGradient>
<linearGradient id="paint58_linear_42_20" x1="216.461" y1="377.983" x2="266.404" y2="377.983" gradientUnits="userSpaceOnUse">
<stop stop-color="#F9A942"/>
<stop offset="1" stop-color="#F9DD68"/>
</linearGradient>
<linearGradient id="paint59_linear_42_20" x1="219.752" y1="377.992" x2="263.113" y2="377.992" gradientUnits="userSpaceOnUse">
<stop stop-color="#F9DD68"/>
<stop offset="1" stop-color="#F9A942"/>
</linearGradient>
<linearGradient id="paint60_linear_42_20" x1="249.706" y1="384.957" x2="246.606" y2="399.158" gradientUnits="userSpaceOnUse">
<stop stop-color="#F9DD68"/>
<stop offset="1" stop-color="#F9A942"/>
</linearGradient>
<linearGradient id="paint61_linear_42_20" x1="210.23" y1="361.386" x2="257.206" y2="361.386" gradientUnits="userSpaceOnUse">
<stop offset="0.45" stop-color="#C4C9E4"/>
<stop offset="1" stop-color="white" stop-opacity="0"/>
</linearGradient>
<linearGradient id="paint62_linear_42_20" x1="198.667" y1="357.38" x2="248.61" y2="357.38" gradientUnits="userSpaceOnUse">
<stop stop-color="#F9A942"/>
<stop offset="1" stop-color="#F9DD68"/>
</linearGradient>
<linearGradient id="paint63_linear_42_20" x1="201.958" y1="357.388" x2="245.32" y2="357.388" gradientUnits="userSpaceOnUse">
<stop stop-color="#F9DD68"/>
<stop offset="1" stop-color="#F9A942"/>
</linearGradient>
<linearGradient id="paint64_linear_42_20" x1="231.912" y1="364.354" x2="228.812" y2="378.555" gradientUnits="userSpaceOnUse">
<stop stop-color="#F9DD68"/>
<stop offset="1" stop-color="#F9A942"/>
</linearGradient>
<linearGradient id="paint65_linear_42_20" x1="6.09343" y1="157.561" x2="142.067" y2="196.421" gradientUnits="userSpaceOnUse">
<stop stop-color="#807DFB"/>
<stop offset="1" stop-color="#362E94"/>
</linearGradient>
<linearGradient id="paint66_linear_42_20" x1="79.0757" y1="97.1162" x2="79.0757" y2="259.715" gradientUnits="userSpaceOnUse">
<stop stop-color="#00D1FF"/>
<stop offset="1" stop-color="#0066FF"/>
</linearGradient>
<linearGradient id="paint67_linear_42_20" x1="13.4914" y1="163.588" x2="149.465" y2="202.448" gradientUnits="userSpaceOnUse">
<stop stop-color="#807DFB"/>
<stop offset="1" stop-color="#362E94"/>
</linearGradient>
<linearGradient id="paint68_linear_42_20" x1="86.4737" y1="103.143" x2="86.4737" y2="265.742" gradientUnits="userSpaceOnUse">
<stop stop-color="#00D1FF"/>
<stop offset="1" stop-color="#0066FF"/>
</linearGradient>
<linearGradient id="paint69_linear_42_20" x1="24.9885" y1="267.217" x2="147.947" y2="267.217" gradientUnits="userSpaceOnUse">
<stop stop-color="#C4CAE9"/>
<stop offset="0.53" stop-color="#D9DCEF"/>
<stop offset="1" stop-color="#F1F1F6"/>
</linearGradient>
<clipPath id="clip0_42_20">
<rect width="398" height="411" fill="white" transform="translate(0 0.142578)"/>
</clipPath>
</defs>
</svg>
