<svg width="547" height="421" viewBox="0 0 547 421" fill="none" xmlns="http://www.w3.org/2000/svg">
<path d="M48.4533 305.689C54.35 312.064 60.7255 317.804 67.4771 323.015C69.4648 324.55 78.7234 323.015 81.0915 323.015C112.779 323.015 144.466 323.015 176.154 323.015C222.221 323.015 268.287 323.015 314.353 323.015C355.848 323.015 397.343 323.015 438.838 323.015C451.949 323.015 465.06 323.015 478.171 323.015C481.53 323.015 487.848 324.176 490.964 322.818C497.526 319.96 494.533 306.849 493.936 300.869C493.009 291.6 490.839 282.332 485.882 274.339C472.343 252.513 448.664 244.72 430.021 228.565C411.806 212.781 399.18 191.695 384.211 172.802C372.524 158.051 359.294 144.523 344.808 132.511C335.574 124.856 325.584 117.689 314.096 114.248C304.045 111.238 293.315 111.236 282.892 112.43C252.345 115.93 223.078 129.787 201.007 151.203C176.089 175.381 155.403 211.258 122.521 225.398C104.512 233.143 84.1943 234.183 66.1441 241.83C48.094 249.477 31.6419 267.987 36.7096 286.932C38.6351 294.132 43.3931 300.219 48.4533 305.689Z" fill="#E3EFFF"/>
<path d="M478.578 246.68C482.062 247.264 485.792 247.246 488.948 245.657C490.529 244.861 492.02 243.495 492.171 241.732C492.239 240.94 492.028 240.152 491.77 239.4C489.594 233.074 484.17 228.483 478.76 224.549C474.722 221.612 470.322 218.766 465.351 218.298C454.866 217.311 451.814 225.595 457.208 233.15C462.227 240.182 470.035 245.246 478.578 246.68Z" fill="#E3EFFF"/>
<path d="M183.87 191.461C152.902 183.591 144.198 167.225 144.198 167.225H140.621H112.039H100.694C100.694 167.225 91.9894 183.592 61.0224 191.461C61.0224 191.461 40.4973 273.113 119.602 322.491H125.291C204.395 273.113 183.87 191.461 183.87 191.461Z" fill="#0D48A0"/>
<path d="M174.121 199.936C148.069 193.315 140.746 179.546 140.746 179.546H137.736H113.69H104.146C104.146 179.546 96.8232 193.315 70.7709 199.936C70.7709 199.936 53.5033 268.629 120.053 310.17H124.839C191.389 268.629 174.121 199.936 174.121 199.936Z" fill="#5872B4"/>
<path d="M169.942 203.569C145.997 197.484 139.265 184.829 139.265 184.829H136.499H114.399H105.627C105.627 184.829 98.896 197.484 74.95 203.569C74.95 203.569 59.0786 266.706 120.247 304.888H124.645C185.813 266.706 169.942 203.569 169.942 203.569Z" fill="#BED1F9"/>
<path d="M162.556 248.101C167.717 225.937 153.942 203.782 131.79 198.618C109.637 193.454 87.4952 207.236 82.3341 229.401C77.1729 251.566 90.9472 273.72 113.1 278.884C135.252 284.048 157.395 270.266 162.556 248.101Z" fill="#A1BAF0"/>
<path d="M126.689 273.182C145.705 270.839 159.222 253.516 156.881 234.49C154.54 215.464 137.226 201.939 118.21 204.281C99.1943 206.624 85.6768 223.947 88.0181 242.973C90.3594 262 107.673 275.524 126.689 273.182Z" fill="#DDE8FA"/>
<path d="M105.599 240.967L120.533 250.171L139.528 217.513L142.941 219.812L123.22 259.959L101.951 248.263L105.599 240.967Z" fill="#0D48A0"/>
<path d="M447.896 186.25L455.063 183.312L456.992 177.22L452.824 170.687L459.991 167.75L461.92 161.657L457.752 155.126L464.92 152.188L467.974 142.542L465.744 124.738L454.623 121.212L443.083 134.651L406.768 249.329L431.659 257.22L452.064 192.782L447.896 186.25Z" fill="#0D48A0"/>
<path d="M411.096 235.661L406.768 249.329L431.659 257.22L436.402 242.243C429.141 238.054 420.724 235.646 411.739 235.646C411.523 235.646 411.311 235.659 411.096 235.661Z" fill="#0D48A0"/>
<path d="M450.606 135.669L413.904 251.587L417.082 252.594L453.784 136.676L450.606 135.669Z" fill="#0D48A0"/>
<path d="M417.095 252.603L422.113 236.756C421.022 236.522 419.92 236.322 418.805 236.162L413.917 251.596L417.095 252.603Z" fill="#486096"/>
<path d="M411.739 241.282C387.737 241.282 368.279 260.75 368.279 284.766C368.279 301.191 377.383 315.484 390.815 322.882H432.663C446.095 315.484 455.199 301.191 455.199 284.766C455.2 260.75 435.742 241.282 411.739 241.282ZM411.739 307.975C398.929 307.975 388.543 297.584 388.543 284.766C388.543 271.948 398.929 261.557 411.739 261.557C424.55 261.557 434.936 271.948 434.936 284.766C434.936 297.584 424.55 307.975 411.739 307.975Z" fill="#BED1F9"/>
<path d="M411.74 321.137C431.815 321.137 448.091 304.854 448.091 284.766C448.091 264.678 431.816 248.395 411.74 248.395C391.664 248.395 375.388 264.678 375.388 284.766C375.388 304.854 391.664 321.137 411.74 321.137ZM411.74 259.413C425.734 259.413 437.079 270.764 437.079 284.766C437.079 298.768 425.734 310.119 411.74 310.119C397.745 310.119 386.4 298.768 386.4 284.766C386.4 270.764 397.745 259.413 411.74 259.413Z" fill="#A1BAF0"/>
<path d="M411.739 318.06C430.117 318.06 445.015 303.154 445.015 284.767C445.015 266.379 430.117 251.472 411.739 251.472C393.362 251.472 378.463 266.378 378.463 284.767C378.463 303.155 393.362 318.06 411.739 318.06ZM411.739 261.557C424.55 261.557 434.936 271.948 434.936 284.766C434.936 297.583 424.55 307.975 411.739 307.975C398.929 307.975 388.543 297.583 388.543 284.766C388.543 271.948 398.929 261.557 411.739 261.557Z" fill="#0D48A0"/>
<path d="M503.583 283.123C503.583 282.601 503.549 282.088 503.505 281.578L508.452 279.193L506.389 272.842L500.98 273.823C500.445 272.938 499.843 272.102 499.169 271.324L501.771 266.483L496.372 262.558L492.589 266.515C491.646 266.115 490.656 265.809 489.639 265.574L488.9 260.128H482.226L481.487 265.574C480.47 265.809 479.481 266.115 478.537 266.515L474.754 262.558L469.354 266.483L471.957 271.324C471.283 272.102 470.681 272.938 470.146 273.823L464.736 272.842L462.674 279.193L467.62 281.578C467.576 282.088 467.542 282.601 467.542 283.123C467.542 283.645 467.576 284.157 467.62 284.668L462.674 287.052L464.736 293.403L470.146 292.422C470.68 293.307 471.283 294.144 471.957 294.921L469.354 299.762L474.754 303.688L478.537 299.73C479.48 300.13 480.47 300.436 481.487 300.672L482.226 306.117H488.9L489.639 300.672C490.656 300.436 491.645 300.13 492.589 299.73L496.372 303.688L501.771 299.762L499.169 294.921C499.842 294.144 500.444 293.307 500.98 292.422L506.389 293.403L508.452 287.052L503.505 284.668C503.549 284.157 503.583 283.645 503.583 283.123ZM485.563 293.198C480.002 293.198 475.494 288.687 475.494 283.123C475.494 277.558 480.002 273.047 485.563 273.047C491.125 273.047 495.633 277.558 495.633 283.123C495.633 288.687 491.125 293.198 485.563 293.198Z" fill="#BED1F9"/>
<path d="M485.563 297.856C493.696 297.856 500.289 291.26 500.289 283.122C500.289 274.985 493.696 268.389 485.563 268.389C477.431 268.389 470.838 274.985 470.838 283.122C470.838 291.26 477.431 297.856 485.563 297.856ZM485.563 273.047C491.125 273.047 495.633 277.558 495.633 283.122C495.633 288.687 491.124 293.198 485.563 293.198C480.002 293.198 475.494 288.687 475.494 283.122C475.494 277.558 480.002 273.047 485.563 273.047Z" fill="#A1BAF0"/>
<path d="M477.448 218.683H439.37V225.996H477.448V218.683Z" fill="#FFBA53"/>
<path d="M475.273 204.055H437.195V211.369H475.273V204.055Z" fill="#FFBA53"/>
<path d="M478.794 196.742H440.716V204.055H478.794V196.742Z" fill="#FFD353"/>
<path d="M471.45 211.369H433.372V218.683H471.45V211.369Z" fill="#FFD353"/>
<path d="M352.769 135.552L320.651 127.653C318.89 127.22 317.814 125.44 318.246 123.679L322.576 106.054C323.008 104.292 324.787 103.215 326.548 103.647L358.665 111.546C360.427 111.979 361.503 113.759 361.07 115.52L356.741 133.145C356.308 134.907 354.53 135.984 352.769 135.552Z" fill="#0D48A0"/>
<path d="M339.658 130.819C345.851 130.819 350.871 125.796 350.871 119.6C350.871 113.404 345.851 108.381 339.658 108.381C333.466 108.381 328.446 113.404 328.446 119.6C328.446 125.796 333.466 130.819 339.658 130.819Z" fill="#B1C9F1"/>
<path d="M333.582 123.397L335.977 113.646C336.184 112.805 337.196 112.467 337.866 113.016L346.744 120.281C347.506 120.904 347.213 122.132 346.252 122.343L334.978 124.829C334.126 125.017 333.373 124.245 333.582 123.397Z" fill="white"/>
<path d="M309.043 120.072L292.025 115.886C291.139 115.668 290.598 114.773 290.815 113.887L293.158 104.35C293.376 103.464 294.27 102.922 295.155 103.14L312.174 107.326C313.06 107.544 313.601 108.439 313.384 109.325L311.041 118.862C310.824 119.748 309.929 120.289 309.043 120.072Z" fill="#B1C9F1"/>
<path d="M352.648 99.2626L338.68 95.8273C337.794 95.6092 337.252 94.7141 337.47 93.8283L339.34 86.2133C339.558 85.3267 340.453 84.7853 341.338 85.0033L355.306 88.4387C356.192 88.6568 356.733 89.5518 356.516 90.4376L354.645 98.0527C354.428 98.9384 353.534 99.4798 352.648 99.2626Z" fill="#BED1F9"/>
<path d="M321.28 223.922L242.604 204.574C239.976 203.927 238.37 201.273 239.015 198.644L256.79 126.289C257.435 123.66 260.089 122.053 262.716 122.699L341.393 142.047C344.02 142.694 345.627 145.349 344.981 147.977L327.207 220.332C326.561 222.961 323.908 224.568 321.28 223.922Z" fill="#0D48A0"/>
<path d="M319.701 220.324L245.671 202.118C243.561 201.599 242.272 199.467 242.791 197.357L259.539 129.18C260.057 127.07 262.188 125.78 264.297 126.298L338.327 144.504C340.437 145.023 341.726 147.155 341.208 149.265L324.459 217.441C323.941 219.551 321.81 220.842 319.701 220.324Z" fill="#0D48A0"/>
<path d="M318.375 218.306L247.78 200.945C245.67 200.426 244.381 198.294 244.9 196.184L260.864 131.197C261.383 129.086 263.513 127.796 265.622 128.315L336.217 145.676C338.326 146.195 339.616 148.327 339.098 150.437L323.133 215.424C322.615 217.535 320.485 218.825 318.375 218.306Z" fill="#E3EDF7"/>
<path d="M329.423 158.91C329.423 164.25 325.097 168.579 319.76 168.579C314.423 168.579 310.097 164.25 310.097 158.91C310.097 153.57 314.423 149.241 319.76 149.241C325.097 149.241 329.423 153.57 329.423 158.91Z" fill="white"/>
<path d="M280.225 158.361C272.217 155.26 249.652 175.461 249.652 175.461L244.801 195.209C244.301 197.245 245.545 199.301 247.58 199.802L298.369 212.292L306.375 208.041L292.982 187.803C292.982 187.803 286.485 160.784 280.225 158.361Z" fill="#A7BDE3"/>
<path d="M310.579 175.752C303.43 176.101 275.789 196.945 268.851 206.127L318.815 218.414C320.682 218.873 322.566 217.731 323.025 215.864L328.925 191.845C324.838 186.252 316.211 175.477 310.579 175.752Z" fill="#B1C9F1"/>
<path d="M257.058 203.227C257.058 203.227 282.743 179.277 290.167 177.532C297.59 175.788 308.984 215.996 308.984 215.996L257.058 203.227Z" fill="#BED1F1"/>
<path d="M266.772 175.747C265.229 174.621 256.153 180.743 247.035 187.492L244.899 196.185C244.381 198.295 245.671 200.427 247.78 200.945L272.976 207.142C272.976 207.142 270.024 178.122 266.772 175.747Z" fill="#C9D9F5"/>
<path d="M319.185 195.248C315.216 194.866 291.187 211.62 291.187 211.62L318.375 218.306C320.485 218.825 322.615 217.535 323.133 215.424L326.033 203.62C323.989 199.322 321.971 195.517 319.185 195.248Z" fill="#C9D9F5"/>
<path d="M209.797 211.149C237.356 211.149 259.696 188.796 259.696 161.223C259.696 133.649 237.356 111.296 209.797 111.296C182.239 111.296 159.898 133.649 159.898 161.223C159.898 188.796 182.239 211.149 209.797 211.149Z" fill="#FFD353"/>
<path d="M259.048 169.233L220.082 160.946L258.708 151.31C258.401 149.786 258.02 148.29 257.578 146.82L218.962 156.453L249.416 130.885C248.476 129.658 247.483 128.476 246.436 127.342L215.988 152.906L232.149 116.588C230.774 115.898 229.363 115.271 227.92 114.707L212.112 150.234V111.355C211.344 111.32 210.574 111.296 209.797 111.296C209.021 111.296 208.251 111.32 207.483 111.355V151.098L190.063 115.362C188.641 115.975 187.252 116.649 185.902 117.387L203.324 153.128L172.004 128.644C170.997 129.813 170.044 131.028 169.147 132.287L200.475 156.776L161.54 148.496C161.151 149.98 160.833 151.491 160.579 153.025L199.512 161.305L160.852 170.95C161.153 172.474 161.528 173.972 161.963 175.444L200.631 165.798L170.085 191.444C171.021 192.673 172.011 193.86 173.054 194.995L203.606 169.345L187.375 205.822C188.748 206.515 190.157 207.144 191.6 207.71L207.482 172.017V211.09C208.25 211.126 209.02 211.149 209.796 211.149C210.573 211.149 211.343 211.126 212.111 211.09V171.153L229.609 207.049C231.029 206.434 232.418 205.757 233.767 205.017L216.27 169.124L247.691 193.686C248.695 192.515 249.643 191.296 250.536 190.034L219.119 165.475L258.106 173.766C258.49 172.282 258.801 170.768 259.048 169.233Z" fill="#FFE692"/>
<path d="M209.797 203.227C232.983 203.227 251.778 184.421 251.778 161.223C251.778 138.025 232.983 119.219 209.797 119.219C186.612 119.219 167.816 138.025 167.816 161.223C167.816 184.421 186.612 203.227 209.797 203.227Z" fill="#EE9F53"/>
<path d="M224.424 197.751C244.589 189.665 254.385 166.753 246.303 146.577C238.221 126.401 215.322 116.6 195.157 124.686C174.992 132.772 165.196 155.683 173.278 175.86C181.36 196.036 204.258 205.837 224.424 197.751Z" fill="#FFBA53"/>
<path d="M359.561 304.965L357.951 317.246L351.445 316.776L352.452 304.562L359.561 304.965Z" fill="#E38F6F"/>
<path d="M367.502 150.121C366.117 148.027 365.704 145.317 366.402 142.905C367.1 140.493 368.897 138.423 371.185 137.393C372.25 136.913 373.485 136.655 374.587 137.045C375.582 137.397 376.338 138.225 377.294 138.668C378.881 139.403 380.864 139.019 382.342 139.954C383.485 140.677 384.058 142.034 384.36 143.353C384.662 144.671 384.766 146.048 385.286 147.297C385.97 148.94 387.311 150.212 388.675 151.355C389.297 151.876 389.941 152.392 390.398 153.063C391.168 154.192 391.312 155.721 390.767 156.975C389.78 159.242 389.815 161.835 390.285 164.264C391.161 168.786 392.908 173.086 394.645 177.353C395.16 178.616 395.319 179.896 395.473 181.251C395.562 182.026 395.549 182.917 394.975 183.445C394.435 183.942 393.573 183.938 393.016 184.416C392.316 185.017 392.367 186.086 392.164 186.985C391.864 188.315 390.848 189.461 389.564 189.917C388.28 190.373 386.769 190.126 385.698 189.284C384.274 188.164 383.768 186.27 383.274 184.527C382.005 180.049 380.269 175.718 378.537 171.398C377.173 167.996 376.503 164.29 375.489 160.767C374.862 158.59 374.223 156.382 373.041 154.449C371.856 152.519 369.716 150.601 367.502 150.121Z" fill="#5A4868"/>
<path d="M422.915 252.219L435.27 252.287L435.244 258.813L422.998 258.641L422.915 252.219Z" fill="#E38F6F"/>
<path d="M442.54 276.071L440.776 250.23C440.776 250.23 438.509 249.51 436.159 250.545C433.81 251.58 432.654 251.39 433.022 252.845C433.39 254.3 434.952 254.529 434.369 255.846C433.787 257.164 433.253 258.209 433.795 259.249C434.336 260.288 436.583 261.441 437.855 265.832C439.287 270.779 439.838 273.004 440.033 273.822C440.6 276.204 442.54 276.071 442.54 276.071Z" fill="#58B9D6"/>
<path d="M440.438 274.816C441.216 276.141 442.54 276.071 442.54 276.071L440.776 250.23C440.776 250.23 439.93 249.967 438.743 249.991L440.438 274.816Z" fill="#B7E6F1"/>
<path d="M384.644 202.092C384.644 202.092 387.364 208.54 384.644 225.042C382.498 238.06 384.644 252.42 384.644 252.42C384.644 252.42 416.971 250.139 427.433 251.749V259.97C427.433 259.97 400.741 261.413 392.022 261.816C383.302 262.218 377.534 261.949 375.791 258.058C374.047 254.166 372.035 235.511 372.035 235.511C372.035 235.511 368.548 245.711 367.34 248.797C366.133 251.884 366.133 251.616 365.999 252.555C365.865 253.495 366.938 267.721 363.316 287.316C359.694 306.911 359.962 309.46 359.962 309.46C359.962 309.46 353.926 310.802 350.841 308.118C350.841 308.118 353.39 269.868 354.597 260.205C355.804 250.541 357.548 234.168 359.023 227.055C360.498 219.942 362.354 202.897 362.298 201.287C362.243 199.677 384.644 202.092 384.644 202.092Z" fill="#4E4C71"/>
<path d="M375.952 159.099C375.952 159.099 384.242 164.85 386.254 167.97C388.266 171.091 387.662 174.866 386.505 179.294C385.348 183.723 385.047 195.148 385.248 198.973C385.449 202.798 385.449 202.798 385.449 202.798C385.449 202.798 385.59 203.201 380.791 203.905C375.993 204.61 372.27 202.597 369.554 202.798C366.838 202.999 361.003 202.597 361.003 202.597C361.003 202.597 361.607 193.437 361.003 193.034C360.4 192.632 348.931 193.94 339.173 191.726L339.977 186.693C339.977 186.693 348.931 187.398 352.049 186.894C355.168 186.391 361.406 185.887 361.406 185.887C361.406 185.887 361.103 182.666 360.902 180.251C360.701 177.835 361.003 173.205 361.003 173.205C361.003 173.205 353.257 180.151 351.346 180.855C349.435 181.559 337.028 180.292 337.028 180.292L338.262 175.268C338.262 175.268 345.612 174.916 348.73 174.614C348.73 174.614 358.087 164.911 360.702 163.501C363.318 162.092 370.359 159.099 370.359 159.099H375.952Z" fill="#58B9D6"/>
<path d="M376.21 153.889C376.21 153.889 375.791 158.559 375.841 158.911C375.892 159.262 377.049 159.766 376.998 160.572C376.948 161.377 374.332 167.92 371.616 167.165C368.899 166.409 368.296 160.572 368.95 159.817C369.604 159.061 370.308 158.508 370.157 155.538C370.006 152.569 376.21 153.889 376.21 153.889Z" fill="#C8776F"/>
<path d="M367.441 148.778C367.441 148.778 367.34 155.656 371.297 156.831C375.254 158.006 377.735 150.791 377.903 150.288C378.07 149.784 378.339 150.556 379.077 149.382C379.815 148.207 379.58 146.127 378.876 146.06C378.171 145.993 377.602 145.96 377.333 146.966C377.065 147.972 377.031 149.953 376.361 149.65C375.691 149.348 375.959 146.329 375.724 146.195C375.037 145.802 374.099 146.191 373.365 145.898C372.939 145.728 372.624 145.32 372.176 145.221C371.634 145.1 371.12 145.465 370.599 145.658C369.787 145.962 368.828 145.833 368.123 145.327C367.818 145.601 367.723 146.035 367.652 146.44C367.514 147.225 367.517 147.984 367.441 148.778Z" fill="#E38F6F"/>
<path d="M377 190.92C372.776 192.43 360.096 192.951 360.096 192.951L360.095 192.953C360.588 192.956 360.916 192.976 361.002 193.034C361.301 193.233 361.304 195.578 361.23 197.896C365.832 196.555 373.203 194.629 376.999 192.951C382.5 190.52 386.354 177.13 386.354 177.13C386.354 177.13 381.224 189.41 377 190.92Z" fill="#59A5CE"/>
<path d="M369.621 183.17C368.381 183.597 364.126 183.643 361.197 183.62C361.313 184.905 361.405 185.887 361.405 185.887C361.405 185.887 368.044 184.999 370.761 185.041C370.761 185.041 376.193 179.848 379.01 172.801C379.01 172.801 371.565 182.499 369.621 183.17Z" fill="#59A5CE"/>
<path d="M369.085 216.453C369.085 216.453 370.963 236.584 367.341 248.797C368.548 245.71 372.036 235.51 372.036 235.51C372.036 235.51 372.17 224.64 369.085 216.453Z" fill="#383752"/>
<path d="M339.976 186.692C339.976 186.692 337.528 185.887 337.226 185.384C336.924 184.88 336.273 183.359 336.273 183.359L335.824 185.184C335.824 185.184 333.739 184.78 331.056 183.807C328.373 182.833 326.596 181.595 326.059 181.577C325.523 181.559 325.154 182.129 325.255 182.498C325.355 182.867 325.355 182.867 325.355 182.867C325.355 182.867 323.303 181.72 322.82 181.991C322.337 182.262 322.136 182.665 322.437 183.068C322.739 183.471 328.239 186.155 328.574 186.29C328.909 186.424 323.041 184.243 322.537 184.378C322.034 184.512 321.682 185.25 322.294 185.552C322.906 185.854 328.192 187.565 328.192 187.565C328.192 187.565 325.891 187.028 325.488 187.163C325.085 187.298 324.917 187.666 325.253 188.136C325.588 188.606 328.875 190.048 330.183 190.217C331.49 190.384 334.878 190.116 335.38 190.217C335.883 190.318 339.267 191.117 339.267 191.117L339.976 186.692Z" fill="#E38F6F"/>
<path d="M333.739 322.881H359.627C359.627 322.881 360.499 320.667 359.627 318.251C358.755 315.836 359.024 314.695 357.548 314.963C356.073 315.232 355.737 316.775 354.463 316.104C353.189 315.433 352.182 314.829 351.109 315.299C350.036 315.769 348.734 317.933 344.268 318.904C339.238 319.997 336.982 320.395 336.153 320.534C333.739 320.936 333.739 322.881 333.739 322.881Z" fill="#58B9D6"/>
<path d="M335.134 320.869C333.761 321.556 333.739 322.882 333.739 322.882H359.627C359.627 322.882 359.947 322.056 360.003 320.869H335.134Z" fill="#B7E6F1"/>
<path d="M320.109 98.0086L291.665 91.0133C289.903 90.5805 288.827 88.8005 289.259 87.039L292.69 73.0753C293.122 71.313 294.901 70.2361 296.662 70.6689L325.106 77.6642C326.866 78.097 327.943 79.877 327.51 81.6385L324.08 95.6022C323.648 97.3645 321.869 98.4414 320.109 98.0086Z" fill="#18D5E4"/>
<path d="M317.241 78.6899L305.786 75.6991L304.682 75.4111L304.361 76.6447L301.585 87.2892C301.119 86.7866 300.457 86.3748 299.659 86.1668C297.903 85.708 296.206 86.3832 295.87 87.674C295.533 88.9648 296.684 90.3827 298.44 90.8416C300.196 91.3005 301.893 90.6252 302.229 89.3344L305.463 76.9326L316.918 79.9234L314.867 87.7894C314.401 87.2867 313.739 86.875 312.941 86.667C311.185 86.2081 309.488 86.8834 309.152 88.1742C308.815 89.465 309.966 90.8837 311.722 91.3418C313.478 91.7998 315.175 91.1254 315.511 89.8346C315.542 89.715 315.548 89.5938 315.554 89.4734L315.599 89.497L318.02 80.2114L318.341 78.9778L317.241 78.6899Z" fill="white"/>
<path d="M415.971 134.659L404.009 126.731L415.971 118.804L427.932 126.731L415.971 134.659Z" fill="#D7EAFF"/>
<path d="M404.009 139.394L415.971 147.321V134.658L404.009 126.731V139.394Z" fill="#CEE1F5"/>
<path d="M427.932 139.394L415.971 147.321V134.658L427.932 126.731V139.394Z" fill="#B9D3F0"/>
<path d="M101.423 135.718L86.8889 126.085L101.423 116.453L115.957 126.085L101.423 135.718Z" fill="#D7EAFF"/>
<path d="M86.8889 141.472L101.423 151.105V135.718L86.8889 126.085V141.472Z" fill="#CEE1F5"/>
<path d="M115.957 141.472L101.423 151.105V135.718L115.957 126.085V141.472Z" fill="#B9D3F0"/>
<path d="M231.483 164.87C230.933 161.224 228.811 159.027 225.274 158.126C224.87 158.023 224.4 158.111 224.044 157.729C224.12 157.632 224.179 157.508 224.277 157.44C226.49 155.893 227.395 153.738 227.403 151.077C227.415 147.008 225.108 143.9 221.217 142.792C219.227 142.225 217.204 142.028 215.153 142.047C214.395 142.055 214.041 141.865 214.007 141.012C213.93 139.003 213.711 136.999 213.609 134.991C213.596 134.75 213.556 134.565 213.495 134.408L208.595 134.766C208.596 134.824 208.588 134.869 208.595 134.935C208.809 137.033 208.95 139.14 209.161 141.238C209.22 141.823 209.07 142.109 208.471 142.163C207.716 142.229 206.959 142.298 206.214 142.431C205.414 142.573 205.194 142.268 205.162 141.487C205.078 139.446 204.884 137.409 204.767 135.368C204.759 135.242 204.739 135.143 204.713 135.051L200.027 135.394C199.998 135.522 199.988 135.672 200.005 135.856C200.178 137.759 200.29 139.667 200.451 141.571C200.573 143.016 200.529 143.093 199.137 143.234C199.006 143.248 198.874 143.25 198.742 143.261C196.38 143.457 194.018 143.656 191.655 143.847C191.61 143.85 191.569 143.855 191.527 143.859L192.042 149.151C192.906 149.057 193.774 148.984 194.642 148.928C196.276 148.822 197.204 149.533 197.451 151.17C197.618 152.277 197.661 153.404 197.762 154.521C198.305 160.534 198.855 166.546 199.389 172.559C199.506 173.876 198.959 174.521 197.634 174.67C196.914 174.752 196.192 174.824 195.47 174.865C195.393 176.006 195.216 178.555 195.034 180.853C197.571 180.644 200.122 180.612 202.65 180.286C203.376 180.192 203.595 180.441 203.63 181.189C203.731 183.317 203.945 185.438 204.097 187.563L209.11 187.281C209.107 187.247 209.113 187.226 209.11 187.189C208.904 185.189 208.809 183.177 208.631 181.173C208.564 180.43 208.702 179.981 209.571 179.973C210.226 179.966 210.888 179.882 211.534 179.763C212.295 179.622 212.592 179.863 212.632 180.66C212.737 182.733 212.929 184.802 213.06 186.874C213.064 186.945 213.079 186.995 213.088 187.057L218.141 186.773C218.14 186.767 218.142 186.763 218.141 186.757C217.958 184.692 217.909 182.615 217.725 180.549C217.644 179.63 217.962 179.269 218.851 179.137C220.945 178.825 222.986 178.272 224.942 177.46C227.865 176.248 230.194 174.392 231.156 171.238C231.789 169.158 231.806 167.013 231.483 164.87ZM207.199 158.322C206.966 155.469 206.708 152.618 206.441 149.767C206.389 149.212 206.485 148.981 207.141 148.936C209.801 148.754 212.464 148.417 215.078 149.212C218.366 150.212 219.534 153.956 217.273 156.211C216.394 157.088 215.298 157.622 214.373 157.868C212.085 158.63 209.981 158.761 207.879 158.906C207.433 158.937 207.238 158.808 207.199 158.322ZM219.489 172.421C218.829 172.8 218.15 173.131 217.566 173.288C214.74 174.27 211.935 174.409 209.155 174.708C208.684 174.758 208.498 174.538 208.458 174.1C208.166 170.919 207.871 167.739 207.568 164.56C207.528 164.149 207.553 163.887 208.082 163.84C210.901 163.591 213.714 163.207 216.552 163.577C217.507 163.701 218.42 163.934 219.299 164.345C220.993 165.137 221.878 166.469 221.921 168.313C221.966 170.162 221.077 171.51 219.489 172.421Z" fill="#FFF3D3"/>
<path d="M249.741 83.4944C252.86 93.4696 247.305 104.086 237.336 107.205C227.366 110.326 216.756 104.768 213.638 94.7932C210.519 84.818 216.073 74.2021 226.043 71.0825C236.013 67.962 246.623 73.5192 249.741 83.4944Z" fill="#0D48A0"/>
<path d="M246.802 84.4141C249.413 92.765 244.763 101.652 236.417 104.265C228.07 106.877 219.188 102.225 216.577 93.874C213.966 85.523 218.616 76.6357 226.962 74.023C235.308 71.4111 244.192 76.0631 246.802 84.4141Z" fill="#A1BAF0"/>
<path d="M244.773 85.0489C247.034 92.2783 243.008 99.9725 235.782 102.234C228.557 104.496 220.867 100.468 218.606 93.2382C216.346 86.0088 220.372 78.3146 227.597 76.053C234.823 73.7914 242.513 77.8195 244.773 85.0489Z" fill="#BED1F9"/>
<path d="M238.651 93.088C238.86 91.5758 238.309 90.4694 237.074 89.7268C236.932 89.6417 236.745 89.6257 236.654 89.4346C236.693 89.4043 236.73 89.3613 236.774 89.3445C237.788 88.969 238.377 88.2086 238.685 87.1502C239.154 85.5302 238.638 84.0416 237.293 83.1769C236.605 82.7348 235.862 82.4359 235.084 82.2212C234.797 82.142 234.685 82.0275 234.77 81.684C234.97 80.8757 235.116 80.0539 235.307 79.2422C235.33 79.1445 235.336 79.0662 235.331 78.9972L233.437 78.6073C233.43 78.6301 233.422 78.6477 233.417 78.6747C233.258 79.5344 233.071 80.3881 232.91 81.247C232.865 81.487 232.776 81.5838 232.543 81.54C232.25 81.4844 231.956 81.4297 231.659 81.4011C231.34 81.3708 231.292 81.2251 231.369 80.911C231.571 80.0884 231.731 79.2565 231.919 78.4305C231.931 78.3791 231.935 78.337 231.935 78.2983L230.124 77.9253C230.099 77.9733 230.078 78.0314 230.063 78.1072C229.911 78.8843 229.735 79.6564 229.577 80.4328C229.458 81.0222 229.433 81.0474 228.89 80.9523C228.839 80.943 228.788 80.9304 228.738 80.9203C227.822 80.7409 226.906 80.5641 225.99 80.3823C225.973 80.3789 225.957 80.3764 225.94 80.373L225.532 82.5369C225.87 82.5933 226.206 82.659 226.541 82.7306C227.171 82.8661 227.441 83.2501 227.347 83.9296C227.283 84.3885 227.171 84.8423 227.081 85.2987C226.598 87.7531 226.118 90.2076 225.632 92.6611C225.526 93.1983 225.245 93.3962 224.727 93.3112C224.446 93.2657 224.164 93.216 223.886 93.1529C223.726 93.5991 223.368 94.5952 223.036 95.4911C224.02 95.6839 224.989 95.9483 225.982 96.0931C226.267 96.1344 226.321 96.2573 226.249 96.5596C226.044 97.4176 225.882 98.2865 225.696 99.1496L227.624 99.5824C227.628 99.5689 227.632 99.5605 227.634 99.5462C227.785 98.7269 227.979 97.9152 228.142 97.0976C228.202 96.7945 228.305 96.6303 228.635 96.7213C228.884 96.7895 229.143 96.8282 229.402 96.8509C229.705 96.8779 229.79 97.0059 229.715 97.3275C229.517 98.1645 229.353 99.0098 229.165 99.8493C229.159 99.8779 229.158 99.8998 229.155 99.9251L231.099 100.361C231.1 100.359 231.1 100.358 231.101 100.355C231.268 99.5125 231.487 98.6798 231.653 97.8369C231.728 97.4622 231.889 97.3528 232.241 97.3965C233.068 97.5001 233.904 97.5018 234.737 97.3907C235.981 97.2256 237.074 96.7398 237.798 95.5879C238.276 94.8293 238.528 93.9772 238.651 93.088ZM230.215 87.8382C230.454 86.6762 230.682 85.5126 230.908 84.3472C230.952 84.1207 231.014 84.0391 231.268 84.0921C232.295 84.3085 233.341 84.4643 234.238 85.0646C235.366 85.8207 235.381 87.4391 234.267 88.0916C233.835 88.345 233.359 88.4385 232.981 88.4368C232.028 88.4916 231.218 88.3147 230.405 88.1438C230.234 88.1084 230.175 88.0369 230.215 87.8382ZM233.251 94.7914C232.958 94.8705 232.662 94.9286 232.424 94.9278C231.243 95.0112 230.166 94.7619 229.081 94.5784C228.897 94.5472 228.852 94.4394 228.887 94.2601C229.14 92.9617 229.392 91.6625 229.641 90.3633C229.673 90.1949 229.713 90.0939 229.918 90.1326C231.013 90.3397 232.121 90.493 233.152 90.9485C233.499 91.1018 233.818 91.2937 234.103 91.5531C234.654 92.0524 234.835 92.6797 234.641 93.4189C234.446 94.1616 233.956 94.6019 233.251 94.7914Z" fill="white"/>
<path d="M153.209 305.065L152.37 316.49L158.708 317.144L159.045 315.209L159.849 305.82L153.209 305.065Z" fill="#E38F6F"/>
<path d="M193.6 303.623L198.06 314.921L203.526 312.078L199.637 300.066L193.6 303.623Z" fill="#E38F6F"/>
<path d="M140.124 141.998C140.124 141.998 141.538 139.484 140.633 136.665C139.727 133.847 137.413 133.746 136.056 133.041C134.698 132.336 130.774 131.682 129.014 133.393C127.253 135.104 126.498 136.363 125.794 136.765C125.09 137.168 124.486 139.03 125.039 140.842C125.593 142.654 127.051 143.057 127.252 144.516C127.454 145.975 128.51 147.183 129.868 147.737C131.226 148.291 133.088 147.587 133.188 147.335C133.29 147.084 140.124 141.998 140.124 141.998Z" fill="#5A4868"/>
<path d="M144.42 195.72C144.42 195.72 145.362 205.012 149.31 212.863C153.259 220.714 157.082 231.787 157.283 233.195C157.484 234.605 156.075 249.703 156.78 262.688C157.484 275.673 153.762 302.649 151.951 306.374C151.951 306.374 156.578 309.092 161.005 307.783C161.005 307.783 165.23 279.095 167.141 268.829C169.053 258.561 170.159 230.679 170.159 230.679C170.159 230.679 172.976 235.913 174.284 240.242C175.591 244.57 179.817 265.708 185.752 281.813C191.687 297.918 192.493 304.663 192.493 304.663C192.493 304.663 199.233 303.555 201.648 301.542C201.648 301.542 192.962 279.531 185.853 247.858C185.853 247.858 182.097 227.458 180.219 222.76C178.341 218.063 163.721 186.121 162.513 184.913C161.307 183.706 144.42 195.72 144.42 195.72Z" fill="#4E4C71"/>
<path d="M133.692 152.469C133.692 152.469 128.762 157.401 127.505 160.723C126.248 164.044 130.322 170.285 131.73 173.657C133.139 177.03 135.251 182.012 138.973 181.811C138.973 181.811 142.042 189.41 141.79 192.48C141.538 195.55 141.538 196.255 141.538 196.255C141.538 196.255 154.013 194.191 157.383 191.625C160.753 189.058 164.374 184.63 164.374 184.63C164.374 184.63 162.815 183.874 162.312 183.019C161.809 182.163 159.646 176.979 159.646 176.979C159.646 176.979 169.203 173.909 172.372 172.097C175.541 170.285 176.195 169.933 176.195 169.933L174.434 166.159C174.434 166.159 164.676 169.631 157.533 171.343L154.515 163.643C154.515 163.643 158.086 165.505 158.84 165.656C159.595 165.807 160.199 165.807 160.199 165.807C160.199 165.807 159.746 159.767 160.048 158.056C160.048 158.056 155.233 155.842 151.73 153.225C148.228 150.608 148.076 150.507 147.221 150.356C146.366 150.205 138.821 151.161 138.821 151.161L133.692 152.469Z" fill="#FC736B"/>
<path d="M139.703 150.752C139.703 150.752 138.571 148.418 138.546 146.354L133.004 147.774C133.004 147.774 133.994 151.211 133.692 152.469C133.39 153.727 139.024 154.105 139.955 153.325C140.885 152.544 139.703 150.752 139.703 150.752Z" fill="#C8776F"/>
<path d="M140.08 141.229C140.08 141.229 140.851 149.684 136.76 149.483C132.669 149.282 130.59 144.383 130.59 144.383C130.025 144.644 129.309 144.344 128.859 143.915C128.409 143.485 128.165 142.883 127.998 142.284C127.897 141.922 127.844 141.47 128.132 141.229C128.314 141.076 128.582 141.066 128.807 141.143C129.031 141.22 129.222 141.369 129.408 141.517C129.702 141.75 129.997 141.982 130.291 142.216C130.406 142.307 130.544 142.404 130.688 142.372C130.872 142.332 130.946 142.115 130.98 141.93C131.149 141.012 131.114 140.056 130.881 139.152C132.453 139.112 134.094 139.109 135.413 138.251C135.768 138.665 136.338 138.84 136.883 138.837C137.427 138.835 137.958 138.676 138.479 138.518C138.7 139.232 138.974 139.929 139.299 140.601C139.446 140.909 139.747 141.31 140.08 141.229Z" fill="#E38F6F"/>
<path d="M140.916 187.434C147.483 183.729 156.785 179.038 159.865 177.498C159.73 177.177 159.647 176.979 159.647 176.979C159.647 176.979 146.351 181.458 138.973 181.81C138.973 181.81 140.085 184.57 140.916 187.434Z" fill="#D5616B"/>
<path d="M142.729 172.634C139.845 166.594 136.09 162.702 136.09 162.702C138.639 166.326 142.128 174.463 142.128 174.463C149.572 173.725 157.535 171.342 157.535 171.342L142.729 172.634Z" fill="#D5616B"/>
<path d="M174.586 166.434C174.586 166.434 176.271 165.831 176.875 164.85C177.478 163.869 178.459 163.415 178.686 163.567C178.912 163.718 178.635 164.498 178.862 164.397C179.088 164.296 182.911 161.528 183.59 161.302C184.269 161.075 184.571 161.378 184.345 161.704C184.119 162.032 180.799 164.271 180.799 164.271C180.799 164.271 185.1 161.931 185.577 161.805C186.055 161.679 186.206 162.207 186.206 162.408C186.206 162.609 181.276 165.353 181.276 165.353C181.276 165.353 184.571 163.994 184.873 164.069C185.175 164.145 185.325 164.372 185.074 164.749C184.822 165.126 181.502 166.536 181.502 166.536C181.502 166.536 183.062 166.184 183.212 166.309C183.363 166.435 183.212 166.913 182.81 167.114C182.408 167.315 181.678 167.844 179.993 167.995C178.309 168.146 175.728 168.884 175.728 168.884L174.586 166.434Z" fill="#E38F6F"/>
<path d="M172.008 234.435C172.952 230.239 174.228 221.784 170.46 217.512C165.327 211.693 160.904 197.26 160.904 197.26C162.815 208.836 170.047 221.492 170.45 223.203C170.852 224.914 170.159 230.678 170.159 230.678C170.159 230.678 171.019 232.277 172.008 234.435Z" fill="#383752"/>
<path d="M151.726 322.882H175.401C175.401 322.882 175.962 321.976 173.647 320.868C171.333 319.761 167.755 319.862 161.719 317.244C161.719 317.244 160.78 316.976 159.908 315.768C159.037 314.561 157.762 315.567 157.36 315.768C156.958 315.97 155.818 316.439 154.544 315.701C153.27 314.962 152.197 315.231 151.727 315.902C151.257 316.573 151.19 318.117 151.325 318.519C151.458 318.922 151.86 321.942 151.726 322.882Z" fill="#75ADD3"/>
<path d="M151.726 322.881H175.401C175.401 322.881 175.888 322.047 173.893 321.003H151.675C151.744 321.762 151.781 322.497 151.726 322.881Z" fill="#608EAD"/>
<path d="M197.566 319.537L220.541 313.818C220.541 313.818 220.865 312.803 218.353 312.288C215.841 311.772 212.393 312.734 205.904 311.652C205.904 311.652 204.927 311.618 203.791 310.657C202.653 309.695 201.659 310.979 201.317 311.272C200.976 311.564 199.982 312.296 198.567 311.888C197.152 311.479 196.175 311.999 195.882 312.763C195.588 313.528 195.895 315.042 196.122 315.401C196.35 315.759 197.469 318.593 197.566 319.537Z" fill="#75ADD3"/>
<path d="M197.566 319.537L220.54 313.819C220.54 313.819 220.811 312.891 218.623 312.359L197.062 317.726C197.313 318.446 197.526 319.15 197.566 319.537Z" fill="#608EAD"/>
<path d="M157.534 119.839C171.316 119.839 182.488 108.661 182.488 94.8723C182.488 81.0834 171.316 69.9053 157.534 69.9053C143.753 69.9053 132.581 81.0834 132.581 94.8723C132.581 108.661 143.753 119.839 157.534 119.839Z" fill="#18D5E4"/>
<path d="M157.534 115.774C169.072 115.774 178.425 106.416 178.425 94.872C178.425 83.3283 169.072 73.9702 157.534 73.9702C145.997 73.9702 136.644 83.3283 136.644 94.872C136.644 106.416 145.997 115.774 157.534 115.774Z" fill="#18BFD5"/>
<path d="M157.534 113.384C167.752 113.384 176.036 105.096 176.036 94.8722C176.036 84.6487 167.752 76.3608 157.534 76.3608C147.316 76.3608 139.033 84.6487 139.033 94.8722C139.033 105.096 147.316 113.384 157.534 113.384Z" fill="#E9F3FF"/>
<path d="M157.515 77.3872V102.667L168.397 95.1753L157.515 77.3872Z" fill="#18BCD8"/>
<path d="M157.515 90.9663V102.668L168.397 95.1755L157.515 90.9663Z" fill="#18B0D8"/>
<path d="M157.515 77.3872V102.667L146.633 95.1753L157.515 77.3872Z" fill="#18D5E4"/>
<path d="M157.515 90.9663V102.668L146.633 95.1755L157.515 90.9663Z" fill="#18BCD8"/>
<path d="M157.515 112.356L168.807 96.8813L157.515 104.911V112.356Z" fill="#18BCD8"/>
<path d="M157.554 112.356L146.261 96.8813L157.554 104.911V112.356Z" fill="#18D5E4"/>
<path d="M297.672 292.919H246.016C244.668 292.919 243.575 291.825 243.575 290.476V238.793C243.575 237.444 244.668 236.35 246.016 236.35H297.672C299.02 236.35 300.113 237.444 300.113 238.793V290.476C300.114 291.825 299.021 292.919 297.672 292.919Z" fill="#0D48A0"/>
<path d="M294.683 241.783H249.005V287.486H294.683V241.783Z" fill="#EE9F53"/>
<path d="M291.613 244.855H252.076V284.413H291.613V244.855Z" fill="#FFBA53"/>
<path d="M252.528 225.378C251.658 225.378 250.952 226.084 250.952 226.955V236.35H254.104V226.955C254.104 226.084 253.399 225.378 252.528 225.378Z" fill="#0D48A0"/>
<path d="M262.187 225.378C261.316 225.378 260.61 226.084 260.61 226.955V236.35H263.763V226.955C263.763 226.084 263.057 225.378 262.187 225.378Z" fill="#0D48A0"/>
<path d="M271.844 225.378C270.974 225.378 270.268 226.084 270.268 226.955V236.35H273.42V226.955C273.42 226.084 272.715 225.378 271.844 225.378Z" fill="#0D48A0"/>
<path d="M281.502 225.378C280.632 225.378 279.926 226.084 279.926 226.955V236.35H283.078V226.955C283.078 226.084 282.372 225.378 281.502 225.378Z" fill="#0D48A0"/>
<path d="M291.16 225.378C290.29 225.378 289.583 226.084 289.583 226.955V236.35H292.736V226.955C292.736 226.084 292.03 225.378 291.16 225.378Z" fill="#0D48A0"/>
<path d="M291.16 303.891C292.03 303.891 292.736 303.185 292.736 302.314V292.919H289.583V302.314C289.583 303.185 290.29 303.891 291.16 303.891Z" fill="#0D48A0"/>
<path d="M281.502 303.891C282.372 303.891 283.078 303.185 283.078 302.314V292.919H279.926V302.314C279.926 303.185 280.631 303.891 281.502 303.891Z" fill="#0D48A0"/>
<path d="M271.844 303.891C272.714 303.891 273.42 303.185 273.42 302.314V292.919H270.268V302.314C270.268 303.185 270.974 303.891 271.844 303.891Z" fill="#0D48A0"/>
<path d="M262.187 303.891C263.057 303.891 263.763 303.185 263.763 302.314V292.919H260.61V302.314C260.61 303.185 261.316 303.891 262.187 303.891Z" fill="#0D48A0"/>
<path d="M252.528 303.891C253.398 303.891 254.104 303.185 254.104 302.314V292.919H250.952V302.314C250.953 303.185 251.658 303.891 252.528 303.891Z" fill="#0D48A0"/>
<path d="M311.079 245.308C311.079 244.437 310.373 243.731 309.503 243.731H300.113V246.885H309.503C310.373 246.885 311.079 246.179 311.079 245.308Z" fill="#0D48A0"/>
<path d="M311.079 254.971C311.079 254.1 310.373 253.394 309.503 253.394H300.113V256.548H309.503C310.373 256.548 311.079 255.842 311.079 254.971Z" fill="#0D48A0"/>
<path d="M311.079 264.635C311.079 263.764 310.373 263.058 309.503 263.058H300.113V266.212H309.503C310.373 266.212 311.079 265.505 311.079 264.635Z" fill="#0D48A0"/>
<path d="M311.079 274.297C311.079 273.427 310.373 272.72 309.503 272.72H300.113V275.874H309.503C310.373 275.874 311.079 275.169 311.079 274.297Z" fill="#0D48A0"/>
<path d="M311.079 283.961C311.079 283.09 310.373 282.384 309.503 282.384H300.113V285.538H309.503C310.373 285.538 311.079 284.831 311.079 283.961Z" fill="#0D48A0"/>
<path d="M232.61 283.961C232.61 284.831 233.315 285.538 234.186 285.538H243.576V282.384H234.186C233.315 282.384 232.61 283.089 232.61 283.961Z" fill="#0D48A0"/>
<path d="M232.61 274.297C232.61 275.168 233.315 275.874 234.186 275.874H243.576V272.72H234.186C233.315 272.721 232.61 273.427 232.61 274.297Z" fill="#0D48A0"/>
<path d="M232.61 264.635C232.61 265.505 233.315 266.212 234.186 266.212H243.576V263.058H234.186C233.315 263.058 232.61 263.764 232.61 264.635Z" fill="#0D48A0"/>
<path d="M232.61 254.971C232.61 255.841 233.315 256.548 234.186 256.548H243.576V253.394H234.186C233.315 253.394 232.61 254.1 232.61 254.971Z" fill="#0D48A0"/>
<path d="M232.61 245.308C232.61 246.179 233.315 246.885 234.186 246.885H243.576V243.731H234.186C233.315 243.731 232.61 244.437 232.61 245.308Z" fill="#0D48A0"/>
<path d="M283.078 234.077H279.926V236.349H283.078V234.077Z" fill="#0D48A0"/>
<path d="M273.42 234.077H270.268V236.349H273.42V234.077Z" fill="#0D48A0"/>
<path d="M254.105 234.077H250.953V236.349H254.105V234.077Z" fill="#0D48A0"/>
<path d="M263.762 234.077H260.61V236.349H263.762V234.077Z" fill="#0D48A0"/>
<path d="M302.385 243.731H300.114V246.885H302.385V243.731Z" fill="#0D48A0"/>
<path d="M302.385 282.384H300.114V285.538H302.385V282.384Z" fill="#0D48A0"/>
<path d="M302.385 253.395H300.114V256.549H302.385V253.395Z" fill="#0D48A0"/>
<path d="M302.385 263.058H300.114V266.212H302.385V263.058Z" fill="#0D48A0"/>
<path d="M302.385 272.721H300.114V275.875H302.385V272.721Z" fill="#0D48A0"/>
<path d="M254.105 292.919H250.953V295.192H254.105V292.919Z" fill="#0D48A0"/>
<path d="M243.575 263.058H241.303V266.212H243.575V263.058Z" fill="#0D48A0"/>
<path d="M243.575 253.395H241.303V256.549H243.575V253.395Z" fill="#0D48A0"/>
<path d="M243.575 243.731H241.303V246.885H243.575V243.731Z" fill="#0D48A0"/>
<path d="M243.575 272.721H241.303V275.875H243.575V272.721Z" fill="#0D48A0"/>
<path d="M243.575 282.384H241.303V285.538H243.575V282.384Z" fill="#0D48A0"/>
<path d="M292.736 234.077H289.583V236.349H292.736V234.077Z" fill="#0D48A0"/>
<path d="M273.42 292.919H270.268V295.192H273.42V292.919Z" fill="#0D48A0"/>
<path d="M283.078 292.919H279.926V295.192H283.078V292.919Z" fill="#0D48A0"/>
<path d="M263.762 292.919H260.61V295.192H263.762V292.919Z" fill="#0D48A0"/>
<path d="M292.736 292.919H289.583V295.192H292.736V292.919Z" fill="#0D48A0"/>
<path d="M342.4 238.582H329.254C329.153 238.582 329.057 238.63 328.997 238.711L321.984 248.243H312.889C312.713 248.243 312.57 248.387 312.57 248.563C312.57 248.739 312.713 248.882 312.889 248.882H322.144H332.003C332.178 248.882 332.322 248.739 332.322 248.563C332.322 248.387 332.179 248.243 332.003 248.243H322.774L329.414 239.219H342.399C342.575 239.219 342.718 239.076 342.718 238.9C342.718 238.724 342.576 238.582 342.4 238.582Z" fill="#0D48A0"/>
<path d="M337.102 258.948C337.277 258.948 337.421 258.805 337.421 258.629C337.421 258.453 337.278 258.31 337.102 258.31H312.89C312.714 258.31 312.571 258.453 312.571 258.629C312.571 258.804 312.714 258.948 312.89 258.948H337.102Z" fill="#0D48A0"/>
<path d="M339.382 274.684H327.693L324.03 268.466C323.973 268.369 323.869 268.309 323.755 268.309H311.683C311.508 268.309 311.364 268.452 311.364 268.628C311.364 268.804 311.507 268.947 311.683 268.947H323.574L327.237 275.165C327.294 275.262 327.398 275.322 327.512 275.322H339.382C339.557 275.322 339.701 275.179 339.701 275.003C339.701 274.827 339.557 274.684 339.382 274.684Z" fill="#0D48A0"/>
<path d="M333.413 282.871H315.573C315.398 282.871 315.254 283.014 315.254 283.19C315.254 283.366 315.397 283.509 315.573 283.509H333.413C333.589 283.509 333.732 283.366 333.732 283.19C333.732 283.014 333.589 282.871 333.413 282.871Z" fill="#0D48A0"/>
<path d="M229.791 249.595C229.88 249.595 229.95 249.524 229.95 249.436C229.95 249.347 229.88 249.276 229.791 249.276H217.41L214.236 243.654C214.209 243.604 214.156 243.573 214.098 243.573H208.465C208.377 243.573 208.306 243.643 208.306 243.732C208.306 243.82 208.377 243.891 208.465 243.891H214.006L217.046 249.276H202.886L199.609 246.756C199.539 246.704 199.44 246.715 199.385 246.786C199.332 246.856 199.345 246.955 199.415 247.009L202.735 249.563C202.763 249.584 202.797 249.595 202.832 249.595H229.791Z" fill="#0D48A0"/>
<path d="M229.791 260.65H209.806C209.717 260.65 209.647 260.721 209.647 260.81C209.647 260.898 209.717 260.969 209.806 260.969H229.791C229.88 260.969 229.951 260.898 229.951 260.81C229.951 260.721 229.881 260.65 229.791 260.65Z" fill="#0D48A0"/>
<path d="M229.791 272.863H214.82C214.731 272.863 214.661 272.934 214.661 273.022V279.003H206.033C205.945 279.003 205.874 279.074 205.874 279.162C205.874 279.251 205.945 279.321 206.033 279.321H214.82C214.909 279.321 214.979 279.251 214.979 279.162V273.182H229.792C229.881 273.182 229.951 273.112 229.951 273.023C229.951 272.935 229.881 272.863 229.791 272.863Z" fill="#0D48A0"/>
<path d="M228.384 287.327H213.311C213.222 287.327 213.152 287.397 213.152 287.486C213.152 287.574 213.222 287.645 213.311 287.645H228.384C228.473 287.645 228.543 287.574 228.543 287.486C228.543 287.397 228.473 287.327 228.384 287.327Z" fill="#0D48A0"/>
<path d="M345.552 238.9C345.552 239.752 344.861 240.443 344.009 240.443C343.157 240.443 342.467 239.752 342.467 238.9C342.467 238.048 343.157 237.356 344.009 237.356C344.862 237.356 345.552 238.048 345.552 238.9Z" fill="#FFBA53"/>
<path d="M335.09 248.562C335.09 249.415 334.399 250.106 333.547 250.106C332.696 250.106 332.005 249.415 332.005 248.562C332.005 247.71 332.696 247.019 333.547 247.019C334.399 247.019 335.09 247.71 335.09 248.562Z" fill="#FFBA53"/>
<path d="M340.187 258.595C340.187 259.447 339.496 260.139 338.644 260.139C337.793 260.139 337.102 259.447 337.102 258.595C337.102 257.743 337.793 257.052 338.644 257.052C339.496 257.052 340.187 257.743 340.187 258.595Z" fill="#FFBA53"/>
<path d="M334.955 284.732C335.807 284.732 336.498 284.041 336.498 283.189C336.498 282.337 335.807 281.646 334.955 281.646C334.103 281.646 333.413 282.337 333.413 283.189C333.413 284.041 334.103 284.732 334.955 284.732Z" fill="#FFBA53"/>
<path d="M342.467 275.002C342.467 275.854 341.776 276.546 340.924 276.546C340.073 276.546 339.382 275.854 339.382 275.002C339.382 274.15 340.073 273.459 340.924 273.459C341.777 273.459 342.467 274.15 342.467 275.002Z" fill="#FFBA53"/>
<path d="M199.929 245.824C199.929 246.676 199.238 247.367 198.387 247.367C197.534 247.367 196.844 246.676 196.844 245.824C196.844 244.972 197.534 244.28 198.387 244.28C199.238 244.28 199.929 244.971 199.929 245.824Z" fill="#FFBA53"/>
<path d="M208.464 243.731C208.464 244.583 207.773 245.275 206.922 245.275C206.07 245.275 205.379 244.583 205.379 243.731C205.379 242.879 206.07 242.188 206.922 242.188C207.774 242.188 208.464 242.879 208.464 243.731Z" fill="#FFBA53"/>
<path d="M206.033 279.163C206.033 280.015 205.342 280.706 204.491 280.706C203.639 280.706 202.948 280.015 202.948 279.163C202.948 278.31 203.639 277.619 204.491 277.619C205.342 277.619 206.033 278.31 206.033 279.163Z" fill="#FFBA53"/>
<path d="M213.311 287.486C213.311 288.338 212.62 289.029 211.768 289.029C210.916 289.029 210.226 288.338 210.226 287.486C210.226 286.634 210.916 285.942 211.768 285.942C212.62 285.942 213.311 286.634 213.311 287.486Z" fill="#FFBA53"/>
<path d="M208.431 262.353C209.283 262.353 209.974 261.662 209.974 260.81C209.974 259.957 209.283 259.266 208.431 259.266C207.58 259.266 206.889 259.957 206.889 260.81C206.889 261.662 207.58 262.353 208.431 262.353Z" fill="#FFBA53"/>
<path d="M266.839 259.824V273.039H265.29L258.089 262.663H257.96V273.039H256.36V259.824H257.908L265.135 270.226H265.264V259.824H266.839ZM270.041 273.039V259.824H277.965V261.243H271.641V265.709H277.371V267.128H271.641V273.039H270.041ZM255.637 283.243V281.824H265.548V283.243H261.393V295.039H259.792V283.243H255.637Z" fill="white"/>
</svg>
