<?xml version="1.0" encoding="UTF-8"?>
<svg xmlns="http://www.w3.org/2000/svg" xmlns:xlink="http://www.w3.org/1999/xlink" viewBox="0 0 457.34 266.1">
  <defs>
    <style>
      .cls-1 {
        fill: #0c3461;
      }

      .cls-1, .cls-2, .cls-3, .cls-4, .cls-5, .cls-6, .cls-7, .cls-8, .cls-9, .cls-10, .cls-11, .cls-12, .cls-13, .cls-14, .cls-15, .cls-16, .cls-17, .cls-18, .cls-19, .cls-20, .cls-21, .cls-22, .cls-23, .cls-24, .cls-25, .cls-26, .cls-27, .cls-28, .cls-29, .cls-30, .cls-31, .cls-32, .cls-33, .cls-34, .cls-35, .cls-36, .cls-37 {
        stroke-width: 0px;
      }

      .cls-2 {
        fill: url(#linear-gradient-12);
      }

      .cls-3 {
        fill: url(#linear-gradient-17);
      }

      .cls-4 {
        fill: url(#linear-gradient-19);
      }

      .cls-5 {
        fill: url(#linear-gradient-2);
      }

      .cls-5, .cls-34 {
        mix-blend-mode: multiply;
      }

      .cls-5, .cls-34, .cls-37 {
        opacity: .12;
      }

      .cls-6 {
        fill: #0a2446;
      }

      .cls-7 {
        fill: url(#linear-gradient-21);
      }

      .cls-8 {
        fill: url(#linear-gradient-6);
      }

      .cls-9 {
        fill: #bccae6;
      }

      .cls-38 {
        mask: url(#mask-2);
      }

      .cls-39 {
        opacity: .23;
      }

      .cls-40 {
        isolation: isolate;
      }

      .cls-10 {
        fill: url(#linear-gradient-15);
      }

      .cls-11 {
        fill: url(#linear-gradient-11);
      }

      .cls-41 {
        mask: url(#mask-3);
      }

      .cls-12 {
        fill: url(#linear-gradient-5);
      }

      .cls-13 {
        fill: #5386b4;
      }

      .cls-42 {
        opacity: .44;
      }

      .cls-14 {
        fill: #c8e2ff;
      }

      .cls-15 {
        fill: #ffa8a7;
      }

      .cls-43 {
        mask: url(#mask-5);
      }

      .cls-16 {
        fill: url(#linear-gradient-13);
      }

      .cls-17 {
        fill: url(#linear-gradient-23);
      }

      .cls-18 {
        fill: url(#linear-gradient-16);
      }

      .cls-19 {
        fill: url(#linear-gradient-22);
      }

      .cls-20, .cls-26, .cls-37 {
        fill: #fff;
      }

      .cls-21 {
        fill: #dceeff;
      }

      .cls-22 {
        fill: url(#linear-gradient-20);
      }

      .cls-23 {
        fill: url(#linear-gradient-14);
      }

      .cls-24 {
        fill: #e8f4ff;
      }

      .cls-25 {
        fill: #f28f8f;
      }

      .cls-44 {
        opacity: .82;
      }

      .cls-26 {
        fill-rule: evenodd;
      }

      .cls-27 {
        fill: url(#linear-gradient-7);
      }

      .cls-45 {
        mask: url(#mask-4);
      }

      .cls-28 {
        fill: url(#linear-gradient-3);
      }

      .cls-29 {
        fill: url(#linear-gradient-9);
      }

      .cls-30 {
        fill: #a5cbfa;
      }

      .cls-31 {
        fill: url(#linear-gradient-8);
      }

      .cls-32 {
        fill: url(#linear-gradient-24);
      }

      .cls-33 {
        fill: url(#linear-gradient-18);
      }

      .cls-46 {
        mask: url(#mask-1);
      }

      .cls-47 {
        mask: url(#mask);
      }

      .cls-34 {
        fill: url(#linear-gradient);
      }

      .cls-35 {
        fill: url(#linear-gradient-10);
      }

      .cls-36 {
        fill: url(#linear-gradient-4);
      }
    </style>
    <linearGradient id="linear-gradient" x1="3919.19" y1="269.68" x2="3849.25" y2="269.68" gradientTransform="translate(-3800.76 -20.41)" gradientUnits="userSpaceOnUse">
      <stop offset="0" stop-color="#525983"/>
      <stop offset="1" stop-color="#fff"/>
    </linearGradient>
    <linearGradient id="linear-gradient-2" x1="3995.66" y1="247.89" x2="3925.72" y2="247.89" gradientTransform="translate(-3801.71 -23.51)" xlink:href="#linear-gradient"/>
    <linearGradient id="linear-gradient-3" x1="58.38" y1="71.39" x2="288.62" y2="71.39" gradientUnits="userSpaceOnUse">
      <stop offset="0" stop-color="#00d1ff"/>
      <stop offset="1" stop-color="#06f"/>
    </linearGradient>
    <linearGradient id="linear-gradient-4" x1="53.73" y1="109.27" x2="293.25" y2="109.27" gradientUnits="userSpaceOnUse">
      <stop offset=".43" stop-color="#c5dbef"/>
      <stop offset=".58" stop-color="#bbcae6"/>
    </linearGradient>
    <linearGradient id="linear-gradient-5" x1="357.26" y1="14.25" x2="335.47" y2="186.65" xlink:href="#linear-gradient-3"/>
    <linearGradient id="linear-gradient-6" x1="217.82" y1="207.72" x2="457.34" y2="207.72" xlink:href="#linear-gradient-4"/>
    <linearGradient id="linear-gradient-7" x1="158.54" y1="47.57" x2="205.22" y2="47.57" gradientUnits="userSpaceOnUse">
      <stop offset="0" stop-color="#f9d54b"/>
      <stop offset="1" stop-color="#f99925"/>
    </linearGradient>
    <linearGradient id="linear-gradient-8" x1="164.49" y1="49.3" x2="212.43" y2="49.3" gradientUnits="userSpaceOnUse">
      <stop offset="0" stop-color="#f9dd68"/>
      <stop offset="1" stop-color="#f9a942"/>
    </linearGradient>
    <mask id="mask" x="173.35" y="25.73" width="33.25" height="46.28" maskUnits="userSpaceOnUse">
      <g id="mask2_41_772" data-name="mask2 41 772">
        <path class="cls-20" d="M202.6,60.8l-29.25,11.21,4-35.07,29.25-11.21-4,35.07Z"/>
      </g>
    </mask>
    <mask id="mask-1" x="179.56" y="39.29" width="20.83" height="19.16" maskUnits="userSpaceOnUse">
      <g id="mask3_41_772" data-name="mask3 41 772">
        <path class="cls-20" d="M199.06,50.98l-19.5,7.48,1.34-11.69,19.5-7.47-1.33,11.68Z"/>
      </g>
    </mask>
    <linearGradient id="linear-gradient-9" x1="324.05" y1="143.13" x2="370.95" y2="143.13" gradientUnits="userSpaceOnUse">
      <stop offset="0" stop-color="#0097b9"/>
      <stop offset="1" stop-color="#004ab9"/>
    </linearGradient>
    <linearGradient id="linear-gradient-10" x1="330" y1="144.85" x2="377.94" y2="144.85" gradientUnits="userSpaceOnUse">
      <stop offset="0" stop-color="#00bee8"/>
      <stop offset="1" stop-color="#005de8"/>
    </linearGradient>
    <linearGradient id="linear-gradient-11" x1="159.74" y1="3.7" x2="239.5" y2="18.89" xlink:href="#linear-gradient-7"/>
    <linearGradient id="linear-gradient-12" x1="191.66" y1="11.87" x2="255.7" y2="11.87" xlink:href="#linear-gradient-8"/>
    <mask id="mask-2" x="200.05" y="3.77" width="43.57" height="17.44" maskUnits="userSpaceOnUse">
      <g id="mask2_41_772-2" data-name="mask2 41 772">
        <path class="cls-20" d="M229.81,15.73l-29.77,5.48,13.8-11.95,29.77-5.48-13.8,11.95Z"/>
      </g>
    </mask>
    <mask id="mask-3" x="209.61" y="8.67" width="24.45" height="7.64" maskUnits="userSpaceOnUse">
      <g id="mask3_41_772-2" data-name="mask3 41 772">
        <path class="cls-20" d="M229.46,12.66l-19.85,3.66,4.6-3.98,19.84-3.66-4.6,3.98Z"/>
      </g>
    </mask>
    <linearGradient id="linear-gradient-13" x1="301.67" y1="79.4" x2="362.09" y2="79.4" xlink:href="#linear-gradient-10"/>
    <linearGradient id="linear-gradient-14" x1="305.68" y1="79.4" x2="358.08" y2="79.4" xlink:href="#linear-gradient-3"/>
    <linearGradient id="linear-gradient-15" x1="297.9" y1="83.59" x2="353.3" y2="83.59" xlink:href="#linear-gradient-9"/>
    <linearGradient id="linear-gradient-16" x1="333.82" y1="146.04" x2="375.14" y2="146.04" xlink:href="#linear-gradient-3"/>
    <mask id="mask-4" x="293.93" y="47.53" width="76.68" height="64.74" maskUnits="userSpaceOnUse">
      <g id="mask2_41_772-3" data-name="mask2 41 772">
        <path class="cls-20" d="M343.76,47.53l26.85,45.41-49.83,19.33-26.85-45.4,49.83-19.33Z"/>
      </g>
    </mask>
    <mask id="mask-5" x="332" y="109.84" width="46.64" height="74.58" maskUnits="userSpaceOnUse">
      <g id="mask2_41_772-4" data-name="mask2 41 772">
        <path class="cls-20" d="M378.64,109.84l-3.76,50.92-42.89,23.66,3.76-50.92,42.89-23.66Z"/>
      </g>
    </mask>
    <linearGradient id="linear-gradient-17" x1="126.57" y1="133.58" x2="235.53" y2="133.58" gradientUnits="userSpaceOnUse">
      <stop offset="0" stop-color="#00a0c3"/>
      <stop offset="1" stop-color="#004ec3"/>
    </linearGradient>
    <linearGradient id="linear-gradient-18" x1="180.62" y1="103.79" x2="183.36" y2="249.72" xlink:href="#linear-gradient-3"/>
    <linearGradient id="linear-gradient-19" x1="167.96" y1="111.82" y2="111.82" xlink:href="#linear-gradient-17"/>
    <linearGradient id="linear-gradient-20" x1="118.79" y1="144.71" x2="112.5" y2="218.77" xlink:href="#linear-gradient-3"/>
    <linearGradient id="linear-gradient-21" x1="111.04" y1="153.8" x2="121.68" y2="153.8" gradientUnits="userSpaceOnUse">
      <stop offset="0" stop-color="#68d9ff"/>
      <stop offset="1" stop-color="#689aff"/>
    </linearGradient>
    <linearGradient id="linear-gradient-22" x1="131.44" y1="145.78" x2="125.15" y2="219.84" xlink:href="#linear-gradient-3"/>
    <linearGradient id="linear-gradient-23" x1="255.92" y1="241.01" x2="268.43" y2="241.01" gradientUnits="userSpaceOnUse">
      <stop offset="0" stop-color="#d2eaff"/>
      <stop offset=".58" stop-color="#c8d8f6"/>
    </linearGradient>
    <linearGradient id="linear-gradient-24" x1="243.4" y1="241.01" x2="255.92" y2="241.01" gradientUnits="userSpaceOnUse">
      <stop offset="0" stop-color="#bbcfe2"/>
      <stop offset="1" stop-color="#b1bfd9"/>
    </linearGradient>
  </defs>
  <g class="cls-40">
    <g id="Layer_1" data-name="Layer 1">
      <g>
        <rect class="cls-34" x="35.33" y="234.16" width="85.69" height="30.22" transform="translate(-10.07 3.39) rotate(-2.33)"/>
        <rect class="cls-5" x="110.85" y="209.28" width="85.69" height="30.22" transform="translate(-9 6.44) rotate(-2.33)"/>
        <g>
          <g>
            <g>
              <path class="cls-13" d="M186.42,148.21l103.5-59.49c4.42-2.57,4.4-6.74-.05-9.31L176.59,14.01c-4.45-2.57-11.64-2.57-16.07,0l-103.5,59.49c-4.42,2.57-4.4,6.74.05,9.3l113.28,65.4c4.45,2.57,11.64,2.57,16.06,0Z"/>
              <g>
                <path class="cls-28" d="M286.66,77.1l-103.5,59.49c-2.61,1.52-6.89,1.52-9.52,0L60.37,71.19c-2.64-1.52-2.65-4-.03-5.52l63.15-36.7,26.53-15.42,13.82-7.38c2.62-1.52,6.89-1.52,9.53,0l113.28,65.4c2.63,1.52,2.65,4,.03,5.52Z"/>
                <path class="cls-24" d="M57.11,73.08c-4.45-2.57-4.47-6.74-.05-9.3L160.55,4.29c4.42-2.57,11.61-2.57,16.07,0l113.28,65.4c4.45,2.57,4.47,6.74.05,9.31l-103.5,59.49c-4.42,2.57-11.62,2.57-16.06,0L57.11,73.08ZM286.66,77.1c2.62-1.52,2.6-4-.03-5.52L173.36,6.18c-2.63-1.52-6.91-1.52-9.52,0l-103.5,59.49c-2.62,1.52-2.6,4,.03,5.52l113.28,65.4c2.63,1.52,6.91,1.52,9.52,0l103.5-59.49h0Z"/>
                <path class="cls-37" d="M286.64,71.58L173.36,6.18c-2.63-1.52-6.91-1.52-9.53,0l-70.88,40.54,176.76,40.23,16.96-9.85c2.62-1.52,2.61-4-.03-5.52Z"/>
              </g>
              <path class="cls-36" d="M186.1,148.38s-.04.02-.06.03c-.04.02-.09.05-.13.07-.05.03-.1.05-.15.08-.04.02-.08.04-.12.06-.05.02-.09.05-.14.07-.03.01-.06.03-.09.04-.07.03-.14.06-.21.09-.04.02-.08.04-.12.05-.01,0-.03.01-.04.02-.13.05-.25.1-.38.15,0,0,0,0,0,0-.02,0-.04.01-.06.02-.11.04-.21.08-.32.12-.02,0-.04.01-.06.02-.05.02-.11.04-.16.05-.06.02-.13.04-.19.06-.04.01-.07.02-.11.03-.06.02-.12.04-.17.05-.04.01-.09.03-.13.04-.05.02-.11.03-.16.04-.06.02-.12.03-.18.05-.03,0-.06.02-.09.02-.08.02-.16.04-.24.06-.05.01-.1.03-.15.04-.01,0-.03,0-.04.01-.14.03-.28.06-.43.09,0,0,0,0,0,0-.01,0-.03,0-.04,0-.13.03-.25.05-.38.07-.02,0-.04,0-.06.01-.05,0-.1.02-.15.02-.07.01-.14.02-.21.03-.04,0-.09.01-.13.02-.05,0-.11.02-.16.02-.04,0-.08.01-.12.02-.08.01-.16.02-.24.03-.04,0-.09.01-.13.02-.02,0-.03,0-.05,0-.14.02-.28.03-.43.04,0,0-.01,0-.02,0-.04,0-.08,0-.13,0-.11,0-.22.02-.33.02-.02,0-.03,0-.05,0-.09,0-.18,0-.27.01-.07,0-.15,0-.22.01-.01,0-.03,0-.04,0-.24,0-.47.01-.71,0-.02,0-.04,0-.06,0-.02,0-.05,0-.07,0-.33,0-.67-.02-1-.04-.02,0-.04,0-.05,0-.03,0-.06,0-.09,0-.27-.02-.53-.04-.79-.07,0,0,0,0,0,0,0,0,0,0,0,0-.19-.02-.37-.05-.56-.07,0,0-.02,0-.02,0-.13-.02-.27-.04-.4-.06-.03,0-.06,0-.08-.01,0,0,0,0,0,0-.16-.03-.32-.06-.47-.09,0,0-.02,0-.02,0-.05,0-.09-.02-.14-.03-.1-.02-.2-.04-.29-.06-.02,0-.04,0-.05-.01-.07-.02-.13-.03-.19-.05-.07-.02-.14-.03-.22-.05-.03,0-.05-.01-.08-.02-.07-.02-.14-.04-.21-.06-.06-.02-.12-.03-.18-.05-.03,0-.07-.02-.1-.03-.07-.02-.14-.04-.21-.07-.05-.02-.1-.03-.15-.05-.04-.01-.08-.03-.11-.04-.07-.02-.14-.05-.21-.07-.04-.01-.08-.03-.13-.04-.05-.02-.09-.03-.13-.05-.07-.02-.13-.05-.2-.07-.03-.01-.07-.03-.1-.04-.05-.02-.11-.05-.16-.07-.06-.02-.12-.05-.18-.07-.02-.01-.05-.02-.07-.03-.07-.03-.14-.06-.21-.1-.05-.02-.1-.04-.14-.07-.01,0-.03-.01-.04-.02-.12-.06-.25-.12-.37-.18,0,0,0,0,0,0,0,0-.02,0-.02-.01-.11-.06-.22-.12-.32-.18-.03-.02-.05-.03-.08-.05L57.08,82.81c-.09-.05-.17-.1-.25-.15-.03-.02-.06-.04-.09-.06-.04-.03-.08-.05-.12-.08-.03-.02-.07-.04-.1-.06-.05-.03-.1-.07-.15-.1-.04-.02-.07-.05-.11-.07-.01-.01-.03-.02-.04-.03-.1-.07-.19-.14-.28-.21,0,0,0,0,0,0,0,0,0,0,0,0-.09-.07-.18-.15-.27-.22-.01,0-.02-.02-.03-.03-.03-.03-.06-.05-.09-.08-.04-.04-.09-.08-.13-.12-.02-.02-.04-.04-.06-.06-.04-.03-.07-.07-.1-.1-.03-.03-.06-.05-.08-.08-.03-.03-.05-.06-.08-.09-.03-.04-.07-.07-.1-.11-.02-.02-.04-.04-.05-.06-.03-.03-.06-.07-.08-.1-.04-.04-.07-.09-.1-.13-.01-.02-.03-.03-.04-.05-.03-.04-.05-.07-.08-.11-.03-.05-.07-.09-.1-.14,0-.01-.02-.03-.03-.04-.02-.03-.04-.07-.06-.1-.04-.06-.07-.12-.11-.17,0-.02-.02-.03-.03-.05-.01-.03-.03-.05-.04-.08-.04-.07-.08-.15-.12-.23-.01-.02-.02-.05-.04-.07,0-.02-.01-.03-.02-.05-.05-.12-.1-.24-.14-.35,0,0,0-.02-.01-.03,0,0,0,0,0,0,0-.02-.01-.05-.02-.07-.02-.08-.05-.15-.07-.23,0-.04-.02-.07-.02-.11-.01-.05-.02-.1-.03-.15,0-.01,0-.02,0-.04-.01-.08-.02-.15-.03-.23,0-.04-.01-.07-.01-.11,0-.11-.02-.23-.01-.34l.03-9.72c0,.11,0,.23.01.34,0,.04,0,.07.01.11,0,.08.02.15.03.23.01.06.02.12.04.18,0,.04.02.07.02.11.02.08.04.15.07.23,0,.02.01.05.02.07,0,.01,0,.02.01.04.04.12.09.24.14.35.02.04.04.08.06.12.04.08.08.15.12.23.02.04.05.08.07.13.03.06.07.12.11.17.03.05.06.09.09.14.03.05.07.09.1.14.04.05.08.1.12.15.03.04.07.09.1.13.04.05.09.11.14.16.03.04.06.07.1.11.05.06.11.11.16.17.03.03.07.07.11.1.06.06.12.12.19.17.03.03.06.05.09.08.1.08.2.17.3.25,0,0,0,0,0,0,.1.08.21.16.32.24.03.02.07.05.11.07.08.06.16.11.24.16.04.03.08.05.12.08.11.07.23.14.34.21l113.28,65.4c.13.08.26.15.4.22,0,0,.02.01.03.01.13.07.27.14.41.2.05.02.09.04.14.06.09.04.19.09.28.13.06.03.12.05.18.07.09.04.18.07.26.11.06.03.13.05.2.07.09.03.17.06.26.09.07.02.14.05.21.07.09.03.18.06.26.09.07.02.14.04.21.07.09.03.18.05.28.08.07.02.14.04.21.06.1.03.19.05.29.07.07.02.13.03.2.05.11.03.23.05.35.08.05,0,.09.02.14.03.17.03.33.06.5.09.03,0,.05,0,.08.01.14.02.29.05.43.07.19.03.37.05.56.07,0,0,0,0,0,0,.26.03.53.05.79.07.05,0,.1,0,.15.01.33.02.67.03,1,.04.04,0,.09,0,.13,0,.24,0,.47,0,.71,0,.09,0,.17,0,.26-.01.09,0,.18,0,.27-.01.13,0,.26-.02.38-.03.04,0,.08,0,.12,0,.16-.01.33-.03.49-.05.04,0,.09-.01.13-.02.12-.01.24-.03.36-.05.05,0,.11-.02.16-.02.11-.02.23-.03.34-.05.05,0,.1-.02.15-.02.15-.03.3-.05.44-.08.01,0,.03,0,.04,0,.16-.03.32-.07.48-.1.05-.01.1-.02.15-.04.11-.03.22-.05.32-.08.06-.02.12-.03.18-.05.1-.03.2-.06.3-.08.06-.02.12-.03.17-.05.1-.03.2-.06.3-.1.05-.02.1-.03.16-.05.13-.04.26-.09.38-.14.02,0,.04-.01.06-.02.14-.06.29-.11.43-.17.04-.02.08-.03.12-.05.1-.04.2-.09.3-.13.05-.02.09-.04.14-.07.09-.04.19-.09.28-.14.04-.02.09-.04.13-.07.13-.07.26-.14.38-.21l103.5-59.49c.13-.08.26-.15.38-.23.04-.02.07-.05.1-.07.08-.05.16-.11.24-.17.05-.03.09-.07.14-.1.07-.05.13-.1.2-.15.05-.04.09-.07.14-.11.06-.05.11-.09.17-.14.05-.04.1-.09.15-.13.05-.04.1-.09.15-.13.06-.05.11-.11.16-.16.04-.04.08-.08.12-.13.06-.07.12-.13.18-.2.03-.04.06-.07.09-.11.1-.12.19-.23.27-.35.06-.09.13-.19.18-.28,0,0,0,0,0,0,.06-.09.11-.19.16-.28.07-.14.13-.27.18-.41.01-.03.03-.07.04-.1.05-.13.09-.26.13-.39,0,0,0-.02,0-.03.04-.14.06-.28.08-.42,0-.03,0-.07.01-.1.02-.14.03-.28.03-.43l-.03,9.72c0,.14-.01.28-.03.42,0,.03,0,.07-.01.1-.02.14-.04.28-.08.42,0,0,0,.02,0,.03-.03.13-.08.26-.13.39-.01.03-.02.07-.04.1-.05.14-.11.27-.18.41,0,0,0,0,0,.01-.05.09-.1.18-.15.27,0,0,0,0,0,0-.05.09-.11.18-.17.27,0,0,0,0,0,.01-.08.12-.17.24-.27.35,0,.01-.01.02-.02.03-.02.03-.05.05-.07.08-.06.07-.12.13-.18.2-.02.02-.03.04-.05.05-.02.02-.05.05-.07.07-.05.05-.11.11-.16.16-.02.02-.04.04-.07.07-.03.02-.05.05-.08.07-.05.04-.1.09-.15.13-.03.02-.05.04-.08.07-.03.03-.06.05-.1.08-.05.04-.09.07-.14.11-.02.02-.05.04-.07.06-.04.03-.08.06-.13.09-.05.03-.09.07-.14.1-.02.01-.04.03-.05.04-.06.04-.13.08-.19.13-.03.02-.07.05-.1.07,0,0-.02.01-.02.02-.11.07-.22.14-.33.2,0,0-.01,0-.02.01l-103.5,59.49c-.1.06-.21.12-.32.18Z"/>
            </g>
            <g>
              <path class="cls-24" d="M63.01,80.13c.69.4,1.25,1.37,1.25,2.16,0,.79-.56,1.12-1.26.72-.69-.4-1.25-1.37-1.25-2.16,0-.79.56-1.12,1.26-.72Z"/>
              <path class="cls-24" d="M66.44,82.12c.69.4,1.25,1.37,1.25,2.16,0,.79-.57,1.12-1.26.72-.69-.4-1.25-1.37-1.25-2.16,0-.79.56-1.12,1.26-.72Z"/>
              <path class="cls-24" d="M69.88,84.1c.69.4,1.25,1.37,1.25,2.16,0,.79-.56,1.12-1.26.72-.69-.4-1.25-1.37-1.25-2.16,0-.79.56-1.12,1.26-.72Z"/>
              <path class="cls-24" d="M73.31,86.08c.69.4,1.25,1.37,1.25,2.16,0,.79-.56,1.12-1.26.72s-1.25-1.37-1.25-2.16.57-1.12,1.26-.72Z"/>
              <path class="cls-24" d="M76.75,88.07c.69.4,1.25,1.37,1.25,2.16,0,.79-.57,1.12-1.26.72-.69-.4-1.25-1.37-1.25-2.16s.56-1.12,1.26-.72Z"/>
              <path class="cls-24" d="M80.18,90.05c.69.4,1.25,1.37,1.25,2.16,0,.79-.56,1.12-1.26.72-.69-.4-1.25-1.37-1.25-2.16,0-.79.56-1.12,1.26-.72Z"/>
            </g>
          </g>
          <g class="cls-40">
            <path class="cls-20" d="M217.47,44.68c19.42,11.21,19.52,29.39.23,40.6-19.29,11.21-50.67,11.21-70.09,0-19.42-11.21-19.52-29.39-.23-40.6,19.29-11.21,50.67-11.21,70.09,0ZM182.69,91.77c12.35,0,23.95-2.79,32.65-7.84,8.71-5.06,13.48-11.79,13.44-18.94-.04-7.15-4.89-13.88-13.65-18.94-8.76-5.06-20.39-7.85-32.74-7.85-12.35,0-23.95,2.79-32.66,7.85-8.71,5.06-13.48,11.79-13.44,18.94.04,7.15,4.89,13.88,13.65,18.94,8.76,5.06,20.39,7.84,32.74,7.84h0Z"/>
          </g>
        </g>
        <g>
          <g>
            <g>
              <path class="cls-13" d="M350.51,246.66l103.5-59.49c4.42-2.57,4.4-6.74-.05-9.31l-113.28-65.4c-4.45-2.57-11.64-2.57-16.07,0l-103.5,59.49c-4.42,2.57-4.4,6.74.05,9.3l113.28,65.4c4.45,2.57,11.64,2.57,16.06,0Z"/>
              <g>
                <path class="cls-12" d="M450.76,175.55l-103.5,59.49c-2.61,1.52-6.89,1.52-9.52,0l-113.28-65.4c-2.64-1.52-2.65-4-.03-5.52l63.15-36.7,26.53-15.42,13.82-7.38c2.62-1.52,6.89-1.52,9.53,0l113.28,65.4c2.63,1.52,2.65,4,.03,5.52Z"/>
                <path class="cls-24" d="M221.2,171.54c-4.45-2.57-4.47-6.74-.05-9.3l103.5-59.49c4.42-2.57,11.61-2.57,16.07,0l113.28,65.4c4.45,2.57,4.47,6.74.05,9.31l-103.5,59.49c-4.42,2.57-11.62,2.57-16.06,0l-113.28-65.4ZM450.76,175.55c2.62-1.52,2.6-4-.03-5.52l-113.28-65.4c-2.63-1.52-6.91-1.52-9.52,0l-103.5,59.49c-2.62,1.52-2.6,4,.03,5.52l113.28,65.4c2.63,1.52,6.91,1.52,9.52,0l103.5-59.49h0Z"/>
                <path class="cls-37" d="M450.73,170.03l-113.28-65.4c-2.63-1.52-6.91-1.52-9.53,0l-70.88,40.54,176.76,40.23,16.96-9.85c2.62-1.52,2.61-4-.03-5.52Z"/>
              </g>
              <path class="cls-8" d="M350.19,246.84s-.04.02-.06.03c-.04.02-.09.05-.13.07-.05.03-.1.05-.15.08-.04.02-.08.04-.12.06-.05.02-.09.05-.14.07-.03.01-.06.03-.09.04-.07.03-.14.06-.21.09-.04.02-.08.04-.12.05-.01,0-.03.01-.04.02-.13.05-.25.1-.38.15,0,0,0,0,0,0-.02,0-.04.01-.06.02-.11.04-.21.08-.32.12-.02,0-.04.01-.06.02-.05.02-.11.04-.16.05-.06.02-.13.04-.19.06-.04.01-.07.02-.11.03-.06.02-.12.04-.17.05-.04.01-.09.03-.13.04-.05.02-.11.03-.16.04-.06.02-.12.03-.18.05-.03,0-.06.02-.09.02-.08.02-.16.04-.24.06-.05.01-.1.03-.15.04-.01,0-.03,0-.04.01-.14.03-.28.06-.43.09,0,0,0,0,0,0-.01,0-.03,0-.04,0-.13.03-.25.05-.38.07-.02,0-.04,0-.06.01-.05,0-.1.02-.15.02-.07.01-.14.02-.21.03-.04,0-.09.01-.13.02-.05,0-.11.02-.16.02-.04,0-.08.01-.12.02-.08.01-.16.02-.24.03-.04,0-.09.01-.13.02-.02,0-.03,0-.05,0-.14.02-.28.03-.43.04,0,0-.01,0-.02,0-.04,0-.08,0-.13,0-.11,0-.22.02-.33.02-.02,0-.03,0-.05,0-.09,0-.18,0-.27.01-.07,0-.15,0-.22.01-.01,0-.03,0-.04,0-.24,0-.47.01-.71,0-.02,0-.04,0-.06,0-.02,0-.05,0-.07,0-.33,0-.67-.02-1-.04-.02,0-.04,0-.05,0-.03,0-.06,0-.09,0-.27-.02-.53-.04-.79-.07,0,0,0,0,0,0,0,0,0,0,0,0-.19-.02-.37-.05-.56-.07,0,0-.02,0-.02,0-.13-.02-.27-.04-.4-.06-.03,0-.06,0-.08-.01,0,0,0,0,0,0-.16-.03-.32-.06-.47-.09,0,0-.02,0-.02,0-.05,0-.09-.02-.14-.03-.1-.02-.2-.04-.29-.06-.02,0-.04,0-.05-.01-.07-.02-.13-.03-.19-.05-.07-.02-.14-.03-.22-.05-.03,0-.05-.01-.08-.02-.07-.02-.14-.04-.21-.06-.06-.02-.12-.03-.18-.05-.03,0-.07-.02-.1-.03-.07-.02-.14-.04-.21-.07-.05-.02-.1-.03-.15-.05-.04-.01-.08-.03-.11-.04-.07-.02-.14-.05-.21-.07-.04-.01-.08-.03-.13-.04-.05-.02-.09-.03-.13-.05-.07-.02-.13-.05-.2-.07-.03-.01-.07-.03-.1-.04-.05-.02-.11-.05-.16-.07-.06-.02-.12-.05-.18-.07-.02-.01-.05-.02-.07-.03-.07-.03-.14-.06-.21-.1-.05-.02-.1-.04-.14-.07-.01,0-.03-.01-.04-.02-.12-.06-.25-.12-.37-.18,0,0,0,0,0,0,0,0-.02,0-.02-.01-.11-.06-.22-.12-.32-.18-.03-.02-.05-.03-.08-.05l-113.28-65.4c-.09-.05-.17-.1-.25-.15-.03-.02-.06-.04-.09-.06-.04-.03-.08-.05-.12-.08-.03-.02-.07-.04-.1-.06-.05-.03-.1-.07-.15-.1-.04-.02-.07-.05-.11-.07-.01-.01-.03-.02-.04-.03-.1-.07-.19-.14-.28-.21,0,0,0,0,0,0,0,0,0,0,0,0-.09-.07-.18-.15-.27-.22-.01,0-.02-.02-.03-.03-.03-.03-.06-.05-.09-.08-.04-.04-.09-.08-.13-.12-.02-.02-.04-.04-.06-.06-.04-.03-.07-.07-.1-.1-.03-.03-.06-.05-.08-.08-.03-.03-.05-.06-.08-.09-.03-.04-.07-.07-.1-.11-.02-.02-.04-.04-.05-.06-.03-.03-.06-.07-.08-.1-.04-.04-.07-.09-.1-.13-.01-.02-.03-.03-.04-.05-.03-.04-.05-.07-.08-.11-.03-.05-.07-.09-.1-.14,0-.01-.02-.03-.03-.04-.02-.03-.04-.07-.06-.1-.04-.06-.07-.12-.11-.17,0-.02-.02-.03-.03-.05-.01-.03-.03-.05-.04-.08-.04-.07-.08-.15-.12-.23-.01-.02-.02-.05-.04-.07,0-.02-.01-.03-.02-.05-.05-.12-.1-.24-.14-.35,0,0,0-.02-.01-.03,0,0,0,0,0,0,0-.02-.01-.05-.02-.07-.02-.08-.05-.15-.07-.23,0-.04-.02-.07-.02-.11-.01-.05-.02-.1-.03-.15,0-.01,0-.02,0-.04-.01-.08-.02-.15-.03-.23,0-.04-.01-.07-.01-.11,0-.11-.02-.23-.01-.34l.03-9.72c0,.11,0,.23.01.34,0,.04,0,.07.01.11,0,.08.02.15.03.23.01.06.02.12.04.18,0,.04.02.07.02.11.02.08.04.15.07.23,0,.02.01.05.02.07,0,.01,0,.02.01.04.04.12.09.24.14.35.02.04.04.08.06.12.04.08.08.15.12.23.02.04.05.08.07.13.03.06.07.12.11.17.03.05.06.09.09.14.03.05.07.09.1.14.04.05.08.1.12.15.03.04.07.09.1.13.04.05.09.11.14.16.03.04.06.07.1.11.05.06.11.11.16.17.03.03.07.07.11.1.06.06.12.12.19.17.03.03.06.05.09.08.1.08.2.17.3.25,0,0,0,0,0,0,.1.08.21.16.32.24.03.02.07.05.11.07.08.06.16.11.24.16.04.03.08.05.12.08.11.07.23.14.34.21l113.28,65.4c.13.08.26.15.4.22,0,0,.02.01.03.01.13.07.27.14.41.2.05.02.09.04.14.06.09.04.19.09.28.13.06.03.12.05.18.07.09.04.18.07.26.11.06.03.13.05.2.07.09.03.17.06.26.09.07.02.14.05.21.07.09.03.18.06.26.09.07.02.14.04.21.07.09.03.18.05.28.08.07.02.14.04.21.06.1.03.19.05.29.07.07.02.13.03.2.05.11.03.23.05.35.08.05,0,.09.02.14.03.17.03.33.06.5.09.03,0,.05,0,.08.01.14.02.29.05.43.07.19.03.37.05.56.07,0,0,0,0,0,0,.26.03.53.05.79.07.05,0,.1,0,.15.01.33.02.67.03,1,.04.04,0,.09,0,.13,0,.24,0,.47,0,.71,0,.09,0,.17,0,.26-.01.09,0,.18,0,.27-.01.13,0,.26-.02.38-.03.04,0,.08,0,.12,0,.16-.01.33-.03.49-.05.04,0,.09-.01.13-.02.12-.01.24-.03.36-.05.05,0,.11-.02.16-.02.11-.02.23-.03.34-.05.05,0,.1-.02.15-.02.15-.03.3-.05.44-.08.01,0,.03,0,.04,0,.16-.03.32-.07.48-.1.05-.01.1-.02.15-.04.11-.03.22-.05.32-.08.06-.02.12-.03.18-.05.1-.03.2-.06.3-.08.06-.02.12-.03.17-.05.1-.03.2-.06.3-.1.05-.02.1-.03.16-.05.13-.04.26-.09.38-.14.02,0,.04-.01.06-.02.14-.06.29-.11.43-.17.04-.02.08-.03.12-.05.1-.04.2-.09.3-.13.05-.02.09-.04.14-.07.09-.04.19-.09.28-.14.04-.02.09-.04.13-.07.13-.07.26-.14.38-.21l103.5-59.49c.13-.08.26-.15.38-.23.04-.02.07-.05.1-.07.08-.05.16-.11.24-.17.05-.03.09-.07.14-.1.07-.05.13-.1.2-.15.05-.04.09-.07.14-.11.06-.05.11-.09.17-.14.05-.04.1-.09.15-.13.05-.04.1-.09.15-.13.06-.05.11-.11.16-.16.04-.04.08-.08.12-.13.06-.07.12-.13.18-.2.03-.04.06-.07.09-.11.1-.12.19-.23.27-.35.06-.09.13-.19.18-.28,0,0,0,0,0,0,.06-.09.11-.19.16-.28.07-.14.13-.27.18-.41.01-.03.03-.07.04-.1.05-.13.09-.26.13-.39,0,0,0-.02,0-.03.04-.14.06-.28.08-.42,0-.03,0-.07.01-.1.02-.14.03-.28.03-.43l-.03,9.72c0,.14-.01.28-.03.42,0,.03,0,.07-.01.1-.02.14-.04.28-.08.42,0,0,0,.02,0,.03-.03.13-.08.26-.13.39-.01.03-.02.07-.04.1-.05.14-.11.27-.18.41,0,0,0,0,0,.01-.05.09-.1.18-.15.27,0,0,0,0,0,0-.05.09-.11.18-.17.27,0,0,0,0,0,.01-.08.12-.17.24-.27.35,0,.01-.01.02-.02.03-.02.03-.05.05-.07.08-.06.07-.12.13-.18.2-.02.02-.03.04-.05.05-.02.02-.05.05-.07.07-.05.05-.11.11-.16.16-.02.02-.04.04-.07.07-.03.02-.05.05-.08.07-.05.04-.1.09-.15.13-.03.02-.05.04-.08.07-.03.03-.06.05-.1.08-.05.04-.09.07-.14.11-.02.02-.05.04-.07.06-.04.03-.08.06-.13.09-.05.03-.09.07-.14.1-.02.01-.04.03-.05.04-.06.04-.13.08-.19.13-.03.02-.07.05-.1.07,0,0-.02.01-.02.02-.11.07-.22.14-.33.2,0,0-.01,0-.02.01l-103.5,59.49c-.1.06-.21.12-.32.18Z"/>
            </g>
            <g>
              <path class="cls-24" d="M227.1,178.59c.69.4,1.25,1.37,1.25,2.16,0,.79-.56,1.12-1.26.72-.69-.4-1.25-1.37-1.25-2.16,0-.79.56-1.12,1.26-.72Z"/>
              <path class="cls-24" d="M230.53,180.57c.69.4,1.25,1.37,1.25,2.16,0,.79-.57,1.12-1.26.72-.69-.4-1.25-1.37-1.25-2.16,0-.79.56-1.12,1.26-.72Z"/>
              <path class="cls-24" d="M233.97,182.55c.69.4,1.25,1.37,1.25,2.16,0,.79-.56,1.12-1.26.72-.69-.4-1.25-1.37-1.25-2.16,0-.79.56-1.12,1.26-.72Z"/>
              <path class="cls-24" d="M237.4,184.54c.69.4,1.25,1.37,1.25,2.16,0,.79-.56,1.12-1.26.72s-1.25-1.37-1.25-2.16.57-1.12,1.26-.72Z"/>
              <path class="cls-24" d="M240.84,186.52c.69.4,1.25,1.37,1.25,2.16,0,.79-.57,1.12-1.26.72-.69-.4-1.25-1.37-1.25-2.16s.56-1.12,1.26-.72Z"/>
              <path class="cls-24" d="M244.27,188.5c.69.4,1.25,1.37,1.25,2.16,0,.79-.56,1.12-1.26.72-.69-.4-1.25-1.37-1.25-2.16,0-.79.56-1.12,1.26-.72Z"/>
            </g>
          </g>
          <g class="cls-40">
            <path class="cls-20" d="M381.56,143.14c19.42,11.21,19.52,29.39.23,40.6-19.29,11.21-50.67,11.21-70.09,0-19.42-11.21-19.52-29.39-.23-40.6,19.29-11.21,50.67-11.21,70.09,0ZM346.78,190.22c12.35,0,23.95-2.79,32.65-7.84,8.71-5.06,13.48-11.79,13.44-18.94-.04-7.15-4.89-13.88-13.65-18.94-8.76-5.06-20.39-7.85-32.74-7.85-12.35,0-23.95,2.79-32.66,7.85-8.71,5.06-13.48,11.79-13.44,18.94.04,7.15,4.89,13.88,13.65,18.94,8.76,5.06,20.39,7.84,32.74,7.84h0Z"/>
          </g>
        </g>
        <g>
          <g>
            <path class="cls-6" d="M213.78,53.22c.72.41.72,1.09,0,1.51l-47.71,27.73c-.72.42-1.89.42-2.61,0l-10.06-5.81c-.72-.41-.72-1.09,0-1.51l47.71-27.73c.72-.42,1.89-.42,2.61,0l10.06,5.81Z"/>
            <g>
              <path class="cls-27" d="M205.22,20.77c-.14-.07-.28-.15-.42-.22-.04-.02-.09-.04-.13-.06-.18-.09-.36-.17-.54-.25-.04-.01-.07-.03-.11-.04-.15-.06-.3-.12-.46-.18-.05-.02-.1-.04-.16-.05-.17-.07-.35-.12-.52-.17-.02-.01-.04-.01-.05-.02-.2-.06-.39-.11-.59-.15-.06-.02-.11-.03-.16-.04-.17-.04-.33-.07-.49-.1-.05-.01-.09-.02-.14-.02-.21-.04-.42-.07-.63-.09-.05-.01-.1-.01-.14-.02-.18-.02-.36-.03-.54-.05-.05,0-.1-.01-.16-.01-.22-.01-.45-.02-.68-.02h-.13c-.21,0-.41,0-.62.01h-.14c-.26.02-.51.04-.77.06-.05.01-.11.01-.16.02-.27.02-.54.06-.81.1h-.01c-.32.05-.65.11-.98.18-.03,0-.05,0-.08.02-.32.07-.64.14-.96.23-.05,0-.1.03-.15.04-.17.05-.34.1-.52.15-.04.01-.08.02-.12.04-.22.06-.43.13-.65.21-.06.02-.12.04-.19.06-.15.06-.31.12-.47.18-.08.03-.16.06-.24.09-.14.06-.29.11-.43.17-.08.03-.16.07-.24.1-.2.09-.41.18-.62.27-.04.02-.08.04-.13.06-.24.11-.49.23-.74.35-.07.03-.13.07-.2.1-.19.1-.39.2-.58.3-.07.04-.14.08-.22.12-.25.14-.5.28-.76.42-2.81,1.63-5.51,3.74-8.01,6.21-.9.88-1.77,1.82-2.62,2.79-.67.76-1.31,1.55-1.94,2.37-.55.7-1.08,1.42-1.6,2.16-.48.68-.94,1.37-1.39,2.07-.42.67-.84,1.34-1.24,2.03-.38.67-.76,1.34-1.12,2.02-.36.67-.7,1.35-1.03,2.04-.34.69-.65,1.38-.96,2.08-.31.71-.6,1.43-.88,2.15-.28.75-.55,1.5-.81,2.26-.27.81-.52,1.63-.74,2.44-.26.92-.48,1.84-.68,2.75-.23,1.12-.42,2.23-.57,3.33-.2,1.58-.31,3.15-.3,4.69.02,7.56,2.69,12.87,6.99,15.37l-5.94-3.45c-4.31-2.5-6.98-7.82-7-15.38,0-1.53.1-3.1.31-4.69.14-1.1.33-2.21.57-3.32.19-.91.42-1.83.67-2.75.23-.82.48-1.63.75-2.44.25-.76.52-1.51.81-2.27.28-.72.57-1.43.88-2.15.3-.69.62-1.39.95-2.08.33-.68.68-1.36,1.04-2.04.36-.68.73-1.35,1.12-2.01.4-.69.81-1.37,1.24-2.03.45-.7.91-1.39,1.39-2.07.51-.74,1.05-1.46,1.59-2.17.63-.81,1.28-1.6,1.95-2.37.84-.97,1.72-1.9,2.62-2.79,2.5-2.46,5.2-4.58,8.01-6.2.25-.15.51-.29.76-.43.07-.03.15-.07.22-.11.19-.1.39-.2.58-.3.06-.03.13-.07.2-.1.25-.12.49-.24.74-.36.04-.02.08-.03.13-.05.2-.1.41-.19.62-.27.03-.02.07-.04.1-.05.05-.02.09-.03.14-.05.14-.06.28-.12.43-.17.08-.04.16-.07.24-.1.16-.06.31-.11.47-.17.06-.02.13-.04.19-.06.21-.08.43-.15.65-.22.04-.01.08-.02.12-.03.17-.06.35-.11.52-.15.02-.01.05-.02.07-.02.02-.01.05-.02.08-.02.32-.09.64-.17.96-.24.02,0,.05-.01.08-.01.33-.07.65-.13.98-.18h.01c.27-.05.54-.08.81-.11.05,0,.1,0,.16,0,.25-.03.51-.05.76-.06h.15c.21,0,.41-.02.61-.02h.14c.23.01.45.01.68.03h.06s.07.01.1.01c.18.01.36.03.53.05.05,0,.1.01.15.01.21.03.42.06.63.09,0,.01.02.01.04.01.03,0,.06.01.1.02.16.03.32.06.48.1.06.01.11.02.17.03.19.05.39.1.59.16.02,0,.03,0,.04,0,.18.05.36.11.53.17.05.02.11.04.16.06.16.05.31.11.46.18.03.01.05.01.08.03.01,0,.02,0,.03.01.18.07.36.16.54.24.04.02.08.05.13.07.14.07.28.14.42.22.03.01.06.03.08.04.05.03.09.05.14.08l5.72,3.33Z"/>
              <g>
                <path class="cls-31" d="M212.43,36.27c0,1.56-.11,3.15-.32,4.76-.8,6.15-3.12,12.57-6.46,18.43l-6.15,3.58-21.87,12.71-6.15,3.57c-.14-.07-.27-.16-.4-.24-.13-.08-.26-.17-.39-.26-.26-.18-.51-.37-.75-.57-.11-.09-.22-.18-.33-.28-.13-.12-.27-.25-.4-.38-.11-.1-.21-.2-.31-.31h-.02c-.1-.12-.21-.24-.3-.35-.11-.12-.22-.25-.32-.37-.09-.12-.19-.23-.28-.35-.01-.02-.02-.03-.03-.05-.1-.13-.19-.26-.29-.39-.07-.1-.14-.2-.2-.3-.03-.05-.06-.09-.09-.14-.33-.51-.64-1.06-.92-1.64-.05-.1-.1-.21-.14-.31-.11-.24-.21-.47-.31-.72-.03-.09-.07-.18-.1-.27-.05-.12-.1-.25-.15-.38-.05-.16-.1-.31-.16-.47-.12-.39-.24-.79-.34-1.19-.05-.19-.1-.38-.14-.57h0c-.05-.2-.09-.4-.13-.59-.03-.17-.06-.33-.09-.49,0-.07-.02-.13-.03-.2-.01-.02-.01-.05-.02-.07-.02-.11-.03-.23-.05-.34-.01-.11-.03-.21-.05-.32-.04-.33-.08-.65-.11-.99-.01-.11-.02-.21-.03-.32-.01-.05-.01-.11-.01-.17-.02-.12-.03-.25-.03-.38-.02-.16-.03-.32-.04-.48,0-.11,0-.22,0-.32,0-.1-.01-.19-.01-.29,0-.11-.01-.22-.01-.34v-.53c0-.44,0-.88.02-1.32,0-.14,0-.28.02-.42,0-.03.01-.06.01-.09.01-.3.03-.61.05-.92.01-.13.02-.26.04-.39,0-.15.02-.31.04-.46.03-.3.06-.6.1-.9.05-.41.11-.83.17-1.24.02-.07.03-.15.04-.22.03-.22.07-.44.11-.66.05-.27.1-.54.15-.81.11-.55.23-1.1.37-1.66.06-.27.13-.55.2-.82.01-.03.02-.07.03-.1.04-.16.08-.33.13-.49v-.03c.09-.33.19-.66.28-.99.04-.12.08-.25.11-.37.14-.45.28-.89.43-1.34.09-.27.19-.55.28-.83.07-.19.14-.37.21-.56.05-.14.1-.28.16-.42.02-.07.05-.14.08-.21.11-.29.22-.59.33-.88.04-.09.07-.18.11-.26.09-.22.18-.44.27-.66.13-.3.25-.6.39-.9.16-.36.32-.73.49-1.09.06-.12.12-.24.17-.37.17-.34.33-.68.5-1.02.03-.05.06-.11.09-.17.09-.18.18-.36.28-.54.03-.07.06-.13.1-.2.1-.2.21-.4.31-.6.08-.14.15-.27.23-.41.18-.33.36-.65.55-.98.31-.55.63-1.1.97-1.64.23-.38.47-.75.71-1.12t.01-.02c.08-.13.17-.26.26-.39.19-.3.4-.6.6-.89.08-.12.15-.23.23-.34.14-.2.27-.39.42-.59.29-.41.59-.82.9-1.22.13-.18.26-.35.4-.52.04-.06.09-.13.14-.19.11-.14.23-.28.34-.42.18-.23.36-.46.55-.68.34-.41.69-.82,1.04-1.22h0c.07-.08.13-.15.19-.22.15-.16.29-.33.44-.49.17-.18.34-.37.51-.55.32-.35.65-.68.98-1.01.06-.06.12-.13.19-.19.14-.14.28-.28.42-.42.21-.2.42-.4.63-.6.44-.42.9-.82,1.36-1.22.25-.21.51-.43.77-.65.07-.06.14-.12.22-.17.44-.36.89-.71,1.33-1.04.24-.17.47-.35.71-.51.15-.11.29-.21.44-.31.35-.24.7-.47,1.05-.69.41-.26.81-.51,1.23-.75.33-.19.65-.37.98-.54.19-.1.39-.2.58-.3.36-.18.71-.35,1.07-.51.2-.09.41-.18.62-.27.08-.03.16-.07.23-.1.14-.05.28-.11.42-.17.11-.04.23-.09.35-.13.13-.04.26-.09.38-.14.06-.02.13-.04.19-.06.1-.04.2-.07.31-.11.15-.05.3-.1.46-.14.17-.05.35-.1.52-.15.05-.02.1-.03.15-.04.21-.06.42-.11.64-.16.08-.02.17-.04.26-.06.02,0,.04-.01.06-.01.03-.01.05-.02.08-.02.16-.03.33-.07.49-.1.31-.05.61-.1.91-.14.18-.03.37-.05.56-.06.13-.01.25-.03.38-.04.13,0,.26-.01.38-.02h.13c.17-.01.34-.01.51-.01h.6c.11.01.23.01.34.02.29.01.56.04.84.07.23.03.46.07.68.1.03.01.06.02.09.02.16.03.32.06.48.1.06.01.11.02.16.03.2.05.4.1.6.16.01,0,.03.01.04.01.18.06.36.12.53.17.05.02.11.04.16.06.08.03.15.06.23.09.11.04.23.08.34.13.09.04.18.08.27.12.09.04.17.08.26.12,0,0,.01,0,.01.01.04.02.09.04.13.06.11.06.23.12.34.18.06.03.13.06.19.1.03.02.07.04.1.06,4.31,2.5,6.98,7.82,7,15.38Z"/>
                <g class="cls-47">
                  <g>
                    <path class="cls-20" d="M188,66.15c2.85-1.09,5.75-3.17,8.34-5.98,2.59-2.81,4.74-6.22,6.2-9.79,1.45-3.58,2.13-7.16,1.96-10.3-.17-3.14-1.19-5.69-2.94-7.33-1.74-1.64-4.12-2.31-6.84-1.9-2.72.4-5.66,1.86-8.44,4.18-2.78,2.32-5.28,5.4-7.19,8.85-1.91,3.45-3.13,7.12-3.52,10.53-.52,4.58.5,8.39,2.83,10.59,2.33,2.2,5.79,2.62,9.61,1.16h0ZM191.83,32.59c2.69-1.03,5.2-1.08,7.23-.15,2.03.93,3.48,2.81,4.17,5.39.69,2.58.59,5.75-.3,9.11-.88,3.36-2.51,6.76-4.67,9.76-2.16,3.01-4.76,5.48-7.46,7.12-2.7,1.64-5.4,2.36-7.74,2.08-2.34-.28-4.23-1.55-5.41-3.66-1.19-2.1-1.62-4.95-1.26-8.17.49-4.32,2.4-9.01,5.29-13.03,2.89-4.03,6.54-7.07,10.14-8.46h0Z"/>
                    <g class="cls-46">
                      <g>
                        <path class="cls-20" d="M184.3,56.64c1.09-.42,2.36-1.58,3.77-3.46.67-.88,1.27-1.8,1.72-2.51,0,0-.51-.6-1.08-1.25-.43.69-1.03,1.63-1.71,2.53-1.26,1.67-2.02,2.21-2.43,2.37-1.56.6-2.66-.49-2.44-2.43.22-1.94,1.67-3.99,3.24-4.6.07-.03.16-.05.27-.07-.43-.08-.9-.07-1.36.11-2.87,1.1-3.71,3.69-3.75,3.87-.13.47-.23.94-.29,1.41-.36,3.23,1.46,5.04,4.07,4.04Z"/>
                        <path class="cls-20" d="M195.66,41.11c-1.09.42-2.35,1.58-3.77,3.46-.67.88-1.27,1.8-1.72,2.51,0,0,.51.6,1.08,1.25.43-.69,1.03-1.63,1.71-2.53,1.26-1.66,2.02-2.21,2.43-2.37,1.56-.6,2.66.49,2.44,2.43-.22,1.94-1.67,3.99-3.24,4.61-.07.03-.16.05-.27.07.43.08.9.07,1.36-.11,2.87-1.09,3.71-3.68,3.75-3.87.13-.47.23-.94.29-1.41.37-3.23-1.45-5.05-4.07-4.04Z"/>
                        <path class="cls-26" d="M192.59,49.75c.27.24,1.63,1.14,3.1.63,2.61-.93,3.64-3.49,3.74-3.82-.79,2.74-2.88,5.37-5.1,6.23-1.81.69-3.4-.73-4.53-2.13h0s-.51-.6-1.08-1.24c0,0-.64-.78-1.33-1.41-.27-.24-1.63-1.12-3.09-.62-2.68.94-3.7,3.63-3.76,3.83.79-2.76,2.88-5.39,5.11-6.26,1.81-.69,3.4.73,4.54,2.13,0,0,0,0,0-.01,0,0,.51.6,1.08,1.25,0,0,.63.79,1.33,1.42h0Z"/>
                      </g>
                    </g>
                  </g>
                </g>
              </g>
            </g>
          </g>
          <g>
            <path class="cls-1" d="M379.3,150.29l-11.57,6.73-26.28,15.27-9.86,5.73c-.71.41-1.89.42-2.61,0l-10.06-5.81c-.71-.41-.71-1.09,0-1.51l15.17-8.82,32.54-18.91c.72-.41,1.89-.41,2.61,0l4.08,2.35,5.98,3.46c.72.41.72,1.09,0,1.51Z"/>
            <g>
              <path class="cls-29" d="M365,112.99s-.09-.05-.13-.08c-.03-.02-.06-.03-.09-.05-.14-.08-.28-.15-.42-.22-.04-.02-.09-.04-.13-.07-.18-.09-.36-.17-.54-.24,0,0-.02,0-.03-.01-.03-.01-.05-.02-.08-.03-.15-.06-.3-.12-.46-.18-.05-.02-.11-.04-.16-.06-.17-.06-.35-.12-.53-.17-.01,0-.03,0-.04-.01,0,0,0,0,0,0-.19-.06-.39-.11-.59-.15-.05-.01-.11-.02-.16-.04-.16-.04-.32-.07-.49-.1-.03,0-.06-.01-.1-.02-.01,0-.03,0-.04,0-.21-.04-.42-.07-.63-.09-.05,0-.1-.01-.14-.02-.18-.02-.35-.04-.53-.05-.03,0-.07,0-.1,0-.02,0-.04,0-.06,0-.23-.01-.45-.02-.69-.02-.04,0-.09,0-.13,0-.2,0-.41,0-.61.01-.03,0-.07,0-.1,0-.02,0-.03,0-.05,0-.25.01-.51.03-.77.06-.05,0-.11.01-.16.02-.27.03-.54.06-.81.1,0,0,0,0,0,0,0,0,0,0,0,0-.32.05-.65.11-.98.18-.03,0-.05.01-.08.02-.32.07-.64.15-.96.23-.03,0-.05.01-.08.02-.02,0-.04.01-.07.02-.17.05-.35.1-.52.15-.04.01-.08.02-.12.04-.22.07-.43.14-.65.21-.06.02-.12.04-.18.07-.16.06-.32.11-.47.17-.08.03-.16.06-.24.09-.14.06-.29.11-.43.17-.04.02-.09.03-.13.05-.03.01-.07.03-.11.05-.21.09-.41.18-.62.27-.04.02-.08.04-.13.06-.25.11-.49.23-.74.35-.07.03-.13.07-.2.1-.19.1-.39.2-.58.3-.07.04-.15.08-.22.12-.25.14-.51.28-.76.43-2.81,1.62-5.51,3.74-8.01,6.2-.9.89-1.77,1.82-2.62,2.79-.67.77-1.32,1.56-1.95,2.37-.55.71-1.08,1.43-1.6,2.16-.48.68-.94,1.37-1.39,2.07-.43.67-.84,1.34-1.24,2.03-.39.67-.76,1.34-1.13,2.02-.36.67-.7,1.35-1.03,2.04-.33.69-.65,1.38-.95,2.08-.31.71-.6,1.43-.88,2.15-.29.75-.56,1.51-.81,2.26-.27.81-.52,1.63-.75,2.44-.25.92-.48,1.84-.67,2.75-.24,1.11-.43,2.22-.57,3.32-.21,1.59-.31,3.16-.31,4.69.02,7.56,2.69,12.88,6.99,15.38l5.94,3.45c-4.3-2.5-6.97-7.82-6.99-15.38,0-1.53.1-3.1.31-4.69.14-1.1.33-2.21.57-3.32.19-.91.42-1.83.67-2.75.23-.81.47-1.63.75-2.44.25-.76.52-1.51.81-2.26.28-.72.57-1.44.88-2.15.3-.7.62-1.39.95-2.08.33-.68.67-1.36,1.03-2.04.36-.68.74-1.35,1.13-2.02.4-.68.81-1.36,1.24-2.03.45-.7.91-1.39,1.39-2.07.52-.74,1.05-1.46,1.6-2.16.63-.81,1.28-1.6,1.95-2.37.85-.97,1.72-1.9,2.62-2.79,2.5-2.47,5.2-4.58,8.01-6.2.26-.15.51-.29.76-.43.07-.04.15-.08.22-.12.19-.1.39-.2.58-.3.07-.03.13-.07.2-.1.25-.12.5-.24.74-.35.04-.02.08-.04.13-.06.21-.09.42-.18.62-.27.08-.03.16-.07.24-.1.14-.06.29-.12.43-.17.08-.03.16-.06.24-.09.16-.06.32-.12.47-.17.06-.02.12-.04.18-.07.22-.07.43-.15.65-.21.04-.01.08-.02.12-.04.17-.05.35-.1.52-.15.05-.01.1-.03.15-.04.32-.09.64-.17.96-.23.03,0,.05-.01.08-.02.33-.07.66-.13.98-.18,0,0,0,0,.01,0,.27-.04.54-.07.81-.1.05,0,.11-.01.16-.02.26-.02.51-.04.77-.06.05,0,.1,0,.15,0,.21,0,.41-.01.61-.01.04,0,.09,0,.13,0,.23,0,.46.01.69.02.05,0,.11,0,.16.01.18.01.36.03.53.05.05,0,.1,0,.14.02.21.03.42.06.63.09.05,0,.09.02.14.03.16.03.33.06.49.1.05.01.11.02.16.04.2.05.4.1.59.15.02,0,.03.01.05.01.18.05.35.11.53.17.05.02.11.04.16.06.15.06.31.11.46.18.04.01.07.03.11.04.18.08.36.16.54.24.04.02.09.04.13.07.14.07.28.14.42.22.07.04.15.08.22.12l-5.94-3.45Z"/>
              <path class="cls-35" d="M377.94,131.82c0,1.56-.1,3.15-.32,4.77-.8,6.14-3.12,12.56-6.45,18.43l-6.16,3.57-5.96,3.47-9.95,5.78-5.95,3.46-6.16,3.58c-.14-.08-.27-.16-.4-.25-.13-.08-.26-.16-.39-.26-.25-.17-.5-.36-.75-.56-.11-.09-.22-.19-.32-.28-.14-.13-.28-.25-.41-.38-.11-.1-.21-.21-.31-.31l-.02-.02c-.1-.11-.2-.22-.3-.34-.11-.12-.22-.24-.32-.37-.09-.11-.19-.23-.28-.35-.01-.01-.02-.03-.03-.04-.1-.13-.19-.26-.29-.4-.07-.1-.14-.2-.2-.3-.03-.04-.06-.09-.09-.13-.33-.52-.64-1.07-.91-1.65-.06-.1-.11-.21-.15-.31-.11-.23-.21-.47-.31-.72-.03-.08-.07-.17-.1-.26-.05-.13-.1-.26-.14-.39-.06-.15-.11-.31-.16-.47-.13-.38-.25-.78-.35-1.19-.05-.19-.09-.37-.14-.56v-.02c-.04-.19-.09-.38-.13-.58-.03-.16-.06-.32-.09-.49-.01-.06-.02-.13-.03-.2-.01-.02-.01-.05-.01-.07-.03-.11-.04-.22-.06-.34-.01-.1-.03-.21-.04-.32-.05-.32-.09-.65-.12-.99,0-.1-.02-.21-.03-.32-.01-.05-.01-.11-.01-.16-.02-.13-.03-.26-.03-.39-.02-.15-.02-.31-.03-.47-.01-.11-.01-.22-.02-.33,0-.09,0-.19,0-.28,0-.11,0-.23-.01-.34v-.54c0-.43,0-.87.02-1.31.01-.15.02-.28.02-.42,0-.03.01-.06.01-.09.01-.31.03-.62.06-.92.01-.13.02-.26.03-.39.01-.16.03-.31.04-.47.03-.3.06-.6.1-.9.05-.41.11-.82.18-1.24.01-.07.02-.15.03-.22.03-.22.07-.44.11-.66.05-.26.1-.53.15-.8.11-.55.23-1.11.37-1.66.06-.28.13-.55.2-.83,0-.03.02-.06.03-.09.04-.17.08-.33.13-.5,0-.01,0-.02.01-.02.09-.34.18-.67.28-1,.03-.12.07-.25.1-.37.14-.45.28-.89.43-1.34.09-.27.19-.55.29-.82.06-.19.13-.38.2-.57.05-.14.1-.28.16-.42.02-.07.05-.14.08-.21.11-.29.22-.58.34-.88.03-.08.07-.17.1-.26.09-.22.18-.44.27-.66.13-.3.25-.6.39-.89.16-.37.32-.73.49-1.09.06-.13.12-.25.17-.37.17-.35.33-.69.51-1.02.02-.06.05-.12.08-.18.09-.18.18-.36.28-.54.03-.07.06-.13.1-.2.1-.2.21-.39.32-.59.07-.14.14-.28.22-.42.18-.32.36-.65.55-.97.31-.55.63-1.1.97-1.65.23-.37.47-.75.71-1.12t.01,0c.09-.13.17-.27.26-.4.2-.3.4-.6.6-.89.08-.11.15-.22.23-.34.14-.19.28-.39.42-.59.29-.41.59-.82.9-1.22.13-.17.26-.35.4-.52.04-.06.09-.12.14-.19.12-.14.23-.28.34-.41.18-.23.36-.46.55-.68.34-.42.69-.83,1.04-1.23h.01c.06-.08.12-.15.18-.22.15-.16.29-.32.44-.48.17-.19.34-.38.51-.56.32-.34.65-.68.98-1.01.06-.06.12-.13.19-.19.14-.14.28-.28.42-.41.21-.21.42-.4.63-.6.45-.42.9-.83,1.36-1.22.26-.22.51-.44.77-.65.07-.06.15-.12.22-.18.44-.36.89-.7,1.34-1.03.23-.18.47-.35.7-.52.15-.1.3-.21.44-.3.35-.24.7-.47,1.05-.7.41-.26.82-.51,1.23-.74.33-.19.66-.37.98-.55.19-.1.39-.2.58-.3.36-.18.71-.35,1.07-.51.2-.09.41-.18.62-.27.08-.03.16-.06.24-.1.13-.05.27-.11.41-.16.12-.05.23-.09.35-.14.13-.04.26-.09.38-.13.06-.03.13-.05.19-.07.1-.03.21-.07.31-.1.15-.05.31-.1.46-.15.17-.05.35-.1.52-.15.05-.01.1-.03.15-.04.21-.06.43-.11.64-.16.09-.02.17-.04.26-.06.02,0,.04-.01.06-.01.03-.01.05-.01.08-.01.16-.04.33-.07.49-.1.31-.06.61-.11.91-.15.19-.02.37-.04.56-.06.13-.01.25-.02.38-.03s.26-.02.39-.02c.04-.01.08-.01.12-.01.17,0,.34,0,.51,0h.26c.11,0,.23,0,.34,0,.12,0,.23.01.34.01.29.02.57.04.84.08.23.02.46.06.69.1.02,0,.05.01.08.01.16.03.32.07.49.1.05.01.1.03.16.04.19.05.39.1.59.15.01,0,.03,0,.04.02.18.05.36.11.53.17.06.02.11.04.16.05.08.03.16.06.23.09.12.04.23.08.34.13.09.04.18.08.27.12.09.04.17.08.26.12h.01s.09.05.13.07c.12.06.23.12.34.18.06.04.13.07.19.1.03.02.07.04.11.06,4.3,2.51,6.97,7.82,6.99,15.38Z"/>
            </g>
          </g>
          <g>
            <path class="cls-11" d="M258.4,9.09v.05h0s-.01.09-.02.14c0,.01-.01.02-.01.02-.01.04-.02.07-.03.11h0c-.03.09-.07.17-.11.26,0,0,0,.01-.01.02,0,.01-.01.02-.02.03-.04.08-.09.16-.15.25h-.01c-.07.1-.14.19-.22.29l-.03.03s-.02.02-.03.03c-.08.1-.17.19-.27.29h0s-.01.02-.02.02c-.09.1-.2.2-.31.3-.01.01-.02.02-.04.03-.01.02-.03.03-.04.04-.12.1-.24.21-.38.32h0s-.04.04-.05.05c-.13.1-.27.21-.41.32-.02.01-.04.03-.06.04-.01.01-.03.02-.04.03-.04.03-.07.05-.11.08-.07.05-.14.11-.22.16-.04.03-.08.06-.13.09-.03.02-.06.04-.09.06-.04.03-.09.07-.13.1-.05.03-.1.06-.14.09-.09.06-.18.12-.27.18-.04.02-.08.05-.12.08-.01,0-.02.01-.03.02-.09.06-.2.13-.3.19-.03.02-.05.04-.08.05-.14.09-.28.18-.43.27,0,0,0,0,0,.01-.06.03-.11.06-.17.1-.1.06-.2.12-.31.18-.06.04-.13.08-.2.12-.08.05-.17.1-.26.15-.01.01-.02.02-.04.02-.1.06-.2.12-.3.18-.08.04-.16.09-.24.13-.11.07-.23.13-.35.2-.07.04-.13.07-.2.11-.01,0-.01,0-.02,0-.2.11-.41.22-.62.34l-.18.09c-.16.09-.32.17-.48.25-.02.02-.04.03-.06.04-.07.03-.14.07-.21.1-.13.07-.26.14-.4.21-.1.05-.2.1-.29.15-.14.07-.28.14-.41.21-.05.02-.09.04-.13.06-.07.03-.14.07-.21.1-.11.06-.22.11-.32.16-.13.06-.25.12-.38.18-.1.06-.21.11-.32.16-.04.02-.08.04-.13.06-.1.05-.22.11-.33.16-.07.03-.14.07-.22.1-.23.11-.46.22-.7.33-.01.01-.02.01-.03.02-.33.15-.66.3-.99.45-.33.15-.67.3-1.01.46-.29.12-.58.25-.87.38-.29.13-.58.25-.87.38-.31.13-.63.27-.94.4-.34.14-.68.29-1.02.43-.45.19-.91.37-1.37.56-1.06.43-2.13.85-3.22,1.27-.47.18-.94.36-1.41.54-.27.11-.55.21-.83.31-.28.11-.55.21-.83.31-.24.09-.47.17-.7.26-.21.08-.43.15-.64.23-.21.08-.42.15-.63.23-.21.07-.43.15-.64.22-.21.08-.43.16-.64.23-.22.08-.43.15-.64.23-.22.07-.43.15-.65.22-.22.07-.43.15-.65.22-.25.09-.51.18-.76.26-.25.09-.51.17-.76.26-.26.08-.51.17-.77.25-.3.1-.61.2-.91.3-.32.1-.64.21-.96.31-.33.11-.67.21-1,.32-.39.12-.77.24-1.16.36-.39.12-.78.24-1.16.36-.44.13-.87.26-1.3.39-.43.12-.87.25-1.3.38-.46.13-.91.26-1.36.38-.46.13-.91.26-1.37.38-.46.13-.93.26-1.38.38-.49.12-.96.25-1.44.37-.49.13-.98.25-1.46.36-.51.13-1.01.25-1.51.36-.56.13-1.11.26-1.64.38-.62.13-1.22.26-1.81.37-.74.15-1.46.28-2.15.4-.79.14-1.55.26-2.26.35-4.48.6-6.83.33-7.15-.62l-2.7-7.9c.33.96,2.68,1.23,7.15.63.72-.1,1.48-.22,2.27-.35.69-.12,1.4-.26,2.14-.4.59-.12,1.2-.25,1.81-.38.54-.12,1.09-.24,1.64-.37.5-.12,1.01-.24,1.52-.36.48-.12.97-.24,1.46-.36.47-.13.95-.25,1.43-.38.46-.12.92-.24,1.39-.37.45-.12.91-.25,1.37-.38.45-.13.9-.26,1.35-.39.44-.12.87-.25,1.31-.38l1.29-.39c.39-.12.78-.23,1.17-.36.38-.11.77-.24,1.16-.36.33-.1.66-.21,1-.32.31-.1.63-.2.95-.3.31-.1.61-.2.92-.3.25-.09.51-.17.76-.26.26-.08.51-.17.76-.25.26-.09.51-.18.77-.26.21-.08.43-.15.64-.23.22-.07.43-.14.65-.22.21-.07.43-.15.64-.22.22-.08.43-.15.65-.23.21-.08.42-.15.63-.23.21-.07.43-.15.64-.23.21-.07.42-.15.63-.23.24-.08.47-.17.7-.25.28-.11.56-.21.84-.31.27-.11.55-.21.83-.31.47-.18.94-.36,1.4-.54,1.09-.42,2.17-.85,3.23-1.28.45-.18.91-.37,1.36-.56.34-.14.69-.28,1.02-.43.32-.13.63-.26.94-.4.29-.12.58-.25.87-.37.3-.13.59-.26.87-.39.34-.15.68-.3,1.01-.45.34-.16.67-.31.99-.46.01,0,.03,0,.04,0,.23-.11.47-.22.7-.33.07-.04.15-.07.23-.11.14-.07.29-.14.44-.21.11-.06.22-.11.33-.16.12-.06.25-.12.37-.18.11-.06.21-.11.32-.16.11-.06.23-.11.34-.17.14-.07.28-.14.41-.21.1-.05.2-.09.29-.14.14-.07.28-.14.41-.21.09-.05.18-.09.26-.14.17-.09.33-.17.49-.26.06-.03.11-.06.17-.09.21-.11.42-.22.63-.34.07-.04.14-.08.22-.12.11-.06.23-.13.35-.19.08-.05.15-.09.23-.13.1-.06.21-.12.31-.18.1-.06.2-.12.3-.17.06-.04.13-.08.2-.12.1-.06.2-.12.29-.18.06-.04.12-.07.18-.11.15-.09.3-.18.44-.27.03-.02.06-.04.09-.06.11-.07.22-.14.33-.21.04-.03.08-.05.12-.08.09-.06.18-.12.26-.17.05-.04.09-.07.14-.1.08-.05.15-.1.23-.16.04-.03.08-.06.12-.08.08-.06.15-.11.23-.17.03-.02.07-.05.1-.07.04-.03.07-.05.1-.08.15-.11.28-.21.41-.32.02-.01.05-.03.07-.05.13-.11.26-.21.38-.32.02-.02.05-.05.08-.07.11-.1.21-.2.31-.29,0-.01.01-.02.02-.02.1-.1.19-.2.27-.29.02-.02.04-.05.05-.07.08-.09.16-.18.22-.27t.01-.02c.06-.08.11-.16.16-.24,0-.02.02-.04.03-.06.04-.08.08-.16.1-.24.01-.04.03-.08.03-.12.01,0,.01-.02.01-.03.01-.05.02-.09.02-.14v-.14s0-.03,0-.05l2.67,7.79s.01.04.02.06v.05s0,.03,0,.05c.01.03.01.06.01.09Z"/>
            <path class="cls-2" d="M243.9,9.15c-13.72,6.38-33.89,12.76-45.05,14.27-11.16,1.5-9.1-2.45,4.62-8.83,13.71-6.38,33.88-12.77,45.04-14.27,11.17-1.5,9.1,2.45-4.61,8.83Z"/>
            <g class="cls-38">
              <g>
                <path class="cls-20" d="M215.03,18.38c2.9-.53,6.14-1.4,9.3-2.5,3.16-1.09,6.11-2.36,8.46-3.64,2.35-1.28,4.01-2.52,4.77-3.56.75-1.04.57-1.83-.53-2.28-1.1-.45-3.07-.53-5.65-.23-2.58.3-5.67.96-8.86,1.9-3.19.94-6.36,2.12-9.09,3.38-2.73,1.27-4.9,2.56-6.25,3.73-1.8,1.56-1.98,2.77-.51,3.37,1.48.6,4.49.53,8.38-.18h0ZM228.24,6.94c2.74-.5,5.03-.67,6.6-.48,1.57.19,2.34.73,2.22,1.55-.12.82-1.14,1.89-2.92,3.06-1.78,1.18-4.24,2.41-7.06,3.54-2.83,1.13-5.9,2.11-8.83,2.82-2.93.71-5.58,1.11-7.62,1.16-2.04.04-3.38-.27-3.85-.9-.47-.63-.04-1.56,1.23-2.65,1.7-1.47,4.79-3.15,8.58-4.67,3.79-1.52,7.98-2.75,11.65-3.43h0Z"/>
                <g class="cls-41">
                  <g>
                    <path class="cls-20" d="M214.43,15.42c1.11-.2,2.59-.67,4.42-1.38.86-.33,1.67-.68,2.29-.94,0,0-.29-.17-.62-.35-.59.26-1.41.61-2.28.95-1.62.63-2.47.86-2.89.94-1.59.29-2.27,0-1.5-.67.76-.66,2.67-1.43,4.27-1.73.07-.01.16-.03.26-.04-.36,0-.8.03-1.27.12-2.92.54-4.43,1.45-4.53,1.52-.25.16-.48.33-.67.49-1.27,1.1-.14,1.6,2.51,1.11Z"/>
                    <path class="cls-20" d="M229.24,9.56c-1.11.2-2.59.67-4.42,1.38-.86.33-1.67.68-2.29.94,0,0,.29.17.62.35.59-.26,1.41-.61,2.28-.95,1.62-.63,2.47-.86,2.89-.94,1.59-.29,2.27,0,1.5.67-.76.66-2.67,1.43-4.27,1.73-.08.01-.16.03-.26.04.36,0,.8-.03,1.27-.12,2.92-.54,4.43-1.45,4.53-1.52.25-.16.48-.33.67-.49,1.27-1.1.15-1.6-2.51-1.11Z"/>
                    <path class="cls-26" d="M223.94,12.63c.17.07,1.15.28,2.63.03,2.64-.47,4.31-1.38,4.5-1.5-1.52.96-4.17,1.96-6.43,2.38-1.84.34-2.87-.04-3.49-.44h0s-.29-.17-.62-.35c0,0-.35-.22-.8-.39-.18-.07-1.16-.28-2.63-.02-2.7.47-4.41,1.43-4.52,1.5,1.52-.97,4.17-1.97,6.45-2.39,1.84-.34,2.87.04,3.49.44,0,0,0,0,0,0,0,0,.29.17.62.35,0,0,.35.23.8.4h0Z"/>
                  </g>
                </g>
              </g>
            </g>
          </g>
          <g class="cls-40">
            <g>
              <path class="cls-14" d="M320.76,25.4l-.02,6.87c-.02.65-.1,1.3-.22,1.94-.13.64-.31,1.27-.55,1.9-.24.65-.54,1.29-.9,1.92-.39.69-.84,1.36-1.36,2.02-.61.77-1.31,1.53-2.1,2.26-1.21,1.11-2.63,2.18-4.28,3.16-.13.09-.27.17-.41.25-2.25,1.31-4.75,2.39-7.4,3.25-2.05.67-4.2,1.2-6.4,1.6-1.42.25-2.86.45-4.31.6-1.24.12-2.49.2-3.75.25-1.15.04-2.3.04-3.46.01-1.11-.03-2.22-.08-3.33-.18-1.1-.09-2.2-.21-3.28-.36-1.13-.16-2.25-.36-3.35-.59-1.2-.24-2.37-.53-3.53-.86-1.41-.4-2.78-.86-4.1-1.38-1.72-.68-3.35-1.46-4.87-2.34-6.67-3.85-9.99-8.9-9.98-13.94l.02-6.85c0,5.04,3.32,10.08,9.98,13.92,1.52.88,3.15,1.65,4.87,2.33,1.32.52,2.69.99,4.1,1.39,1.15.33,2.33.61,3.53.86,1.1.23,2.22.42,3.35.58,1.08.16,2.18.28,3.28.37,1.11.09,2.22.15,3.33.18,1.16.03,2.31.02,3.46-.02,1.26-.04,2.51-.12,3.75-.25,1.45-.14,2.89-.34,4.31-.6,2.2-.39,4.35-.92,6.4-1.59,2.65-.86,5.15-1.95,7.4-3.26.14-.08.28-.16.41-.24,1.64-.99,3.07-2.05,4.28-3.17.79-.73,1.49-1.48,2.1-2.25.52-.66.97-1.34,1.36-2.02.36-.63.66-1.27.9-1.92.24-.63.42-1.27.54-1.9.13-.65.21-1.29.23-1.94Z"/>
              <path class="cls-30" d="M310.94,38.84c-13.15,7.65-34.55,7.65-47.78.01-13.24-7.65-13.31-20.04-.16-27.68,13.15-7.65,34.55-7.65,47.79,0,13.24,7.64,13.3,20.03.15,27.67Z"/>
            </g>
          </g>
          <g>
            <path class="cls-16" d="M350.27,107.63c-13.24,7.65-32.2,1.2-42.36-14.39-10.15-15.59-7.65-34.43,5.59-42.08,13.24-7.64,32.21-1.2,42.36,14.4,10.15,15.59,7.65,34.43-5.59,42.07Z"/>
            <path class="cls-23" d="M347.82,103.88c-11.48,6.63-27.92,1.04-36.73-12.48-8.8-13.52-6.63-29.86,4.85-36.49,11.48-6.63,27.93-1.04,36.73,12.49,8.8,13.52,6.63,29.86-4.85,36.48Z"/>
            <path class="cls-10" d="M353.3,105.54l-3.78,3.09c-.47.38-.96.75-1.46,1.1-.51.35-1.03.68-1.57.99-4.67,2.7-10.05,3.64-15.51,3.04-8.63-.93-17.44-5.71-23.92-13.48-1.04-1.24-2.02-2.56-2.92-3.95-3.68-5.65-5.69-11.73-6.14-17.54-.69-8.93,2.32-17.24,8.7-22.45l3.77-3.09c-1.64,1.35-3.06,2.9-4.26,4.61-1.19,1.72-2.15,3.6-2.88,5.6-.29.8-.54,1.62-.75,2.45-.33,1.26-.56,2.55-.71,3.87-.1.88-.16,1.77-.19,2.67-.02,1.07.01,2.16.1,3.25.44,5.82,2.46,11.89,6.13,17.54.91,1.39,1.89,2.71,2.93,3.96,6.48,7.76,15.29,12.54,23.92,13.48,5.46.59,10.84-.35,15.51-3.05,1.08-.62,2.09-1.32,3.03-2.09Z"/>
          </g>
          <path class="cls-18" d="M375.14,134.44c.01,1.87-.18,3.79-.53,5.74-.31,1.7-.74,3.42-1.29,5.14-1.29,4.04-3.22,8.04-5.59,11.7l-26.28,15.27c-3.43-1.25-5.95-4.26-7.04-8.75-.13-.53-.24-1.09-.32-1.66-.18-1.12-.27-2.31-.27-3.58-.04-13.09,9.2-29.1,20.59-35.67,11.4-6.58,20.7-1.28,20.73,11.81Z"/>
          <g class="cls-45">
            <g class="cls-44">
              <g>
                <path class="cls-20" d="M353.47,81.15c-.1,0-.2.01-.29.03-.38.09-.69.24-.98.41-.6.35-1.2.69-1.83,1-.6.3-1.22.58-1.84.86-.62.28-1.25.56-1.97.73-.25.06-.5.11-.79.09-.25-.02-.35-.13-.27-.3.08-.16.22-.28.37-.4.41-.31.92-.53,1.38-.79,1.01-.56,1.99-1.15,2.86-1.84.52-.41,1-.85,1.33-1.39.16-.26.27-.53.23-.85-.03-.22-.13-.43-.37-.62-.23-.21-.53-.33-.83-.42-.54-.17-1.09-.23-1.62-.27-1.49-.1-2.89.02-4.28.18-1.13.13-2.24.31-3.33.52-.95.18-1.89.38-2.82.6-.62.15-1.24.3-1.85.46-.84.22-1.68.45-2.5.71-.22.07-.27.29-.13.48.14.19.42.28.66.22.51-.14,1.02-.29,1.54-.43.94-.26,1.9-.5,2.88-.71,1.23-.27,2.48-.52,3.78-.69.93-.12,1.88-.22,2.87-.2.47.01.95.04,1.43.2.31.1.54.26.63.52.03.18-.01.33-.09.48-.11.22-.28.41-.46.59-.75.71-1.69,1.25-2.66,1.77-.99.53-2.04,1-3.1,1.45-1.26.53-2.57,1.02-3.89,1.47-.85.29-1.71.56-2.58.82-1.05.32-2.12.61-3.21.88-1.5.37-3.02.7-4.6.94-1.05.16-2.11.29-3.23.29-.53,0-1.06-.02-1.61-.17-.3-.08-.56-.21-.69-.46-.06-.19-.04-.36.04-.52.11-.24.28-.44.48-.62.81-.76,1.83-1.34,2.88-1.89.74-.39,1.52-.75,2.31-1.09.77-.34,1.56-.66,2.36-.96.57-.21,1.14-.42,1.71-.63.14-.05.2-.15.17-.29-.05-.28-.46-.49-.76-.39-.68.22-1.34.47-1.99.72-.83.31-1.64.64-2.45.98-1.11.48-2.19.98-3.23,1.53-1.11.58-2.18,1.2-3.13,1.92-.6.46-1.17.94-1.55,1.55-.14.22-.25.45-.25.73-.05.44.29.85.93,1.1.47.19.96.27,1.44.32,1.48.15,2.87.06,4.25-.08,1.03-.11,2.04-.26,3.05-.43.28-.05.57-.05.89.05.21.07.27.18.18.3-.06.09-.15.15-.25.21-.42.24-.91.39-1.41.53-1.06.3-2.2.47-3.32.67-.38.07-.77.11-1.1.24-.28.11-.54.23-.66.47-.08.16.02.31.26.4.14.05.27.08.41.09.34.04.67.02.99,0,1.72-.16,3.37-.45,4.99-.8,1.47-.32,2.91-.69,4.32-1.09,1.06-.3,2.12-.61,3.17-.94,1.58-.49,3.15-.99,4.69-1.52.98-.34,1.96-.69,2.92-1.06.87-.33,1.73-.67,2.57-1.03.68-.28,1.35-.57,2.01-.87.73-.33,1.45-.67,2.16-1.03.71-.36,1.43-.71,2.1-1.1.45-.26.82-.58,1.03-1,.05-.1.09-.21.07-.33-.02-.18-.16-.29-.39-.29Z"/>
                <path class="cls-20" d="M328.02,78.83c.32.01.64.04.96.11.53.12,1.01.35,1.46.63.04.03.08.06.13.09.55.39.96.83,1.21,1.35.33.68.18,1.3-.42,1.62-.42.22-.85.42-1.28.63-.6.3-1.21.59-1.81.89-.41.2-.8.41-1.17.65-.2.13-.4.27-.53.45-.14.19-.04.35.27.45.32.1.63.09.93.08,1.26-.06,2.43-.3,3.58-.55.96-.22,1.89-.47,2.81-.74.92-.27,1.82-.56,2.7-.88,1.04-.37,2.06-.78,3.03-1.23.67-.31,1.32-.65,1.89-1.05.24-.17.45-.36.58-.6.08-.14-.05-.33-.26-.39-.08-.02-.17-.04-.25-.04-.42-.03-.81,0-1.2.05-1.57.2-3.06.53-4.57.83-.54.11-1.09.06-1.66-.21-1.06-.49-1.71-1.18-1.94-2.06-.12-.68.13-1.22.64-1.64,1.16-.98,1.69-2.22,1.62-3.71-.03-.61-.17-1.23-.42-1.85-.18-.44-.37-.89-.74-1.3-.14-.16-.3-.3-.5-.41-.3-.16-.6-.17-.81-.01-.15.11-.22.25-.27.41-.12.42-.04.86.08,1.32.11.4.18.8.14,1.19-.03.26-.09.5-.3.68-.22.18-.55.14-.83-.1-.15-.13-.26-.27-.34-.42-.09-.15-.15-.31-.24-.46-.28-.46-.92-.66-1.36-.44-.32.16-.43.43-.49.73-.09.46,0,.95.15,1.45.18.63.04,1.16-.43,1.56-.61.53-1.46.75-2.45.77-.53.01-1.08-.03-1.62-.25-1.91-.76-3.29-1.91-4.14-3.42-.68-1.2-.79-2.35-.35-3.41.52-1.27,1.64-2.07,3.34-2.38,1.18-.22,2.44-.11,3.76.27.65.19,1.22-.03,1.3-.5.08-.46-.36-.97-1-1.15-2.72-.78-5.11-.69-7.14.31-1.45.71-2.34,1.77-2.66,3.16-.49,2.12.28,4.23,2.4,6.22,2.28,2.15,5.06,3.24,8.21,3.35Z"/>
                <path class="cls-20" d="M318.38,86.03c.09-.03.19-.07.27-.13.5-.37,1.04-.7,1.6-1.02,1.55-.87,3.21-1.62,4.87-2.38,1-.46,2.01-.91,3.01-1.37.18-.08.35-.18.44-.33.11-.2-.07-.4-.38-.42-.07,0-.15,0-.22,0-.29.02-.56.09-.81.19-.87.34-1.72.69-2.56,1.06-.98.43-1.94.88-2.88,1.36-1.18.6-2.32,1.24-3.4,1.94-.27.18-.52.38-.61.67-.05.14-.02.28.15.41.18.13.34.09.5.03Z"/>
                <path class="cls-20" d="M335.89,77.68c-.16.06-.34.13-.49.24-.06.05-.12.1-.16.16-.11.19.05.39.35.43.13.02.25.01.37,0,.46-.06.85-.21,1.27-.31.7-.17,1.39-.36,2.09-.53.9-.22,1.81-.42,2.73-.6.86-.17,1.72-.33,2.59-.48.78-.13,1.58-.23,2.37-.35.25-.04.49-.1.67-.23.15-.11.12-.26-.08-.4-.12-.09-.26-.13-.41-.15-.25-.03-.48,0-.71.02-1.01.14-2.01.3-3,.48-.91.16-1.82.34-2.72.53-.78.17-1.56.34-2.34.53-.85.2-1.68.42-2.55.65Z"/>
                <path class="cls-20" d="M328.92,67.89c.3.39.92.59,1.36.45.44-.14.55-.58.25-.97s-.9-.59-1.34-.45c-.45.14-.56.57-.26.97Z"/>
              </g>
            </g>
          </g>
          <g class="cls-43">
            <g class="cls-44">
              <g>
                <path class="cls-20" d="M369,147.88c-.07,0-.14.02-.21.05-.29.11-.58.3-.86.5-.57.41-1.14.82-1.72,1.2-.55.36-1.1.7-1.65,1.04-.56.34-1.11.68-1.68.89-.2.08-.39.15-.58.13-.16-.02-.17-.14-.04-.33.13-.19.28-.33.44-.47.43-.37.87-.63,1.31-.94.95-.67,1.9-1.38,2.81-2.19.55-.49,1.09-1.01,1.57-1.63.23-.3.44-.61.57-.98.09-.25.12-.49.05-.7-.06-.23-.2-.36-.36-.45-.29-.17-.62-.23-.96-.25-.95-.06-1.96.11-2.97.34-.83.19-1.66.43-2.5.7-.73.24-1.46.5-2.19.78-.49.19-.98.38-1.47.59-.68.28-1.35.57-2.03.89-.18.09-.32.34-.32.55,0,.21.15.31.34.23.41-.18.83-.36,1.24-.54.76-.33,1.52-.63,2.28-.91.96-.35,1.92-.67,2.87-.91.69-.17,1.37-.31,2.03-.32.31,0,.62.01.87.18.16.1.24.28.18.57-.07.2-.17.38-.29.55-.18.25-.38.48-.6.68-.84.83-1.74,1.48-2.64,2.11-.92.64-1.85,1.21-2.79,1.76-1.11.65-2.22,1.25-3.33,1.81-.71.36-1.42.7-2.13,1.02-.86.39-1.72.77-2.59,1.11-1.19.47-2.37.9-3.55,1.22-.78.21-1.56.4-2.32.43-.36.02-.71.02-1-.14-.16-.08-.27-.22-.25-.5.05-.22.15-.41.28-.59.19-.27.4-.51.62-.73.91-.9,1.88-1.59,2.85-2.25.69-.47,1.39-.9,2.08-1.32.68-.41,1.37-.8,2.05-1.17.48-.26.97-.51,1.45-.77.12-.06.21-.18.26-.33.1-.31-.07-.54-.32-.42-.56.27-1.13.58-1.69.88-.71.38-1.42.78-2.12,1.2-.98.58-1.95,1.19-2.91,1.85-1.03.7-2.05,1.44-3.04,2.3-.63.54-1.24,1.11-1.79,1.81-.2.26-.39.53-.52.84-.25.5-.21.96.09,1.23.23.2.51.28.81.32.92.13,1.91-.02,2.9-.23.75-.15,1.5-.37,2.26-.59.21-.06.41-.07.57.03.11.07.1.19-.02.34-.08.1-.18.18-.27.25-.4.29-.8.47-1.21.65-.86.37-1.71.61-2.56.87-.29.09-.57.15-.86.31-.24.13-.47.28-.67.55-.13.18-.13.35-.02.45.07.06.15.08.23.09.21.03.44,0,.67-.04,1.24-.24,2.49-.63,3.75-1.08,1.14-.41,2.29-.88,3.44-1.38.86-.38,1.72-.76,2.59-1.17,1.3-.61,2.6-1.23,3.9-1.89.83-.42,1.65-.85,2.48-1.3.74-.4,1.49-.82,2.23-1.26.59-.35,1.18-.7,1.77-1.06.65-.4,1.3-.81,1.95-1.24.65-.43,1.3-.85,1.95-1.32.43-.31.83-.69,1.18-1.18.08-.12.16-.24.21-.38.07-.21.03-.32-.12-.32Z"/>
                <path class="cls-20" d="M352.97,146.06c.21,0,.41.02.59.1.3.12.51.36.68.67.01.03.03.07.04.1.18.43.24.92.16,1.5-.11.77-.51,1.48-1.06,1.86-.39.26-.78.51-1.17.76-.55.36-1.1.71-1.65,1.07-.37.24-.74.5-1.1.78-.2.15-.4.32-.57.53-.19.23-.2.4-.03.5.17.1.38.09.59.06.88-.11,1.78-.42,2.68-.75.75-.28,1.5-.6,2.25-.94.75-.34,1.5-.7,2.24-1.09.88-.46,1.76-.95,2.63-1.5.6-.38,1.2-.78,1.78-1.26.24-.2.48-.43.68-.71.12-.16.13-.38.01-.43-.04-.02-.09-.04-.15-.04-.27-.02-.55.02-.83.09-1.15.28-2.32.7-3.48,1.09-.42.14-.76.1-1.02-.18-.48-.53-.58-1.29-.32-2.28.25-.77.68-1.39,1.23-1.9,1.25-1.15,2.2-2.58,2.88-4.28.28-.69.48-1.4.61-2.1.09-.5.18-1,.13-1.46-.02-.17-.06-.33-.14-.45-.13-.18-.32-.17-.54.01-.15.13-.27.29-.37.47-.28.48-.44.98-.58,1.5-.12.46-.26.91-.48,1.35-.14.3-.3.58-.53.79-.24.22-.44.18-.51-.09-.04-.14-.04-.3-.03-.47.02-.17.05-.35.06-.52.03-.51-.3-.73-.7-.46-.29.19-.5.51-.68.85-.28.53-.45,1.08-.59,1.64-.18.71-.53,1.32-1.04,1.8-.66.62-1.34.9-2.02.96-.37.03-.71,0-.98-.23-.92-.81-1.3-2.08-1.15-3.76.12-1.35.6-2.66,1.4-3.88.96-1.47,2.1-2.41,3.4-2.83.9-.29,1.7-.21,2.4.19.34.2.84-.08,1.12-.62.27-.52.22-1.1-.12-1.28-1.46-.8-3.12-.62-4.96.58-1.32.85-2.43,2.1-3.31,3.69-1.35,2.43-1.85,4.81-1.38,7.02.5,2.38,1.85,3.53,3.92,3.55Z"/>
                <path class="cls-20" d="M343.01,154.59c.08-.03.16-.09.25-.16.51-.44,1.04-.84,1.57-1.21,1.46-1.04,2.95-1.96,4.43-2.87.9-.55,1.79-1.1,2.69-1.66.16-.1.32-.21.46-.39.17-.23.14-.45-.05-.47-.05,0-.1,0-.15,0-.21.04-.42.12-.63.24-.75.42-1.49.85-2.23,1.29-.87.52-1.73,1.07-2.6,1.65-1.09.72-2.16,1.49-3.22,2.32-.27.21-.53.45-.74.79-.1.16-.15.32-.09.46.06.14.19.09.32.02Z"/>
                <path class="cls-20" d="M358.83,144.49c-.14.07-.3.16-.45.29-.07.05-.13.11-.18.19-.17.22-.15.44.03.48.08.02.16,0,.25-.01.33-.08.67-.26,1.01-.4.55-.22,1.11-.46,1.66-.67.71-.28,1.42-.54,2.13-.78.66-.23,1.32-.44,1.98-.63.59-.17,1.18-.32,1.77-.48.19-.05.38-.13.56-.28.16-.13.21-.3.14-.45-.04-.1-.12-.14-.21-.15-.15-.03-.32,0-.49.05-.75.19-1.5.41-2.26.64-.7.22-1.39.45-2.09.7-.61.22-1.22.44-1.83.68-.67.26-1.34.53-2.03.82Z"/>
                <path class="cls-20" d="M358.84,133.55c.01.43.33.65.7.47.36-.17.65-.68.63-1.12s-.32-.64-.69-.47c-.37.18-.66.67-.64,1.11Z"/>
              </g>
            </g>
          </g>
        </g>
        <g>
          <g>
            <g>
              <g>
                <path class="cls-30" d="M246.4,130.44v75.63c0,2.38-1.67,5.29-3.72,6.46l-43.31,25.01s-.02.01-.03.01c-1.03.58-2.37.88-3.71.88v-59.38s50.77-48.62,50.77-48.62Z"/>
                <path class="cls-14" d="M195.63,238.44c-1.32,0-2.64-.29-3.66-.85-.03-.01-.04-.01-.06-.03,0-.01-.01-.01-.01-.01l-72.16-41.66c-2.05-1.19-3.72-4.08-3.72-6.46v-49.59s79.61,39.22,79.61,39.22v59.38Z"/>
              </g>
              <path class="cls-21" d="M244.58,126.37l-74.23-42.86c-2.06-1.19-5.04-.73-6.65,1.02l-46.69,50.92c-1.61,1.75-1.24,4.14.82,5.33l74.23,42.86c2.06,1.19,5.04.73,6.65-1.02l46.69-50.92c1.61-1.75,1.24-4.14-.82-5.33Z"/>
              <path class="cls-3" d="M127.76,138.31s.01.01.01.01l63.97,36.93s.06.03.09.04c1.36.73,3.26.43,4.32-.69t.03-.03l38.69-42.2.17-.19h-.02c.88-1.15.6-2.6-.67-3.35-.01,0-.01-.01-.03-.01l-63.97-36.93s-.06-.03-.09-.04c-.69-.37-1.51-.47-2.3-.35-.78.13-1.49.49-2.03,1.04t-.03.03l-38.69,42.19s-.04.04-.06.07c-.99,1.16-.73,2.7.59,3.48Z"/>
              <path class="cls-33" d="M235.05,132.19l-38.79,42.3c-1.18,1.29-3.1,1.59-4.62.71l-64.27-37.1,40.81-44.51,66.86,38.6Z"/>
              <path class="cls-4" d="M167.96,91.51l.22,2.07,66.84,38.6c.88-1.13.6-2.59-.67-3.33-.01,0-.01-.01-.03-.01l-63.97-36.93s-.06-.03-.09-.04c-.69-.37-1.51-.47-2.3-.35Z"/>
            </g>
            <g>
              <g>
                <path class="cls-6" d="M141.08,189.02l-2.95-2.48s-1.87,4.88-1.83,6.63c.04,1.75,1.25,27.76,1.25,27.76,0,0,3.96,3,7.05.32,0,0,2.11-30.77,2.59-35.58l-6.11,3.35"/>
                <g>
                  <path class="cls-6" d="M136.68,229.78c1.03,1.3,3.37,1.96,4.97,1.59,1.18-.27,1.95-.48,2.85-.76,1.17-.37,2.94-.39,4.16-.47,1.47-.09,2.63.02,4.08-.19,1.25-.18,2.53-.55,3.69-1.04,1.55-.66,4.21-3.83,2.26-5.03-.14-.09-.32-.12-.49-.14-5.22-.78-11.95-.48-13.6-2.48,0,0-7.01-.35-7.08-.35.21.01-1.15,6.4-1.26,6.91-.06.29-.13.58-.1.87.04.41.26.77.51,1.09Z"/>
                  <path class="cls-6" d="M152.34,237.73c1.15,1.2,3.53,1.64,5.09,1.13,1.15-.37,1.9-.65,2.77-1.02,1.13-.47,2.89-.66,4.1-.84,1.45-.22,2.62-.22,4.05-.56,1.23-.3,2.47-.78,3.58-1.38,1.49-.8,3.84-4.2,1.79-5.22-.15-.08-.33-.09-.5-.1-5.26-.3-11.94.62-13.77-1.23,0,0-7.01.29-7.08.3.21,0-.56,6.48-.62,7-.04.29-.07.59-.02.87.08.4.33.74.61,1.04Z"/>
                </g>
                <path class="cls-6" d="M151.11,201.05c.04,1.75,1.26,27.76,1.26,27.76,0,0,3.99,2.38,7.08-.3,0,0,2.08-30.15,2.56-34.96"/>
              </g>
              <g>
                <path class="cls-21" d="M156.01,204.76l-33.38-19.27c-2.06-1.19-5.4-1.19-7.46,0l-33.38,19.27c-2.06,1.19-2.06,3.12,0,4.31l33.38,19.27c2.06,1.19,5.4,1.19,7.46,0l33.38-19.27c2.06-1.19,2.06-3.12,0-4.31Z"/>
                <path class="cls-20" d="M118.89,186.03c1.14,0,2.24.26,3.01.7l33.38,19.27c.61.35.83.71.83.91,0,.2-.22.56-.83.91l-33.38,19.27c-.77.44-1.87.7-3.01.7s-2.24-.26-3.01-.7l-33.38-19.27c-.61-.35-.83-.71-.83-.91s.22-.56.83-.91l33.38-19.27c.77-.44,1.87-.7,3.01-.7M118.89,184.59c-1.35,0-2.7.3-3.73.89l-33.38,19.27c-2.06,1.19-2.06,3.12,0,4.31l33.38,19.27c1.03.59,2.38.89,3.73.89s2.7-.3,3.73-.89l33.38-19.27c2.06-1.19,2.06-3.12,0-4.31l-33.38-19.27c-1.03-.59-2.38-.89-3.73-.89h0Z"/>
                <path class="cls-30" d="M157.55,240.6c-.02.89-.6,1.59-1.55,2.16l-33.38,19.27c-.96.56-2.19.87-3.73.89v-33.69c1.46,0,2.7-.31,3.73-.89l33.38-19.27c.83-.48,1.55-1.18,1.55-2.15v33.69Z"/>
                <path class="cls-14" d="M80.23,240.6c.02.89.6,1.59,1.55,2.16l33.38,19.27c.96.56,2.19.87,3.73.89v-33.69c-1.46,0-2.71-.31-3.73-.89l-33.38-19.27c-.83-.48-1.55-1.18-1.55-2.15v33.69Z"/>
              </g>
              <g>
                <g>
                  <path class="cls-6" d="M137.91,178.97c-3.47,1.26-26.87,10.04-26.87,10.04,0,0,.92,16.61,5.92,13.93l24.12-13.93,6.11-3.35c.54-5.42-5.48-8.09-9.28-6.7Z"/>
                  <path class="cls-6" d="M162,193.56c.54-5.42-5.48-8.09-9.28-6.7-3.47,1.26-26.87,10.05-26.87,10.05l-23.23-1.96c-.57,8.69,5.07,12.42,11.55,15.27,6.49,2.85,12.6,3.3,17.6.62l24.12-13.92-2.95-2.48s-1.87,4.88-1.83,6.63"/>
                </g>
                <path class="cls-15" d="M127.89,138.23c-.5-4.95-3.85-8.84-8.92-8.82-5.4.02-9.76,4.42-9.73,9.82.02,3.16,1.54,5.92,3.87,7.69,0,0,.13.64.3,1.23,0,0-.52,2.61-.76,3.05-.31.56-1.78.02-3.75-.27-1.35-.2-1.66,2.32-.81,4.67.76,2.11,4.08,4.34,7.16,4.88,3.09.55,8.1-1.38,6.31-2.74-1.78-1.36-1.8-1.87-1.53-2.8.28-.94.82-2.71.82-2.71,1.16.23,2.15.34,2.64.29,2.01-.18,3.01-.59,3.65-2.88,1.18-4.23,1.03-8.96.74-11.41Z"/>
                <path class="cls-25" d="M117.01,155.16s1.65-.04,2.99-.06c.01-.05.03-.11.04-.16.28-.94.82-2.71.82-2.71,1.16.23,2.15.34,2.64.29.85-.08,1.51-.2,2.05-.49-1.21.22-3.16-.8-3.61-1.72-.45-.93-.46-4-.46-4,0,0-.12.52-.38,1.05-.26.53-.85.43-.85.43l-1.91-.23-5.65-.99c.13.11.26.24.4.34,0,0,.13.64.3,1.23,0,0-.52,2.61-.76,3.05-.14.25-.52.27-1.07.2l.75.97,4.69,2.78Z"/>
                <path class="cls-6" d="M128.82,128.8c-3.09.97-14.56-3.45-16.63,3.37,0,0-2.27.83-2.97,4.16-.7,3.33-.7,5.8,1.19,9.13,1.88,3.33,2.5,4.85,2.5,4.85,0,0,1.36,1.14,3.24,1.48,1.88.34,3.91-.47,4.73-2.79.42-1.19.58-2.68.58-2.68-.44.7-1.77.32-2.48-1.12-.63-1.27-.87-2.9-.06-4.14,1.04-1.58,2.97-1.14,3.34.1.31,1.05.16,2.69.16,2.69,0,0,1.31.16,1.59-1.24.2-.99.2-2.13.16-3.05-.04-.85.21-1.73.84-2.3.87-.8.56-2.09.56-2.09,0,0,2.72-.15,4.16-2.76,1.44-2.61,2.17-4.59-.93-3.62Z"/>
                <path class="cls-22" d="M111.59,151.36c-.21.72.39,1.89,2.95,3.25,3.45,1.84,5.51,1.6,5.51,1.6,0,0,4.09,2.22,5.88,3.46,2.24,1.57,3.24,6.1,3.54,13.75.27,6.77.35,17.52.24,23.22-.05,2.61-1.55,4.98-3.9,6.11-1.6.77-3.6,1.36-5.8,1.18-5.36-.44-15.2-5.33-17.38-8.99.06-7.76.71-12.48.44-17.12-.48-8.18-2.27-14.67-.01-21.24,1.97-5.72,4.24-6,6.44-5.69,1.23.17,2.11.46,2.11.46Z"/>
                <path class="cls-7" d="M112.87,150.51c-.88-.11-1.13.22-1.74.75,0,0-.78,2.16,2.11,4.05,2.89,1.89,7.39,1.23,7.39,1.23l1.04.58s-.5-2.96-1.35-3.15c0,0-2.53.13-5.13-1.13-2.59-1.26-2.33-2.32-2.33-2.32Z"/>
                <path class="cls-15" d="M164.31,158.5c-.53,1.14-1.36,1.98-1.98,3.65-.55,1.46-.8,2.06-1.79,3.12-1.08,1.15-4.2,2.94-8.72,5.22-4.51,2.27-8.1,2.19-10.74,1.18-5.78-2.2-8.95-7.31-12.65-10.27-2.59-2.08-5.14-1.14-5.57.76-.34,1.48.94,5.63,5.39,9.93,3.45,3.33,9.34,7,14.29,7.13,3.16.08,7.04-.84,9.67-2.02,4.31-1.93,7.39-4,11.23-6.41,1.05-.66,1.98-.88,4.13-1.9,2.14-1.01,4.37-2.7,5.49-4.34,1.12-1.64,1.26-2.41,1.03-2.77-.29-.47-.8-.36-1.4.33-.6.69-1.47,1.93-3.15,2.95,0,0,1.38-1.44,2.13-2.38.75-.94,1.33-1.96,1.65-2.73.39-.95-.44-2.24-1.05-1.56-.62.68-.91,1.37-2.04,2.75-1.03,1.25-2.02,1.96-2.02,1.96,0,0,1.15-1.55,1.86-3.03s.7-2.24.67-2.74c-.03-.5-.74-1.08-1.39-.14-.59.85-.97,2.18-2.34,3.62-1,1.05-1.85,1.66-1.87,1.37-.03-.29.6-.87.96-2.08.34-1.16-.02-2.5-.69-2.63-.66-.14-.54-.1-1.07,1.04Z"/>
                <path class="cls-19" d="M123.49,160.57c-.85.81-1.24,2.36-.7,4.16.55,1.8,2.56,4.74,4.35,6.94,1.11,1.37,4.16,4.08,4.16,4.08,0,0,4.48-3.06,5.62-6.82,0,0-5.73-5.5-7.26-6.92-1.52-1.42-4.02-3.5-6.17-1.44Z"/>
              </g>
            </g>
          </g>
          <g class="cls-42">
            <polygon class="cls-20" points="216.73 140.58 161.12 107.9 163.39 105.35 219 138.03 216.73 140.58"/>
            <polygon class="cls-20" points="192.28 135.99 155.41 114.33 157.67 111.78 194.54 133.44 192.28 135.99"/>
            <polygon class="cls-20" points="205.48 153.23 149.87 120.55 152.14 118 207.74 150.68 205.48 153.23"/>
            <polygon class="cls-20" points="181.38 155.65 155.8 140.62 159.84 136.08 185.42 151.11 181.38 155.65"/>
          </g>
        </g>
        <g class="cls-39">
          <path class="cls-9" d="M46.55,116.92c-1.5.87-3.94.87-5.45,0-1.5-.87-1.5-2.27,0-3.14,1.5-.87,3.94-.87,5.45,0,1.5.87,1.5,2.27,0,3.14Z"/>
          <path class="cls-9" d="M33.22,124.6c-1.5.87-3.94.87-5.45,0-1.5-.87-1.5-2.27,0-3.14,1.5-.87,3.94-.87,5.45,0,1.5.87,1.5,2.27,0,3.14Z"/>
          <path class="cls-9" d="M19.89,132.29c-1.5.87-3.94.87-5.45,0-1.5-.87-1.5-2.27,0-3.14,1.5-.87,3.95-.87,5.45,0,1.5.87,1.5,2.27,0,3.14Z"/>
          <path class="cls-9" d="M1.13,136.84c1.5-.87,3.94-.87,5.45,0,1.5.87,1.5,2.27,0,3.14-1.5.87-3.94.87-5.45,0-1.5-.87-1.5-2.27,0-3.14Z"/>
          <path class="cls-9" d="M59.86,124.6c-1.5.87-3.94.87-5.45,0-1.5-.87-1.5-2.27,0-3.14,1.5-.87,3.94-.87,5.45,0,1.5.87,1.5,2.27,0,3.14Z"/>
          <path class="cls-9" d="M46.55,132.29c-1.5.87-3.94.87-5.45,0-1.5-.87-1.5-2.27,0-3.14,1.5-.87,3.94-.87,5.45,0,1.5.87,1.5,2.27,0,3.14Z"/>
          <path class="cls-9" d="M33.22,139.98c-1.5.87-3.94.87-5.45,0-1.5-.87-1.5-2.27,0-3.14,1.5-.87,3.94-.87,5.45,0,1.5.87,1.5,2.27,0,3.14Z"/>
          <path class="cls-9" d="M14.45,144.53c1.5-.87,3.94-.87,5.45,0,1.5.87,1.5,2.27,0,3.14-1.5.87-3.94.87-5.45,0-1.5-.87-1.5-2.27,0-3.14Z"/>
          <path class="cls-9" d="M73.19,132.29c-1.5.87-3.94.87-5.45,0-1.5-.87-1.5-2.27,0-3.14,1.5-.87,3.94-.87,5.45,0,1.5.87,1.5,2.27,0,3.14Z"/>
          <path class="cls-9" d="M59.86,139.98c-1.5.87-3.94.87-5.45,0-1.5-.87-1.5-2.27,0-3.14,1.5-.87,3.94-.87,5.45,0,1.5.87,1.5,2.27,0,3.14Z"/>
          <path class="cls-9" d="M46.55,147.67c-1.5.87-3.94.87-5.45,0-1.5-.87-1.5-2.27,0-3.14,1.5-.87,3.94-.87,5.45,0,1.5.87,1.5,2.27,0,3.14Z"/>
          <path class="cls-9" d="M27.77,152.22c1.5-.87,3.94-.87,5.45,0,1.5.87,1.5,2.27,0,3.14-1.5.87-3.94.87-5.45,0-1.5-.87-1.5-2.27,0-3.14Z"/>
          <path class="cls-9" d="M86.51,139.98c-1.5.87-3.94.87-5.45,0-1.5-.87-1.5-2.27,0-3.14,1.5-.87,3.94-.87,5.45,0,1.5.87,1.5,2.27,0,3.14Z"/>
          <path class="cls-9" d="M73.19,147.67c-1.5.87-3.94.87-5.45,0-1.5-.87-1.5-2.27,0-3.14,1.5-.87,3.94-.87,5.45,0,1.5.87,1.5,2.27,0,3.14Z"/>
          <path class="cls-9" d="M59.86,155.36c-1.5.87-3.94.87-5.45,0-1.5-.87-1.5-2.27,0-3.14,1.5-.87,3.94-.87,5.45,0,1.5.87,1.5,2.27,0,3.14Z"/>
          <path class="cls-9" d="M41.1,159.91c1.5-.87,3.94-.87,5.45,0,1.5.87,1.5,2.27,0,3.14-1.5.87-3.94.87-5.45,0-1.5-.87-1.5-2.27,0-3.14Z"/>
          <path class="cls-9" d="M94.39,144.53c1.5-.87,3.94-.87,5.45,0,1.5.87,1.5,2.27,0,3.14-1.5.87-3.94.87-5.45,0-1.5-.87-1.5-2.27,0-3.14Z"/>
          <path class="cls-9" d="M81.07,152.22c1.5-.87,3.94-.87,5.45,0,1.5.87,1.5,2.27,0,3.14-1.5.87-3.94.87-5.45,0-1.5-.87-1.5-2.27,0-3.14Z"/>
          <path class="cls-9" d="M67.74,159.91c1.5-.87,3.94-.87,5.45,0,1.5.87,1.5,2.27,0,3.14-1.5.87-3.94.87-5.45,0-1.5-.87-1.5-2.27,0-3.14Z"/>
          <path class="cls-9" d="M54.42,167.6c1.5-.87,3.94-.87,5.45,0,1.5.87,1.5,2.27,0,3.14-1.5.87-3.94.87-5.45,0-1.5-.87-1.5-2.27,0-3.14Z"/>
        </g>
        <g>
          <polygon class="cls-24" points="255.92 238.7 243.4 231.48 255.92 224.25 268.43 231.48 255.92 238.7"/>
          <polygon class="cls-17" points="255.92 250.54 268.43 243.32 268.43 231.48 255.92 238.7 255.92 250.54"/>
          <polygon class="cls-32" points="255.92 250.54 243.4 243.32 243.4 231.48 255.92 238.7 255.92 250.54"/>
        </g>
        <g id="Transfer-2">
          <path class="cls-20" d="M296.44,33.1l-.06-7.06c0-.42-.61-.71-1.35-.65-.32.03-.63.12-.87.26l-3.04,1.76-9.66-5.58c-.48-.28-1.33-.24-1.89.08l-4.06,2.34c-.56.32-.62.81-.14,1.09l9.66,5.58-3.04,1.76c-.56.32-.62.81-.13,1.09.21.12.5.19.81.19l12.23.04c.73,0,1.41-.34,1.52-.77.01-.04.01-.08.01-.12h0Z"/>
          <path class="cls-20" d="M292.26,23.4l4.06-2.34c.56-.32.62-.81.14-1.09l-9.66-5.58,3.04-1.76c.56-.32.62-.81.13-1.09-.21-.12-.5-.19-.81-.19l-12.23-.04c-.73,0-1.41.34-1.52.77-.01.04-.01.08-.01.12l.06,7.06c0,.42.61.71,1.35.65.32-.03.63-.12.87-.26l3.04-1.76,9.66,5.58c.48.28,1.33.24,1.89-.08h0Z"/>
        </g>
      </g>
    </g>
  </g>
</svg>