<svg width="500" height="457" viewBox="0 0 500 457" fill="none" xmlns="http://www.w3.org/2000/svg">
<path d="M81.355 268.82C78.892 269.632 77.658 272.413 78.361 274.91C78.361 274.91 79.222 278.007 79.708 279.792C79.894 280.474 79.494 281.174 78.813 281.365L73.695 282.805C72.112 283.251 71.189 284.895 71.635 286.478L71.745 286.87C72.218 288.549 73.963 289.528 75.643 289.055L76.474 288.821C77.293 288.59 78.144 289.068 78.375 289.887L79.233 292.937C79.468 293.772 78.982 294.638 78.147 294.873L77.23 295.131C75.613 295.586 74.671 297.266 75.126 298.883L75.275 299.411C75.717 300.981 77.349 301.897 78.919 301.454L84.014 300.02C84.737 299.817 85.488 300.238 85.691 300.961L89.582 314.786L87.906 315.258C86.813 315.566 86.176 316.701 86.483 317.795L86.829 319.025C87.137 320.118 88.272 320.755 89.366 320.448L91.042 319.976L91.975 323.292L90.299 323.764C89.206 324.072 88.569 325.208 88.876 326.301L89.222 327.531C89.53 328.625 90.665 329.261 91.758 328.953L93.434 328.481L95.943 337.396C95.949 337.417 95.939 337.44 95.919 337.449C86.337 342.109 80.911 351.886 83.488 361.045C86.447 371.559 98.83 377.272 111.146 373.806C123.462 370.34 131.047 359.007 128.088 348.493C125.506 339.321 115.752 333.805 105.128 334.847C105.106 334.849 105.086 334.836 105.08 334.814L102.573 325.909L104.293 325.425C105.386 325.117 106.023 323.982 105.716 322.888L105.37 321.658C105.062 320.565 103.927 319.928 102.833 320.236L101.112 320.72L100.179 317.404L101.899 316.92C102.992 316.612 103.629 315.477 103.322 314.383L102.975 313.153C102.667 312.059 101.532 311.423 100.439 311.73L98.718 312.214L87.411 272.04C86.687 269.449 83.94 267.968 81.355 268.82ZM119.686 350.86C121.53 357.411 116.804 364.472 109.131 366.631C101.458 368.791 93.743 365.231 91.899 358.68C90.055 352.13 94.781 345.069 102.454 342.909C110.128 340.751 117.843 344.31 119.686 350.86Z" fill="#B4D8F9"/>
<path d="M80.181 204.986C81.688 204.986 82.909 206.207 82.909 207.714C82.909 209.221 81.688 210.442 80.181 210.442C78.674 210.442 77.453 209.221 77.453 207.714C77.453 206.208 78.674 204.986 80.181 204.986Z" fill="#0D48A0"/>
<path d="M80.181 195.678C81.688 195.678 82.909 196.899 82.909 198.406C82.909 199.913 81.688 201.134 80.181 201.134C78.674 201.134 77.453 199.913 77.453 198.406C77.453 196.9 78.674 195.678 80.181 195.678Z" fill="#0D48A0"/>
<path d="M80.181 186.481C81.688 186.481 82.909 187.702 82.909 189.209C82.909 190.716 81.688 191.937 80.181 191.937C78.674 191.937 77.453 190.715 77.453 189.209C77.453 187.702 78.674 186.481 80.181 186.481Z" fill="#0D48A0"/>
<path d="M360.533 374.498C360.533 374.498 362.444 357.792 372.753 358.288C378.731 358.576 374.84 348.936 378.882 347.299C382.924 345.662 387.853 349.419 390.587 345.321C393.321 341.223 397.558 338.121 403.812 341.603C410.067 345.085 413.708 338.816 417.614 344.915C421.52 351.013 413.908 356.016 405.52 355.776C397.132 355.536 400.226 364.118 392.119 363.049C384.012 361.98 386.243 372.89 379.584 372.178C374.915 371.679 373.525 375.248 370.551 374.762C369.286 374.555 363.778 375.444 360.533 374.498Z" fill="#9FCCFB"/>
<path d="M374.718 363.385C374.719 363.373 374.721 363.361 374.725 363.349C374.745 363.279 376.855 356.383 385.403 355.185C391.238 354.367 392.745 353.299 394.832 351.82C395.754 351.167 396.798 350.426 398.373 349.611C403.449 346.983 410.417 349.158 410.711 349.252C410.821 349.287 410.882 349.404 410.846 349.514C410.811 349.623 410.694 349.684 410.584 349.649C410.514 349.626 403.484 347.433 398.564 349.981C397.015 350.783 395.983 351.514 395.073 352.16C393.019 353.616 391.397 354.766 385.462 355.598C377.188 356.758 375.145 363.4 375.126 363.467C375.094 363.577 374.978 363.64 374.868 363.608C374.768 363.578 374.707 363.483 374.718 363.385Z" fill="white"/>
<path d="M340.225 374.249C340.225 374.249 327.541 351.74 344.526 346.134C354.375 342.882 342.089 329.708 347.61 324.548C353.131 319.388 363.44 322.401 365.315 314.073C367.19 305.744 372.115 298.093 384.397 299.837C396.679 301.581 398.673 289.177 408.783 296.614C418.893 304.05 409.689 316.875 395.971 321.701C382.253 326.527 392.593 338.487 378.815 341.797C365.037 345.107 375.428 361.368 364.214 364.357C353.001 367.344 365.707 375.818 340.225 374.249Z" fill="#9FCCFB"/>
<path d="M346.648 365.326C346.639 365.307 346.632 365.288 346.627 365.266C346.598 365.143 343.835 352.845 358.217 341.84C368.034 334.328 369.75 331.143 372.126 326.735C373.176 324.788 374.365 322.58 376.445 319.69C383.152 310.373 397.89 305.978 398.514 305.795C398.747 305.727 398.97 305.831 399.01 306.029C399.051 306.226 398.896 306.44 398.664 306.509C398.515 306.552 383.649 310.988 377.147 320.02C375.1 322.863 373.925 325.043 372.888 326.968C370.549 331.308 368.702 334.735 358.716 342.376C344.796 353.028 347.436 364.884 347.464 365.003C347.511 365.198 347.361 365.415 347.13 365.488C346.924 365.553 346.723 365.481 346.648 365.326Z" fill="white"/>
<path d="M82.3629 374.698H413.995" stroke="#1C004F" stroke-width="0.5" stroke-miterlimit="10" stroke-linecap="round"/>
<path d="M299.271 361.055H110.634C107.276 361.055 104.554 358.333 104.554 354.975V188.933C104.554 185.575 107.276 182.853 110.634 182.853H299.271C302.629 182.853 305.351 185.575 305.351 188.933V354.975C305.351 358.333 302.629 361.055 299.271 361.055Z" fill="#0D48A0"/>
<path d="M286.32 347.143H123.585C121.732 347.143 120.23 345.641 120.23 343.788V200.12C120.23 198.267 121.732 196.765 123.585 196.765H286.32C288.173 196.765 289.675 198.267 289.675 200.12V343.789C289.675 345.641 288.173 347.143 286.32 347.143Z" fill="white"/>
<path d="M144.157 374.447H128.996L124.664 360.778H147.58L144.157 374.447Z" fill="#0D48A0"/>
<path d="M278.87 374.445H263.708L259.377 360.778H282.293L278.87 374.445Z" fill="#0D48A0"/>
<path d="M123.585 347.143H286.32C287.527 347.143 288.577 346.499 289.168 345.542L263.78 323.466H149.372L121.513 346.409C122.085 346.861 122.798 347.143 123.585 347.143Z" fill="#E4F1FF"/>
<path d="M238.509 341.973C254.953 341.973 268.283 339.051 268.283 335.447C268.283 331.843 254.953 328.921 238.509 328.921C222.065 328.921 208.735 331.843 208.735 335.447C208.735 339.051 222.065 341.973 238.509 341.973Z" fill="#9FCCFB"/>
<path d="M208.735 335.564H268.283V248.382H208.735V335.564Z" fill="#9FCCFB"/>
<path d="M208.735 248.383C208.735 251.987 222.065 254.909 238.509 254.909C254.953 254.909 268.283 251.987 268.283 248.383C268.283 244.779 254.953 241.857 238.509 241.857C222.066 241.857 208.735 244.779 208.735 248.383Z" fill="#8CC2F2"/>
<mask id="mask0_46_684" style="mask-type:luminance" maskUnits="userSpaceOnUse" x="208" y="249" width="61" height="87">
<path d="M208.735 335.565H268.283V249.918H208.735V335.565Z" fill="white"/>
</mask>
<g mask="url(#mask0_46_684)">
<path d="M207.525 262.064C207.525 265.668 221.46 268.59 238.65 268.59C255.84 268.59 269.776 265.668 269.776 262.064" stroke="white" stroke-width="0.5" stroke-miterlimit="10"/>
</g>
<mask id="mask1_46_684" style="mask-type:luminance" maskUnits="userSpaceOnUse" x="208" y="249" width="61" height="87">
<path d="M208.735 335.565H268.283V249.918H208.735V335.565Z" fill="white"/>
</mask>
<g mask="url(#mask1_46_684)">
<path d="M207.525 277.882C207.525 281.486 221.46 284.408 238.65 284.408C255.84 284.408 269.776 281.486 269.776 277.882" stroke="white" stroke-width="0.5" stroke-miterlimit="10"/>
</g>
<mask id="mask2_46_684" style="mask-type:luminance" maskUnits="userSpaceOnUse" x="208" y="249" width="61" height="87">
<path d="M208.735 335.565H268.283V249.918H208.735V335.565Z" fill="white"/>
</mask>
<g mask="url(#mask2_46_684)">
<path d="M207.525 292.799C207.525 296.403 221.46 299.325 238.65 299.325C255.84 299.325 269.776 296.403 269.776 292.799" stroke="white" stroke-width="0.5" stroke-miterlimit="10"/>
</g>
<mask id="mask3_46_684" style="mask-type:luminance" maskUnits="userSpaceOnUse" x="208" y="249" width="61" height="87">
<path d="M208.735 335.565H268.283V249.918H208.735V335.565Z" fill="white"/>
</mask>
<g mask="url(#mask3_46_684)">
<path d="M207.525 307.104C207.525 310.708 221.46 313.63 238.65 313.63C255.84 313.63 269.776 310.708 269.776 307.104" stroke="white" stroke-width="0.5" stroke-miterlimit="10"/>
</g>
<mask id="mask4_46_684" style="mask-type:luminance" maskUnits="userSpaceOnUse" x="208" y="249" width="61" height="87">
<path d="M208.735 335.565H268.283V249.918H208.735V335.565Z" fill="white"/>
</mask>
<g mask="url(#mask4_46_684)">
<path d="M207.525 321.499C207.525 325.103 221.46 328.025 238.65 328.025C255.84 328.025 269.776 325.103 269.776 321.499" stroke="white" stroke-width="0.5" stroke-miterlimit="10"/>
</g>
<path d="M214.819 327.596V336.711" stroke="#81C0EF" stroke-width="0.5" stroke-miterlimit="10" stroke-linecap="round"/>
<path d="M214.819 313.151V323.23" stroke="#81C0EF" stroke-width="0.5" stroke-miterlimit="10" stroke-linecap="round"/>
<path d="M214.819 299.084V309.54" stroke="#81C0EF" stroke-width="0.5" stroke-miterlimit="10" stroke-linecap="round"/>
<path d="M214.819 284.208V294.664" stroke="#81C0EF" stroke-width="0.5" stroke-miterlimit="10" stroke-linecap="round"/>
<path d="M214.819 267.985V280.274" stroke="#81C0EF" stroke-width="0.5" stroke-miterlimit="10" stroke-linecap="round"/>
<path d="M214.819 255.424V263.32" stroke="#81C0EF" stroke-width="0.5" stroke-miterlimit="10" stroke-linecap="round"/>
<path d="M220.451 329.172V338.288" stroke="#81C0EF" stroke-width="0.5" stroke-miterlimit="10" stroke-linecap="round"/>
<path d="M220.451 314.728V324.807" stroke="#81C0EF" stroke-width="0.5" stroke-miterlimit="10" stroke-linecap="round"/>
<path d="M220.451 300.661V311.117" stroke="#81C0EF" stroke-width="0.5" stroke-miterlimit="10" stroke-linecap="round"/>
<path d="M220.451 285.785V296.241" stroke="#81C0EF" stroke-width="0.5" stroke-miterlimit="10" stroke-linecap="round"/>
<path d="M220.451 269.562V281.851" stroke="#81C0EF" stroke-width="0.5" stroke-miterlimit="10" stroke-linecap="round"/>
<path d="M220.451 257.001V264.897" stroke="#81C0EF" stroke-width="0.5" stroke-miterlimit="10" stroke-linecap="round"/>
<path d="M226.759 330.112V339.227" stroke="#81C0EF" stroke-width="0.5" stroke-miterlimit="10" stroke-linecap="round"/>
<path d="M226.759 315.667V325.746" stroke="#81C0EF" stroke-width="0.5" stroke-miterlimit="10" stroke-linecap="round"/>
<path d="M226.759 301.6V312.056" stroke="#81C0EF" stroke-width="0.5" stroke-miterlimit="10" stroke-linecap="round"/>
<path d="M226.759 286.724V297.181" stroke="#81C0EF" stroke-width="0.5" stroke-miterlimit="10" stroke-linecap="round"/>
<path d="M226.759 270.501V282.79" stroke="#81C0EF" stroke-width="0.5" stroke-miterlimit="10" stroke-linecap="round"/>
<path d="M226.759 257.94V265.836" stroke="#81C0EF" stroke-width="0.5" stroke-miterlimit="10" stroke-linecap="round"/>
<path d="M262.863 327.67V336.785" stroke="#81C0EF" stroke-width="0.5" stroke-miterlimit="10" stroke-linecap="round"/>
<path d="M262.863 313.225V323.304" stroke="#81C0EF" stroke-width="0.5" stroke-miterlimit="10" stroke-linecap="round"/>
<path d="M262.863 299.158V309.614" stroke="#81C0EF" stroke-width="0.5" stroke-miterlimit="10" stroke-linecap="round"/>
<path d="M262.863 284.283V294.739" stroke="#81C0EF" stroke-width="0.5" stroke-miterlimit="10" stroke-linecap="round"/>
<path d="M262.863 268.06V280.348" stroke="#81C0EF" stroke-width="0.5" stroke-miterlimit="10" stroke-linecap="round"/>
<path d="M262.863 255.498V263.395" stroke="#81C0EF" stroke-width="0.5" stroke-miterlimit="10" stroke-linecap="round"/>
<path d="M256.584 329.065V338.18" stroke="#81C0EF" stroke-width="0.5" stroke-miterlimit="10" stroke-linecap="round"/>
<path d="M256.584 314.621V324.699" stroke="#81C0EF" stroke-width="0.5" stroke-miterlimit="10" stroke-linecap="round"/>
<path d="M256.584 300.554V311.01" stroke="#81C0EF" stroke-width="0.5" stroke-miterlimit="10" stroke-linecap="round"/>
<path d="M256.584 285.678V296.134" stroke="#81C0EF" stroke-width="0.5" stroke-miterlimit="10" stroke-linecap="round"/>
<path d="M256.584 269.455V281.743" stroke="#81C0EF" stroke-width="0.5" stroke-miterlimit="10" stroke-linecap="round"/>
<path d="M256.584 256.894V264.79" stroke="#81C0EF" stroke-width="0.5" stroke-miterlimit="10" stroke-linecap="round"/>
<path d="M249.607 329.763V338.878" stroke="#81C0EF" stroke-width="0.5" stroke-miterlimit="10" stroke-linecap="round"/>
<path d="M249.607 315.318V325.397" stroke="#81C0EF" stroke-width="0.5" stroke-miterlimit="10" stroke-linecap="round"/>
<path d="M249.607 301.251V311.707" stroke="#81C0EF" stroke-width="0.5" stroke-miterlimit="10" stroke-linecap="round"/>
<path d="M249.607 286.376V296.832" stroke="#81C0EF" stroke-width="0.5" stroke-miterlimit="10" stroke-linecap="round"/>
<path d="M249.607 270.153V282.441" stroke="#81C0EF" stroke-width="0.5" stroke-miterlimit="10" stroke-linecap="round"/>
<path d="M249.607 257.591V265.488" stroke="#81C0EF" stroke-width="0.5" stroke-miterlimit="10" stroke-linecap="round"/>
<path d="M242.457 330.112V339.227" stroke="#81C0EF" stroke-width="0.5" stroke-miterlimit="10" stroke-linecap="round"/>
<path d="M242.457 315.667V325.746" stroke="#81C0EF" stroke-width="0.5" stroke-miterlimit="10" stroke-linecap="round"/>
<path d="M242.457 301.6V312.056" stroke="#81C0EF" stroke-width="0.5" stroke-miterlimit="10" stroke-linecap="round"/>
<path d="M242.457 286.724V297.181" stroke="#81C0EF" stroke-width="0.5" stroke-miterlimit="10" stroke-linecap="round"/>
<path d="M242.457 270.501V282.79" stroke="#81C0EF" stroke-width="0.5" stroke-miterlimit="10" stroke-linecap="round"/>
<path d="M242.457 257.94V265.836" stroke="#81C0EF" stroke-width="0.5" stroke-miterlimit="10" stroke-linecap="round"/>
<path d="M234.782 329.937V339.052" stroke="#81C0EF" stroke-width="0.5" stroke-miterlimit="10" stroke-linecap="round"/>
<path d="M234.782 315.493V325.572" stroke="#81C0EF" stroke-width="0.5" stroke-miterlimit="10" stroke-linecap="round"/>
<path d="M234.782 301.426V311.882" stroke="#81C0EF" stroke-width="0.5" stroke-miterlimit="10" stroke-linecap="round"/>
<path d="M234.782 286.55V297.006" stroke="#81C0EF" stroke-width="0.5" stroke-miterlimit="10" stroke-linecap="round"/>
<path d="M234.782 270.327V282.616" stroke="#81C0EF" stroke-width="0.5" stroke-miterlimit="10" stroke-linecap="round"/>
<path d="M234.782 257.766V265.662" stroke="#81C0EF" stroke-width="0.5" stroke-miterlimit="10" stroke-linecap="round"/>
<path d="M120.035 202.955L120 342.138C120 346.389 122.099 347.176 125.775 349.044L208.68 390.561V154.276L124.369 195.683C120.818 197.427 120.035 198.874 120.035 202.955Z" fill="#7DABFF"/>
<path d="M208.462 154.265L228.308 159.137C232.212 160.096 234.97 163.716 234.97 167.883V376.556C234.97 380.666 232.286 384.252 228.452 385.265L208.462 390.55V154.265Z" fill="#7DABFF"/>
<path d="M119.886 246.88H116.599C114.355 246.88 112.536 245.061 112.536 242.817V217.204C112.536 214.96 114.355 213.141 116.599 213.141H119.886C122.13 213.141 123.949 214.96 123.949 217.204V242.817C123.949 245.061 122.13 246.88 119.886 246.88Z" fill="#E4F1FF"/>
<path d="M119.776 330.087H116.489C114.245 330.087 112.426 328.268 112.426 326.024V300.411C112.426 298.167 114.245 296.348 116.489 296.348H119.776C122.02 296.348 123.839 298.167 123.839 300.411V326.024C123.839 328.268 122.02 330.087 119.776 330.087Z" fill="#E4F1FF"/>
<path d="M171.371 235.043H157.155V308.636H171.371C178.712 308.636 184.663 292.162 184.663 271.839C184.663 251.516 178.712 235.043 171.371 235.043Z" fill="#0D48A0"/>
<path d="M156.632 308.388C166.029 308.388 173.647 292.056 173.647 271.909C173.647 251.762 166.029 235.43 156.632 235.43C147.235 235.43 139.617 251.762 139.617 271.909C139.617 292.056 147.235 308.388 156.632 308.388Z" fill="white"/>
<path d="M153.863 248.476H142.714V295.209H153.863C159.621 295.209 164.288 284.748 164.288 271.843C164.288 258.937 159.621 248.476 153.863 248.476Z" fill="#0D48A0"/>
<path d="M142.714 295.208C148.472 295.208 153.139 284.747 153.139 271.842C153.139 258.937 148.472 248.476 142.714 248.476C136.956 248.476 132.289 258.937 132.289 271.842C132.289 284.747 136.956 295.208 142.714 295.208Z" fill="#0D48A0"/>
<path d="M154.092 191.952L129.481 204.595" stroke="white" stroke-width="0.5" stroke-miterlimit="10" stroke-linecap="round"/>
<path d="M200.249 192.622V182.417V173.716C200.249 171.216 197.604 169.601 195.381 170.744L175.055 181.185L169.782 183.894" stroke="white" stroke-width="0.5" stroke-miterlimit="10" stroke-linecap="round"/>
<path d="M200.249 270.455V233.381" stroke="white" stroke-width="0.5" stroke-miterlimit="10" stroke-linecap="round"/>
<path d="M166.848 358.19L180.985 365.595L195.12 372.999C197.453 374.221 200.249 372.529 200.249 369.896V321.824V285.196" stroke="white" stroke-width="0.5" stroke-miterlimit="10" stroke-linecap="round"/>
<path d="M146.685 347.629L154.646 351.8" stroke="white" stroke-width="0.5" stroke-miterlimit="10" stroke-linecap="round"/>
<path d="M142.669 291.661C139.964 291.661 137.605 287.613 136.363 281.617" stroke="white" stroke-width="0.5" stroke-miterlimit="10" stroke-linecap="round"/>
<path d="M149.403 279.176C148.993 282 148.352 284.504 147.543 286.515" stroke="white" stroke-width="0.5" stroke-miterlimit="10" stroke-linecap="round"/>
<path d="M135.472 274.069C135.444 273.362 135.429 272.643 135.429 271.915C135.429 261.009 138.67 252.169 142.668 252.169C143.668 252.169 144.62 252.722 145.486 253.721" stroke="white" stroke-width="0.5" stroke-miterlimit="10" stroke-linecap="round"/>
<path d="M180.887 254.086C179.629 247.559 177.68 242.205 175.311 238.77" stroke="white" stroke-width="0.5" stroke-miterlimit="10" stroke-linecap="round"/>
<path d="M182.445 271.388C182.445 268.906 182.356 266.481 182.187 264.136" stroke="white" stroke-width="0.5" stroke-miterlimit="10" stroke-linecap="round"/>
<path d="M179.462 294.619C180.224 292.033 180.861 289.154 181.348 286.054" stroke="white" stroke-width="0.5" stroke-miterlimit="10" stroke-linecap="round"/>
<path d="M173.106 306.53C174.886 304.998 176.505 302.458 177.877 299.152" stroke="white" stroke-width="0.5" stroke-miterlimit="10" stroke-linecap="round"/>
<path d="M341.089 208.836C347.568 192.597 339.656 174.18 323.418 167.701C307.179 161.221 288.762 169.133 282.282 185.372C275.803 201.611 283.715 220.028 299.953 226.507C316.192 232.986 334.609 225.075 341.089 208.836Z" fill="#FFC45C"/>
<path d="M334.39 203.467C330.538 216.188 317.105 223.378 304.383 219.526C291.661 215.674 284.472 202.24 288.324 189.519C292.176 176.797 305.609 169.608 318.331 173.46C331.053 177.311 338.242 190.745 334.39 203.467Z" fill="#FFF7BC"/>
<path d="M334.75 204.623C330.95 217.173 317.697 224.267 305.146 220.466C292.595 216.666 285.503 203.412 289.303 190.862C293.103 178.312 306.356 171.218 318.907 175.019C331.457 178.819 338.55 192.073 334.75 204.623Z" fill="#FF725E"/>
<path d="M334.75 204.623C330.95 217.173 317.697 224.267 305.146 220.466C292.595 216.666 285.503 203.412 289.303 190.862C293.103 178.312 306.356 171.218 318.907 175.019C331.457 178.819 338.55 192.073 334.75 204.623Z" fill="#FFC45C"/>
<path d="M313.528 196.046L315.288 190.232C315.298 190.234 315.307 190.238 315.316 190.24C316.29 190.663 317.255 191.249 318.162 191.981C318.89 192.69 319.333 193.332 319.333 193.332L319.465 193.176L320.996 191.354L321.348 190.935L320.642 189.533L320.075 189.606C318.997 188.585 317.7 187.648 316.232 187.115L317.2 183.918L316.447 182.814L316.204 183.616L314.838 183.202L313.852 186.457C309.228 185.529 306.32 187.447 305.43 190.385C304.218 194.389 307.332 196.464 310.293 198.209L308.549 203.97C306.421 203.105 304.513 201.616 303.451 200.036L301.274 202.553C302.379 204.303 304.837 206.053 307.607 207.081L306.876 209.495L305.746 209.174L306.639 210.278L309.001 210.993L309.978 207.767C314.64 208.676 317.567 206.795 318.457 203.857C319.67 199.855 316.49 197.791 313.528 196.046ZM311.35 194.726C309.827 193.73 308.781 192.722 309.199 191.339C309.583 190.072 310.761 189.297 312.902 189.599L311.35 194.726ZM310.929 204.63L312.473 199.532C314.053 200.545 315.12 201.591 314.692 203.002C314.317 204.24 313.128 204.949 310.929 204.63Z" fill="#FFC45C"/>
<path d="M309.241 206.684L308.264 209.911L305.902 209.196L306.87 205.998C304.099 204.97 301.641 203.22 300.536 201.469L302.713 198.952C303.776 200.532 305.683 202.021 307.812 202.886L309.556 197.124C306.594 195.378 303.48 193.303 304.692 189.299C305.582 186.36 308.49 184.442 313.115 185.371L314.101 182.116L316.463 182.831L315.495 186.029C317.592 186.79 319.561 188.078 320.812 189.557L318.75 192.109C317.494 190.754 316.028 189.775 314.554 189.14L312.792 194.959C315.754 196.705 318.935 198.769 317.723 202.773C316.832 205.712 313.903 207.593 309.241 206.684ZM310.612 193.639L312.165 188.511C310.024 188.209 308.846 188.984 308.462 190.252C308.043 191.634 309.089 192.643 310.612 193.639ZM313.955 201.916C314.382 200.504 313.315 199.458 311.735 198.445L310.191 203.544C312.391 203.864 313.58 203.155 313.955 201.916Z" fill="white"/>
<path d="M349.057 431.011C392.919 431.011 428.476 423.963 428.476 415.269C428.476 406.575 392.919 399.527 349.057 399.527C305.195 399.527 269.638 406.575 269.638 415.269C269.638 423.963 305.195 431.011 349.057 431.011Z" fill="#E4F1FF"/>
<path d="M382.644 374.54L385.797 377.507L393.879 380.158L394.861 368.262L389.853 362.788L382.644 374.54Z" fill="#F7C2A0"/>
<path d="M385.474 377.114C385.474 377.114 390.215 379.303 394.861 368.262C394.861 368.262 401.997 370.736 406.984 370.015C411.971 369.293 411.072 379.703 405.555 384.54C400.037 389.377 401.705 396.542 397.364 402.006C393.023 407.47 381.373 412.043 381.395 407.71C381.417 403.377 388.696 390.36 385.634 385.081C382.573 379.802 385.474 377.114 385.474 377.114Z" fill="#0D48A0"/>
<path d="M324.108 392.811L323.806 397.13L326.87 405.065L336.701 398.296L337.768 390.953L324.108 392.811Z" fill="#F7C2A0"/>
<path d="M334.783 134.453C334.783 134.453 328.55 169.806 345.387 170.66C362.224 171.514 365.177 154.852 365.177 154.852C365.177 154.852 370.666 156.442 370.962 151.547C371.218 147.315 368.37 146.262 367.214 148.677L365.636 125.739L348.839 124.344L334.783 134.453Z" fill="#F7C2A0"/>
<path d="M365.176 154.852L363.253 178.149L360.732 181.015C355.883 186.528 346.865 187.233 344.737 180.207V177.544L345.096 166.523L365.176 154.852Z" fill="#F7C2A0"/>
<path d="M344.965 170.573C344.965 170.573 350.64 170.767 356.531 168.378C356.531 168.378 350.015 174.579 344.854 173.719L344.965 170.573Z" fill="#F18884"/>
<path d="M365.791 125.92C365.791 125.92 363.464 117.238 357.389 118.196C351.314 119.154 348.614 121.592 339.997 118.182C331.38 114.772 322.878 126.237 330.63 133.894C336.14 139.337 340.26 137.122 342.821 135.128C343.893 134.293 345.427 134.373 346.358 135.416C347.432 136.618 349.398 137.8 352.597 136.487C369.124 129.704 351.739 149.411 366.828 152.784C366.828 152.784 378.85 128.157 365.791 125.92Z" fill="#1E004C"/>
<path d="M335.798 259.524C333.895 259.41 332.192 260.69 331.777 262.551C328.611 276.727 316.17 333.191 316.885 341.89C317.481 349.136 317.921 378.762 318.061 389.237C318.089 391.306 319.734 392.987 321.802 393.062L339.885 393.723C342.014 393.801 343.808 392.156 343.906 390.028C344.436 378.446 345.984 344.172 346.068 336.739C346.074 336.217 346.185 335.71 346.396 335.232C348.707 330.001 362.638 298.56 365.133 294.947C367.855 291.005 375.313 282.262 375.417 275.039C375.478 270.8 374.727 266.967 374.096 264.523C373.673 262.887 372.252 261.71 370.566 261.609L335.798 259.524Z" fill="#1F2228"/>
<path d="M368.504 285.699L360.941 328.762C360.71 330.077 361.171 331.418 362.161 332.314L392.138 359.422C393.819 360.942 393.846 363.572 392.197 365.127L380.875 375.803C379.537 377.064 377.504 377.218 375.996 376.167C368.008 370.597 343.997 353.723 339.446 349.023C334.772 344.196 336.255 330.315 336.79 326.35C336.884 325.657 337.165 325.006 337.601 324.459L368.504 285.699Z" fill="#1F2228"/>
<path d="M343.951 389.69C344.059 386.98 344.213 383.094 344.404 378.302C344.746 368.667 345.218 355.391 345.739 340.726C345.82 338.309 345.9 335.931 345.978 333.622L345.96 333.691C354.836 315.942 362.144 301.236 365.202 294.975L365.197 294.984C365.928 293.954 366.491 293.162 366.883 292.609C367.06 292.352 367.199 292.151 367.304 291.999C367.396 291.861 367.44 291.79 367.435 291.787C367.429 291.784 367.374 291.848 367.271 291.98C367.158 292.127 367.009 292.322 366.817 292.571C366.41 293.115 365.827 293.895 365.068 294.91L365.065 294.914L365.062 294.92C361.876 301.13 354.474 315.8 345.58 333.541L345.563 333.574L345.562 333.61C345.483 335.919 345.402 338.297 345.319 340.714C344.846 355.379 344.418 368.657 344.107 378.293C343.972 383.087 343.864 386.974 343.788 389.685C343.759 391.014 343.889 391.018 343.951 389.69Z" fill="#455A64"/>
<path d="M391.554 217.447C390.793 214.174 388.951 211.271 387.14 208.441C384.225 210.243 381.071 211.657 377.787 212.636L378.749 229.584C382.521 229.7 386.712 229.495 389.403 226.85C391.799 224.493 392.315 220.72 391.554 217.447Z" fill="#F7C2A0"/>
<path d="M379.55 187.6L371.309 206.293C374.338 209.266 376.735 212.88 378.297 216.827C383.225 214.41 387.741 211.154 391.592 207.243C387.549 201.622 382.865 190.23 379.55 187.6Z" fill="#0D48A0"/>
<path d="M336.339 183.505L328.546 245.775C328.167 248.803 326.209 261.995 329.168 262.743C340.594 271.371 356.652 270.704 375.982 271.789C378.371 272.203 377.852 257.942 377.88 255.518C377.98 246.941 378.332 228.389 379.55 216.827C380.892 204.082 384.305 193.676 379.55 187.599C374.795 181.522 366.497 177.281 366.497 177.281L363.435 175.362C363.435 175.362 361.433 178.332 344.904 178.59L343.433 179.304L336.339 183.505Z" fill="#0D48A0"/>
<path d="M350.415 188.738C350.355 188.78 349.862 188.037 348.848 187.048C347.844 186.06 346.254 184.861 344.234 184.113C342.213 183.364 340.227 183.239 338.821 183.334C337.407 183.424 336.55 183.666 336.532 183.596C336.525 183.57 336.73 183.481 337.117 183.365C337.504 183.249 338.076 183.12 338.796 183.036C340.227 182.86 342.289 182.94 344.383 183.716C346.476 184.49 348.092 185.773 349.064 186.838C349.555 187.371 349.906 187.841 350.123 188.181C350.34 188.521 350.438 188.723 350.415 188.738Z" fill="#263238"/>
<path d="M324.167 218.245L322.915 222.409L299.188 212.143L294.06 220.019C294.06 220.019 313.233 233.46 319.615 237.043C326.568 240.946 331.806 240.581 334.821 234.841C338.104 228.591 339.682 222.791 339.682 222.791L324.167 218.245Z" fill="#F7C2A0"/>
<path d="M302.878 214.036L299.743 211.87C298.075 206.917 294.976 197.934 294.06 198.203C293.051 198.499 292.632 199.385 292.922 201.294C293.615 205.867 292.479 207.882 289.808 207.278C288.889 207.07 280.9 205.793 280.9 205.793C280.9 205.793 278.695 207.056 280.911 209.215C280.911 209.215 279.833 212.032 282.775 212.713C282.775 212.713 283.142 215.904 285.351 216.035C285.351 216.035 287.711 217.353 292.672 219.187L296.652 221.575L302.878 214.036Z" fill="#F7C2A0"/>
<path d="M323.906 396.632C323.906 396.632 325.212 401.688 336.701 398.296C336.701 398.296 339.303 405.387 343.018 408.791C346.733 412.195 338.105 418.089 330.868 416.879C323.631 415.669 319.14 421.496 312.162 421.594C305.184 421.692 294.269 415.567 297.638 412.842C301.006 410.116 315.691 407.512 317.84 401.8C319.989 396.087 323.906 396.632 323.906 396.632Z" fill="#0D48A0"/>
<path d="M406.526 373.118C406.526 373.118 407.772 376.839 404.234 381.464C400.697 386.089 398.385 391.231 396.672 397.628C394.959 404.025 384.97 406.215 384.97 406.215" stroke="#0D48A0" stroke-width="0.5" stroke-miterlimit="10" stroke-linecap="round"/>
<path d="M386.158 397.917C386.158 397.917 387.882 394.504 397.332 395.254" stroke="#0D48A0" stroke-width="0.5" stroke-miterlimit="10" stroke-linecap="round"/>
<path d="M399.396 372.865C399.396 372.865 398.152 382.744 387.433 388.56" stroke="#0D48A0" stroke-width="0.5" stroke-miterlimit="10" stroke-linecap="round"/>
<path d="M340.326 410.4C340.326 410.4 338.234 413.72 332.414 413.909C326.594 414.098 321.151 415.563 315.114 418.286C309.077 421.009 301.059 414.662 301.059 414.662" stroke="#0D48A0" stroke-width="0.5" stroke-miterlimit="10" stroke-linecap="round"/>
<path d="M308.234 410.328C308.234 410.328 311.968 409.503 317.369 417.293" stroke="#0D48A0" stroke-width="0.5" stroke-miterlimit="10" stroke-linecap="round"/>
<path d="M336.008 404.72C336.008 404.72 327.572 410.01 316.285 405.394" stroke="#0D48A0" stroke-width="0.5" stroke-miterlimit="10" stroke-linecap="round"/>
<path d="M361.349 149.96C361.349 149.96 367.883 145.296 370.02 147.94C371.54 149.82 367.503 154.302 367.503 154.302L361.48 153.709L361.349 149.96Z" fill="#F7C2A0"/>
<path d="M322.234 217.6L345.536 224.332C346.056 224.482 346.596 224.182 346.736 223.659C347.614 220.381 350.548 209.326 352.081 202.362C354.07 193.332 352.474 188.641 346.458 184.451C344.954 183.403 343.388 182.881 341.884 182.686C337.135 182.071 332.591 184.848 330.658 189.229C329.589 191.65 328.238 195.263 326.65 200.622C324.629 207.444 322.445 214.844 321.842 216.89C321.751 217.195 321.928 217.512 322.234 217.6Z" fill="#0D48A0"/>
<path d="M350.737 188.511C349.702 187.04 348.284 185.723 346.458 184.451C344.954 183.403 343.388 182.881 341.884 182.686" stroke="white" stroke-width="0.5" stroke-miterlimit="10" stroke-linecap="round"/>
<path d="M352.081 202.362C352.897 198.656 353.11 195.68 352.66 193.171" stroke="white" stroke-width="0.5" stroke-miterlimit="10" stroke-linecap="round"/>
<path d="M334.707 221.204L345.535 224.332C346.055 224.482 346.595 224.182 346.735 223.659C347.421 221.099 349.36 213.796 350.907 207.403" stroke="white" stroke-width="0.5" stroke-miterlimit="10" stroke-linecap="round"/>
<path d="M322.234 217.6L330.069 219.864" stroke="white" stroke-width="0.5" stroke-miterlimit="10" stroke-linecap="round"/>
<path d="M379.55 216.827C379.55 216.827 379.566 201.946 377.446 196.646" stroke="white" stroke-width="0.5" stroke-miterlimit="10" stroke-linecap="round"/>
<path d="M322.892 222.429C322.892 222.429 325.539 225.285 325.109 227.652" stroke="#F18884" stroke-width="0.5" stroke-miterlimit="10" stroke-linecap="round"/>
<path d="M281.425 209.244C283.055 209.699 285.556 210.381 287.11 210.305" stroke="#F18884" stroke-width="0.5" stroke-miterlimit="10" stroke-linecap="round"/>
<path d="M283.168 212.769C283.168 212.769 286.049 213.754 288.095 213.603" stroke="#F18884" stroke-width="0.5" stroke-miterlimit="10" stroke-linecap="round"/>
<path d="M261.953 121.853C265.695 109.136 258.42 95.7938 245.703 92.0517C232.987 88.3095 219.645 95.5846 215.902 108.301C212.16 121.017 219.435 134.36 232.152 138.102C244.868 141.844 258.21 134.569 261.953 121.853Z" fill="#FFC45C"/>
<path d="M256.798 115.261C256.475 125.333 248.05 133.237 237.977 132.914C227.904 132.592 220.002 124.166 220.324 114.093C220.647 104.021 229.072 96.1167 239.145 96.4397C249.217 96.7627 257.12 105.189 256.798 115.261Z" fill="#FFC45C"/>
<path d="M257.288 116.038C256.97 125.975 248.657 133.772 238.72 133.454C228.783 133.136 220.986 124.823 221.304 114.886C221.622 104.949 229.935 97.1518 239.872 97.4698C249.81 97.7878 257.607 106.101 257.288 116.038Z" fill="#FF725E"/>
<path d="M257.288 116.038C256.97 125.975 248.657 133.772 238.72 133.454C228.783 133.136 220.986 124.823 221.304 114.886C221.622 104.949 229.935 97.1518 239.872 97.4698C249.81 97.7878 257.607 106.101 257.288 116.038Z" fill="#FFC45C"/>
<path d="M238.5 119.377L239.157 116.549C239.182 116.442 239.271 116.348 239.38 116.312L241.681 115.566C241.791 115.53 241.88 115.436 241.904 115.329L242.381 113.275C242.424 113.091 242.267 112.959 242.079 113.02L240.195 113.631C240.007 113.692 239.851 113.559 239.893 113.376L241.707 105.565C241.741 105.421 241.65 105.3 241.505 105.295L237.396 105.153C237.25 105.148 237.105 105.261 237.073 105.406L234.845 115.2C234.82 115.308 234.732 115.403 234.621 115.438L232.177 116.231C232.067 116.267 231.978 116.361 231.954 116.468L231.477 118.522C231.434 118.706 231.591 118.838 231.779 118.777L233.823 118.114C234.01 118.053 234.167 118.185 234.125 118.368L233.145 122.675C233.112 122.819 233.203 122.939 233.347 122.944L245.803 123.373C245.948 123.378 246.093 123.265 246.126 123.121L246.807 120.187C246.841 120.043 246.75 119.922 246.605 119.917L238.702 119.645C238.557 119.642 238.466 119.521 238.5 119.377Z" fill="#FFC45C"/>
<path d="M238.016 118.727L238.673 115.899C238.698 115.792 238.787 115.697 238.896 115.662L241.197 114.916C241.307 114.88 241.396 114.786 241.42 114.679L241.897 112.625C241.94 112.441 241.783 112.309 241.595 112.37L239.711 112.981C239.523 113.042 239.367 112.909 239.409 112.726L241.223 104.915C241.256 104.771 241.166 104.65 241.021 104.645L236.912 104.503C236.767 104.498 236.622 104.611 236.589 104.756L234.361 114.55C234.336 114.658 234.248 114.753 234.137 114.788L231.693 115.581C231.583 115.617 231.494 115.711 231.47 115.818L230.993 117.872C230.95 118.056 231.107 118.188 231.295 118.127L233.339 117.464C233.526 117.403 233.683 117.535 233.641 117.718L232.661 122.026C232.628 122.17 232.719 122.29 232.863 122.295L245.319 122.724C245.464 122.729 245.609 122.616 245.642 122.472L246.323 119.538C246.356 119.394 246.266 119.273 246.121 119.268L238.218 118.996C238.073 118.992 237.982 118.871 238.016 118.727Z" fill="white"/>
<path d="M277.377 152.447L282.342 139.489C282.454 139.197 282.251 138.883 281.938 138.866L267.761 138.105C267.377 138.085 267.13 138.511 267.343 138.828L269.677 142.303C267.155 144.252 258.408 150.355 251.435 147.191C251.013 147 250.6 147.47 250.846 147.861C252.872 151.089 259.375 158.091 274.458 149.422L276.556 152.546C276.764 152.858 277.242 152.8 277.377 152.447Z" fill="#0D48A0"/>
<path d="M253.367 78.0116C253.759 78.2596 254.232 77.8496 254.042 77.4286C252.479 73.9536 246.999 66.1246 230.868 72.6396L229.219 69.2576C229.055 68.9206 228.573 68.9126 228.391 69.2436L221.694 81.3966C221.543 81.6706 221.701 82.0096 222.008 82.0686L235.947 84.7686C236.325 84.8416 236.628 84.4536 236.461 84.1106L234.627 80.3476C237.393 78.7646 246.895 73.9206 253.367 78.0116Z" fill="#0D48A0"/>
<path d="M282.574 122.962C291.736 113.381 291.398 98.1876 281.818 89.0251C272.238 79.8626 257.044 80.2011 247.881 89.7812C238.719 99.3613 239.057 114.555 248.638 123.718C258.218 132.88 273.411 132.542 282.574 122.962Z" fill="#FFC45C"/>
<path d="M282.163 112.044C278.76 121.529 268.313 126.46 258.827 123.057C249.341 119.654 244.411 109.207 247.814 99.7208C251.217 90.2348 261.664 85.3048 271.15 88.7078C280.636 92.1108 285.566 102.559 282.163 112.044Z" fill="#FFC45C"/>
<path d="M282.391 112.933C279.034 122.291 268.727 127.156 259.369 123.798C250.011 120.44 245.147 110.133 248.504 100.775C251.861 91.4174 262.168 86.5534 271.527 89.9104C280.885 93.2684 285.749 103.575 282.391 112.933Z" fill="#FF725E"/>
<path d="M282.391 112.933C279.034 122.291 268.727 127.156 259.369 123.798C250.011 120.44 245.147 110.133 248.504 100.775C251.861 91.4174 262.168 86.5534 271.527 89.9104C280.885 93.2684 285.749 103.575 282.391 112.933Z" fill="#FFC45C"/>
<path d="M269.371 108.316C269.52 108.444 269.668 108.563 269.808 108.691C270.642 109.453 271.136 110.383 271.174 111.524C271.198 112.24 271.025 112.915 270.659 113.537C269.933 114.77 268.833 115.386 267.431 115.515C266.813 115.572 266.201 115.548 265.592 115.426C265.371 115.382 265.149 115.342 264.931 115.288C264.815 115.259 264.774 115.305 264.739 115.406C264.526 116.013 264.308 116.619 264.091 117.225C264.022 117.418 264.022 117.418 263.836 117.351C263.419 117.202 263.001 117.052 262.584 116.903C262.409 116.841 262.408 116.841 262.469 116.671C262.679 116.081 262.887 115.49 263.101 114.901C263.138 114.799 263.128 114.751 263.017 114.714C262.665 114.597 262.316 114.473 261.968 114.345C261.861 114.306 261.811 114.325 261.772 114.438C261.569 115.022 261.358 115.603 261.15 116.185C261.084 116.369 261.085 116.367 260.906 116.303C260.481 116.15 260.057 115.995 259.63 115.849C259.512 115.809 259.494 115.758 259.536 115.644C259.746 115.072 259.949 114.497 260.154 113.923C260.225 113.724 260.225 113.724 260.031 113.655C258.967 113.275 257.905 112.893 256.84 112.517C256.723 112.476 256.699 112.431 256.742 112.315C256.973 111.683 257.201 111.049 257.422 110.413C257.466 110.287 257.521 110.272 257.638 110.315C258.118 110.492 258.6 110.661 259.082 110.832C259.421 110.953 259.595 110.856 259.712 110.514C259.895 109.978 260.094 109.447 260.285 108.914C261.074 106.707 261.863 104.499 262.652 102.292C262.762 101.983 262.875 101.675 262.983 101.365C263.101 101.025 263.023 100.865 262.687 100.744C262.205 100.572 261.725 100.396 261.241 100.23C261.121 100.188 261.093 100.139 261.138 100.016C261.367 99.3917 261.588 98.7647 261.812 98.1387C261.868 97.9827 261.87 97.9817 262.033 98.0397C263.101 98.4207 264.168 98.8027 265.236 99.1847C265.401 99.2437 265.402 99.2437 265.46 99.0807C265.68 98.4667 265.901 97.8537 266.117 97.2377C266.154 97.1327 266.194 97.0937 266.309 97.1357C266.769 97.3057 267.231 97.4687 267.692 97.6317C267.792 97.6667 267.748 97.7297 267.728 97.7857C267.508 98.4037 267.286 99.0217 267.066 99.6397C267.003 99.8147 267.003 99.8147 267.182 99.8787C267.519 99.9987 267.858 100.114 268.193 100.24C268.301 100.281 268.343 100.25 268.379 100.148C268.595 99.5327 268.816 98.9187 269.036 98.3047C269.096 98.1387 269.1 98.1367 269.264 98.1947C269.702 98.3507 270.138 98.5107 270.577 98.6607C270.686 98.6977 270.701 98.7457 270.664 98.8477C270.43 99.4927 270.2 100.14 269.969 100.786C269.902 100.972 269.904 100.97 270.079 101.047C271.399 101.63 272.27 102.599 272.609 104.014C272.746 104.586 272.721 105.158 272.553 105.727C272.411 106.206 272.212 106.654 271.897 107.043C271.381 107.681 270.72 108.087 269.909 108.239C269.734 108.272 269.557 108.29 269.371 108.316ZM263.257 110.024C263.03 110.658 262.805 111.292 262.576 111.926C262.545 112.013 262.533 112.073 262.646 112.11C263.481 112.379 264.311 112.663 265.151 112.918C265.432 113.003 265.734 113.051 266.028 113.058C266.836 113.077 267.473 112.755 267.858 112.022C268.041 111.673 268.161 111.299 268.126 110.894C268.065 110.181 267.683 109.655 267.099 109.293C266.682 109.035 266.226 108.833 265.771 108.646C265.24 108.427 264.691 108.25 264.15 108.055C263.983 107.995 263.982 107.995 263.924 108.159C263.702 108.78 263.48 109.402 263.257 110.024ZM265.49 103.701C265.301 104.23 265.114 104.761 264.92 105.289C264.879 105.4 264.905 105.448 265.014 105.485C265.449 105.635 265.877 105.804 266.316 105.944C266.656 106.052 267.003 106.14 267.352 106.213C267.695 106.285 268.044 106.296 268.386 106.192C268.865 106.047 269.179 105.719 269.383 105.272C269.658 104.668 269.666 104.083 269.234 103.545C268.919 103.152 268.498 102.886 268.042 102.695C267.457 102.45 266.855 102.248 266.263 102.019C266.137 101.97 266.093 102.008 266.053 102.124C265.868 102.651 265.678 103.176 265.49 103.701Z" fill="#FFC45C"/>
<path d="M269.694 107.423C269.843 107.551 269.991 107.67 270.131 107.798C270.964 108.56 271.459 109.49 271.497 110.631C271.521 111.347 271.348 112.022 270.981 112.644C270.255 113.877 269.155 114.493 267.753 114.622C267.136 114.679 266.523 114.654 265.914 114.533C265.693 114.489 265.471 114.449 265.253 114.395C265.137 114.366 265.096 114.412 265.061 114.513C264.848 115.12 264.629 115.726 264.413 116.332C264.344 116.525 264.344 116.525 264.158 116.458C263.741 116.309 263.323 116.159 262.906 116.011C262.731 115.949 262.73 115.949 262.791 115.779C263.001 115.189 263.209 114.598 263.423 114.009C263.46 113.907 263.45 113.859 263.339 113.822C262.987 113.705 262.638 113.581 262.29 113.453C262.183 113.414 262.133 113.433 262.094 113.546C261.891 114.13 261.68 114.711 261.472 115.293C261.406 115.476 261.407 115.475 261.228 115.411C260.803 115.258 260.379 115.103 259.952 114.957C259.834 114.917 259.816 114.866 259.858 114.752C260.068 114.18 260.271 113.605 260.476 113.031C260.547 112.832 260.547 112.832 260.353 112.763C259.29 112.383 258.227 112.001 257.162 111.625C257.045 111.584 257.021 111.539 257.064 111.423C257.296 110.791 257.523 110.157 257.744 109.521C257.788 109.395 257.843 109.38 257.96 109.423C258.44 109.6 258.922 109.769 259.404 109.94C259.744 110.061 259.917 109.964 260.034 109.622C260.217 109.086 260.416 108.555 260.607 108.022C261.396 105.815 262.185 103.607 262.974 101.4C263.084 101.091 263.197 100.783 263.305 100.473C263.423 100.133 263.345 99.9727 263.009 99.8517C262.527 99.6797 262.047 99.5037 261.564 99.3377C261.444 99.2957 261.416 99.2457 261.461 99.1237C261.69 98.4997 261.911 97.8727 262.135 97.2467C262.191 97.0907 262.193 97.0897 262.356 97.1477C263.424 97.5287 264.491 97.9107 265.559 98.2927C265.724 98.3517 265.725 98.3517 265.783 98.1887C266.003 97.5747 266.224 96.9617 266.44 96.3457C266.477 96.2407 266.517 96.2017 266.632 96.2437C267.092 96.4137 267.554 96.5767 268.016 96.7397C268.116 96.7747 268.072 96.8367 268.052 96.8937C267.832 97.5117 267.611 98.1297 267.39 98.7477C267.327 98.9227 267.327 98.9237 267.506 98.9867C267.843 99.1067 268.182 99.2217 268.517 99.3477C268.625 99.3887 268.667 99.3577 268.703 99.2557C268.919 98.6407 269.14 98.0267 269.36 97.4127C269.42 97.2467 269.424 97.2437 269.588 97.3027C270.026 97.4587 270.462 97.6187 270.901 97.7697C271.01 97.8067 271.025 97.8547 270.988 97.9567C270.754 98.6017 270.524 99.2487 270.293 99.8947C270.226 100.082 270.228 100.079 270.403 100.155C271.722 100.738 272.594 101.707 272.933 103.122C273.07 103.694 273.045 104.266 272.877 104.835C272.735 105.314 272.536 105.763 272.221 106.151C271.705 106.789 271.044 107.195 270.233 107.347C270.057 107.379 269.88 107.397 269.694 107.423ZM263.58 109.131C263.353 109.765 263.128 110.399 262.899 111.033C262.868 111.12 262.856 111.18 262.969 111.217C263.804 111.486 264.634 111.77 265.474 112.025C265.755 112.111 266.057 112.158 266.352 112.165C267.16 112.184 267.797 111.862 268.182 111.129C268.365 110.78 268.485 110.406 268.45 110.001C268.388 109.288 268.007 108.762 267.423 108.4C267.006 108.142 266.55 107.941 266.095 107.753C265.564 107.534 265.015 107.357 264.474 107.162C264.307 107.102 264.306 107.102 264.248 107.266C264.025 107.887 263.802 108.509 263.58 109.131ZM265.813 102.808C265.624 103.337 265.437 103.868 265.243 104.396C265.202 104.507 265.228 104.555 265.337 104.592C265.772 104.742 266.2 104.911 266.638 105.051C266.978 105.159 267.325 105.246 267.674 105.32C268.017 105.392 268.366 105.403 268.707 105.299C269.186 105.153 269.5 104.826 269.704 104.379C269.979 103.775 269.987 103.19 269.555 102.653C269.24 102.26 268.819 101.994 268.363 101.802C267.778 101.557 267.176 101.355 266.584 101.127C266.458 101.078 266.414 101.116 266.374 101.232C266.191 101.758 266 102.283 265.813 102.808Z" fill="white"/>
<path d="M164.955 137.538C164.703 137.538 164.456 137.554 164.209 137.571C163.385 131.706 158.36 127.188 152.268 127.188C150.615 127.188 149.04 127.522 147.605 128.124C145.712 122.543 140.441 118.521 134.219 118.521C126.407 118.521 120.075 124.853 120.075 132.665C114.21 132.665 109.455 137.42 109.455 143.285C109.455 149.15 114.21 153.905 120.075 153.905L164.955 153.95C170.143 153.95 174.349 150.276 174.349 145.745C174.349 141.212 170.143 137.538 164.955 137.538Z" fill="#0D48A0"/>
<path d="M141.828 154.055C141.64 158.886 137.668 162.773 132.786 162.806C132.677 162.807 132.569 162.805 132.461 162.802C131.372 162.771 130.329 162.548 129.366 162.164C128.403 161.78 127.52 161.237 126.75 160.566C126.554 160.396 126.366 160.218 126.185 160.031C125.363 159.181 124.703 158.174 124.26 157.056C124.153 156.788 124.058 156.513 123.977 156.234C123.785 155.576 123.667 154.886 123.629 154.176C123.817 149.345 127.789 145.456 132.672 145.424C133.289 145.42 133.894 145.478 134.479 145.593C134.777 145.651 135.071 145.724 135.359 145.811C136.535 146.165 137.611 146.752 138.535 147.517C138.734 147.682 138.927 147.856 139.113 148.039C139.833 148.746 140.437 149.572 140.892 150.485C141.335 151.376 141.636 152.347 141.768 153.372C141.796 153.597 141.816 153.825 141.828 154.055Z" fill="white"/>
<path d="M140.903 154.061C140.734 158.401 137.166 161.893 132.78 161.922C132.682 161.923 132.585 161.921 132.488 161.918C131.509 161.89 130.573 161.69 129.707 161.345C128.841 161 128.048 160.512 127.357 159.909C127.181 159.756 127.012 159.596 126.849 159.428C126.111 158.664 125.518 157.759 125.12 156.755C125.024 156.515 124.939 156.268 124.866 156.017C124.693 155.425 124.587 154.806 124.554 154.168C124.723 149.828 128.291 146.335 132.677 146.306C133.232 146.302 133.774 146.355 134.3 146.457C134.567 146.509 134.832 146.575 135.09 146.653C136.146 146.971 137.113 147.498 137.943 148.186C138.122 148.334 138.295 148.491 138.462 148.655C139.109 149.29 139.652 150.032 140.06 150.853C140.458 151.653 140.729 152.526 140.847 153.447C140.874 153.649 140.892 153.855 140.903 154.061Z" fill="#9FCCFB"/>
<path d="M133.56 157.688L133.567 158.794L132.162 158.803L132.155 157.746C131.158 157.693 130.189 157.43 129.589 157.065L130.335 155.346C130.995 155.73 131.874 155.974 132.642 155.969C133.31 155.965 133.548 155.823 133.546 155.584C133.54 154.707 129.688 155.44 129.671 152.839C129.664 151.713 130.475 150.76 132.108 150.52L132.101 149.433L133.506 149.424L133.513 150.49C134.251 150.555 134.97 150.739 135.54 151.055L134.844 152.764C134.154 152.42 133.505 152.255 132.897 152.259C132.209 152.264 131.991 152.464 131.993 152.703C131.999 153.54 135.851 152.817 135.868 155.389C135.874 156.467 135.103 157.409 133.56 157.688Z" fill="white"/>
</svg>
