<?xml version="1.0" encoding="UTF-8"?>
<svg xmlns="http://www.w3.org/2000/svg" xmlns:xlink="http://www.w3.org/1999/xlink" viewBox="0 0 383.44 392.65">
  <defs>
    <style>
      .cls-1 {
        opacity: .13;
      }

      .cls-2 {
        fill: url(#linear-gradient-38);
      }

      .cls-2, .cls-3, .cls-4, .cls-5, .cls-6, .cls-7, .cls-8, .cls-9, .cls-10, .cls-11, .cls-12, .cls-13, .cls-14, .cls-15, .cls-16, .cls-17, .cls-18, .cls-19, .cls-20, .cls-21, .cls-22, .cls-23, .cls-24, .cls-25, .cls-26, .cls-27, .cls-28, .cls-29, .cls-30, .cls-31, .cls-32, .cls-33, .cls-34, .cls-35, .cls-36, .cls-37, .cls-38, .cls-39, .cls-40, .cls-41, .cls-42, .cls-43, .cls-44, .cls-45, .cls-46, .cls-47, .cls-48, .cls-49, .cls-50, .cls-51, .cls-52, .cls-53, .cls-54, .cls-55, .cls-56, .cls-57, .cls-58, .cls-59, .cls-60, .cls-61, .cls-62, .cls-63, .cls-64, .cls-65, .cls-66, .cls-67, .cls-68, .cls-69, .cls-70, .cls-71, .cls-72, .cls-73, .cls-74, .cls-75, .cls-76, .cls-77 {
        stroke-width: 0px;
      }

      .cls-3 {
        fill: url(#linear-gradient-12);
      }

      .cls-4 {
        fill: url(#linear-gradient-40);
        mix-blend-mode: multiply;
        opacity: .12;
      }

      .cls-5 {
        fill: url(#linear-gradient-17);
      }

      .cls-6 {
        fill: url(#linear-gradient-19);
      }

      .cls-7 {
        fill: url(#linear-gradient-33);
      }

      .cls-8 {
        fill: url(#linear-gradient-62);
      }

      .cls-78 {
        mask: url(#mask-10);
      }

      .cls-9 {
        fill: url(#linear-gradient-57);
      }

      .cls-10 {
        fill: url(#linear-gradient-54);
        opacity: .4;
      }

      .cls-10, .cls-79, .cls-80 {
        isolation: isolate;
      }

      .cls-11 {
        fill: #0a2446;
      }

      .cls-12 {
        fill: #4199ff;
      }

      .cls-13 {
        fill: url(#linear-gradient-21);
      }

      .cls-14 {
        fill: #fcd1a9;
      }

      .cls-15 {
        fill: url(#linear-gradient-6);
      }

      .cls-16 {
        fill: #bccae6;
      }

      .cls-81 {
        mask: url(#mask-2);
      }

      .cls-82 {
        opacity: .23;
      }

      .cls-83 {
        mask: url(#mask-13);
      }

      .cls-17 {
        fill: url(#linear-gradient-15);
      }

      .cls-18 {
        fill: url(#linear-gradient-11);
      }

      .cls-84 {
        mask: url(#mask-3);
      }

      .cls-19 {
        fill: #708dc9;
      }

      .cls-20 {
        fill: url(#linear-gradient-5);
      }

      .cls-21 {
        fill: url(#linear-gradient-31);
      }

      .cls-22 {
        fill: url(#linear-gradient-58);
      }

      .cls-23 {
        fill: url(#linear-gradient-63);
      }

      .cls-24 {
        fill: url(#linear-gradient-34);
      }

      .cls-85 {
        mask: url(#mask-9);
      }

      .cls-25 {
        fill: url(#linear-gradient-41);
      }

      .cls-86 {
        mask: url(#mask-12);
      }

      .cls-26 {
        fill: url(#linear-gradient-42);
      }

      .cls-26, .cls-87 {
        mix-blend-mode: screen;
      }

      .cls-88 {
        mask: url(#mask-5);
      }

      .cls-27 {
        fill: url(#linear-gradient-13);
      }

      .cls-28 {
        fill: url(#linear-gradient-23);
      }

      .cls-29 {
        fill: url(#linear-gradient-25);
      }

      .cls-30 {
        fill: url(#linear-gradient-43);
      }

      .cls-31 {
        fill: url(#linear-gradient-16);
      }

      .cls-32 {
        fill: url(#linear-gradient-22);
      }

      .cls-33 {
        opacity: .28;
      }

      .cls-33, .cls-35, .cls-48 {
        fill: #fff;
      }

      .cls-34 {
        fill: url(#linear-gradient-55);
      }

      .cls-36 {
        fill: url(#linear-gradient-35);
      }

      .cls-37 {
        fill: url(#linear-gradient-50);
      }

      .cls-38 {
        fill: url(#linear-gradient-32);
      }

      .cls-39 {
        fill: url(#linear-gradient-60);
      }

      .cls-40 {
        fill: url(#linear-gradient-59);
      }

      .cls-41 {
        fill: url(#linear-gradient-20);
      }

      .cls-42 {
        fill: url(#linear-gradient-14);
      }

      .cls-43 {
        fill: url(#linear-gradient-2);
      }

      .cls-44 {
        fill: url(#linear-gradient-52);
      }

      .cls-45 {
        fill: url(#linear-gradient-45);
      }

      .cls-46 {
        fill: #e8f4ff;
      }

      .cls-89 {
        opacity: .82;
      }

      .cls-47 {
        fill: url(#radial-gradient);
        mix-blend-mode: color-dodge;
      }

      .cls-90 {
        mask: url(#mask-8);
      }

      .cls-48 {
        fill-rule: evenodd;
      }

      .cls-49 {
        fill: url(#linear-gradient-7);
      }

      .cls-50 {
        fill: url(#linear-gradient-39);
      }

      .cls-91 {
        mask: url(#mask-4);
      }

      .cls-51 {
        fill: url(#linear-gradient-3);
      }

      .cls-92 {
        mask: url(#mask-15);
      }

      .cls-52 {
        fill: url(#linear-gradient-9);
      }

      .cls-53 {
        fill: url(#linear-gradient-27);
      }

      .cls-93 {
        mask: url(#mask-6);
      }

      .cls-54 {
        fill: url(#linear-gradient-53);
      }

      .cls-55 {
        fill: url(#linear-gradient-36);
      }

      .cls-56 {
        fill: url(#linear-gradient-48);
      }

      .cls-57 {
        fill: url(#linear-gradient-49);
      }

      .cls-58 {
        fill: url(#linear-gradient-8);
      }

      .cls-59 {
        fill: url(#linear-gradient-47);
      }

      .cls-60 {
        fill: url(#linear-gradient-24);
      }

      .cls-61 {
        fill: url(#linear-gradient-26);
      }

      .cls-62 {
        fill: url(#linear-gradient-61);
      }

      .cls-63 {
        fill: url(#linear-gradient-18);
      }

      .cls-64 {
        fill: url(#linear-gradient-51);
      }

      .cls-65 {
        fill: url(#linear-gradient-30);
      }

      .cls-80 {
        opacity: .2;
      }

      .cls-94 {
        mask: url(#mask-1);
      }

      .cls-95 {
        mask: url(#mask);
      }

      .cls-66 {
        fill: url(#linear-gradient-44);
      }

      .cls-67 {
        fill: url(#linear-gradient-29);
      }

      .cls-68 {
        fill: #ffa1a8;
      }

      .cls-69 {
        fill: url(#linear-gradient-46);
      }

      .cls-70 {
        fill: url(#linear-gradient-64);
      }

      .cls-96 {
        fill: none;
        stroke: url(#linear-gradient);
        stroke-miterlimit: 10;
        stroke-width: 2.19px;
      }

      .cls-97 {
        mask: url(#mask-7);
      }

      .cls-71 {
        fill: url(#linear-gradient-28);
      }

      .cls-72 {
        fill: url(#linear-gradient-56);
      }

      .cls-73 {
        fill: url(#linear-gradient-10);
        opacity: .2;
      }

      .cls-74 {
        fill: url(#linear-gradient-4);
      }

      .cls-98 {
        mask: url(#mask-14);
      }

      .cls-75 {
        fill: #e87953;
      }

      .cls-99 {
        mask: url(#mask-11);
      }

      .cls-76 {
        fill: url(#linear-gradient-37);
      }

      .cls-77 {
        fill: #676ba4;
      }
    </style>
    <linearGradient id="linear-gradient" x1="153.64" y1="325.86" x2="254.77" y2="325.86" gradientUnits="userSpaceOnUse">
      <stop offset="0" stop-color="#00d1ff"/>
      <stop offset="1" stop-color="#06f"/>
    </linearGradient>
    <linearGradient id="linear-gradient-2" x1="51.27" y1="188.41" x2="99.04" y2="210.54" gradientUnits="userSpaceOnUse">
      <stop offset="0" stop-color="#bbcfe2"/>
      <stop offset="1" stop-color="#b1bfd9"/>
    </linearGradient>
    <linearGradient id="linear-gradient-3" x1="70.58" y1="194.25" x2="121.46" y2="200.19" gradientUnits="userSpaceOnUse">
      <stop offset="0" stop-color="#d2eaff"/>
      <stop offset=".58" stop-color="#c8d8f6"/>
    </linearGradient>
    <linearGradient id="linear-gradient-4" x1="49.9" y1="257.75" x2="44.79" y2="196.74" xlink:href="#linear-gradient-2"/>
    <linearGradient id="linear-gradient-5" x1="60.8" y1="229.28" x2="55.69" y2="171.24" xlink:href="#linear-gradient-3"/>
    <linearGradient id="linear-gradient-6" x1="26.43" y1="201.31" x2="26.43" y2="269.54" xlink:href="#linear-gradient-2"/>
    <linearGradient id="linear-gradient-7" x1="39.65" y1="183.88" x2="39.65" y2="248.56" xlink:href="#linear-gradient-3"/>
    <linearGradient id="linear-gradient-8" x1="8.14" y1="262.7" x2="5.16" y2="235.28" xlink:href="#linear-gradient-2"/>
    <linearGradient id="linear-gradient-9" x1="18.73" y1="259.53" x2="26.38" y2="183.43" xlink:href="#linear-gradient-3"/>
    <linearGradient id="linear-gradient-10" x1="219.57" y1="303.58" x2="217.26" y2="31.75" gradientUnits="userSpaceOnUse">
      <stop offset="0" stop-color="#00d1ff"/>
      <stop offset="1" stop-color="#06f" stop-opacity="0"/>
    </linearGradient>
    <linearGradient id="linear-gradient-11" x1="165.86" y1="280.83" x2="379.36" y2="280.83" gradientTransform="translate(-54.82)" gradientUnits="userSpaceOnUse">
      <stop offset=".43" stop-color="#bbcfe2"/>
      <stop offset=".58" stop-color="#b1bfd9"/>
    </linearGradient>
    <linearGradient id="linear-gradient-12" x1="163.66" y1="274.71" x2="381.06" y2="274.71" gradientTransform="translate(-54.82)" gradientUnits="userSpaceOnUse">
      <stop offset=".43" stop-color="#c5dbef"/>
      <stop offset=".58" stop-color="#bbcae6"/>
    </linearGradient>
    <radialGradient id="radial-gradient" cx="182.78" cy="289.67" fx="182.78" fy="289.67" r="81.46" gradientUnits="userSpaceOnUse">
      <stop offset="0" stop-color="#fff"/>
      <stop offset="1" stop-color="#000"/>
    </radialGradient>
    <linearGradient id="linear-gradient-13" x1="9622.16" y1="153.24" x2="9753.41" y2="293.96" gradientTransform="translate(9918.26) rotate(-180) scale(1 -1)" gradientUnits="userSpaceOnUse">
      <stop offset="0" stop-color="#ffe4a7"/>
      <stop offset=".1" stop-color="#fac098"/>
      <stop offset=".2" stop-color="#f49587"/>
      <stop offset=".46" stop-color="#a142b4"/>
      <stop offset=".6" stop-color="#7c1dc9"/>
      <stop offset=".63" stop-color="#7825cb"/>
      <stop offset=".7" stop-color="#6f3ed1"/>
      <stop offset=".78" stop-color="#6065db"/>
      <stop offset=".87" stop-color="#4b9ce8"/>
      <stop offset=".97" stop-color="#31e0f9"/>
      <stop offset="1" stop-color="#2af6ff"/>
    </linearGradient>
    <linearGradient id="linear-gradient-14" x1="147.98" y1="304.22" x2="411.44" y2="51.15" xlink:href="#linear-gradient"/>
    <linearGradient id="linear-gradient-15" x1="115.41" y1="120.93" x2="253.56" y2="269.06" gradientUnits="userSpaceOnUse">
      <stop offset="0" stop-color="#00a7cb"/>
      <stop offset="1" stop-color="#0051cb"/>
    </linearGradient>
    <linearGradient id="linear-gradient-16" x1="-658.35" y1="-2886.65" x2="-669.45" y2="-2907.35" gradientTransform="translate(3131.77 555.47) rotate(86.78) scale(1 -1)" gradientUnits="userSpaceOnUse">
      <stop offset="0" stop-color="#f9dd68"/>
      <stop offset="1" stop-color="#f9a942"/>
    </linearGradient>
    <linearGradient id="linear-gradient-17" x1="-687.06" y1="-2888.33" x2="-648.76" y2="-2888.33" xlink:href="#linear-gradient-16"/>
    <linearGradient id="linear-gradient-18" x1="-684.85" y1="-2888.34" x2="-650.97" y2="-2888.34" xlink:href="#linear-gradient-16"/>
    <mask id="mask" x="197.62" y="37.66" width="25.7" height="26.76" maskUnits="userSpaceOnUse">
      <g id="mask2_41_772" data-name="mask2 41 772">
        <path class="cls-35" d="M221.97,40.3l1.36,24.13-24.34-2.63-1.36-24.13,24.34,2.63Z"/>
      </g>
    </mask>
    <mask id="mask-1" x="205.97" y="42.56" width="9.02" height="16.96" maskUnits="userSpaceOnUse">
      <g id="mask3_41_772" data-name="mask3 41 772">
        <path class="cls-35" d="M214.08,43.44l.91,16.09-8.11-.88-.9-16.08,8.11.88Z"/>
      </g>
    </mask>
    <linearGradient id="linear-gradient-19" x1="-499.64" y1="-2881.05" x2="-515.32" y2="-2910.29" xlink:href="#linear-gradient-16"/>
    <linearGradient id="linear-gradient-20" x1="-540.2" y1="-2883.43" x2="-486.09" y2="-2883.43" xlink:href="#linear-gradient-16"/>
    <linearGradient id="linear-gradient-21" x1="-537.08" y1="-2883.44" x2="-489.21" y2="-2883.44" xlink:href="#linear-gradient-16"/>
    <mask id="mask-2" x="205.91" y="186.45" width="36.31" height="37.81" maskUnits="userSpaceOnUse">
      <g id="mask2_41_772-2" data-name="mask2 41 772">
        <path class="cls-35" d="M240.3,190.17l1.92,34.09-34.39-3.72-1.92-34.08,34.39,3.72Z"/>
      </g>
    </mask>
    <mask id="mask-3" x="217.69" y="193.37" width="12.74" height="23.97" maskUnits="userSpaceOnUse">
      <g id="mask3_41_772-2" data-name="mask3 41 772">
        <path class="cls-35" d="M229.15,194.61l1.28,22.73-11.46-1.25-1.28-22.72,11.46,1.24Z"/>
      </g>
    </mask>
    <linearGradient id="linear-gradient-22" x1="320.56" y1="103.07" x2="286.93" y2="212.09" gradientTransform="translate(-158.23 47.05) rotate(-10.47)" gradientUnits="userSpaceOnUse">
      <stop offset="0" stop-color="#0097b9"/>
      <stop offset="1" stop-color="#004ab9"/>
    </linearGradient>
    <linearGradient id="linear-gradient-23" x1="309.89" y1="94.07" x2="306.38" y2="203.83" gradientTransform="translate(-158.23 47.05) rotate(-10.47)" gradientUnits="userSpaceOnUse">
      <stop offset="0" stop-color="#00bee8"/>
      <stop offset="1" stop-color="#005de8"/>
    </linearGradient>
    <linearGradient id="linear-gradient-24" x1="270.24" y1="116.83" x2="412.89" y2="221.05" gradientTransform="translate(-158.23 47.05) rotate(-10.47)" xlink:href="#linear-gradient"/>
    <mask id="mask-4" x="139.96" y="108.13" width="62.05" height="52.38" maskUnits="userSpaceOnUse">
      <g id="mask2_41_772-3" data-name="mask2 41 772">
        <path class="cls-35" d="M180.28,108.13l21.73,36.74-40.32,15.64-21.73-36.74,40.32-15.64Z"/>
      </g>
    </mask>
    <linearGradient id="linear-gradient-25" x1="-28.09" y1="128.23" x2="-50.06" y2="199.44" gradientTransform="translate(357.48 -.49) rotate(25.69)" xlink:href="#linear-gradient-22"/>
    <linearGradient id="linear-gradient-26" x1="-35.06" y1="122.35" x2="-37.36" y2="194.05" gradientTransform="translate(357.48 -.49) rotate(25.69)" xlink:href="#linear-gradient-23"/>
    <linearGradient id="linear-gradient-27" x1="-60.96" y1="137.22" x2="32.22" y2="205.29" gradientTransform="translate(357.48 -.49) rotate(25.69)" xlink:href="#linear-gradient"/>
    <mask id="mask-5" x="242.06" y="106.85" width="29.99" height="35.04" maskUnits="userSpaceOnUse">
      <g id="mask2_41_772-4" data-name="mask2 41 772">
        <path class="cls-35" d="M272.05,114.13l-2.7,27.75-27.29-7.29,2.7-27.75,27.29,7.29Z"/>
      </g>
    </mask>
    <linearGradient id="linear-gradient-28" x1="149.76" y1="82.26" x2="158.06" y2="47.82" gradientUnits="userSpaceOnUse">
      <stop offset="0" stop-color="#00d1ff" stop-opacity="0"/>
      <stop offset="1" stop-color="#06f"/>
    </linearGradient>
    <linearGradient id="linear-gradient-29" x1="149.76" y1="82.26" x2="158.06" y2="47.82" gradientTransform="translate(99.96 212.17) rotate(-90)" xlink:href="#linear-gradient-28"/>
    <linearGradient id="linear-gradient-30" x1="243.95" y1="73.31" x2="253.35" y2="34.28" xlink:href="#linear-gradient-28"/>
    <linearGradient id="linear-gradient-31" x1="243.95" y1="73.31" x2="253.35" y2="34.28" gradientTransform="translate(207.43 294.76) rotate(-90)" xlink:href="#linear-gradient-28"/>
    <linearGradient id="linear-gradient-32" x1="283.59" y1="139.3" x2="297.52" y2="81.44" xlink:href="#linear-gradient-28"/>
    <linearGradient id="linear-gradient-33" x1="283.59" y1="139.3" x2="297.52" y2="81.44" gradientTransform="translate(198.81 389.53) rotate(-90)" xlink:href="#linear-gradient-28"/>
    <linearGradient id="linear-gradient-34" x1="370.93" y1="322.47" x2="383.44" y2="322.47" xlink:href="#linear-gradient-3"/>
    <linearGradient id="linear-gradient-35" x1="358.41" y1="322.47" x2="370.93" y2="322.47" xlink:href="#linear-gradient-2"/>
    <linearGradient id="linear-gradient-36" x1="160.18" y1="368.22" x2="127.37" y2="368.22" gradientTransform="matrix(1,0,0,1,0,0)" xlink:href="#linear-gradient-11"/>
    <linearGradient id="linear-gradient-37" x1="168.28" y1="368.22" x2="109.58" y2="368.22" gradientTransform="matrix(1,0,0,1,0,0)" xlink:href="#linear-gradient-11"/>
    <linearGradient id="linear-gradient-38" x1="168.28" y1="368.4" x2="109.58" y2="368.4" gradientTransform="matrix(1,0,0,1,0,0)" xlink:href="#linear-gradient-11"/>
    <linearGradient id="linear-gradient-39" x1="168.28" y1="376.87" x2="109.58" y2="376.87" gradientTransform="matrix(1,0,0,1,0,0)" xlink:href="#linear-gradient-11"/>
    <linearGradient id="linear-gradient-40" x1="3927.49" y1="338.95" x2="3857.55" y2="338.95" gradientTransform="translate(-3802.42 .91)" gradientUnits="userSpaceOnUse">
      <stop offset="0" stop-color="#525983"/>
      <stop offset="1" stop-color="#fff"/>
    </linearGradient>
    <linearGradient id="linear-gradient-41" x1="3872.26" y1="291.46" x2="3987.9" y2="291.46" gradientTransform="translate(-3812.99 159.26) rotate(-2.33)" xlink:href="#linear-gradient-3"/>
    <linearGradient id="linear-gradient-42" x1="3929.71" y1="345.7" x2="3929.71" y2="296.48" gradientTransform="translate(-3812.99 159.26) rotate(-2.33)" gradientUnits="userSpaceOnUse">
      <stop offset="0" stop-color="#000"/>
      <stop offset="1" stop-color="#4266cf"/>
    </linearGradient>
    <linearGradient id="linear-gradient-43" x1="3930.08" y1="286.87" x2="3930.08" y2="265.44" gradientTransform="translate(-3812.99 159.26) rotate(-2.33)" gradientUnits="userSpaceOnUse">
      <stop offset="0" stop-color="#9fddff"/>
      <stop offset="1" stop-color="#000"/>
    </linearGradient>
    <linearGradient id="linear-gradient-44" x1="74.97" y1="308.55" x2="112.65" y2="308.55" gradientTransform="translate(-11.9 4.56) rotate(-2.33)" xlink:href="#linear-gradient"/>
    <linearGradient id="linear-gradient-45" x1="37.07" y1="1619.32" x2="10.56" y2="1691.97" gradientTransform="translate(923.08 1812.43) rotate(159.43)" xlink:href="#linear-gradient"/>
    <linearGradient id="linear-gradient-46" x1="161.11" y1="239.33" x2="134.6" y2="311.97" gradientTransform="translate(184.65)" xlink:href="#linear-gradient"/>
    <linearGradient id="linear-gradient-47" x1="176.94" y1="245.1" x2="150.43" y2="317.75" gradientTransform="translate(184.65)" xlink:href="#linear-gradient"/>
    <linearGradient id="linear-gradient-48" x1="280.88" y1="300.4" x2="361.06" y2="326.16" xlink:href="#linear-gradient"/>
    <linearGradient id="linear-gradient-49" x1="211.72" y1="-2410.57" x2="248.44" y2="-2410.57" gradientTransform="translate(542.13 -2100.15) rotate(-180)" gradientUnits="userSpaceOnUse">
      <stop offset="0" stop-color="#497df9"/>
      <stop offset="1" stop-color="#64cdf9"/>
    </linearGradient>
    <linearGradient id="linear-gradient-50" x1="351.66" y1="280.35" x2="282.03" y2="340.65" gradientTransform="matrix(1,0,0,1,0,0)" xlink:href="#linear-gradient-22"/>
    <mask id="mask-6" x="293.72" y="299.42" width="38.01" height="21.94" maskUnits="userSpaceOnUse">
      <g id="mask12_41_772" data-name="mask12 41 772">
        <path class="cls-35" d="M311.36,299.42l-17.65,10.19,20.37,11.75,17.65-10.18-20.37-11.76Z"/>
      </g>
    </mask>
    <mask id="mask-7" x="303.45" y="305.04" width="18.54" height="10.71" maskUnits="userSpaceOnUse">
      <g id="mask13_41_772" data-name="mask13 41 772">
        <path class="cls-35" d="M315.21,305.04l-11.75,6.79,6.79,3.92,11.75-6.79-6.79-3.92Z"/>
      </g>
    </mask>
    <linearGradient id="linear-gradient-51" x1="206.82" y1="-2402.88" x2="249.12" y2="-2402.88" gradientTransform="translate(542.13 -2100.15) rotate(-180)" gradientUnits="userSpaceOnUse">
      <stop offset="0" stop-color="#f9a942"/>
      <stop offset="1" stop-color="#f9dd68"/>
    </linearGradient>
    <linearGradient id="linear-gradient-52" x1="209.61" y1="-2402.89" x2="246.34" y2="-2402.89" gradientTransform="translate(542.13 -2100.15) rotate(-180)" xlink:href="#linear-gradient-16"/>
    <linearGradient id="linear-gradient-53" x1="227.63" y1="-2407.18" x2="225.01" y2="-2419.21" gradientTransform="translate(542.13 -2100.15) rotate(-180)" xlink:href="#linear-gradient-16"/>
    <mask id="mask-8" x="295.83" y="291.74" width="38.01" height="21.94" maskUnits="userSpaceOnUse">
      <g id="mask12_41_772-2" data-name="mask12 41 772">
        <path class="cls-35" d="M313.47,291.74l-17.65,10.19,20.37,11.75,17.65-10.18-20.37-11.76Z"/>
      </g>
    </mask>
    <mask id="mask-9" x="305.56" y="297.36" width="18.54" height="10.71" maskUnits="userSpaceOnUse">
      <g id="mask13_41_772-2" data-name="mask13 41 772">
        <path class="cls-35" d="M317.31,297.36l-11.75,6.79,6.79,3.92,11.75-6.79-6.79-3.92Z"/>
      </g>
    </mask>
    <linearGradient id="linear-gradient-54" x1="215.46" y1="-2403.47" x2="255.25" y2="-2403.47" gradientTransform="translate(542.13 -2100.15) rotate(-180)" gradientUnits="userSpaceOnUse">
      <stop offset=".45" stop-color="#c4c9e4"/>
      <stop offset="1" stop-color="#fff" stop-opacity="0"/>
    </linearGradient>
    <linearGradient id="linear-gradient-55" x1="277.43" y1="282.82" x2="357.61" y2="308.58" xlink:href="#linear-gradient"/>
    <linearGradient id="linear-gradient-56" x1="208.46" y1="-2395.14" x2="245.18" y2="-2395.14" xlink:href="#linear-gradient-49"/>
    <linearGradient id="linear-gradient-57" x1="359.44" y1="261.02" x2="289.81" y2="321.31" gradientTransform="matrix(1,0,0,1,0,0)" xlink:href="#linear-gradient-22"/>
    <mask id="mask-10" x="296.98" y="284" width="38.01" height="21.94" maskUnits="userSpaceOnUse">
      <g id="mask12_41_772-3" data-name="mask12 41 772">
        <path class="cls-35" d="M314.62,284l-17.65,10.19,20.37,11.75,17.65-10.18-20.37-11.76Z"/>
      </g>
    </mask>
    <mask id="mask-11" x="306.71" y="289.62" width="18.54" height="10.71" maskUnits="userSpaceOnUse">
      <g id="mask13_41_772-3" data-name="mask13 41 772">
        <path class="cls-35" d="M318.47,289.62l-11.75,6.79,6.79,3.92,11.75-6.79-6.79-3.92Z"/>
      </g>
    </mask>
    <linearGradient id="linear-gradient-58" x1="280.88" y1="277.04" x2="361.06" y2="302.8" xlink:href="#linear-gradient"/>
    <linearGradient id="linear-gradient-59" y1="-2387.2" y2="-2387.2" xlink:href="#linear-gradient-49"/>
    <linearGradient id="linear-gradient-60" x1="351.66" y1="256.99" x2="282.03" y2="317.28" gradientTransform="matrix(1,0,0,1,0,0)" xlink:href="#linear-gradient-22"/>
    <mask id="mask-12" x="293.72" y="276.06" width="38.01" height="21.94" maskUnits="userSpaceOnUse">
      <g id="mask12_41_772-4" data-name="mask12 41 772">
        <path class="cls-35" d="M311.36,276.06l-17.65,10.19,20.37,11.75,17.65-10.18-20.37-11.76Z"/>
      </g>
    </mask>
    <mask id="mask-13" x="303.45" y="281.68" width="18.54" height="10.71" maskUnits="userSpaceOnUse">
      <g id="mask13_41_772-4" data-name="mask13 41 772">
        <path class="cls-35" d="M315.21,281.68l-11.75,6.79,6.79,3.92,11.75-6.79-6.79-3.92Z"/>
      </g>
    </mask>
    <linearGradient id="linear-gradient-61" x1="205.67" y1="-2380.75" x2="247.97" y2="-2380.75" xlink:href="#linear-gradient-51"/>
    <linearGradient id="linear-gradient-62" x1="208.46" y1="-2380.76" x2="245.18" y2="-2380.76" gradientTransform="translate(542.13 -2100.15) rotate(-180)" xlink:href="#linear-gradient-16"/>
    <linearGradient id="linear-gradient-63" x1="226.48" y1="-2385.05" x2="223.85" y2="-2397.08" gradientTransform="translate(542.13 -2100.15) rotate(-180)" xlink:href="#linear-gradient-16"/>
    <mask id="mask-14" x="296.98" y="269.61" width="38.01" height="21.94" maskUnits="userSpaceOnUse">
      <g id="mask12_41_772-5" data-name="mask12 41 772">
        <path class="cls-35" d="M314.62,269.61l-17.65,10.19,20.37,11.75,17.65-10.18-20.37-11.76Z"/>
      </g>
    </mask>
    <mask id="mask-15" x="306.71" y="275.23" width="18.54" height="10.71" maskUnits="userSpaceOnUse">
      <g id="mask13_41_772-5" data-name="mask13 41 772">
        <path class="cls-35" d="M318.47,275.23l-11.75,6.79,6.79,3.92,11.75-6.79-6.79-3.92Z"/>
      </g>
    </mask>
    <linearGradient id="linear-gradient-64" x1="876.52" y1="956.43" x2="850.37" y2="1028.09" gradientTransform="translate(-593.28 1213.31) rotate(-93.32)" xlink:href="#linear-gradient"/>
  </defs>
  <g class="cls-79">
    <g id="Layer_1" data-name="Layer 1">
      <g>
        <path class="cls-96" d="M154.14,326.11l30.56,15.64c2.81,1.41,6.12,1.4,8.91-.03l60.64-32.94"/>
        <g>
          <g>
            <polygon class="cls-46" points="59.47 161.01 72.69 168.64 85.91 161.01 72.69 153.38 59.47 161.01"/>
            <polygon class="cls-43" points="72.69 229.53 72.69 168.64 59.47 161.01 59.47 221.9 72.69 229.53"/>
            <polygon class="cls-51" points="72.69 229.53 72.69 168.64 85.91 161.01 85.91 221.9 72.69 229.53"/>
          </g>
          <g>
            <polygon class="cls-46" points="39.65 187.49 52.87 195.12 66.08 187.49 52.87 179.86 39.65 187.49"/>
            <polygon class="cls-74" points="52.87 240.97 52.87 195.12 39.65 187.49 39.65 233.34 52.87 240.97"/>
            <polygon class="cls-20" points="52.87 240.97 52.87 195.12 66.08 187.49 66.08 233.34 52.87 240.97"/>
          </g>
          <g>
            <polygon class="cls-46" points="19.82 206.64 33.04 214.27 46.26 206.64 33.04 199.01 19.82 206.64"/>
            <polygon class="cls-15" points="33.04 252.42 33.04 214.27 19.82 206.64 19.82 244.79 33.04 252.42"/>
            <polygon class="cls-49" points="33.04 252.42 33.04 214.27 46.26 206.64 46.26 244.79 33.04 252.42"/>
          </g>
          <g>
            <polygon class="cls-46" points="0 233.34 13.22 240.97 26.43 233.34 13.22 225.71 0 233.34"/>
            <polygon class="cls-58" points="13.22 263.87 13.22 240.97 0 233.34 0 256.24 13.22 263.87"/>
            <polygon class="cls-52" points="13.22 263.87 13.22 240.97 26.43 233.34 26.43 256.24 13.22 263.87"/>
          </g>
        </g>
        <g class="cls-82">
          <path class="cls-16" d="M240.89,338.17c-1.5.87-3.94.87-5.45,0-1.5-.87-1.5-2.27,0-3.14,1.5-.87,3.94-.87,5.45,0,1.5.87,1.5,2.27,0,3.14Z"/>
          <path class="cls-16" d="M227.56,345.85c-1.5.87-3.94.87-5.45,0-1.5-.87-1.5-2.27,0-3.14,1.5-.87,3.94-.87,5.45,0,1.5.87,1.5,2.27,0,3.14Z"/>
          <path class="cls-16" d="M214.24,353.54c-1.5.87-3.94.87-5.45,0-1.5-.87-1.5-2.27,0-3.14,1.5-.87,3.95-.87,5.45,0,1.5.87,1.5,2.27,0,3.14Z"/>
          <path class="cls-16" d="M195.47,358.09c1.5-.87,3.94-.87,5.45,0,1.5.87,1.5,2.27,0,3.14-1.5.87-3.94.87-5.45,0-1.5-.87-1.5-2.27,0-3.14Z"/>
          <path class="cls-16" d="M254.21,345.85c-1.5.87-3.94.87-5.45,0-1.5-.87-1.5-2.27,0-3.14,1.5-.87,3.94-.87,5.45,0,1.5.87,1.5,2.27,0,3.14Z"/>
          <path class="cls-16" d="M240.89,353.54c-1.5.87-3.94.87-5.45,0-1.5-.87-1.5-2.27,0-3.14,1.5-.87,3.94-.87,5.45,0,1.5.87,1.5,2.27,0,3.14Z"/>
          <path class="cls-16" d="M227.56,361.23c-1.5.87-3.94.87-5.45,0-1.5-.87-1.5-2.27,0-3.14,1.5-.87,3.94-.87,5.45,0,1.5.87,1.5,2.27,0,3.14Z"/>
          <path class="cls-16" d="M208.8,365.78c1.5-.87,3.94-.87,5.45,0,1.5.87,1.5,2.27,0,3.14-1.5.87-3.94.87-5.45,0-1.5-.87-1.5-2.27,0-3.14Z"/>
          <path class="cls-16" d="M267.53,353.54c-1.5.87-3.94.87-5.45,0-1.5-.87-1.5-2.27,0-3.14,1.5-.87,3.94-.87,5.45,0,1.5.87,1.5,2.27,0,3.14Z"/>
          <path class="cls-16" d="M254.21,361.23c-1.5.87-3.94.87-5.45,0-1.5-.87-1.5-2.27,0-3.14,1.5-.87,3.94-.87,5.45,0,1.5.87,1.5,2.27,0,3.14Z"/>
          <path class="cls-16" d="M240.89,368.92c-1.5.87-3.94.87-5.45,0-1.5-.87-1.5-2.27,0-3.14,1.5-.87,3.94-.87,5.45,0,1.5.87,1.5,2.27,0,3.14Z"/>
          <path class="cls-16" d="M222.11,373.47c1.5-.87,3.94-.87,5.45,0,1.5.87,1.5,2.27,0,3.14-1.5.87-3.94.87-5.45,0-1.5-.87-1.5-2.27,0-3.14Z"/>
          <path class="cls-16" d="M280.86,361.23c-1.5.87-3.94.87-5.45,0-1.5-.87-1.5-2.27,0-3.14,1.5-.87,3.94-.87,5.45,0,1.5.87,1.5,2.27,0,3.14Z"/>
          <path class="cls-16" d="M267.53,368.92c-1.5.87-3.94.87-5.45,0-1.5-.87-1.5-2.27,0-3.14,1.5-.87,3.94-.87,5.45,0,1.5.87,1.5,2.27,0,3.14Z"/>
          <path class="cls-16" d="M254.21,376.61c-1.5.87-3.94.87-5.45,0-1.5-.87-1.5-2.27,0-3.14,1.5-.87,3.94-.87,5.45,0,1.5.87,1.5,2.27,0,3.14Z"/>
          <path class="cls-16" d="M235.44,381.16c1.5-.87,3.94-.87,5.45,0,1.5.87,1.5,2.27,0,3.14-1.5.87-3.94.87-5.45,0-1.5-.87-1.5-2.27,0-3.14Z"/>
          <path class="cls-16" d="M288.74,365.78c1.5-.87,3.94-.87,5.45,0,1.5.87,1.5,2.27,0,3.14-1.5.87-3.94.87-5.45,0-1.5-.87-1.5-2.27,0-3.14Z"/>
          <path class="cls-16" d="M275.41,373.47c1.5-.87,3.94-.87,5.45,0,1.5.87,1.5,2.27,0,3.14-1.5.87-3.94.87-5.45,0-1.5-.87-1.5-2.27,0-3.14Z"/>
          <path class="cls-16" d="M262.08,381.16c1.5-.87,3.94-.87,5.45,0,1.5.87,1.5,2.27,0,3.14-1.5.87-3.94.87-5.45,0-1.5-.87-1.5-2.27,0-3.14Z"/>
          <path class="cls-16" d="M248.77,388.85c1.5-.87,3.94-.87,5.45,0,1.5.87,1.5,2.27,0,3.14-1.5.87-3.94.87-5.45,0-1.5-.87-1.5-2.27,0-3.14Z"/>
        </g>
        <g>
          <path class="cls-73" d="M311.25,54.18v182.56c0,29.92-41.63,54.18-93.02,54.18s-93.02-24.26-93.02-54.18V54.18l4.26-16.23C141.31,15.95,176.57,0,218.23,0c30.92,0,58.31,8.77,75.22,22.32,11.2,8.92,17.8,19.95,17.8,31.86Z"/>
          <g>
            <path class="cls-18" d="M326.94,240.75H110v17c0,34.88,48.56,63.16,108.47,63.16s108.47-28.28,108.47-63.16v-17Z"/>
            <path class="cls-3" d="M328.68,233.78H107.78v17.54c0,35.52,49.45,64.32,110.45,64.32s110.45-28.8,110.45-64.32v-17.54Z"/>
            <ellipse class="cls-46" cx="218.23" cy="234.23" rx="110.45" ry="64.32"/>
            <path class="cls-47" d="M218.23,298.29c-60.34,0-109.34-28.18-110.4-63.17-.01.38-.05.76-.05,1.15,0,35.52,49.45,64.32,110.45,64.32s110.45-28.8,110.45-64.32c0-.39-.04-.77-.05-1.15-1.06,34.99-50.06,63.17-110.4,63.17Z"/>
            <ellipse class="cls-27" cx="218.23" cy="236.73" rx="74.67" ry="43.48"/>
            <ellipse class="cls-42" cx="218.23" cy="236.73" rx="93.03" ry="54.17"/>
            <path class="cls-17" d="M218.23,188.47c49.66,0,90.12,22.68,92.77,51.22.09-.98.26-1.96.26-2.96,0-29.92-41.65-54.17-93.03-54.17s-93.03,24.25-93.03,54.17c0,1,.17,1.97.26,2.96,2.65-28.53,43.11-51.22,92.77-51.22Z"/>
          </g>
          <g>
            <path class="cls-31" d="M216.14,71.78c.78-.25,1.54-.56,2.25-.91.57-.28,1.12-.59,1.64-.93.47-.3.92-.64,1.36-.99.4-.33.79-.68,1.16-1.05.14-.14.28-.28.41-.43l2.52-2.73c-.14.15-.27.29-.41.43-.37.37-.75.72-1.16,1.05-.43.35-.88.68-1.36.99-.53.34-1.07.66-1.64.93-.72.35-1.47.66-2.25.91-2.46.79-5.21,1.04-8.12.63-.73-.1-1.45-.24-2.15-.41-.87-.22-1.72-.49-2.55-.8-.65-.25-1.29-.53-1.91-.84-.56-.28-1.11-.58-1.65-.91-.51-.31-1-.63-1.48-.98-.47-.33-.93-.69-1.37-1.06-.45-.37-.88-.75-1.29-1.16-.43-.41-.84-.84-1.24-1.29-.42-.48-.83-.97-1.21-1.47-.43-.56-.83-1.15-1.2-1.74-.46-.73-.87-1.49-1.24-2.27-1.26-2.67-1.97-5.57-1.98-8.53-.02-4.47,1.55-8.35,4.2-11.21l-2.52,2.73c-2.64,2.86-4.21,6.74-4.2,11.21.01,2.97.72,5.87,1.98,8.53.36.78.78,1.54,1.24,2.27.37.6.77,1.18,1.2,1.74.38.5.79,1,1.21,1.47.39.44.81.87,1.24,1.29.42.4.85.79,1.29,1.16.44.37.9.72,1.37,1.06.48.34.98.67,1.48.98.53.33,1.09.63,1.65.91.63.31,1.26.59,1.91.84.83.32,1.68.59,2.55.8.7.17,1.42.32,2.15.41,2.9.4,5.65.15,8.11-.63h0Z"/>
            <path class="cls-5" d="M229.68,53.54c.04,10.39-8.52,17.62-19.13,16.15-10.6-1.47-19.23-11.07-19.27-21.46-.04-10.39,8.52-17.62,19.13-16.15,10.61,1.47,19.23,11.08,19.28,21.46Z"/>
            <path class="cls-63" d="M227.46,53.23c.04,9.19-7.54,15.58-16.93,14.28-9.38-1.3-17.01-9.8-17.05-18.98-.04-9.19,7.54-15.59,16.92-14.29,9.39,1.3,17.02,9.8,17.05,18.99Z"/>
            <g class="cls-95">
              <g>
                <path class="cls-35" d="M222.47,52.34c-.13-2.35-.96-4.73-2.39-6.83-1.43-2.1-3.39-3.83-5.63-4.96-2.24-1.14-4.67-1.64-6.97-1.43-2.3.21-4.37,1.11-5.96,2.59-1.58,1.48-2.61,3.48-2.94,5.73-.33,2.26.04,4.67,1.07,6.94,1.03,2.27,2.67,4.29,4.72,5.81,2.05,1.52,4.41,2.47,6.78,2.72,3.18.34,6.16-.59,8.28-2.57,2.12-1.99,3.22-4.87,3.04-8.02h0ZM199.17,49.82c-.12-2.22.42-4.31,1.55-6.02,1.14-1.71,2.82-2.95,4.84-3.58,2.02-.63,4.28-.6,6.49.07,2.22.67,4.29,1.96,5.96,3.69,1.67,1.74,2.86,3.85,3.42,6.07.56,2.22.46,4.45-.28,6.4-.74,1.95-2.09,3.55-3.88,4.58-1.79,1.03-3.94,1.45-6.17,1.21-3-.33-5.94-1.82-8.17-4.15-2.24-2.33-3.59-5.3-3.76-8.27h0Z"/>
                <g class="cls-94">
                  <g>
                    <path class="cls-35" d="M214.76,55.61c-.05-.9-.6-1.93-1.63-3.07-.48-.54-1-1.02-1.41-1.38,0,0-.55.44-1.15.92.4.34.94.82,1.43,1.37.92,1.01,1.13,1.63,1.15,1.98.07,1.29-.96,2.22-2.31,2.08-1.35-.15-2.49-1.31-2.57-2.6,0-.06,0-.13.01-.22-.15.36-.26.75-.24,1.13.13,2.37,1.81,3.01,1.93,3.05.31.1.63.17.95.21,2.24.24,3.97-1.31,3.85-3.46Z"/>
                    <path class="cls-35" d="M206.19,46.46c.05.9.6,1.93,1.63,3.07.48.54,1,1.02,1.41,1.38,0,0,.55-.44,1.15-.92-.4-.34-.94-.82-1.43-1.37-.91-1.01-1.13-1.64-1.15-1.98-.07-1.29.96-2.22,2.31-2.08,1.35.15,2.49,1.31,2.57,2.6,0,.06,0,.13-.01.22.15-.36.26-.75.24-1.13-.13-2.37-1.8-3.01-1.93-3.05-.31-.1-.63-.17-.95-.21-2.24-.24-3.97,1.31-3.85,3.46Z"/>
                    <path class="cls-48" d="M211.71,48.85c.24-.23,1.2-1.38,1.17-2.59-.07-2.15-1.68-2.96-1.89-3.04,1.79.61,3.2,2.3,3.31,4.12.08,1.49-1.31,2.84-2.58,3.81h0s-.55.44-1.15.93c0,0-.71.55-1.33,1.14-.24.23-1.19,1.38-1.16,2.59.06,2.21,1.77,3.01,1.9,3.05-1.81-.6-3.22-2.29-3.33-4.13-.08-1.49,1.31-2.84,2.58-3.82,0,0,0,0,0,0,0,0,.55-.44,1.15-.92,0,0,.72-.54,1.33-1.14h0Z"/>
                  </g>
                </g>
              </g>
            </g>
          </g>
          <g>
            <path class="cls-6" d="M232.07,234.65c1.1-.35,2.17-.78,3.18-1.28.81-.39,1.58-.84,2.32-1.32.66-.43,1.3-.9,1.91-1.4.57-.47,1.11-.96,1.63-1.48.2-.2.39-.4.59-.61l3.56-3.85c-.19.21-.39.41-.59.61-.52.52-1.07,1.01-1.63,1.48-.61.5-1.25.97-1.91,1.4-.75.48-1.52.93-2.32,1.32-1.01.5-2.08.93-3.18,1.28-3.48,1.11-7.36,1.46-11.47.9-1.03-.14-2.04-.34-3.04-.58-1.23-.31-2.43-.69-3.6-1.14-.92-.35-1.82-.75-2.7-1.19-.8-.4-1.57-.83-2.33-1.28-.72-.43-1.42-.9-2.1-1.38-.66-.47-1.31-.98-1.94-1.49-.63-.52-1.24-1.07-1.82-1.63-.6-.59-1.19-1.19-1.75-1.82-.6-.67-1.17-1.36-1.71-2.08-.6-.79-1.17-1.62-1.7-2.46-.65-1.04-1.23-2.11-1.75-3.21-1.78-3.77-2.78-7.86-2.79-12.05-.02-6.31,2.19-11.79,5.93-15.83l-3.56,3.85c-3.73,4.04-5.95,9.53-5.93,15.83.02,4.19,1.02,8.29,2.79,12.05.52,1.1,1.1,2.17,1.75,3.21.53.85,1.09,1.67,1.7,2.46.54.71,1.11,1.41,1.71,2.08.56.63,1.14,1.23,1.75,1.82.59.57,1.2,1.11,1.82,1.63.62.52,1.27,1.02,1.94,1.49.68.48,1.38.95,2.1,1.38.76.46,1.53.89,2.33,1.28.88.43,1.78.83,2.7,1.19,1.17.45,2.37.83,3.6,1.13,1,.24,2.01.45,3.04.58,4.1.57,7.99.21,11.46-.9h0Z"/>
            <path class="cls-41" d="M251.2,208.88c.06,14.67-12.04,24.89-27.03,22.81-14.98-2.07-27.17-15.64-27.23-30.32-.06-14.68,12.04-24.89,27.02-22.82,14.98,2.07,27.17,15.65,27.23,30.32Z"/>
            <path class="cls-13" d="M248.06,208.45c.05,12.98-10.65,22.01-23.91,20.18-13.25-1.83-24.04-13.85-24.09-26.82-.05-12.99,10.65-22.02,23.91-20.19,13.26,1.84,24.04,13.84,24.09,26.82Z"/>
            <g class="cls-81">
              <g>
                <path class="cls-35" d="M241.01,207.19c-.19-3.32-1.36-6.68-3.38-9.65-2.02-2.97-4.79-5.41-7.96-7.01-3.17-1.61-6.59-2.31-9.85-2.02-3.25.29-6.18,1.56-8.42,3.66-2.24,2.1-3.69,4.91-4.16,8.1-.47,3.19.05,6.6,1.51,9.81,1.46,3.21,3.78,6.06,6.67,8.21,2.89,2.15,6.23,3.48,9.58,3.85,4.49.48,8.7-.83,11.7-3.63,3-2.81,4.55-6.88,4.3-11.33h0ZM208.1,203.63c-.18-3.13.59-6.09,2.2-8.5,1.61-2.41,3.99-4.17,6.84-5.05,2.85-.88,6.04-.85,9.17.1,3.13.95,6.06,2.76,8.42,5.21,2.36,2.46,4.04,5.44,4.82,8.58.79,3.13.65,6.28-.39,9.05-1.05,2.76-2.95,5.01-5.48,6.47-2.52,1.46-5.56,2.05-8.72,1.71-4.23-.46-8.39-2.57-11.55-5.86-3.16-3.29-5.07-7.49-5.31-11.69h0Z"/>
                <g class="cls-84">
                  <g>
                    <path class="cls-35" d="M230.12,211.81c-.07-1.27-.85-2.73-2.3-4.34-.68-.76-1.42-1.44-2-1.95,0,0-.78.62-1.63,1.31.56.48,1.32,1.16,2.02,1.94,1.29,1.43,1.6,2.31,1.62,2.79.1,1.82-1.36,3.14-3.26,2.93-1.91-.21-3.51-1.85-3.64-3.68,0-.09,0-.19.02-.31-.22.5-.36,1.06-.33,1.6.19,3.35,2.55,4.26,2.72,4.31.43.14.88.24,1.34.3,3.17.34,5.61-1.86,5.43-4.9Z"/>
                    <path class="cls-35" d="M218,198.89c.07,1.27.85,2.73,2.3,4.34.68.76,1.42,1.44,2,1.95,0,0,.78-.62,1.63-1.31-.56-.48-1.32-1.16-2.02-1.94-1.28-1.43-1.6-2.32-1.62-2.79-.1-1.82,1.36-3.14,3.26-2.93,1.91.21,3.51,1.85,3.64,3.68,0,.09,0,.19-.02.31.22-.5.36-1.06.33-1.6-.18-3.35-2.55-4.26-2.72-4.31-.43-.14-.88-.24-1.34-.3-3.17-.34-5.61,1.85-5.43,4.9Z"/>
                    <path class="cls-48" d="M225.81,202.26c.34-.33,1.69-1.95,1.65-3.66-.1-3.04-2.38-4.18-2.67-4.29,2.53.86,4.52,3.24,4.68,5.82.12,2.11-1.85,4.02-3.64,5.39h0s-.77.63-1.62,1.31c0,0-1,.77-1.87,1.61-.34.33-1.67,1.95-1.63,3.66.09,3.12,2.5,4.25,2.68,4.31-2.55-.85-4.55-3.23-4.71-5.83-.12-2.11,1.85-4.02,3.64-5.4,0,0,0,0-.01,0,0,0,.78-.62,1.63-1.31,0,0,1.01-.77,1.88-1.61h0Z"/>
                  </g>
                </g>
              </g>
            </g>
          </g>
          <g>
            <path class="cls-32" d="M191.22,155.05c.79-.79,1.52-1.64,2.17-2.52.52-.7.98-1.42,1.41-2.17.38-.67.72-1.35,1.02-2.05.28-.66.53-1.32.75-2,.08-.26.16-.52.23-.79l1.35-4.9c-.07.26-.15.52-.23.78-.21.68-.47,1.34-.75,2-.3.7-.64,1.39-1.02,2.05-.43.75-.89,1.47-1.41,2.17-.65.88-1.37,1.73-2.17,2.52-2.5,2.5-5.68,4.54-9.46,5.88-.95.33-1.91.62-2.87.85-1.19.28-2.4.49-3.6.63-.95.11-1.9.17-2.86.18-.86.01-1.72,0-2.57-.06-.81-.05-1.62-.14-2.42-.25-.78-.11-1.56-.25-2.33-.42-.78-.17-1.54-.36-2.29-.59-.78-.24-1.55-.49-2.31-.78-.81-.31-1.61-.65-2.4-1.03-.87-.41-1.73-.87-2.56-1.36-1.02-.6-2-1.27-2.93-1.98-3.2-2.45-5.89-5.52-7.77-9.12-2.83-5.42-3.37-11.12-1.95-16.26l-1.35,4.9c-1.41,5.13-.88,10.84,1.95,16.26,1.88,3.6,4.57,6.67,7.77,9.12.93.72,1.92,1.38,2.93,1.98.83.49,1.68.95,2.56,1.36.78.37,1.58.72,2.4,1.03.76.29,1.53.55,2.31.78.76.23,1.52.42,2.29.59.77.17,1.55.31,2.33.42.8.11,1.61.2,2.42.25.86.06,1.72.08,2.57.06.95-.02,1.9-.08,2.86-.18,1.21-.14,2.41-.34,3.6-.63.96-.23,1.93-.51,2.87-.85,3.78-1.34,6.96-3.37,9.46-5.88h0Z"/>
            <path class="cls-28" d="M196.2,124.37c6.59,12.59.73,26.77-13.09,31.66-13.8,4.89-30.34-1.35-36.92-13.95-6.59-12.6-.73-26.77,13.08-31.66,13.81-4.89,30.34,1.36,36.93,13.95Z"/>
            <path class="cls-60" d="M193.31,125.39c5.82,11.14.64,23.68-11.58,28.01-12.21,4.33-26.84-1.2-32.66-12.34-5.83-11.15-.64-23.68,11.57-28.01,12.22-4.33,26.85,1.2,32.67,12.34Z"/>
            <g class="cls-91">
              <g class="cls-89">
                <g>
                  <path class="cls-35" d="M188.14,135.33c-.08,0-.16,0-.24.03-.3.07-.56.19-.8.33-.48.28-.97.56-1.48.81-.49.24-.99.47-1.49.69-.5.23-1.01.45-1.59.59-.2.05-.41.09-.64.07-.21-.02-.28-.1-.22-.24.06-.13.18-.23.3-.32.33-.25.74-.43,1.12-.64.82-.45,1.61-.93,2.31-1.49.42-.33.81-.69,1.08-1.13.13-.21.22-.43.19-.69-.02-.18-.11-.35-.3-.5-.19-.17-.43-.27-.67-.34-.44-.14-.88-.19-1.31-.22-1.2-.08-2.34.02-3.46.14-.92.11-1.81.25-2.7.42-.77.15-1.53.31-2.28.48-.5.12-1,.24-1.5.37-.68.18-1.36.36-2.03.57-.18.06-.22.23-.1.39.12.15.34.23.53.18.41-.12.83-.23,1.24-.35.76-.21,1.54-.4,2.33-.58,1-.22,2.01-.42,3.06-.56.75-.1,1.52-.18,2.32-.16.38,0,.77.03,1.16.16.25.08.44.21.51.42.02.14,0,.27-.07.39-.09.18-.22.33-.38.47-.61.57-1.36,1.01-2.15,1.43-.8.43-1.65.81-2.51,1.18-1.02.43-2.08.82-3.15,1.19-.69.24-1.38.46-2.09.67-.85.26-1.72.5-2.59.71-1.21.3-2.45.57-3.73.76-.85.13-1.71.23-2.62.23-.43,0-.86-.01-1.3-.14-.24-.07-.45-.17-.56-.37-.05-.15-.03-.29.03-.42.09-.19.23-.35.39-.51.65-.62,1.48-1.08,2.33-1.53.6-.32,1.23-.61,1.87-.89.62-.27,1.26-.53,1.91-.78.46-.17.92-.34,1.38-.51.11-.04.16-.12.14-.23-.04-.22-.37-.4-.61-.32-.55.18-1.08.38-1.61.58-.67.25-1.33.52-1.98.8-.9.39-1.77.79-2.62,1.24-.9.47-1.76.97-2.54,1.56-.49.37-.95.76-1.26,1.25-.11.18-.21.37-.2.59-.04.36.24.69.75.89.38.15.77.22,1.16.26,1.2.12,2.33.05,3.44-.07.84-.09,1.65-.21,2.46-.35.22-.04.46-.04.72.04.17.05.22.14.15.25-.05.07-.12.12-.21.17-.34.2-.74.31-1.14.43-.86.24-1.78.38-2.68.54-.3.05-.62.09-.89.19-.22.09-.44.19-.53.38-.06.13.02.25.21.32.11.04.22.06.33.07.28.03.54.02.8,0,1.4-.13,2.73-.37,4.04-.65,1.19-.26,2.35-.56,3.5-.88.86-.24,1.72-.49,2.56-.76,1.28-.4,2.55-.8,3.8-1.23.8-.28,1.59-.56,2.37-.86.7-.27,1.4-.54,2.08-.83.55-.23,1.09-.46,1.63-.71.59-.27,1.17-.54,1.75-.83.58-.29,1.16-.57,1.7-.89.36-.21.66-.47.83-.81.04-.08.07-.17.06-.27-.02-.15-.13-.23-.32-.24Z"/>
                  <path class="cls-35" d="M167.54,133.46c.26,0,.52.03.78.09.43.1.81.28,1.18.51.03.03.07.05.1.08.44.31.78.67.98,1.09.27.55.14,1.05-.34,1.31-.34.18-.69.34-1.04.51-.49.24-.98.48-1.46.72-.33.16-.65.33-.95.53-.16.1-.32.22-.43.36-.11.16-.04.29.22.36.26.08.51.08.75.06,1.02-.05,1.96-.24,2.89-.45.78-.17,1.53-.38,2.28-.6.74-.22,1.47-.46,2.18-.71.84-.3,1.67-.63,2.45-1,.54-.25,1.07-.52,1.53-.85.19-.14.36-.29.47-.49.06-.11-.04-.27-.21-.31-.07-.02-.14-.03-.2-.04-.34-.02-.66,0-.97.04-1.27.17-2.48.43-3.7.67-.44.09-.88.05-1.34-.17-.86-.4-1.38-.96-1.57-1.66-.1-.55.11-.98.52-1.33.94-.79,1.37-1.79,1.31-3-.02-.49-.14-.99-.34-1.5-.14-.36-.3-.72-.6-1.05-.11-.13-.24-.24-.41-.33-.24-.13-.48-.13-.65-.01-.12.09-.18.2-.21.33-.09.34-.04.7.06,1.06.09.33.15.65.12.96-.02.21-.07.41-.25.55-.18.15-.45.11-.67-.08-.12-.1-.21-.22-.28-.34-.07-.12-.12-.25-.2-.37-.23-.37-.74-.54-1.1-.36-.26.13-.35.35-.4.59-.07.37,0,.77.12,1.17.15.51.03.94-.35,1.26-.49.43-1.18.61-1.98.62-.43.01-.87-.03-1.31-.2-1.55-.62-2.67-1.55-3.35-2.76-.55-.97-.64-1.9-.29-2.76.42-1.03,1.33-1.67,2.7-1.93.96-.18,1.98-.09,3.04.22.52.15.99-.03,1.05-.41.07-.37-.29-.79-.81-.93-2.2-.63-4.14-.56-5.78.25-1.17.57-1.89,1.43-2.15,2.55-.4,1.72.23,3.42,1.94,5.04,1.85,1.74,4.09,2.62,6.64,2.71Z"/>
                  <path class="cls-35" d="M159.74,139.29c.08-.02.15-.06.22-.11.4-.3.84-.57,1.3-.82,1.26-.7,2.6-1.31,3.94-1.93.81-.37,1.63-.74,2.44-1.11.15-.07.29-.14.36-.27.09-.16-.06-.32-.3-.34-.06,0-.12,0-.18,0-.24.02-.45.07-.65.15-.7.28-1.39.56-2.07.86-.79.35-1.57.71-2.33,1.1-.96.49-1.88,1-2.75,1.57-.22.14-.42.31-.5.54-.04.11-.02.23.12.33.14.1.27.07.41.02Z"/>
                  <path class="cls-35" d="M173.91,132.53c-.13.05-.28.11-.4.19-.05.04-.1.08-.13.13-.09.15.04.32.29.35.11.02.2.01.3,0,.37-.05.69-.17,1.03-.25.57-.14,1.12-.29,1.69-.43.73-.18,1.47-.34,2.21-.49.69-.14,1.39-.27,2.1-.39.63-.11,1.28-.19,1.92-.28.2-.03.4-.08.54-.19.12-.09.1-.21-.06-.32-.1-.07-.21-.1-.33-.12-.2-.03-.39,0-.57.02-.82.11-1.63.24-2.43.39-.74.13-1.47.28-2.2.43-.63.14-1.26.28-1.89.43-.69.16-1.36.34-2.06.53Z"/>
                  <path class="cls-35" d="M168.27,124.6c.24.31.74.48,1.1.37.36-.11.45-.47.2-.79s-.73-.48-1.09-.36c-.36.11-.46.46-.21.78Z"/>
                </g>
              </g>
            </g>
          </g>
          <g>
            <path class="cls-29" d="M259.74,143.1c.72-.11,1.43-.28,2.12-.5.54-.17,1.07-.37,1.58-.6.46-.2.9-.44,1.33-.69.4-.24.79-.49,1.16-.77.14-.11.29-.21.42-.32l2.6-2.06c-.14.11-.28.22-.42.32-.37.28-.76.53-1.16.77-.43.25-.87.48-1.33.69-.51.23-1.04.43-1.58.6-.68.21-1.39.38-2.12.5-2.28.36-4.75.2-7.26-.55-.63-.19-1.24-.41-1.84-.66-.74-.31-1.45-.66-2.14-1.06-.54-.31-1.07-.64-1.58-1.01-.46-.33-.9-.67-1.33-1.03-.41-.34-.8-.7-1.18-1.06-.37-.36-.73-.74-1.07-1.12-.34-.39-.67-.79-.98-1.2-.32-.42-.63-.86-.92-1.3-.31-.48-.6-.97-.87-1.47-.3-.55-.58-1.13-.82-1.7-.3-.71-.56-1.44-.79-2.17-.75-2.53-.98-5.18-.58-7.81.59-3.95,2.51-7.16,5.24-9.33l-2.6,2.06c-2.72,2.16-4.64,5.38-5.24,9.33-.39,2.62-.16,5.28.58,7.81.22.74.48,1.46.78,2.18.25.58.52,1.15.82,1.7.27.5.56.99.87,1.47.29.44.6.88.92,1.3.31.41.64.81.98,1.2.34.39.7.76,1.07,1.12.38.37.77.73,1.18,1.06.43.36.87.7,1.33,1.03.51.36,1.03.69,1.58,1.01.69.39,1.4.75,2.14,1.06.6.25,1.22.47,1.84.66,2.51.75,4.97.9,7.25.55h0Z"/>
            <path class="cls-61" d="M274.19,128.84c-1.38,9.18-9.93,14.4-19.1,11.65-9.16-2.74-15.48-12.41-14.1-21.58,1.38-9.18,9.93-14.4,19.1-11.66,9.17,2.74,15.48,12.41,14.1,21.59Z"/>
            <path class="cls-53" d="M272.27,128.26c-1.22,8.12-8.79,12.73-16.9,10.31-8.11-2.42-13.69-10.98-12.47-19.09,1.22-8.12,8.79-12.74,16.9-10.31,8.11,2.43,13.7,10.98,12.47,19.1Z"/>
            <g class="cls-88">
              <g class="cls-89">
                <g>
                  <path class="cls-35" d="M265.71,131.51s-.09-.06-.13-.08c-.19-.08-.37-.11-.55-.13-.36-.04-.73-.08-1.1-.14-.35-.06-.7-.13-1.05-.21-.35-.07-.71-.15-1.07-.3-.12-.05-.25-.11-.36-.21-.1-.09-.11-.16-.02-.21.08-.05.18-.05.28-.05.27,0,.56.06.84.1.61.08,1.21.13,1.79.11.35-.01.69-.05,1-.18.15-.06.28-.14.37-.29.06-.1.08-.23.04-.38-.03-.16-.12-.3-.22-.44-.18-.24-.39-.44-.61-.62-.6-.5-1.24-.89-1.88-1.26-.53-.3-1.05-.57-1.58-.82-.46-.22-.93-.43-1.39-.62-.31-.13-.62-.26-.93-.38-.43-.17-.86-.33-1.29-.48-.12-.04-.21.04-.2.17,0,.13.09.25.21.3.26.1.53.2.79.3.48.18.97.38,1.45.59.61.27,1.22.55,1.83.88.44.24.87.49,1.29.81.2.15.39.31.55.53.1.14.15.28.11.42-.04.08-.11.14-.19.18-.12.06-.25.09-.38.11-.54.07-1.11,0-1.69-.07-.59-.08-1.18-.21-1.78-.35-.71-.17-1.41-.37-2.12-.58-.45-.14-.9-.29-1.36-.45-.55-.19-1.1-.4-1.64-.62-.76-.31-1.51-.64-2.26-1.03-.5-.26-.99-.54-1.47-.89-.23-.16-.45-.34-.63-.57-.1-.13-.17-.26-.15-.41.03-.1.1-.17.18-.21.12-.07.26-.1.4-.12.58-.07,1.2,0,1.82.09.44.07.88.15,1.33.25.43.1.87.21,1.31.33.31.09.62.18.93.27.08.02.13,0,.16-.07.07-.13-.04-.35-.2-.4-.36-.12-.72-.22-1.07-.32-.45-.13-.9-.24-1.35-.34-.62-.14-1.24-.27-1.86-.36-.66-.1-1.31-.17-1.94-.16-.4,0-.79.04-1.14.18-.13.05-.25.11-.33.23-.16.17-.14.45.05.76.14.23.32.42.51.59.58.53,1.21.92,1.84,1.29.47.28.95.52,1.43.77.13.07.26.16.36.3.07.09.06.16-.02.19-.05.02-.11.02-.17.01-.25-.03-.51-.12-.77-.22-.54-.2-1.08-.48-1.62-.75-.18-.09-.36-.19-.55-.24-.15-.04-.3-.07-.43,0-.08.04-.09.14-.01.25.04.06.09.12.15.17.13.12.28.22.43.31.79.47,1.58.86,2.38,1.21.73.32,1.46.61,2.18.88.55.2,1.1.4,1.64.59.83.28,1.65.56,2.48.81.53.16,1.05.32,1.58.46.47.13.95.25,1.42.36.38.09.75.18,1.13.25.42.09.83.17,1.24.24.41.07.83.14,1.24.19.27.03.53,0,.75-.11.05-.03.1-.06.14-.12.05-.08.02-.17-.08-.25Z"/>
                  <path class="cls-35" d="M255.58,122.59c.13.1.26.22.38.35.19.22.32.46.43.72,0,.03.02.05.02.08.11.34.15.65.09.95-.07.39-.33.61-.69.56-.25-.04-.49-.09-.74-.13-.35-.06-.7-.12-1.05-.19-.24-.04-.47-.07-.7-.09-.13,0-.25-.01-.37.03-.12.04-.13.14-.02.28.11.14.24.24.37.32.56.37,1.13.63,1.7.88.48.21.95.39,1.43.56.48.17.95.33,1.43.46.56.17,1.12.31,1.68.42.38.07.76.14,1.13.14.15,0,.3-.02.44-.08.08-.04.08-.16,0-.25-.03-.03-.06-.07-.09-.1-.17-.14-.35-.25-.53-.35-.73-.4-1.47-.73-2.21-1.07-.26-.12-.48-.32-.64-.6-.3-.54-.36-1.04-.19-1.48.16-.33.44-.48.79-.5.8-.05,1.41-.42,1.85-1.08.18-.27.31-.58.4-.92.06-.24.12-.49.09-.78-.01-.11-.03-.22-.09-.33-.08-.16-.2-.26-.34-.26-.1,0-.17.04-.24.09-.18.14-.29.35-.38.59-.08.21-.17.4-.31.55-.09.1-.19.19-.34.2-.15,0-.28-.11-.32-.3-.02-.1-.03-.2-.01-.29.01-.09.03-.18.04-.27.02-.28-.18-.57-.44-.61-.19-.03-.32.05-.44.16-.18.17-.29.41-.39.66-.12.33-.34.51-.67.53-.42.04-.86-.14-1.29-.44-.23-.16-.45-.35-.62-.61-.58-.92-.81-1.84-.7-2.75.09-.73.4-1.25.91-1.57.62-.38,1.35-.37,2.17.02.57.28,1.08.71,1.52,1.29.22.28.53.37.71.19.18-.17.15-.53-.07-.8-.92-1.18-1.97-1.89-3.14-2.1-.84-.15-1.55.03-2.12.52-.87.75-1.2,1.89-.92,3.4.3,1.63,1.15,2.96,2.46,3.99Z"/>
                  <path class="cls-35" d="M249.21,122.65s.1.03.16.03c.33,0,.66.02,1,.06.93.11,1.88.31,2.82.5.57.12,1.14.24,1.71.36.1.02.21.03.29,0,.11-.05.09-.19-.03-.3-.03-.03-.06-.05-.09-.07-.13-.08-.27-.14-.4-.17-.48-.12-.95-.24-1.42-.34-.55-.12-1.1-.23-1.65-.32-.69-.11-1.38-.2-2.05-.23-.17,0-.34,0-.47.1-.06.04-.1.11-.06.22.04.11.12.14.21.17Z"/>
                  <path class="cls-35" d="M259.29,124.55c-.09-.02-.19-.05-.29-.05-.04,0-.08,0-.12.02-.11.05-.1.18.02.3.05.05.1.08.16.12.21.12.43.18.64.26.35.14.71.28,1.06.43.45.19.9.39,1.35.59.42.19.84.39,1.26.6.37.19.75.39,1.12.59.12.06.24.11.36.11.1,0,.13-.07.09-.2-.03-.08-.07-.14-.13-.19-.1-.09-.2-.15-.31-.21-.48-.26-.95-.5-1.43-.73-.44-.22-.88-.42-1.33-.62-.39-.17-.77-.34-1.16-.5-.42-.18-.85-.35-1.29-.52Z"/>
                  <path class="cls-35" d="M259.37,118.19c0,.26.21.54.44.62.23.08.42-.08.41-.34s-.2-.53-.43-.61c-.23-.08-.42.07-.41.33Z"/>
                </g>
              </g>
            </g>
          </g>
          <g class="cls-80">
            <rect class="cls-71" x="155.28" y="52.59" width="1.56" height="7.03" rx=".78" ry=".78"/>
            <rect class="cls-67" x="155.28" y="52.59" width="1.56" height="7.03" rx=".78" ry=".78" transform="translate(212.17 -99.96) rotate(90)"/>
          </g>
          <g class="cls-80">
            <rect class="cls-65" x="250.21" y="39.68" width="1.77" height="7.97" rx=".89" ry=".89"/>
            <rect class="cls-21" x="250.21" y="39.68" width="1.77" height="7.97" rx=".89" ry=".89" transform="translate(294.76 -207.43) rotate(90)"/>
          </g>
          <g class="cls-80">
            <rect class="cls-38" x="292.86" y="89.45" width="2.63" height="11.81" rx="1.31" ry="1.31"/>
            <rect class="cls-7" x="292.86" y="89.45" width="2.63" height="11.81" rx="1.31" ry="1.31" transform="translate(389.53 -198.81) rotate(90)"/>
          </g>
          <g>
            <rect class="cls-35" x="218.37" y="119.16" width="1.59" height="7.18" rx=".8" ry=".8"/>
            <rect class="cls-35" x="218.37" y="119.16" width="1.59" height="7.18" rx=".8" ry=".8" transform="translate(341.92 -96.42) rotate(90)"/>
          </g>
        </g>
        <g>
          <polygon class="cls-46" points="370.93 320.16 358.41 312.94 370.93 305.71 383.44 312.94 370.93 320.16"/>
          <polygon class="cls-24" points="370.93 332 383.44 324.78 383.44 312.94 370.93 320.16 370.93 332"/>
          <polygon class="cls-36" points="370.93 332 358.41 324.78 358.41 312.94 370.93 320.16 370.93 332"/>
        </g>
        <g>
          <g>
            <path class="cls-55" d="M152.48,371.52s.04-.1.07-.14c0,0,.01-.02.02-.02.03-.05.07-.09.12-.13.03-.03.07-.05.1-.08.03-.02.06-.05.09-.07l1.08-.63s.01,0,.02-.01c.03-.02.05-.04.07-.05.04-.03.08-.05.11-.08,0,0,0,0,.01,0,.04-.03.07-.07.09-.1,0,0,.01-.02.02-.02,0,0,.01-.02.02-.02,0-.01.02-.03.03-.04.02-.03.03-.06.04-.09,0,0,0,0,0-.01,0,0,0-.01,0-.02,0-.02.01-.04.02-.06,0-.03,0-.06,0-.09,0,0,0,0,0-.01v-5.09c.01.05,0,.1-.01.16,0,0,0,.01,0,.02-.02.05-.04.1-.07.14,0,0-.01.02-.02.02-.03.05-.07.09-.12.13-.03.03-.07.05-.11.08-.03.02-.06.05-.09.07l-1.08.63s-.01,0-.02.01c-.03.02-.05.04-.08.06-.04.03-.07.05-.1.08,0,0,0,0-.01,0-.04.03-.07.07-.09.1,0,0-.01.02-.02.02,0,0-.01.02-.02.02,0,.01-.02.03-.03.04-.02.03-.03.06-.04.09,0,0,0,0,0,.01,0,0,0,.01,0,.02,0,.02-.01.04-.02.06,0,.03,0,.06-.01.09,0,0,0,0,0,.01v5.09c-.01-.05,0-.11.01-.16,0,0,0-.01,0-.02Z"/>
            <g>
              <path class="cls-76" d="M128.81,370.45l1.09.63c.3.17.45.4.45.63v-5.09c.02-.23-.14-.46-.44-.63l-1.09-.63c-.3-.17-.45-.4-.45-.63v5.09c-.02.23.14.46.44.63Z"/>
              <path class="cls-2" d="M133.84,374.7c.01-.07.03-.13.05-.19.02-.08.04-.15.07-.23.02-.06.05-.12.08-.19.03-.08.07-.16.11-.24.03-.06.07-.11.1-.17.06-.09.11-.18.18-.27.04-.05.08-.1.12-.15.1-.12.21-.23.32-.35.04-.04.08-.08.13-.13.07-.07.15-.13.23-.19.07-.06.14-.11.21-.17.09-.06.18-.12.28-.18.1-.06.19-.13.29-.19.33-.19.69-.36,1.06-.51.1-.04.2-.08.3-.11.36-.13.73-.25,1.11-.34.04-.01.09-.02.13-.03.38-.09.76-.15,1.16-.2.08,0,.15-.02.23-.03.42-.05.85-.07,1.28-.07.07,0,.14,0,.2,0,.42,0,.85.03,1.26.07.06,0,.13.01.19.02.42.05.82.12,1.22.21.07.02.15.04.22.05.36.09.72.2,1.06.32.06.02.13.04.19.06.41.16.8.34,1.16.55,1.51.87,2.26,2.01,2.26,3.15v-5.09c.02-1.14-.74-2.28-2.24-3.15-.35-.2-.71-.38-1.1-.53-.02,0-.04-.01-.06-.02-.06-.02-.12-.04-.19-.06-.22-.08-.45-.16-.68-.23-.12-.04-.25-.06-.38-.09-.07-.02-.14-.04-.22-.05-.07-.02-.13-.03-.2-.05-.25-.05-.5-.1-.76-.13-.09-.01-.18-.02-.27-.03-.06,0-.13-.01-.19-.02-.09,0-.19-.02-.28-.03-.25-.02-.5-.03-.75-.04-.08,0-.16,0-.24,0-.07,0-.14,0-.2,0-.11,0-.23,0-.34,0-.28,0-.56.03-.84.06-.03,0-.06,0-.1.01-.08,0-.15.02-.23.03-.22.03-.43.05-.65.09-.17.03-.34.07-.51.11-.04,0-.09.02-.13.03-.08.02-.16.04-.25.06v-3.59s0-.89,0-.89v4.48c-.2.05-.38.1-.56.16-.11.03-.21.08-.31.12-.1.04-.2.07-.3.11-.37.15-.73.31-1.06.51-.03.02-.06.04-.09.06-.07.04-.13.09-.19.13-.09.06-.19.12-.28.19-.07.05-.14.11-.21.17-.08.06-.16.13-.24.2-.01.01-.03.03-.05.04-.03.03-.05.06-.08.09-.12.11-.23.23-.32.35-.02.03-.05.05-.07.08-.02.03-.03.05-.05.08-.07.09-.12.18-.18.27-.02.04-.05.07-.08.11-.01.02-.02.04-.03.06-.04.08-.08.16-.11.24-.02.05-.05.09-.07.14,0,.02,0,.03-.01.05-.03.08-.05.15-.07.23-.01.05-.03.1-.04.16,0,.01,0,.03,0,.04-.01.08-.02.16-.03.24,0,.05-.02.1-.02.16,0,.02,0,.04,0,.07v5.09c-.01-.07,0-.15,0-.22,0-.08.01-.16.03-.24Z"/>
              <path class="cls-50" d="M157.61,371.18s0,0,0,.01c-.02.05-.05.1-.08.15,0,0,0,.01-.01.02-.03.05-.07.09-.12.13-.04.03-.08.06-.12.09-.02.01-.04.03-.06.05-.09.05-.2.1-.31.14-.03.01-.07.02-.11.03-.05.01-.1.03-.15.04-.06.01-.12.02-.18.03-.02,0-.04,0-.05,0-.09.01-.19.02-.29.02h-1.53s-.06,0-.09,0c-.06,0-.11,0-.17.01-.07,0-.13.02-.19.03,0,0,0,0,0,0-.01,0-.02,0-.03,0-.08.02-.17.04-.25.06-.03,0-.04.02-.07.03-.06.02-.12.05-.17.08-.04.02-.08.03-.11.05-.03.02-.05.04-.08.06-.02.01-.04.03-.06.05-.02.01-.04.02-.05.04-.04.03-.07.07-.1.1-.02.03-.04.05-.05.08-.14.23-.31.46-.49.69,0,0-.01.01-.01.02-.02.03-.04.06-.06.09-.01.02-.02.05-.03.07,0,0,0,0,0,0,0,0,0,0,0,0-.01.03-.02.06-.02.09,0,.03,0,.06,0,.09,0,0,0,0,0,.01v3.41s-.7.4-.7.4c-.14.08-.3.14-.47.18-.02,0-.05.01-.07.02-.17.04-.35.06-.53.06,0,0-.01,0-.02,0-.19,0-.38-.02-.56-.06,0,0-.01,0-.02,0-.18-.04-.35-.11-.5-.19l-1.09-.63c-.07-.04-.14-.08-.22-.11-.05-.02-.1-.04-.15-.05,0,0-.01,0-.02,0,0,0,0,0-.01,0-.05-.01-.11-.03-.16-.04-.05-.01-.1-.02-.15-.03-.03,0-.07,0-.1-.01,0,0-.01,0-.02,0,0,0-.02,0-.03,0-.05,0-.1,0-.15,0-.05,0-.1,0-.16,0-.04,0-.07,0-.11,0,0,0-.02,0-.02,0-.01,0-.02,0-.03,0-.07,0-.13.02-.19.03-.07.01-.14.03-.21.05-.39.11-.78.2-1.18.28-.08.02-.16.04-.24.06-.03.01-.06.03-.09.04-.06.02-.12.05-.17.08-.03.02-.07.03-.1.04-.04.02-.07.05-.1.08-.02.01-.04.03-.06.04-.01,0-.02.02-.03.03-.04.03-.07.07-.09.1-.02.03-.04.06-.06.09,0,0,0,0,0,0,0,0,0,0,0,0-.01.03-.03.05-.04.08-.01.03-.02.06-.02.09,0,.03,0,.06-.01.09,0,0,0,.01,0,.02v.93s-.01.08-.02.12c0,0,0,0,0,.01-.02.05-.05.1-.08.15,0,0,0,.02-.02.02-.03.05-.07.09-.12.13-.04.03-.08.06-.12.09-.02.01-.04.03-.06.05-.09.05-.2.1-.31.14-.03.01-.07.02-.11.03-.05.01-.1.03-.15.04-.06.01-.12.02-.18.03-.02,0-.04,0-.06,0-.09.01-.19.02-.29.02h-3.18c-.21,0-.4-.03-.58-.07,0,0-.02,0-.02,0-.18-.04-.34-.11-.48-.19-.28-.16-.45-.38-.45-.63v-.89c-.01-.24-.18-.46-.46-.62-.07-.04-.15-.08-.23-.11,0,0-.02,0-.02,0-.02,0-.03-.01-.05-.02-.04-.01-.08-.03-.12-.04-.05-.01-.1-.03-.16-.04-.4-.08-.8-.18-1.18-.28-.05-.01-.1-.03-.15-.04-.05-.01-.1-.02-.16-.03-.05,0-.1-.01-.15-.02,0,0,0,0,0,0,0,0,0,0,0,0-.05,0-.1,0-.15,0-.05,0-.11,0-.16,0-.05,0-.1,0-.15.01,0,0,0,0,0,0,0,0,0,0,0,0-.07,0-.13.02-.2.03-.06.01-.12.03-.18.05-.02,0-.05.01-.07.02-.01,0-.02,0-.03,0-.12.04-.23.09-.33.15l-1.08.63c-.14.08-.3.14-.47.18-.02,0-.05.01-.07.02-.17.04-.35.06-.53.06,0,0-.01,0-.02,0-.19,0-.38-.02-.56-.06,0,0-.01,0-.02,0-.18-.04-.35-.11-.5-.19l-.75-.43v-3.37c0-.13-.04-.27-.15-.4-.19-.22-.35-.45-.49-.69-.08-.13-.21-.24-.37-.33-.07-.04-.14-.08-.22-.11-.06-.02-.12-.04-.19-.06-.02,0-.05-.01-.07-.02,0,0-.02,0-.02,0-.02,0-.04-.01-.07-.02-.05-.01-.1-.02-.15-.03-.05,0-.1-.01-.15-.02-.05,0-.1,0-.15,0-.02,0-.04,0-.07,0h-1.54c-.21,0-.4-.03-.58-.07,0,0-.02,0-.02,0-.18-.04-.34-.11-.48-.19-.28-.16-.45-.38-.45-.63v-1.84s-.02,5.09-.02,5.09v1.84c.01.24.18.47.46.63.07.04.14.08.22.11.06.02.12.04.19.06.02,0,.05.01.07.02,0,0,.02,0,.02,0,.02,0,.04.01.07.02.05.01.1.02.15.03.05,0,.1.01.15.02.05,0,.1,0,.15,0,.02,0,.04,0,.07,0h1.54s.09.02.14.02v3.53c-.01.23.14.46.44.63l2.25,1.3c.07.04.14.08.22.11.06.02.12.04.19.06.03,0,.06.01.09.02,0,0,.01,0,.02,0,.02,0,.03,0,.05.01.05.01.1.02.15.03.05,0,.1.01.15.02s.1,0,.15,0c.02,0,.04,0,.06,0,0,0,.01,0,.02,0,.03,0,.05,0,.08,0,.06,0,.11,0,.17-.01.07,0,.13-.02.19-.03.03,0,.06-.01.09-.02.03,0,.05-.01.07-.02.04-.01.09-.02.13-.03.12-.04.24-.09.34-.15l1.08-.63c.11-.06.23-.11.36-.15.02,0,.05-.01.07-.02.12-.03.25-.06.39-.07,0,0,0,0,0,0,.15-.01.31-.02.46,0,0,0,0,0,0,0,.16.01.31.04.46.08.38.11.78.2,1.18.28.1.02.19.05.28.08.02,0,.03,0,.05.02.09.03.18.07.25.12.28.16.45.38.45.62v.89c.01.24.18.47.46.63.07.04.14.07.22.11v-.02h0v.02c.06.02.12.04.19.06.02,0,.05.01.07.02,0,0,.02,0,.02,0,.02,0,.04.01.07.02.05.01.1.02.15.03.05,0,.1.01.15.02.05,0,.1,0,.15,0,.02,0,.04,0,.07,0h3.18s.06,0,.09,0c.06,0,.11,0,.17-.01.01,0,.02,0,.03,0,.02,0,.04,0,.05,0,.04,0,.08,0,.11-.02.02,0,.04-.01.07-.02.05-.01.1-.02.15-.04.02,0,.05-.01.07-.02.01,0,.02-.01.04-.02.11-.04.22-.08.31-.14,0,0,0,0,0,0,.02-.01.04-.03.06-.04.04-.03.09-.06.12-.09,0,0,.01,0,.01-.01.04-.03.07-.07.09-.1,0,0,0-.01.01-.02,0,0,0-.01.01-.02.01-.02.03-.03.04-.05.02-.03.03-.06.04-.09,0,0,0,0,0,0,0,0,0,0,0-.01,0-.02.01-.04.02-.06,0-.03,0-.06.01-.09,0,0,0-.01,0-.02v-.92c0-.08.02-.17.07-.24,0,0,0,0,0,0,.04-.08.11-.15.19-.22.02-.02.04-.03.06-.04.06-.04.13-.08.2-.12.05-.03.11-.05.17-.08.1-.04.21-.08.33-.1.4-.08.79-.18,1.18-.28.14-.04.29-.07.44-.08,0,0,.02,0,.02,0,.15-.01.3-.01.44,0,0,0,.01,0,.02,0,.15.01.29.04.43.08,0,0,.01,0,.02,0,.14.04.26.09.38.16l1.09.63c.07.04.14.07.22.11.06.02.12.04.19.06.03,0,.06.02.09.02,0,0,.01,0,.02,0,.02,0,.03,0,.05.01.05.01.1.02.15.03.05,0,.1.01.15.02.05,0,.1,0,.15,0,.02,0,.04,0,.06,0,0,0,.01,0,.02,0,.03,0,.05,0,.08,0,.06,0,.11,0,.17-.01.07,0,.13-.02.2-.03.03,0,.05-.01.08-.02.03,0,.05-.01.07-.02.04-.01.09-.02.14-.03.12-.04.23-.09.33-.15l2.24-1.3s.01,0,.02-.01c.03-.02.05-.04.08-.06.04-.03.07-.05.1-.08,0,0,0,0,0,0,.04-.03.07-.07.09-.1,0,0,.01-.02.02-.03,0,0,.01-.02.02-.03,0-.01.02-.03.03-.04.02-.03.03-.06.04-.09,0,0,0,0,0-.01,0,0,0-.01,0-.02,0-.02.01-.04.02-.06,0-.03,0-.06.01-.09,0,0,0,0,0-.01v-3.54s.06,0,.09,0h1.53s.06,0,.09,0c.06,0,.11,0,.17-.01.01,0,.02,0,.03,0,.02,0,.04,0,.05,0,.04,0,.08,0,.11-.02.02,0,.04-.01.07-.02.05-.01.1-.02.15-.04.02,0,.05-.01.07-.02.01,0,.02-.01.04-.02.11-.04.22-.08.31-.14,0,0,0,0,0,0,.02-.01.04-.03.06-.04.04-.03.09-.06.12-.09,0,0,.01,0,.01-.01.04-.03.07-.07.09-.1,0,0,0-.01.01-.02,0,0,0-.01.01-.02.01-.02.03-.03.04-.05.02-.03.03-.06.04-.09,0,0,0,0,0,0,0,0,0,0,0-.01,0-.02.01-.04.02-.06,0-.03,0-.06.01-.09,0,0,0-.01,0-.02v-5.09c.01.06,0,.11-.01.17Z"/>
            </g>
          </g>
          <path class="cls-46" d="M154.04,374.82c.6.35.6.91,0,1.25l-2.24,1.3c-.59.35-1.57.35-2.17,0l-1.09-.63c-.46-.27-1.16-.33-1.75-.17-.39.11-.78.2-1.18.28-.62.13-1.03.46-1.02.84v.89c0,.49-.68.89-1.52.89h-3.18c-.42,0-.81-.1-1.08-.26s-.45-.38-.45-.63v-.89c-.01-.24-.18-.46-.46-.62-.16-.09-.35-.17-.58-.21-.4-.08-.8-.18-1.18-.28-.59-.16-1.29-.1-1.75.17l-1.08.63c-.6.35-1.56.35-2.17,0l-2.25-1.3c-.6-.35-.61-.91,0-1.25l1.08-.63c.46-.26.57-.67.28-1.01-.19-.22-.35-.45-.49-.69-.08-.13-.21-.24-.37-.33-.28-.16-.66-.26-1.08-.26h-1.54c-.42,0-.81-.1-1.08-.26s-.45-.38-.45-.63v-1.84c-.01-.49.67-.89,1.52-.89h1.53c.66,0,1.23-.24,1.44-.6.14-.23.3-.46.48-.69.28-.34.16-.74-.3-1.01l-1.09-.63c-.6-.35-.6-.91,0-1.25l2.24-1.3c.59-.35,1.57-.35,2.17,0l1.09.63c.46.27,1.16.33,1.74.17.39-.11.78-.2,1.19-.28.61-.12,1.02-.45,1.02-.83v-.89c0-.49.68-.89,1.52-.89h3.18c.43,0,.81.1,1.09.26s.45.38.45.63v.89c.01.24.18.46.46.62.16.09.36.17.58.21.4.08.8.18,1.18.28.59.16,1.29.1,1.75-.17l1.08-.63c.59-.35,1.56-.35,2.16,0l2.25,1.3c.6.35.61.91.01,1.25l-1.08.63c-.46.26-.57.67-.28,1.01.19.22.35.45.5.68.08.13.21.25.37.34.28.16.66.26,1.07.26h1.54c.42,0,.81.1,1.09.26s.45.38.45.63v1.84c.01.49-.67.89-1.52.89h-1.53c-.66,0-1.23.24-1.44.59-.14.23-.31.46-.49.69-.28.34-.16.74.3,1.01l1.09.63ZM136.06,373.22c2.99,1.73,7.82,1.73,10.79,0s2.95-4.52-.04-6.25c-2.99-1.73-7.81-1.73-10.78,0-2.97,1.73-2.96,4.52.03,6.25"/>
        </g>
        <g>
          <rect class="cls-4" x="41.97" y="324.75" width="85.69" height="30.22" transform="translate(-13.75 3.73) rotate(-2.33)"/>
          <path class="cls-25" d="M174.8,246.01l-33.64-15.15c-9.44-4.25-24.43-3.64-33.49,1.36l-34.49,19.04c-4.53,2.5-6.72,5.63-6.6,8.66l2.74,67.3c.12,3.03,2.56,5.97,7.28,8.09l33.64,15.15c9.44,4.25,24.43,3.64,33.49-1.36l34.49-19.04c4.53-2.5,6.72-5.63,6.6-8.66l-2.74-67.3c-.12-3.03-2.56-5.97-7.28-8.09Z"/>
          <path class="cls-26" d="M123.17,352.54c3.1.13,6.27-.05,9.32-.53l-3.15-77.46-9.32.38,3.16,77.62Z"/>
          <path class="cls-46" d="M175.48,262.76l-34.49,19.04c-9.06,5-24.06,5.61-33.49,1.36l-33.64-15.15c-9.44-4.25-9.74-11.75-.68-16.75l34.49-19.04c9.06-5,24.06-5.61,33.49-1.36l33.64,15.15c9.44,4.25,9.74,11.75.68,16.75Z"/>
          <g class="cls-87">
            <path class="cls-30" d="M124.39,286.12c-6.09.25-12.24-.66-16.97-2.8l-33.64-15.15.15-.33,33.64,15.15c9.38,4.22,24.33,3.61,33.33-1.36l34.49-19.04.17.32-34.49,19.04c-4.54,2.51-10.59,3.92-16.69,4.16Z"/>
          </g>
          <g>
            <polygon class="cls-12" points="136.81 330.09 136.09 330.12 135.71 320.69 157.24 308.8 157.78 322.13 161.32 320.18 160.7 305.01 150.43 300.39 150.06 291.28 142.64 295.38 142.29 294.74 150.74 290.08 151.14 299.91 161.41 304.53 162.06 320.59 157.11 323.33 156.57 310 136.45 321.1 136.81 330.09"/>
            <polygon class="cls-12" points="165.81 326.9 165.09 326.93 164.06 301.68 153.79 297.06 153.15 281.38 153.87 281.36 154.49 296.58 164.76 301.21 165.81 326.9"/>
            <polygon class="cls-12" points="168.18 317.22 167.41 298.35 157.14 293.73 157.02 290.83 178.12 279.18 178.54 289.5 177.82 289.53 177.45 280.38 157.76 291.24 157.84 293.25 168.12 297.88 168.86 316.02 174.38 312.97 174.73 313.6 168.18 317.22"/>
            <polygon class="cls-35" points="134.84 332.75 138.2 330.89 138.06 327.46 134.7 329.31 134.84 332.75"/>
            <polygon class="cls-12" points="140.85 297.7 144.21 295.85 144.07 292.41 140.71 294.27 140.85 297.7"/>
            <polygon class="cls-35" points="163.84 329.56 167.2 327.7 167.06 324.27 163.7 326.13 163.84 329.56"/>
            <polygon class="cls-35" points="151.9 284.01 155.26 282.16 155.12 278.73 151.76 280.58 151.9 284.01"/>
            <polygon class="cls-35" points="176.57 292.16 179.93 290.3 179.79 286.87 176.43 288.73 176.57 292.16"/>
            <polygon class="cls-12" points="173.29 315.9 176.66 314.05 176.52 310.61 173.15 312.47 173.29 315.9"/>
            <polygon class="cls-12" points="150.67 331.12 150.25 320.8 150.97 320.77 151.34 329.93 162.46 323.79 162.81 324.42 150.67 331.12"/>
            <polygon class="cls-35" points="152.22 318.14 148.86 320 149 323.43 152.36 321.58 152.22 318.14"/>
            <polygon class="cls-12" points="182.06 319.99 181.34 320.02 180.61 302.1 175.08 305.15 174.73 304.52 181.29 300.9 182.06 319.99"/>
            <polygon class="cls-35" points="176.17 302.22 172.81 304.07 172.95 307.5 176.31 305.65 176.17 302.22"/>
            <rect class="cls-12" x="159.11" y="279.51" width="19.95" height=".72" transform="translate(-114.19 116.54) rotate(-28.89)"/>
            <polygon class="cls-35" points="176.2 277.7 179.57 275.84 179.43 272.41 176.06 274.27 176.2 277.7"/>
            <polygon class="cls-35" points="158.74 287.34 162.1 285.49 161.96 282.05 158.6 283.91 158.74 287.34"/>
            <rect class="cls-12" x="139.53" y="335.63" width="19.95" height=".72" transform="translate(-143.75 114.08) rotate(-28.9)"/>
            <polygon class="cls-12" points="156.63 333.82 159.99 331.96 159.85 328.53 156.49 330.39 156.63 333.82"/>
            <polygon class="cls-35" points="139.16 343.46 142.53 341.6 142.39 338.17 139.03 340.03 139.16 343.46"/>
          </g>
          <g>
            <path class="cls-66" d="M95.14,327.87c-10.59-4.77-19.55-17.1-19.98-27.48s7.85-14.95,18.44-10.18c10.59,4.77,19.55,17.1,19.98,27.48s-7.85,14.95-18.44,10.18ZM94.08,301.62c-4.18-1.88-7.45-.08-7.28,4.02s3.7,8.96,7.88,10.84c4.18,1.88,7.45.08,7.28-4.02s-3.7-8.96-7.88-10.84Z"/>
            <path class="cls-33" d="M95.03,325.02c-8.99-4.05-16.6-14.51-16.95-23.32s6.66-12.69,15.65-8.64l.23,5.7c-5.78-2.6-10.3-.11-10.07,5.56s5.12,12.4,10.91,15c5.78,2.6,10.3.11,10.07-5.56l5.81,2.62c.36,8.81-6.66,12.69-15.65,8.64Z"/>
            <path class="cls-35" d="M81.95,303.45l-1.94-.87c-.32-7.76,5.87-11.18,13.79-7.61l.08,1.9c-6.85-3.09-12.2-.13-11.93,6.58Z"/>
          </g>
        </g>
        <g>
          <g>
            <path class="cls-14" d="M309.43,293.13s-.09-.09-.13-.14c-.87,1.82-1.45,4-1.76,7.43-.46,1.96-.56,5.12-1.02,7.08-.21.91-.95,3.68-.14,4.2.3.2.83.08,1.68-.57.76-.58,1.48-3.17,1.84-4.04,1.09-2.66,2.51-6.26,3.92-9.31-1.52-1.5-2.94-3.07-4.39-4.66Z"/>
            <path class="cls-45" d="M331.75,279.69l-8.75,5.4c-3.67,2.27-6.49,5.67-8.03,9.7l-4.21,10.98-4.54-2.26,3.28-12.94c.82-3.23,2.34-6.23,4.46-8.79l15.36-14.69,2.73,7.34-.31,5.27Z"/>
            <path class="cls-77" d="M340.2,268.45c-.33-.06-.65-.11-.98-.18.33.41.67.81,1,1.22,0-.35,0-.69-.02-1.04Z"/>
            <path class="cls-11" d="M333.21,365.98v4.68c0,1.15-.73,2.18-1.81,2.56l-8.97,3.18c-.39.14-.83.05-1.13-.24h0c-.46-.43-.47-1.15-.04-1.59l5.74-5.87.04-4.49,6.17,1.77Z"/>
            <path class="cls-11" d="M323.32,300.23v7.16l3.28,60.91s2.69,3.01,7.76,0v-29.28s.11-31.64.11-31.64l-11.15-7.16Z"/>
            <path class="cls-11" d="M350.93,373.43l1.12,6.66c.13.77.14,1.54.05,2.29l-.54,4.14c-.04.2-.2.33-.39.33h-1.4c-.17,0-.33-.11-.41-.28l-1.59-3.16c-.66-1.32-1.01-2.78-1.02-4.24l-.03-8.92,3.38-1.84.84,5.01Z"/>
            <path class="cls-11" d="M346.81,309.12l2.21,32.34,3.43,33.73s-2.73,3.27-7.32,0l-7.32-39.54-3.43-18.78-2.04-9.48,14.47,1.73Z"/>
            <g class="cls-1">
              <path class="cls-35" d="M335.24,316.87l-.66-.34c-4.02-2.06-7.36-5.23-9.63-9.14h0l5.14-8.62,13.16,4.99,3.41,4.83v7.91l-11.42.36Z"/>
            </g>
            <g>
              <path class="cls-19" d="M327.77,271.28c3.65.93,7.28,1.9,10.99,2.56.65.11,1.29.22,1.94.32,1.46.22,2.93.38,4.4.48,1.81.12,4.41.52,6.16-.07.03,0,.06-.02.09-.03,0-.16-.02-.31-.06-.46-.41-1.74-2.9-3.01-4.3-3.67-1.55-.73-3.15-1.41-4.78-1.99-3.18-1.13-6.48-1.87-9.84-1.91-1.83-.02-2.76.23-3.95.72-1.16.48-2.2,1.68-2.73,2.87-.84,1.9.76.83,2.07,1.16Z"/>
              <path class="cls-75" d="M325.7,270.11c.1-.2.54-.89.39-.69.14-.2.28-.4.43-.6.02-.02.33-.41.55-.66.13-.1.26-.21.39-.3.12-.09.8-.63.96-.61-.59.31-.63.35-.13.11.12-.05.23-.1.35-.14.36-.14.72-.24,1.09-.36-1.11.37-.04.01.26-.04.85-.14,1.69-.15,2.54-.22.04,0,.07,0,.1,0,.07,0,.14,0,.21.01.4.02.79.06,1.19.1.84.09,1.68.23,2.51.4.37.08.74.16,1.11.25.26.06,1.33.42.24.06,1.74.57,3.48,1.1,5.2,1.72,1.19.43,2.36.88,3.53,1.38.44.27.88.55,1.32.82.9.56,1.69.95,2.27,1.37,1.21.87,1.53,1.86.07,4.64-2.39,4.56-3.09,15-3.23,19.83-.07,2.38,0,4.78.06,7.2-3.75,1.96-8.33,1.99-12.24.08l-.58-.28-5.95-2.92-1.53-.75c-.79-.39-1.29-1.16-1.29-2v-28.05c.06-.12.11-.23.17-.35Z"/>
              <g>
                <path class="cls-35" d="M325.5,272.72c.09,1.05.28,2.04.28,3.12v25.05c0,.84.45,4.72,1.23,5.1l1.04.21c1.42-.02,2.84-.04,4.26-.04,2.98-.01,5.97.04,8.94-.28.66-.07,1.32-.16,1.97-.27.41-.07.82-.14,1.22-.23,0,0,.01,0,.02,0,.04-.01.1-.03.19-.06.59-.18,1.16-.37,1.74-.59.11-.09.24-.18.37-.26.03-.05.09-.1.15-.15.06-.07.12-.13.16-.17.04-.05.19-.24.24-.38.1-.25.2-.5.31-.75-.18-1.14-.55-1.65-.58-3.41-.11-5.75.02-17.84,2.25-24.65.72-2.2-1.09-3.75-3.08-4.82-1.07-.57-2.19-1-3.01-1.32-.68-.27-1.42-.55-2.2-.81h0c-4.55-1.56-10.37-2.74-13.83.88-.23.24-.46.52-.67.82-.62.9-1.09,2.02-1,3.02Z"/>
                <ellipse class="cls-35" cx="336.96" cy="304.06" rx="10.77" ry="5.59"/>
              </g>
              <path class="cls-69" d="M322.39,308.83c-.12-.76-.04-1.65.04-2.74.18-2.31.36-4.61.54-6.92.24-3,.48-6.01.71-9.02.24-3.02.48-6.03.72-9.05.18-2.34.37-4.68.56-7.01.08-1.03.08-1.97.32-2.9.09-.36.23-.71.41-1.07.1-.2.54-.89.39-.69.14-.2.28-.4.43-.6.73-.95,1.84-1.68,3.02-1.91.74-.09,1.27-.16,1.67-.21-1.82,1.3-1.7,3.12-1.84,5.42-.08,1.42-.11,3.44-.13,4.74-.01.76-.02,1.2-.05,1.85l-.73,27.31v4.56c0,2.28-2.44,1.7-3.8.99-1.53-.8-2.11-1.64-2.28-2.75Z"/>
              <path class="cls-59" d="M334.28,302.51c0,3.38,0,6.76.01,10.14,0,1.14.07,2.44.94,3.18.51.44,1.2.58,1.86.69,1.05.18,2.1.31,3.16.4.91-.08,1.81-.2,2.7-.36.25-.05.5-.09.75-.14.07-.01.24-.05.38-.08.05-.01.1-.02.13-.03.1-.03.19-.05.29-.08.19-.05.37-.11.56-.17.03-.01.07-.02.1-.03.86-.27,1.66-.65,2.49-.98.13-.08.27-.16.4-.25.18-.12.39-.35.6-.52.04-.11.05-.18.07-.21,0,.04-.03.12-.07.21,0,0,.01-.01.02-.02.02-.03.04-.05.06-.08.02-.06.05-.11.08-.17,0-.01.01-.02.02-.04-.01-2.36-.02-4.73-.04-7.09-.03-5.94-.06-11.87-.09-17.81,0-.85,0-1.71.04-2.56.04-.78.11-1.56.26-2.34.55-2.83,2.06-5.45,2.3-8.32.08-.96,0-1.98-.53-2.8-.08-.13-.18-.25-.28-.36-.41-.46-.94-.81-1.47-1.13-2.55-1.55-5.3-2.77-8.17-3.6.9,2.11,0,4.54-1.16,6.52-1.18,2.02-2.11,4.17-2.84,6.4-2.25,6.88-2.59,14.54-2.58,21.61Z"/>
              <g class="cls-1">
                <path class="cls-35" d="M345.21,281.22c.3-2.08,1.41-3.94,2.51-5.74.44-.72.89-1.46,1.52-2.02.34-.31.75-.56,1.19-.71.09.08.18.15.28.23.02.03.05.07.08.1.53.81.61,1.83.53,2.8-.25,2.87-1.76,5.49-2.3,8.32-.15.77-.23,1.55-.26,2.34-.34,6.79.02,13.58.05,20.37.01,2.36.02,4.73.02,7.12-.03.06-.05.11-.08.17-.02.02-.04.05-.08.09.03-.09.06-.17.06-.21-.01.03-.03.1-.07.21-.21.17-.42.39-.6.52-.13.09-.27.17-.4.25-.84.32-1.64.7-2.51.94-.41-1.06-.6-2.2-.6-3.18v-8.16c0-7.71-.41-15.84.67-23.44Z"/>
              </g>
            </g>
            <g>
              <path class="cls-35" d="M339.49,267.06c-.53-.82-1.5-1.43-1.5-1.43-.2-.08-.4-.15-.59-.21-.39-.32-.85-.51-1.37-.51-2.99,0-4.71,3.16-5.42,5.75-.22.81.41,1.61,1.23,1.54l1.74-.14,1.97,1.55c.93.73,2.28.56,2.99-.41.57-.77,1.12-1.81,1.3-3.11.18-1.25.04-2.42-.34-3.01Z"/>
              <path class="cls-14" d="M338.67,266.29c-.01-.08-1.41-5.74-1.44-5.82l-.36-.18-.59.55c-.44-.39-1.35-.36-1.82.05-.71.61-1.36,1.42-1.89,2.26-.15,2.16.06.16-.06,4.92.23.38.21,2.15.36,2.35.63.84,1.08.99,1.61,1.09,1.66.32,4.66-1.97,4.2-5.22Z"/>
            </g>
            <g>
              <path class="cls-11" d="M333.17,263.23c-2.15.18-4.35-1.23-4.9-3.37-.2-.77-.1-1.59-.14-2.39-.08-1.32-1.03-3.46-.09-4.64.67-.84,2.06-.76,3.02-.84,1.98-.16,3.98-.09,5.94.22,2.41.38,4.25,2.58,3.74,5.09-.24,1.19-.99,2.24-1.18,3.45-.09.56-.06,1.16-.27,1.69-.61,1.5-2.26.3-3.36.23-.89-.06-1.84.48-2.75.56Z"/>
              <path class="cls-14" d="M335.97,255.39c-.09-.03-.18-.06-.27-.08-1.76-.49-5.56-.78-6.61,1.17-.47.88-.62,1.71-.63,2.7-.02,2.45-.65,5.68,2.73,6.48,3.5.82,4.79-2.65,4.79-5.38v-4.89Z"/>
              <path class="cls-11" d="M338.26,255.67c.33-.82-.04-1.81-.7-2.39-.67-.58-1.57-.83-2.45-.91-1.96-.18-10.08,3.1-6.65,5.08,3.7,2.13,8.45,1.58,9.81-1.78Z"/>
              <path class="cls-14" d="M335.59,261.46c0,.9.93,1.29,1.71.97.31-.12.62-.26.86-.48.43-.39.59-1.05.39-1.6-.69-1.89-2.96-.35-2.96,1.11Z"/>
              <path class="cls-11" d="M328.16,263.34c.11-.4.32-.75.69-.97.49-.3,1.12-.27,1.66-.07.54.2.99.56,1.44.93.44.36.88.74,1.4.99,2.8,1.35,1.89-4.68,1.89-5.86,0-.33.3-.6.66-.6s.66.27.66.6c0,1.25.38,4.11.14,5.26-.44,2.09-3.02,4.19-5.09,4.54-1.29.22-2.4-.47-2.95-1.62-.36-.75-.75-2.17-.48-3.2Z"/>
            </g>
            <g>
              <path class="cls-68" d="M302.98,315.59s-.02-.01-.03-.02c-.01,0-.02,0-.03-.01l.06.03Z"/>
              <path class="cls-14" d="M310,313.54c-.04.29.13.78-.2.93-.14.06-.27.04-.42-.05-.42-.26-.39-1.05-.47-1.4-.07-.31-.12-.65-.21-.99-.09-.2-.16-.41-.23-.63-.06.01-.14.05-.25.12-.6.4-1.07,1-1.58,1.48-.5.47-2.04,2.3-3.31,2.96-.24-.56-.44-1.13-.6-1.72-.27-.96-.1-1.98.39-2.85.03-.05.05-.09.07-.14.8-1.58,2.18-5.64,4.66-4.87,3,.93,2.39,5.27,2.15,7.14Z"/>
            </g>
          </g>
          <g>
            <g>
              <path class="cls-56" d="M290.9,310.42c0,3.12,2.06,6.24,6.19,8.63,8.27,4.77,21.65,4.77,29.92,0,4.14-2.38,6.21-5.52,6.19-8.65-.02-3.13-2.07-6.23-6.19-8.61-8.27-4.77-21.65-4.77-29.92,0-4.13,2.38-6.19,5.52-6.19,8.63ZM299.06,317.91c-7.17-4.14-7.17-10.85,0-14.99,7.17-4.14,18.8-4.14,25.97,0,7.17,4.14,7.17,10.85,0,14.99-7.17,4.14-18.8,4.14-25.97,0Z"/>
              <path class="cls-57" d="M312.05,321.02c-10.14,0-18.36-4.74-18.36-10.59s8.22-10.59,18.36-10.59c10.14,0,18.36,4.74,18.36,10.59s-8.22,10.59-18.36,10.59Z"/>
              <path class="cls-37" d="M297.1,319.06c8.26,4.77,21.65,4.77,29.91,0,4.15-2.39,6.21-5.53,6.19-8.66v4.76c0,3.13-2.05,6.27-6.19,8.66-8.26,4.77-21.65,4.77-29.91,0-4.13-2.38-6.19-5.51-6.19-8.63v-4.76c0,3.13,2.06,6.25,6.19,8.63Z"/>
              <g class="cls-93">
                <g>
                  <path class="cls-35" d="M302.69,304.61c-2.31,1.33-3.45,3.21-3.2,5.24.25,2.03,1.88,4.03,4.54,5.57,1.99,1.15,4.43,1.98,7.04,2.37,2.61.4,5.25.35,7.6-.12,2.35-.48,4.3-1.37,5.6-2.57,1.3-1.19,1.89-2.64,1.7-4.15-.19-1.51-1.15-3.02-2.76-4.34-1.62-1.32-3.8-2.38-6.3-3.06-2.49-.68-5.17-.94-7.7-.75-2.53.19-4.8.82-6.52,1.81h0ZM322.17,315.84c-2.18,1.25-5.25,1.88-8.56,1.74-3.31-.14-6.57-1.03-9.09-2.47-1.87-1.08-3.21-2.41-3.87-3.83-.66-1.42-.59-2.86.19-4.14.79-1.28,2.25-2.33,4.2-3.04,1.95-.71,4.31-1.03,6.78-.92,2.47.1,4.93.63,7.08,1.5,2.15.87,3.9,2.06,5,3.42,1.11,1.36,1.54,2.81,1.23,4.19-.3,1.38-1.33,2.62-2.95,3.55h0Z"/>
                  <g class="cls-97">
                    <g>
                      <path class="cls-35" d="M306.31,310.18c.66-.38,1.79-.55,3.35-.53.74.02,1.47.07,2.03.13,0,0,.12.49.24,1.03-.54-.06-1.28-.12-2.03-.14-1.4-.03-1.99.14-2.24.29-.94.54-.79,1.51.33,2.17,1.12.66,2.8.73,3.76.19.04-.03.09-.06.14-.1-.13.24-.32.48-.6.64-1.73,1-3.45.4-3.57.35-.3-.12-.6-.25-.86-.41-1.87-1.09-2.12-2.7-.54-3.61h0Z"/>
                      <path class="cls-35" d="M319.14,310.6c-.66.38-1.79.55-3.35.53-.74-.02-1.47-.07-2.03-.13,0,0-.12-.49-.24-1.03.54.06,1.28.12,2.03.14,1.39.03,1.99-.14,2.24-.28.94-.54.79-1.51-.33-2.17-1.12-.66-2.8-.73-3.76-.19-.04.03-.09.06-.14.1.13-.24.32-.48.6-.64,1.73-1,3.45-.41,3.57-.35.3.12.6.25.86.41,1.87,1.08,2.12,2.7.54,3.61h0Z"/>
                      <path class="cls-48" d="M313.29,308.75c-.02-.23.03-1.26.89-1.8,1.54-.94,3.32-.44,3.53-.37-1.79-.68-4.02-.66-5.36.1-1.09.63-.96,1.98-.66,3.09,0,0,.12.49.24,1.03,0,0,.16.62.22,1.22.02.23-.04,1.25-.9,1.79-1.57.97-3.41.42-3.54.37,1.79.69,4.03.67,5.38-.1,1.09-.63.96-1.98.66-3.1h0s-.12-.49-.24-1.03c0,0-.17-.62-.23-1.23v.02Z"/>
                    </g>
                  </g>
                </g>
              </g>
            </g>
            <g>
              <path class="cls-64" d="M293.01,302.74c0,3.12,2.06,6.24,6.19,8.63,8.27,4.77,21.65,4.77,29.92,0,4.14-2.38,6.21-5.52,6.19-8.65-.02-3.13-2.07-6.23-6.19-8.61-8.27-4.77-21.65-4.77-29.92,0-4.13,2.38-6.19,5.52-6.19,8.63ZM301.17,310.23c-7.17-4.14-7.17-10.85,0-14.99,7.17-4.14,18.8-4.14,25.97,0,7.17,4.14,7.17,10.85,0,14.99-7.17,4.14-18.8,4.14-25.97,0Z"/>
              <path class="cls-44" d="M314.16,313.33c-10.14,0-18.36-4.74-18.36-10.59s8.22-10.59,18.36-10.59c10.14,0,18.36,4.74,18.36,10.59s-8.22,10.59-18.36,10.59Z"/>
              <path class="cls-54" d="M299.21,311.37c8.26,4.77,21.65,4.77,29.91,0,4.15-2.39,6.21-5.53,6.19-8.66v4.76c0,3.13-2.05,6.27-6.19,8.66-8.26,4.77-21.65,4.77-29.91,0-4.13-2.38-6.19-5.51-6.19-8.63v-4.76c0,3.13,2.06,6.25,6.19,8.63Z"/>
              <g class="cls-90">
                <g>
                  <path class="cls-35" d="M304.8,296.93c-2.31,1.33-3.45,3.21-3.2,5.24.25,2.03,1.88,4.03,4.54,5.57,1.99,1.15,4.43,1.98,7.04,2.37,2.61.4,5.25.35,7.6-.12,2.35-.48,4.3-1.37,5.6-2.57,1.3-1.19,1.89-2.64,1.7-4.15-.19-1.51-1.15-3.02-2.76-4.34-1.62-1.32-3.8-2.38-6.3-3.06-2.49-.68-5.17-.94-7.7-.75-2.53.19-4.8.82-6.52,1.81h0ZM324.27,308.16c-2.18,1.25-5.25,1.88-8.56,1.74-3.31-.14-6.57-1.03-9.09-2.47-1.87-1.08-3.21-2.41-3.87-3.83-.66-1.42-.59-2.86.19-4.14.79-1.28,2.25-2.33,4.2-3.04,1.95-.71,4.31-1.03,6.78-.92,2.47.1,4.93.63,7.08,1.5,2.15.87,3.9,2.06,5,3.42,1.11,1.36,1.54,2.81,1.23,4.19-.3,1.38-1.33,2.62-2.95,3.55h0Z"/>
                  <g class="cls-85">
                    <g>
                      <path class="cls-35" d="M308.42,302.5c.66-.38,1.79-.55,3.35-.53.74.02,1.47.07,2.03.13,0,0,.12.49.24,1.03-.54-.06-1.28-.12-2.03-.14-1.4-.03-1.99.14-2.24.29-.94.54-.79,1.51.33,2.17,1.12.66,2.8.73,3.76.19.04-.03.09-.06.14-.1-.13.24-.32.48-.6.64-1.73,1-3.45.4-3.57.35-.3-.12-.6-.25-.86-.41-1.87-1.09-2.12-2.7-.54-3.61h0Z"/>
                      <path class="cls-35" d="M321.25,302.92c-.66.38-1.79.55-3.35.53-.74-.02-1.47-.07-2.03-.13,0,0-.12-.49-.24-1.03.54.06,1.28.12,2.03.14,1.39.03,1.99-.14,2.24-.28.94-.54.79-1.51-.33-2.17-1.12-.66-2.8-.73-3.76-.19-.04.03-.09.06-.14.1.13-.24.32-.48.6-.64,1.73-1,3.45-.41,3.57-.35.3.12.6.25.86.41,1.87,1.08,2.12,2.7.54,3.61h0Z"/>
                      <path class="cls-48" d="M315.4,301.06c-.02-.23.03-1.26.89-1.8,1.54-.94,3.32-.44,3.53-.37-1.79-.68-4.02-.66-5.36.1-1.09.63-.96,1.98-.66,3.09,0,0,.12.49.24,1.03,0,0,.16.62.22,1.22.02.23-.04,1.25-.9,1.79-1.57.97-3.41.42-3.54.37,1.79.69,4.03.67,5.38-.1,1.09-.63.96-1.98.66-3.1h0s-.12-.49-.24-1.03c0,0-.17-.62-.23-1.23v.02Z"/>
                    </g>
                  </g>
                </g>
              </g>
            </g>
            <path class="cls-10" d="M293.82,293.7c4.91-2.83,11.44-4.14,17.84-3.95h2.88v1.65c1.91.6,3.7,1.36,5.32,2.3,9.14,5.31,9.09,13.92-.11,19.23-1.58.91-3.34,1.66-5.21,2.25v1.72h-4.88c-5.8-.1-11.54-1.41-15.95-3.97-9.14-5.31-9.1-13.92.11-19.24h0Z"/>
            <g>
              <path class="cls-34" d="M294.16,295c0,3.12,2.06,6.24,6.19,8.63,8.27,4.77,21.65,4.77,29.92,0,4.14-2.38,6.21-5.52,6.19-8.65-.02-3.13-2.07-6.23-6.19-8.61-8.27-4.77-21.65-4.77-29.92,0-4.13,2.38-6.19,5.52-6.19,8.63ZM302.32,302.48c-7.17-4.14-7.17-10.85,0-14.99,7.17-4.14,18.8-4.14,25.97,0,7.17,4.14,7.17,10.85,0,14.99-7.17,4.14-18.8,4.14-25.97,0Z"/>
              <path class="cls-72" d="M315.31,305.59c-10.14,0-18.36-4.74-18.36-10.59s8.22-10.59,18.36-10.59c10.14,0,18.36,4.74,18.36,10.59s-8.22,10.59-18.36,10.59Z"/>
              <path class="cls-9" d="M300.36,303.63c8.26,4.77,21.65,4.77,29.91,0,4.15-2.39,6.21-5.53,6.19-8.66v4.76c0,3.13-2.05,6.27-6.19,8.66-8.26,4.77-21.65,4.77-29.91,0-4.13-2.38-6.19-5.51-6.19-8.63v-4.76c0,3.13,2.06,6.25,6.19,8.63Z"/>
              <g class="cls-78">
                <g>
                  <path class="cls-35" d="M305.95,289.19c-2.31,1.33-3.45,3.21-3.2,5.24.25,2.03,1.88,4.03,4.54,5.57,1.99,1.15,4.43,1.98,7.04,2.37,2.61.4,5.25.35,7.6-.12,2.35-.48,4.3-1.37,5.6-2.57,1.3-1.19,1.89-2.64,1.7-4.15-.19-1.51-1.15-3.02-2.76-4.34-1.62-1.32-3.8-2.38-6.3-3.06-2.49-.68-5.17-.94-7.7-.75-2.53.19-4.8.82-6.52,1.81h0ZM325.43,300.42c-2.18,1.25-5.25,1.88-8.56,1.74-3.31-.14-6.57-1.03-9.09-2.47-1.87-1.08-3.21-2.41-3.87-3.83-.66-1.42-.59-2.86.19-4.14.79-1.28,2.25-2.33,4.2-3.04,1.95-.71,4.31-1.03,6.78-.92,2.47.1,4.93.63,7.08,1.5,2.15.87,3.9,2.06,5,3.42,1.11,1.36,1.54,2.81,1.23,4.19-.3,1.38-1.33,2.62-2.95,3.55h0Z"/>
                  <g class="cls-99">
                    <g>
                      <path class="cls-35" d="M309.57,294.75c.66-.38,1.79-.55,3.35-.53.74.02,1.47.07,2.03.13,0,0,.12.49.24,1.03-.54-.06-1.28-.12-2.03-.14-1.4-.03-1.99.14-2.24.29-.94.54-.79,1.51.33,2.17,1.12.66,2.8.73,3.76.19.04-.03.09-.06.14-.1-.13.24-.32.48-.6.64-1.73,1-3.45.4-3.57.35-.3-.12-.6-.25-.86-.41-1.87-1.09-2.12-2.7-.54-3.61h0Z"/>
                      <path class="cls-35" d="M322.4,295.18c-.66.38-1.79.55-3.35.53-.74-.02-1.47-.07-2.03-.13,0,0-.12-.49-.24-1.03.54.06,1.28.12,2.03.14,1.39.03,1.99-.14,2.24-.28.94-.54.79-1.51-.33-2.17-1.12-.66-2.8-.73-3.76-.19-.04.03-.09.06-.14.1.13-.24.32-.48.6-.64,1.73-1,3.45-.41,3.57-.35.3.12.6.25.86.41,1.87,1.08,2.12,2.7.54,3.61h0Z"/>
                      <path class="cls-48" d="M316.55,293.32c-.02-.23.03-1.26.89-1.8,1.54-.94,3.32-.44,3.53-.37-1.79-.68-4.02-.66-5.36.1-1.09.63-.96,1.98-.66,3.09,0,0,.12.49.24,1.03,0,0,.16.62.22,1.22.02.23-.04,1.25-.9,1.79-1.57.97-3.41.42-3.54.37,1.79.69,4.03.67,5.38-.1,1.09-.63.96-1.98.66-3.1h0s-.12-.49-.24-1.03c0,0-.17-.62-.23-1.23v.02Z"/>
                    </g>
                  </g>
                </g>
              </g>
            </g>
            <g>
              <path class="cls-22" d="M290.9,287.06c0,3.12,2.06,6.24,6.19,8.63,8.27,4.77,21.65,4.77,29.92,0,4.14-2.38,6.21-5.52,6.19-8.65-.02-3.13-2.07-6.23-6.19-8.61-8.27-4.77-21.65-4.77-29.92,0-4.13,2.38-6.19,5.52-6.19,8.63ZM299.06,294.54c-7.17-4.14-7.17-10.85,0-14.99,7.17-4.14,18.8-4.14,25.97,0,7.17,4.14,7.17,10.85,0,14.99-7.17,4.14-18.8,4.14-25.97,0Z"/>
              <path class="cls-40" d="M312.05,297.65c-10.14,0-18.36-4.74-18.36-10.59s8.22-10.59,18.36-10.59c10.14,0,18.36,4.74,18.36,10.59s-8.22,10.59-18.36,10.59Z"/>
              <path class="cls-39" d="M297.1,295.69c8.26,4.77,21.65,4.77,29.91,0,4.15-2.39,6.21-5.53,6.19-8.66v4.76c0,3.13-2.05,6.27-6.19,8.66-8.26,4.77-21.65,4.77-29.91,0-4.13-2.38-6.19-5.51-6.19-8.63v-4.76c0,3.13,2.06,6.25,6.19,8.63Z"/>
              <g class="cls-86">
                <g>
                  <path class="cls-35" d="M302.69,281.25c-2.31,1.33-3.45,3.21-3.2,5.24.25,2.03,1.88,4.03,4.54,5.57,1.99,1.15,4.43,1.98,7.04,2.37,2.61.4,5.25.35,7.6-.12,2.35-.48,4.3-1.37,5.6-2.57,1.3-1.19,1.89-2.64,1.7-4.15-.19-1.51-1.15-3.02-2.76-4.34-1.62-1.32-3.8-2.38-6.3-3.06-2.49-.68-5.17-.94-7.7-.75-2.53.19-4.8.82-6.52,1.81h0ZM322.17,292.48c-2.18,1.25-5.25,1.88-8.56,1.74-3.31-.14-6.57-1.03-9.09-2.47-1.87-1.08-3.21-2.41-3.87-3.83-.66-1.42-.59-2.86.19-4.14.79-1.28,2.25-2.33,4.2-3.04,1.95-.71,4.31-1.03,6.78-.92,2.47.1,4.93.63,7.08,1.5,2.15.87,3.9,2.06,5,3.42,1.11,1.36,1.54,2.81,1.23,4.19-.3,1.38-1.33,2.62-2.95,3.55h0Z"/>
                  <g class="cls-83">
                    <g>
                      <path class="cls-35" d="M306.31,286.81c.66-.38,1.79-.55,3.35-.53.74.02,1.47.07,2.03.13,0,0,.12.49.24,1.03-.54-.06-1.28-.12-2.03-.14-1.4-.03-1.99.14-2.24.29-.94.54-.79,1.51.33,2.17,1.12.66,2.8.73,3.76.19.04-.03.09-.06.14-.1-.13.24-.32.48-.6.64-1.73,1-3.45.4-3.57.35-.3-.12-.6-.25-.86-.41-1.87-1.09-2.12-2.7-.54-3.61h0Z"/>
                      <path class="cls-35" d="M319.14,287.24c-.66.38-1.79.55-3.35.53-.74-.02-1.47-.07-2.03-.13,0,0-.12-.49-.24-1.03.54.06,1.28.12,2.03.14,1.39.03,1.99-.14,2.24-.28.94-.54.79-1.51-.33-2.17-1.12-.66-2.8-.73-3.76-.19-.04.03-.09.06-.14.1.13-.24.32-.48.6-.64,1.73-1,3.45-.41,3.57-.35.3.12.6.25.86.41,1.87,1.08,2.12,2.7.54,3.61h0Z"/>
                      <path class="cls-48" d="M313.29,285.38c-.02-.23.03-1.26.89-1.8,1.54-.94,3.32-.44,3.53-.37-1.79-.68-4.02-.66-5.36.1-1.09.63-.96,1.98-.66,3.09,0,0,.12.49.24,1.03,0,0,.16.62.22,1.22.02.23-.04,1.25-.9,1.79-1.57.97-3.41.42-3.54.37,1.79.69,4.03.67,5.38-.1,1.09-.63.96-1.98.66-3.1h0s-.12-.49-.24-1.03c0,0-.17-.62-.23-1.23v.02Z"/>
                    </g>
                  </g>
                </g>
              </g>
            </g>
            <g>
              <path class="cls-62" d="M294.16,280.61c0,3.12,2.06,6.24,6.19,8.63,8.27,4.77,21.65,4.77,29.92,0,4.14-2.38,6.21-5.52,6.19-8.65-.02-3.13-2.07-6.23-6.19-8.61-8.27-4.77-21.65-4.77-29.92,0-4.13,2.38-6.19,5.52-6.19,8.63ZM302.32,288.1c-7.17-4.14-7.17-10.85,0-14.99,7.17-4.14,18.8-4.14,25.97,0,7.17,4.14,7.17,10.85,0,14.99-7.17,4.14-18.8,4.14-25.97,0Z"/>
              <path class="cls-8" d="M315.31,291.21c-10.14,0-18.36-4.74-18.36-10.59,0-5.85,8.22-10.59,18.36-10.59s18.36,4.74,18.36,10.59-8.22,10.59-18.36,10.59Z"/>
              <path class="cls-23" d="M300.36,289.25c8.26,4.77,21.65,4.77,29.91,0,4.15-2.39,6.21-5.53,6.19-8.66v4.76c0,3.13-2.05,6.27-6.19,8.66-8.26,4.77-21.65,4.77-29.91,0-4.13-2.38-6.19-5.51-6.19-8.63v-4.76c0,3.13,2.06,6.25,6.19,8.63Z"/>
              <g class="cls-98">
                <g>
                  <path class="cls-35" d="M305.95,274.8c-2.31,1.33-3.45,3.21-3.2,5.24.25,2.03,1.88,4.03,4.54,5.57,1.99,1.15,4.43,1.98,7.04,2.37,2.61.4,5.25.35,7.6-.12,2.35-.48,4.3-1.37,5.6-2.57,1.3-1.19,1.89-2.64,1.7-4.15-.19-1.51-1.15-3.02-2.76-4.34-1.62-1.32-3.8-2.38-6.3-3.06-2.49-.68-5.17-.94-7.7-.75-2.53.19-4.8.82-6.52,1.81h0ZM325.43,286.03c-2.18,1.25-5.25,1.88-8.56,1.74-3.31-.14-6.57-1.03-9.09-2.47-1.87-1.08-3.21-2.41-3.87-3.83-.66-1.42-.59-2.86.19-4.14.79-1.28,2.25-2.33,4.2-3.04,1.95-.71,4.31-1.03,6.78-.92,2.47.1,4.93.63,7.08,1.5,2.15.87,3.9,2.06,5,3.42,1.11,1.36,1.54,2.81,1.23,4.19-.3,1.38-1.33,2.62-2.95,3.55h0Z"/>
                  <g class="cls-92">
                    <g>
                      <path class="cls-35" d="M309.57,280.37c.66-.38,1.79-.55,3.35-.53.74.02,1.47.07,2.03.13,0,0,.12.49.24,1.03-.54-.06-1.28-.12-2.03-.14-1.4-.03-1.99.14-2.24.29-.94.54-.79,1.51.33,2.17,1.12.66,2.8.73,3.76.19.04-.03.09-.06.14-.1-.13.24-.32.48-.6.64-1.73,1-3.45.4-3.57.35-.3-.12-.6-.25-.86-.41-1.87-1.09-2.12-2.7-.54-3.61h0Z"/>
                      <path class="cls-35" d="M322.4,280.79c-.66.38-1.79.55-3.35.53-.74-.02-1.47-.07-2.03-.13,0,0-.12-.49-.24-1.03.54.06,1.28.12,2.03.14,1.39.03,1.99-.14,2.24-.28.94-.54.79-1.51-.33-2.17-1.12-.66-2.8-.73-3.76-.19-.04.03-.09.06-.14.1.13-.24.32-.48.6-.64,1.73-1,3.45-.41,3.57-.35.3.12.6.25.86.41,1.87,1.08,2.12,2.7.54,3.61h0Z"/>
                      <path class="cls-48" d="M316.55,278.94c-.02-.23.03-1.26.89-1.8,1.54-.94,3.32-.44,3.53-.37-1.79-.68-4.02-.66-5.36.1-1.09.63-.96,1.98-.66,3.09,0,0,.12.49.24,1.03,0,0,.16.62.22,1.22.02.23-.04,1.25-.9,1.79-1.57.97-3.41.42-3.54.37,1.79.69,4.03.67,5.38-.1,1.09-.63.96-1.98.66-3.1h0s-.12-.49-.24-1.03c0,0-.17-.62-.23-1.23v.02Z"/>
                    </g>
                  </g>
                </g>
              </g>
            </g>
          </g>
          <path class="cls-14" d="M314.23,313.52c-.02-.15-.04-.31-.03-.5.01-.93,1.56-2.41,2.06-3.17.37-.58.88-1.15,1.16-1.8.05-.12.08-.21.08-.27-.21-.03-.42-.06-.62-.11-.33-.02-.66-.02-.96-.03-.34-.01-1.08.15-1.38-.21-.11-.13-.14-.26-.1-.4.09-.35.58-.27.85-.36,1.72-.56,5.36-2.26,6.73.59,1.05,2.19-1.83,4.32-3.19,5.32-.37.27-1.27.95-2.17,1.4-.86.01-1.69-.11-2.42-.48Z"/>
          <path class="cls-14" d="M328.31,307.08c.31-1.08.47-2.17.64-3.29.01-.12.02-.21.03-.29,0-.19.02-.37.02-.56.02-.64.03-1.28.03-1.91-2.48,1.37-5.05,2.69-7.09,3.78-.93.49-3.29,1.85-3.83,2.73-.6.98-.67,1.55-.43,1.86.65.82,3.18-.44,4.18-.78,1.74-.59,4.38-1.01,6.45-1.54Z"/>
          <path class="cls-70" d="M322.35,304.66l13.67-9.24c.07-.05.3-.33.63-.78,3.67-5.01,6.23-10.7,7.57-16.7,1.87-1.51,3.53-4.18,5.36-5.73.31-.26,1.68,1.22,1.92,1.46.55.55.55,1.32.45,2.04-.64,4.61-.89,9.57-2.54,14.06-1.77,4.83-5.23,8.67-8.9,12.16-.75.71-1.64,1.27-2.61,1.63l-14.58,5.44-1.25-2.93c-.4-.84.18-.5.29-1.43Z"/>
        </g>
      </g>
    </g>
  </g>
</svg>